G04 #@! TF.GenerationSoftware,KiCad,Pcbnew,8.0.5*
G04 #@! TF.CreationDate,2024-10-01T14:56:49-07:00*
G04 #@! TF.ProjectId,gr25_nodes,67723235-5f6e-46f6-9465-732e6b696361,rev?*
G04 #@! TF.SameCoordinates,Original*
G04 #@! TF.FileFunction,AssemblyDrawing,Top*
%FSLAX46Y46*%
G04 Gerber Fmt 4.6, Leading zero omitted, Abs format (unit mm)*
G04 Created by KiCad (PCBNEW 8.0.5) date 2024-10-01 14:56:49*
%MOMM*%
%LPD*%
G01*
G04 APERTURE LIST*
%ADD10C,0.150000*%
%ADD11C,0.060000*%
%ADD12C,0.080000*%
%ADD13C,0.120000*%
%ADD14C,0.040000*%
%ADD15C,0.100000*%
G04 APERTURE END LIST*
D10*
X125384819Y-31142857D02*
X124908628Y-31476190D01*
X125384819Y-31714285D02*
X124384819Y-31714285D01*
X124384819Y-31714285D02*
X124384819Y-31333333D01*
X124384819Y-31333333D02*
X124432438Y-31238095D01*
X124432438Y-31238095D02*
X124480057Y-31190476D01*
X124480057Y-31190476D02*
X124575295Y-31142857D01*
X124575295Y-31142857D02*
X124718152Y-31142857D01*
X124718152Y-31142857D02*
X124813390Y-31190476D01*
X124813390Y-31190476D02*
X124861009Y-31238095D01*
X124861009Y-31238095D02*
X124908628Y-31333333D01*
X124908628Y-31333333D02*
X124908628Y-31714285D01*
X124861009Y-30714285D02*
X124861009Y-30380952D01*
X125384819Y-30238095D02*
X125384819Y-30714285D01*
X125384819Y-30714285D02*
X124384819Y-30714285D01*
X124384819Y-30714285D02*
X124384819Y-30238095D01*
X125384819Y-29809523D02*
X124384819Y-29809523D01*
X124384819Y-29809523D02*
X124384819Y-29571428D01*
X124384819Y-29571428D02*
X124432438Y-29428571D01*
X124432438Y-29428571D02*
X124527676Y-29333333D01*
X124527676Y-29333333D02*
X124622914Y-29285714D01*
X124622914Y-29285714D02*
X124813390Y-29238095D01*
X124813390Y-29238095D02*
X124956247Y-29238095D01*
X124956247Y-29238095D02*
X125146723Y-29285714D01*
X125146723Y-29285714D02*
X125241961Y-29333333D01*
X125241961Y-29333333D02*
X125337200Y-29428571D01*
X125337200Y-29428571D02*
X125384819Y-29571428D01*
X125384819Y-29571428D02*
X125384819Y-29809523D01*
D11*
X123681927Y-30795237D02*
X123281927Y-30795237D01*
X123281927Y-30795237D02*
X123281927Y-30699999D01*
X123281927Y-30699999D02*
X123300975Y-30642856D01*
X123300975Y-30642856D02*
X123339070Y-30604761D01*
X123339070Y-30604761D02*
X123377165Y-30585714D01*
X123377165Y-30585714D02*
X123453356Y-30566666D01*
X123453356Y-30566666D02*
X123510499Y-30566666D01*
X123510499Y-30566666D02*
X123586689Y-30585714D01*
X123586689Y-30585714D02*
X123624784Y-30604761D01*
X123624784Y-30604761D02*
X123662880Y-30642856D01*
X123662880Y-30642856D02*
X123681927Y-30699999D01*
X123681927Y-30699999D02*
X123681927Y-30795237D01*
X123681927Y-30185714D02*
X123681927Y-30414285D01*
X123681927Y-30299999D02*
X123281927Y-30299999D01*
X123281927Y-30299999D02*
X123339070Y-30338095D01*
X123339070Y-30338095D02*
X123377165Y-30376190D01*
X123377165Y-30376190D02*
X123396213Y-30414285D01*
D10*
X112270057Y-37842856D02*
X112222438Y-37795237D01*
X112222438Y-37795237D02*
X112174819Y-37699999D01*
X112174819Y-37699999D02*
X112174819Y-37461904D01*
X112174819Y-37461904D02*
X112222438Y-37366666D01*
X112222438Y-37366666D02*
X112270057Y-37319047D01*
X112270057Y-37319047D02*
X112365295Y-37271428D01*
X112365295Y-37271428D02*
X112460533Y-37271428D01*
X112460533Y-37271428D02*
X112603390Y-37319047D01*
X112603390Y-37319047D02*
X113174819Y-37890475D01*
X113174819Y-37890475D02*
X113174819Y-37271428D01*
X112270057Y-36890475D02*
X112222438Y-36842856D01*
X112222438Y-36842856D02*
X112174819Y-36747618D01*
X112174819Y-36747618D02*
X112174819Y-36509523D01*
X112174819Y-36509523D02*
X112222438Y-36414285D01*
X112222438Y-36414285D02*
X112270057Y-36366666D01*
X112270057Y-36366666D02*
X112365295Y-36319047D01*
X112365295Y-36319047D02*
X112460533Y-36319047D01*
X112460533Y-36319047D02*
X112603390Y-36366666D01*
X112603390Y-36366666D02*
X113174819Y-36938094D01*
X113174819Y-36938094D02*
X113174819Y-36319047D01*
X112508152Y-35461904D02*
X113174819Y-35461904D01*
X112508152Y-35890475D02*
X113031961Y-35890475D01*
X113031961Y-35890475D02*
X113127200Y-35842856D01*
X113127200Y-35842856D02*
X113174819Y-35747618D01*
X113174819Y-35747618D02*
X113174819Y-35604761D01*
X113174819Y-35604761D02*
X113127200Y-35509523D01*
X113127200Y-35509523D02*
X113079580Y-35461904D01*
X112651009Y-34652380D02*
X112651009Y-34985713D01*
X113174819Y-34985713D02*
X112174819Y-34985713D01*
X112174819Y-34985713D02*
X112174819Y-34509523D01*
D12*
X114579530Y-36283333D02*
X114603340Y-36307142D01*
X114603340Y-36307142D02*
X114627149Y-36378571D01*
X114627149Y-36378571D02*
X114627149Y-36426190D01*
X114627149Y-36426190D02*
X114603340Y-36497618D01*
X114603340Y-36497618D02*
X114555720Y-36545237D01*
X114555720Y-36545237D02*
X114508101Y-36569047D01*
X114508101Y-36569047D02*
X114412863Y-36592856D01*
X114412863Y-36592856D02*
X114341435Y-36592856D01*
X114341435Y-36592856D02*
X114246197Y-36569047D01*
X114246197Y-36569047D02*
X114198578Y-36545237D01*
X114198578Y-36545237D02*
X114150959Y-36497618D01*
X114150959Y-36497618D02*
X114127149Y-36426190D01*
X114127149Y-36426190D02*
X114127149Y-36378571D01*
X114127149Y-36378571D02*
X114150959Y-36307142D01*
X114150959Y-36307142D02*
X114174768Y-36283333D01*
X114127149Y-36116666D02*
X114127149Y-35783333D01*
X114127149Y-35783333D02*
X114627149Y-35997618D01*
D10*
X123669105Y-38499999D02*
X123669105Y-38023809D01*
X123954820Y-38595237D02*
X122954820Y-38261904D01*
X122954820Y-38261904D02*
X123954820Y-37928571D01*
X123954820Y-37595237D02*
X122954820Y-37595237D01*
X122954820Y-37595237D02*
X123669105Y-37261904D01*
X123669105Y-37261904D02*
X122954820Y-36928571D01*
X122954820Y-36928571D02*
X123954820Y-36928571D01*
X123907201Y-36499999D02*
X123954820Y-36357142D01*
X123954820Y-36357142D02*
X123954820Y-36119047D01*
X123954820Y-36119047D02*
X123907201Y-36023809D01*
X123907201Y-36023809D02*
X123859581Y-35976190D01*
X123859581Y-35976190D02*
X123764343Y-35928571D01*
X123764343Y-35928571D02*
X123669105Y-35928571D01*
X123669105Y-35928571D02*
X123573867Y-35976190D01*
X123573867Y-35976190D02*
X123526248Y-36023809D01*
X123526248Y-36023809D02*
X123478629Y-36119047D01*
X123478629Y-36119047D02*
X123431010Y-36309523D01*
X123431010Y-36309523D02*
X123383391Y-36404761D01*
X123383391Y-36404761D02*
X123335772Y-36452380D01*
X123335772Y-36452380D02*
X123240534Y-36499999D01*
X123240534Y-36499999D02*
X123145296Y-36499999D01*
X123145296Y-36499999D02*
X123050058Y-36452380D01*
X123050058Y-36452380D02*
X123002439Y-36404761D01*
X123002439Y-36404761D02*
X122954820Y-36309523D01*
X122954820Y-36309523D02*
X122954820Y-36071428D01*
X122954820Y-36071428D02*
X123002439Y-35928571D01*
X123954820Y-34976190D02*
X123954820Y-35547618D01*
X123954820Y-35261904D02*
X122954820Y-35261904D01*
X122954820Y-35261904D02*
X123097677Y-35357142D01*
X123097677Y-35357142D02*
X123192915Y-35452380D01*
X123192915Y-35452380D02*
X123240534Y-35547618D01*
X123954820Y-34023809D02*
X123954820Y-34595237D01*
X123954820Y-34309523D02*
X122954820Y-34309523D01*
X122954820Y-34309523D02*
X123097677Y-34404761D01*
X123097677Y-34404761D02*
X123192915Y-34499999D01*
X123192915Y-34499999D02*
X123240534Y-34595237D01*
X123954820Y-33071428D02*
X123954820Y-33642856D01*
X123954820Y-33357142D02*
X122954820Y-33357142D01*
X122954820Y-33357142D02*
X123097677Y-33452380D01*
X123097677Y-33452380D02*
X123192915Y-33547618D01*
X123192915Y-33547618D02*
X123240534Y-33642856D01*
X122954820Y-32738094D02*
X122954820Y-32071428D01*
X122954820Y-32071428D02*
X123954820Y-32499999D01*
X123573867Y-31690475D02*
X123573867Y-30928571D01*
X122954820Y-30547618D02*
X122954820Y-29928571D01*
X122954820Y-29928571D02*
X123335772Y-30261904D01*
X123335772Y-30261904D02*
X123335772Y-30119047D01*
X123335772Y-30119047D02*
X123383391Y-30023809D01*
X123383391Y-30023809D02*
X123431010Y-29976190D01*
X123431010Y-29976190D02*
X123526248Y-29928571D01*
X123526248Y-29928571D02*
X123764343Y-29928571D01*
X123764343Y-29928571D02*
X123859581Y-29976190D01*
X123859581Y-29976190D02*
X123907201Y-30023809D01*
X123907201Y-30023809D02*
X123954820Y-30119047D01*
X123954820Y-30119047D02*
X123954820Y-30404761D01*
X123954820Y-30404761D02*
X123907201Y-30499999D01*
X123907201Y-30499999D02*
X123859581Y-30547618D01*
X123859581Y-29499999D02*
X123907201Y-29452380D01*
X123907201Y-29452380D02*
X123954820Y-29499999D01*
X123954820Y-29499999D02*
X123907201Y-29547618D01*
X123907201Y-29547618D02*
X123859581Y-29499999D01*
X123859581Y-29499999D02*
X123954820Y-29499999D01*
X122954820Y-29119047D02*
X122954820Y-28500000D01*
X122954820Y-28500000D02*
X123335772Y-28833333D01*
X123335772Y-28833333D02*
X123335772Y-28690476D01*
X123335772Y-28690476D02*
X123383391Y-28595238D01*
X123383391Y-28595238D02*
X123431010Y-28547619D01*
X123431010Y-28547619D02*
X123526248Y-28500000D01*
X123526248Y-28500000D02*
X123764343Y-28500000D01*
X123764343Y-28500000D02*
X123859581Y-28547619D01*
X123859581Y-28547619D02*
X123907201Y-28595238D01*
X123907201Y-28595238D02*
X123954820Y-28690476D01*
X123954820Y-28690476D02*
X123954820Y-28976190D01*
X123954820Y-28976190D02*
X123907201Y-29071428D01*
X123907201Y-29071428D02*
X123859581Y-29119047D01*
D13*
X118390476Y-33063855D02*
X118390476Y-33711474D01*
X118390476Y-33711474D02*
X118428571Y-33787664D01*
X118428571Y-33787664D02*
X118466666Y-33825760D01*
X118466666Y-33825760D02*
X118542857Y-33863855D01*
X118542857Y-33863855D02*
X118695238Y-33863855D01*
X118695238Y-33863855D02*
X118771428Y-33825760D01*
X118771428Y-33825760D02*
X118809523Y-33787664D01*
X118809523Y-33787664D02*
X118847619Y-33711474D01*
X118847619Y-33711474D02*
X118847619Y-33063855D01*
X119571428Y-33330521D02*
X119571428Y-33863855D01*
X119380952Y-33025760D02*
X119190475Y-33597188D01*
X119190475Y-33597188D02*
X119685714Y-33597188D01*
D10*
X121880057Y-34988094D02*
X121832438Y-34940475D01*
X121832438Y-34940475D02*
X121784819Y-34845237D01*
X121784819Y-34845237D02*
X121784819Y-34607142D01*
X121784819Y-34607142D02*
X121832438Y-34511904D01*
X121832438Y-34511904D02*
X121880057Y-34464285D01*
X121880057Y-34464285D02*
X121975295Y-34416666D01*
X121975295Y-34416666D02*
X122070533Y-34416666D01*
X122070533Y-34416666D02*
X122213390Y-34464285D01*
X122213390Y-34464285D02*
X122784819Y-35035713D01*
X122784819Y-35035713D02*
X122784819Y-34416666D01*
X121880057Y-34035713D02*
X121832438Y-33988094D01*
X121832438Y-33988094D02*
X121784819Y-33892856D01*
X121784819Y-33892856D02*
X121784819Y-33654761D01*
X121784819Y-33654761D02*
X121832438Y-33559523D01*
X121832438Y-33559523D02*
X121880057Y-33511904D01*
X121880057Y-33511904D02*
X121975295Y-33464285D01*
X121975295Y-33464285D02*
X122070533Y-33464285D01*
X122070533Y-33464285D02*
X122213390Y-33511904D01*
X122213390Y-33511904D02*
X122784819Y-34083332D01*
X122784819Y-34083332D02*
X122784819Y-33464285D01*
X121784819Y-32845237D02*
X121784819Y-32749999D01*
X121784819Y-32749999D02*
X121832438Y-32654761D01*
X121832438Y-32654761D02*
X121880057Y-32607142D01*
X121880057Y-32607142D02*
X121975295Y-32559523D01*
X121975295Y-32559523D02*
X122165771Y-32511904D01*
X122165771Y-32511904D02*
X122403866Y-32511904D01*
X122403866Y-32511904D02*
X122594342Y-32559523D01*
X122594342Y-32559523D02*
X122689580Y-32607142D01*
X122689580Y-32607142D02*
X122737200Y-32654761D01*
X122737200Y-32654761D02*
X122784819Y-32749999D01*
X122784819Y-32749999D02*
X122784819Y-32845237D01*
X122784819Y-32845237D02*
X122737200Y-32940475D01*
X122737200Y-32940475D02*
X122689580Y-32988094D01*
X122689580Y-32988094D02*
X122594342Y-33035713D01*
X122594342Y-33035713D02*
X122403866Y-33083332D01*
X122403866Y-33083332D02*
X122165771Y-33083332D01*
X122165771Y-33083332D02*
X121975295Y-33035713D01*
X121975295Y-33035713D02*
X121880057Y-32988094D01*
X121880057Y-32988094D02*
X121832438Y-32940475D01*
X121832438Y-32940475D02*
X121784819Y-32845237D01*
D14*
X123618200Y-33793332D02*
X123494391Y-33879999D01*
X123618200Y-33941904D02*
X123358200Y-33941904D01*
X123358200Y-33941904D02*
X123358200Y-33842856D01*
X123358200Y-33842856D02*
X123370581Y-33818094D01*
X123370581Y-33818094D02*
X123382962Y-33805713D01*
X123382962Y-33805713D02*
X123407724Y-33793332D01*
X123407724Y-33793332D02*
X123444867Y-33793332D01*
X123444867Y-33793332D02*
X123469629Y-33805713D01*
X123469629Y-33805713D02*
X123482010Y-33818094D01*
X123482010Y-33818094D02*
X123494391Y-33842856D01*
X123494391Y-33842856D02*
X123494391Y-33941904D01*
X123358200Y-33706666D02*
X123358200Y-33545713D01*
X123358200Y-33545713D02*
X123457248Y-33632380D01*
X123457248Y-33632380D02*
X123457248Y-33595237D01*
X123457248Y-33595237D02*
X123469629Y-33570475D01*
X123469629Y-33570475D02*
X123482010Y-33558094D01*
X123482010Y-33558094D02*
X123506772Y-33545713D01*
X123506772Y-33545713D02*
X123568677Y-33545713D01*
X123568677Y-33545713D02*
X123593439Y-33558094D01*
X123593439Y-33558094D02*
X123605820Y-33570475D01*
X123605820Y-33570475D02*
X123618200Y-33595237D01*
X123618200Y-33595237D02*
X123618200Y-33669523D01*
X123618200Y-33669523D02*
X123605820Y-33694285D01*
X123605820Y-33694285D02*
X123593439Y-33706666D01*
D10*
X119067262Y-72833390D02*
X118972024Y-72785771D01*
X118972024Y-72785771D02*
X118924405Y-72738152D01*
X118924405Y-72738152D02*
X118876786Y-72642914D01*
X118876786Y-72642914D02*
X118876786Y-72595295D01*
X118876786Y-72595295D02*
X118924405Y-72500057D01*
X118924405Y-72500057D02*
X118972024Y-72452438D01*
X118972024Y-72452438D02*
X119067262Y-72404819D01*
X119067262Y-72404819D02*
X119257738Y-72404819D01*
X119257738Y-72404819D02*
X119352976Y-72452438D01*
X119352976Y-72452438D02*
X119400595Y-72500057D01*
X119400595Y-72500057D02*
X119448214Y-72595295D01*
X119448214Y-72595295D02*
X119448214Y-72642914D01*
X119448214Y-72642914D02*
X119400595Y-72738152D01*
X119400595Y-72738152D02*
X119352976Y-72785771D01*
X119352976Y-72785771D02*
X119257738Y-72833390D01*
X119257738Y-72833390D02*
X119067262Y-72833390D01*
X119067262Y-72833390D02*
X118972024Y-72881009D01*
X118972024Y-72881009D02*
X118924405Y-72928628D01*
X118924405Y-72928628D02*
X118876786Y-73023866D01*
X118876786Y-73023866D02*
X118876786Y-73214342D01*
X118876786Y-73214342D02*
X118924405Y-73309580D01*
X118924405Y-73309580D02*
X118972024Y-73357200D01*
X118972024Y-73357200D02*
X119067262Y-73404819D01*
X119067262Y-73404819D02*
X119257738Y-73404819D01*
X119257738Y-73404819D02*
X119352976Y-73357200D01*
X119352976Y-73357200D02*
X119400595Y-73309580D01*
X119400595Y-73309580D02*
X119448214Y-73214342D01*
X119448214Y-73214342D02*
X119448214Y-73023866D01*
X119448214Y-73023866D02*
X119400595Y-72928628D01*
X119400595Y-72928628D02*
X119352976Y-72881009D01*
X119352976Y-72881009D02*
X119257738Y-72833390D01*
X119876786Y-73404819D02*
X119876786Y-72404819D01*
X119876786Y-72404819D02*
X120210119Y-73119104D01*
X120210119Y-73119104D02*
X120543452Y-72404819D01*
X120543452Y-72404819D02*
X120543452Y-73404819D01*
X121019643Y-73404819D02*
X121019643Y-72404819D01*
X121019643Y-72881009D02*
X121591071Y-72881009D01*
X121591071Y-73404819D02*
X121591071Y-72404819D01*
X121972024Y-72738152D02*
X122495833Y-72738152D01*
X122495833Y-72738152D02*
X121972024Y-73404819D01*
X121972024Y-73404819D02*
X122495833Y-73404819D01*
X120257020Y-75799339D02*
X120257020Y-76275530D01*
X119923687Y-75275530D02*
X120257020Y-75799339D01*
X120257020Y-75799339D02*
X120590353Y-75275530D01*
X121447496Y-76275530D02*
X120876068Y-76275530D01*
X121161782Y-76275530D02*
X121161782Y-75275530D01*
X121161782Y-75275530D02*
X121066544Y-75418387D01*
X121066544Y-75418387D02*
X120971306Y-75513625D01*
X120971306Y-75513625D02*
X120876068Y-75561244D01*
X123428571Y-38884819D02*
X122857143Y-38884819D01*
X123142857Y-38884819D02*
X123142857Y-37884819D01*
X123142857Y-37884819D02*
X123047619Y-38027676D01*
X123047619Y-38027676D02*
X122952381Y-38122914D01*
X122952381Y-38122914D02*
X122857143Y-38170533D01*
X124047619Y-37884819D02*
X124142857Y-37884819D01*
X124142857Y-37884819D02*
X124238095Y-37932438D01*
X124238095Y-37932438D02*
X124285714Y-37980057D01*
X124285714Y-37980057D02*
X124333333Y-38075295D01*
X124333333Y-38075295D02*
X124380952Y-38265771D01*
X124380952Y-38265771D02*
X124380952Y-38503866D01*
X124380952Y-38503866D02*
X124333333Y-38694342D01*
X124333333Y-38694342D02*
X124285714Y-38789580D01*
X124285714Y-38789580D02*
X124238095Y-38837200D01*
X124238095Y-38837200D02*
X124142857Y-38884819D01*
X124142857Y-38884819D02*
X124047619Y-38884819D01*
X124047619Y-38884819D02*
X123952381Y-38837200D01*
X123952381Y-38837200D02*
X123904762Y-38789580D01*
X123904762Y-38789580D02*
X123857143Y-38694342D01*
X123857143Y-38694342D02*
X123809524Y-38503866D01*
X123809524Y-38503866D02*
X123809524Y-38265771D01*
X123809524Y-38265771D02*
X123857143Y-38075295D01*
X123857143Y-38075295D02*
X123904762Y-37980057D01*
X123904762Y-37980057D02*
X123952381Y-37932438D01*
X123952381Y-37932438D02*
X124047619Y-37884819D01*
X125238095Y-38218152D02*
X125238095Y-38884819D01*
X124809524Y-38218152D02*
X124809524Y-38741961D01*
X124809524Y-38741961D02*
X124857143Y-38837200D01*
X124857143Y-38837200D02*
X124952381Y-38884819D01*
X124952381Y-38884819D02*
X125095238Y-38884819D01*
X125095238Y-38884819D02*
X125190476Y-38837200D01*
X125190476Y-38837200D02*
X125238095Y-38789580D01*
X126047619Y-38361009D02*
X125714286Y-38361009D01*
X125714286Y-38884819D02*
X125714286Y-37884819D01*
X125714286Y-37884819D02*
X126190476Y-37884819D01*
D12*
X124416666Y-36929530D02*
X124392857Y-36953340D01*
X124392857Y-36953340D02*
X124321428Y-36977149D01*
X124321428Y-36977149D02*
X124273809Y-36977149D01*
X124273809Y-36977149D02*
X124202381Y-36953340D01*
X124202381Y-36953340D02*
X124154762Y-36905720D01*
X124154762Y-36905720D02*
X124130952Y-36858101D01*
X124130952Y-36858101D02*
X124107143Y-36762863D01*
X124107143Y-36762863D02*
X124107143Y-36691435D01*
X124107143Y-36691435D02*
X124130952Y-36596197D01*
X124130952Y-36596197D02*
X124154762Y-36548578D01*
X124154762Y-36548578D02*
X124202381Y-36500959D01*
X124202381Y-36500959D02*
X124273809Y-36477149D01*
X124273809Y-36477149D02*
X124321428Y-36477149D01*
X124321428Y-36477149D02*
X124392857Y-36500959D01*
X124392857Y-36500959D02*
X124416666Y-36524768D01*
X124845238Y-36477149D02*
X124750000Y-36477149D01*
X124750000Y-36477149D02*
X124702381Y-36500959D01*
X124702381Y-36500959D02*
X124678571Y-36524768D01*
X124678571Y-36524768D02*
X124630952Y-36596197D01*
X124630952Y-36596197D02*
X124607143Y-36691435D01*
X124607143Y-36691435D02*
X124607143Y-36881911D01*
X124607143Y-36881911D02*
X124630952Y-36929530D01*
X124630952Y-36929530D02*
X124654762Y-36953340D01*
X124654762Y-36953340D02*
X124702381Y-36977149D01*
X124702381Y-36977149D02*
X124797619Y-36977149D01*
X124797619Y-36977149D02*
X124845238Y-36953340D01*
X124845238Y-36953340D02*
X124869047Y-36929530D01*
X124869047Y-36929530D02*
X124892857Y-36881911D01*
X124892857Y-36881911D02*
X124892857Y-36762863D01*
X124892857Y-36762863D02*
X124869047Y-36715244D01*
X124869047Y-36715244D02*
X124845238Y-36691435D01*
X124845238Y-36691435D02*
X124797619Y-36667625D01*
X124797619Y-36667625D02*
X124702381Y-36667625D01*
X124702381Y-36667625D02*
X124654762Y-36691435D01*
X124654762Y-36691435D02*
X124630952Y-36715244D01*
X124630952Y-36715244D02*
X124607143Y-36762863D01*
D10*
X120744643Y-79480057D02*
X120792262Y-79432438D01*
X120792262Y-79432438D02*
X120887500Y-79384819D01*
X120887500Y-79384819D02*
X121125595Y-79384819D01*
X121125595Y-79384819D02*
X121220833Y-79432438D01*
X121220833Y-79432438D02*
X121268452Y-79480057D01*
X121268452Y-79480057D02*
X121316071Y-79575295D01*
X121316071Y-79575295D02*
X121316071Y-79670533D01*
X121316071Y-79670533D02*
X121268452Y-79813390D01*
X121268452Y-79813390D02*
X120697024Y-80384819D01*
X120697024Y-80384819D02*
X121316071Y-80384819D01*
X121935119Y-79384819D02*
X122030357Y-79384819D01*
X122030357Y-79384819D02*
X122125595Y-79432438D01*
X122125595Y-79432438D02*
X122173214Y-79480057D01*
X122173214Y-79480057D02*
X122220833Y-79575295D01*
X122220833Y-79575295D02*
X122268452Y-79765771D01*
X122268452Y-79765771D02*
X122268452Y-80003866D01*
X122268452Y-80003866D02*
X122220833Y-80194342D01*
X122220833Y-80194342D02*
X122173214Y-80289580D01*
X122173214Y-80289580D02*
X122125595Y-80337200D01*
X122125595Y-80337200D02*
X122030357Y-80384819D01*
X122030357Y-80384819D02*
X121935119Y-80384819D01*
X121935119Y-80384819D02*
X121839881Y-80337200D01*
X121839881Y-80337200D02*
X121792262Y-80289580D01*
X121792262Y-80289580D02*
X121744643Y-80194342D01*
X121744643Y-80194342D02*
X121697024Y-80003866D01*
X121697024Y-80003866D02*
X121697024Y-79765771D01*
X121697024Y-79765771D02*
X121744643Y-79575295D01*
X121744643Y-79575295D02*
X121792262Y-79480057D01*
X121792262Y-79480057D02*
X121839881Y-79432438D01*
X121839881Y-79432438D02*
X121935119Y-79384819D01*
X122697024Y-79718152D02*
X122697024Y-80718152D01*
X122697024Y-79765771D02*
X122792262Y-79718152D01*
X122792262Y-79718152D02*
X122982738Y-79718152D01*
X122982738Y-79718152D02*
X123077976Y-79765771D01*
X123077976Y-79765771D02*
X123125595Y-79813390D01*
X123125595Y-79813390D02*
X123173214Y-79908628D01*
X123173214Y-79908628D02*
X123173214Y-80194342D01*
X123173214Y-80194342D02*
X123125595Y-80289580D01*
X123125595Y-80289580D02*
X123077976Y-80337200D01*
X123077976Y-80337200D02*
X122982738Y-80384819D01*
X122982738Y-80384819D02*
X122792262Y-80384819D01*
X122792262Y-80384819D02*
X122697024Y-80337200D01*
X123935119Y-79861009D02*
X123601786Y-79861009D01*
X123601786Y-80384819D02*
X123601786Y-79384819D01*
X123601786Y-79384819D02*
X124077976Y-79384819D01*
D11*
X122320833Y-78643832D02*
X122301785Y-78662880D01*
X122301785Y-78662880D02*
X122244643Y-78681927D01*
X122244643Y-78681927D02*
X122206547Y-78681927D01*
X122206547Y-78681927D02*
X122149404Y-78662880D01*
X122149404Y-78662880D02*
X122111309Y-78624784D01*
X122111309Y-78624784D02*
X122092262Y-78586689D01*
X122092262Y-78586689D02*
X122073214Y-78510499D01*
X122073214Y-78510499D02*
X122073214Y-78453356D01*
X122073214Y-78453356D02*
X122092262Y-78377165D01*
X122092262Y-78377165D02*
X122111309Y-78339070D01*
X122111309Y-78339070D02*
X122149404Y-78300975D01*
X122149404Y-78300975D02*
X122206547Y-78281927D01*
X122206547Y-78281927D02*
X122244643Y-78281927D01*
X122244643Y-78281927D02*
X122301785Y-78300975D01*
X122301785Y-78300975D02*
X122320833Y-78320022D01*
X122511309Y-78681927D02*
X122587500Y-78681927D01*
X122587500Y-78681927D02*
X122625595Y-78662880D01*
X122625595Y-78662880D02*
X122644643Y-78643832D01*
X122644643Y-78643832D02*
X122682738Y-78586689D01*
X122682738Y-78586689D02*
X122701785Y-78510499D01*
X122701785Y-78510499D02*
X122701785Y-78358118D01*
X122701785Y-78358118D02*
X122682738Y-78320022D01*
X122682738Y-78320022D02*
X122663690Y-78300975D01*
X122663690Y-78300975D02*
X122625595Y-78281927D01*
X122625595Y-78281927D02*
X122549404Y-78281927D01*
X122549404Y-78281927D02*
X122511309Y-78300975D01*
X122511309Y-78300975D02*
X122492262Y-78320022D01*
X122492262Y-78320022D02*
X122473214Y-78358118D01*
X122473214Y-78358118D02*
X122473214Y-78453356D01*
X122473214Y-78453356D02*
X122492262Y-78491451D01*
X122492262Y-78491451D02*
X122511309Y-78510499D01*
X122511309Y-78510499D02*
X122549404Y-78529546D01*
X122549404Y-78529546D02*
X122625595Y-78529546D01*
X122625595Y-78529546D02*
X122663690Y-78510499D01*
X122663690Y-78510499D02*
X122682738Y-78491451D01*
X122682738Y-78491451D02*
X122701785Y-78453356D01*
D10*
X113154760Y-98659580D02*
X113107141Y-98707200D01*
X113107141Y-98707200D02*
X112964284Y-98754819D01*
X112964284Y-98754819D02*
X112869046Y-98754819D01*
X112869046Y-98754819D02*
X112726189Y-98707200D01*
X112726189Y-98707200D02*
X112630951Y-98611961D01*
X112630951Y-98611961D02*
X112583332Y-98516723D01*
X112583332Y-98516723D02*
X112535713Y-98326247D01*
X112535713Y-98326247D02*
X112535713Y-98183390D01*
X112535713Y-98183390D02*
X112583332Y-97992914D01*
X112583332Y-97992914D02*
X112630951Y-97897676D01*
X112630951Y-97897676D02*
X112726189Y-97802438D01*
X112726189Y-97802438D02*
X112869046Y-97754819D01*
X112869046Y-97754819D02*
X112964284Y-97754819D01*
X112964284Y-97754819D02*
X113107141Y-97802438D01*
X113107141Y-97802438D02*
X113154760Y-97850057D01*
X113726189Y-98754819D02*
X113630951Y-98707200D01*
X113630951Y-98707200D02*
X113583332Y-98659580D01*
X113583332Y-98659580D02*
X113535713Y-98564342D01*
X113535713Y-98564342D02*
X113535713Y-98278628D01*
X113535713Y-98278628D02*
X113583332Y-98183390D01*
X113583332Y-98183390D02*
X113630951Y-98135771D01*
X113630951Y-98135771D02*
X113726189Y-98088152D01*
X113726189Y-98088152D02*
X113869046Y-98088152D01*
X113869046Y-98088152D02*
X113964284Y-98135771D01*
X113964284Y-98135771D02*
X114011903Y-98183390D01*
X114011903Y-98183390D02*
X114059522Y-98278628D01*
X114059522Y-98278628D02*
X114059522Y-98564342D01*
X114059522Y-98564342D02*
X114011903Y-98659580D01*
X114011903Y-98659580D02*
X113964284Y-98707200D01*
X113964284Y-98707200D02*
X113869046Y-98754819D01*
X113869046Y-98754819D02*
X113726189Y-98754819D01*
X114488094Y-98088152D02*
X114488094Y-98754819D01*
X114488094Y-98183390D02*
X114535713Y-98135771D01*
X114535713Y-98135771D02*
X114630951Y-98088152D01*
X114630951Y-98088152D02*
X114773808Y-98088152D01*
X114773808Y-98088152D02*
X114869046Y-98135771D01*
X114869046Y-98135771D02*
X114916665Y-98231009D01*
X114916665Y-98231009D02*
X114916665Y-98754819D01*
X115392856Y-98088152D02*
X115392856Y-98754819D01*
X115392856Y-98183390D02*
X115440475Y-98135771D01*
X115440475Y-98135771D02*
X115535713Y-98088152D01*
X115535713Y-98088152D02*
X115678570Y-98088152D01*
X115678570Y-98088152D02*
X115773808Y-98135771D01*
X115773808Y-98135771D02*
X115821427Y-98231009D01*
X115821427Y-98231009D02*
X115821427Y-98754819D01*
X116059523Y-98850057D02*
X116821427Y-98850057D01*
X117249999Y-97754819D02*
X117345237Y-97754819D01*
X117345237Y-97754819D02*
X117440475Y-97802438D01*
X117440475Y-97802438D02*
X117488094Y-97850057D01*
X117488094Y-97850057D02*
X117535713Y-97945295D01*
X117535713Y-97945295D02*
X117583332Y-98135771D01*
X117583332Y-98135771D02*
X117583332Y-98373866D01*
X117583332Y-98373866D02*
X117535713Y-98564342D01*
X117535713Y-98564342D02*
X117488094Y-98659580D01*
X117488094Y-98659580D02*
X117440475Y-98707200D01*
X117440475Y-98707200D02*
X117345237Y-98754819D01*
X117345237Y-98754819D02*
X117249999Y-98754819D01*
X117249999Y-98754819D02*
X117154761Y-98707200D01*
X117154761Y-98707200D02*
X117107142Y-98659580D01*
X117107142Y-98659580D02*
X117059523Y-98564342D01*
X117059523Y-98564342D02*
X117011904Y-98373866D01*
X117011904Y-98373866D02*
X117011904Y-98135771D01*
X117011904Y-98135771D02*
X117059523Y-97945295D01*
X117059523Y-97945295D02*
X117107142Y-97850057D01*
X117107142Y-97850057D02*
X117154761Y-97802438D01*
X117154761Y-97802438D02*
X117249999Y-97754819D01*
X118535713Y-98754819D02*
X117964285Y-98754819D01*
X118249999Y-98754819D02*
X118249999Y-97754819D01*
X118249999Y-97754819D02*
X118154761Y-97897676D01*
X118154761Y-97897676D02*
X118059523Y-97992914D01*
X118059523Y-97992914D02*
X117964285Y-98040533D01*
X118869047Y-98754819D02*
X119392856Y-98088152D01*
X118869047Y-98088152D02*
X119392856Y-98754819D01*
X119964285Y-97754819D02*
X120059523Y-97754819D01*
X120059523Y-97754819D02*
X120154761Y-97802438D01*
X120154761Y-97802438D02*
X120202380Y-97850057D01*
X120202380Y-97850057D02*
X120249999Y-97945295D01*
X120249999Y-97945295D02*
X120297618Y-98135771D01*
X120297618Y-98135771D02*
X120297618Y-98373866D01*
X120297618Y-98373866D02*
X120249999Y-98564342D01*
X120249999Y-98564342D02*
X120202380Y-98659580D01*
X120202380Y-98659580D02*
X120154761Y-98707200D01*
X120154761Y-98707200D02*
X120059523Y-98754819D01*
X120059523Y-98754819D02*
X119964285Y-98754819D01*
X119964285Y-98754819D02*
X119869047Y-98707200D01*
X119869047Y-98707200D02*
X119821428Y-98659580D01*
X119821428Y-98659580D02*
X119773809Y-98564342D01*
X119773809Y-98564342D02*
X119726190Y-98373866D01*
X119726190Y-98373866D02*
X119726190Y-98135771D01*
X119726190Y-98135771D02*
X119773809Y-97945295D01*
X119773809Y-97945295D02*
X119821428Y-97850057D01*
X119821428Y-97850057D02*
X119869047Y-97802438D01*
X119869047Y-97802438D02*
X119964285Y-97754819D01*
X121154761Y-97754819D02*
X120964285Y-97754819D01*
X120964285Y-97754819D02*
X120869047Y-97802438D01*
X120869047Y-97802438D02*
X120821428Y-97850057D01*
X120821428Y-97850057D02*
X120726190Y-97992914D01*
X120726190Y-97992914D02*
X120678571Y-98183390D01*
X120678571Y-98183390D02*
X120678571Y-98564342D01*
X120678571Y-98564342D02*
X120726190Y-98659580D01*
X120726190Y-98659580D02*
X120773809Y-98707200D01*
X120773809Y-98707200D02*
X120869047Y-98754819D01*
X120869047Y-98754819D02*
X121059523Y-98754819D01*
X121059523Y-98754819D02*
X121154761Y-98707200D01*
X121154761Y-98707200D02*
X121202380Y-98659580D01*
X121202380Y-98659580D02*
X121249999Y-98564342D01*
X121249999Y-98564342D02*
X121249999Y-98326247D01*
X121249999Y-98326247D02*
X121202380Y-98231009D01*
X121202380Y-98231009D02*
X121154761Y-98183390D01*
X121154761Y-98183390D02*
X121059523Y-98135771D01*
X121059523Y-98135771D02*
X120869047Y-98135771D01*
X120869047Y-98135771D02*
X120773809Y-98183390D01*
X120773809Y-98183390D02*
X120726190Y-98231009D01*
X120726190Y-98231009D02*
X120678571Y-98326247D01*
X121440476Y-98850057D02*
X122202380Y-98850057D01*
X122392857Y-98707200D02*
X122535714Y-98754819D01*
X122535714Y-98754819D02*
X122773809Y-98754819D01*
X122773809Y-98754819D02*
X122869047Y-98707200D01*
X122869047Y-98707200D02*
X122916666Y-98659580D01*
X122916666Y-98659580D02*
X122964285Y-98564342D01*
X122964285Y-98564342D02*
X122964285Y-98469104D01*
X122964285Y-98469104D02*
X122916666Y-98373866D01*
X122916666Y-98373866D02*
X122869047Y-98326247D01*
X122869047Y-98326247D02*
X122773809Y-98278628D01*
X122773809Y-98278628D02*
X122583333Y-98231009D01*
X122583333Y-98231009D02*
X122488095Y-98183390D01*
X122488095Y-98183390D02*
X122440476Y-98135771D01*
X122440476Y-98135771D02*
X122392857Y-98040533D01*
X122392857Y-98040533D02*
X122392857Y-97945295D01*
X122392857Y-97945295D02*
X122440476Y-97850057D01*
X122440476Y-97850057D02*
X122488095Y-97802438D01*
X122488095Y-97802438D02*
X122583333Y-97754819D01*
X122583333Y-97754819D02*
X122821428Y-97754819D01*
X122821428Y-97754819D02*
X122964285Y-97802438D01*
X123535714Y-98754819D02*
X123440476Y-98707200D01*
X123440476Y-98707200D02*
X123392857Y-98659580D01*
X123392857Y-98659580D02*
X123345238Y-98564342D01*
X123345238Y-98564342D02*
X123345238Y-98278628D01*
X123345238Y-98278628D02*
X123392857Y-98183390D01*
X123392857Y-98183390D02*
X123440476Y-98135771D01*
X123440476Y-98135771D02*
X123535714Y-98088152D01*
X123535714Y-98088152D02*
X123678571Y-98088152D01*
X123678571Y-98088152D02*
X123773809Y-98135771D01*
X123773809Y-98135771D02*
X123821428Y-98183390D01*
X123821428Y-98183390D02*
X123869047Y-98278628D01*
X123869047Y-98278628D02*
X123869047Y-98564342D01*
X123869047Y-98564342D02*
X123821428Y-98659580D01*
X123821428Y-98659580D02*
X123773809Y-98707200D01*
X123773809Y-98707200D02*
X123678571Y-98754819D01*
X123678571Y-98754819D02*
X123535714Y-98754819D01*
X124726190Y-98707200D02*
X124630952Y-98754819D01*
X124630952Y-98754819D02*
X124440476Y-98754819D01*
X124440476Y-98754819D02*
X124345238Y-98707200D01*
X124345238Y-98707200D02*
X124297619Y-98659580D01*
X124297619Y-98659580D02*
X124250000Y-98564342D01*
X124250000Y-98564342D02*
X124250000Y-98278628D01*
X124250000Y-98278628D02*
X124297619Y-98183390D01*
X124297619Y-98183390D02*
X124345238Y-98135771D01*
X124345238Y-98135771D02*
X124440476Y-98088152D01*
X124440476Y-98088152D02*
X124630952Y-98088152D01*
X124630952Y-98088152D02*
X124726190Y-98135771D01*
X125154762Y-98754819D02*
X125154762Y-97754819D01*
X125250000Y-98373866D02*
X125535714Y-98754819D01*
X125535714Y-98088152D02*
X125154762Y-98469104D01*
X126345238Y-98707200D02*
X126250000Y-98754819D01*
X126250000Y-98754819D02*
X126059524Y-98754819D01*
X126059524Y-98754819D02*
X125964286Y-98707200D01*
X125964286Y-98707200D02*
X125916667Y-98611961D01*
X125916667Y-98611961D02*
X125916667Y-98231009D01*
X125916667Y-98231009D02*
X125964286Y-98135771D01*
X125964286Y-98135771D02*
X126059524Y-98088152D01*
X126059524Y-98088152D02*
X126250000Y-98088152D01*
X126250000Y-98088152D02*
X126345238Y-98135771D01*
X126345238Y-98135771D02*
X126392857Y-98231009D01*
X126392857Y-98231009D02*
X126392857Y-98326247D01*
X126392857Y-98326247D02*
X125916667Y-98421485D01*
X126678572Y-98088152D02*
X127059524Y-98088152D01*
X126821429Y-97754819D02*
X126821429Y-98611961D01*
X126821429Y-98611961D02*
X126869048Y-98707200D01*
X126869048Y-98707200D02*
X126964286Y-98754819D01*
X126964286Y-98754819D02*
X127059524Y-98754819D01*
X119416666Y-95254819D02*
X119416666Y-95969104D01*
X119416666Y-95969104D02*
X119369047Y-96111961D01*
X119369047Y-96111961D02*
X119273809Y-96207200D01*
X119273809Y-96207200D02*
X119130952Y-96254819D01*
X119130952Y-96254819D02*
X119035714Y-96254819D01*
X120416666Y-96254819D02*
X119845238Y-96254819D01*
X120130952Y-96254819D02*
X120130952Y-95254819D01*
X120130952Y-95254819D02*
X120035714Y-95397676D01*
X120035714Y-95397676D02*
X119940476Y-95492914D01*
X119940476Y-95492914D02*
X119845238Y-95540533D01*
X117294643Y-76620057D02*
X117342262Y-76572438D01*
X117342262Y-76572438D02*
X117437500Y-76524819D01*
X117437500Y-76524819D02*
X117675595Y-76524819D01*
X117675595Y-76524819D02*
X117770833Y-76572438D01*
X117770833Y-76572438D02*
X117818452Y-76620057D01*
X117818452Y-76620057D02*
X117866071Y-76715295D01*
X117866071Y-76715295D02*
X117866071Y-76810533D01*
X117866071Y-76810533D02*
X117818452Y-76953390D01*
X117818452Y-76953390D02*
X117247024Y-77524819D01*
X117247024Y-77524819D02*
X117866071Y-77524819D01*
X118485119Y-76524819D02*
X118580357Y-76524819D01*
X118580357Y-76524819D02*
X118675595Y-76572438D01*
X118675595Y-76572438D02*
X118723214Y-76620057D01*
X118723214Y-76620057D02*
X118770833Y-76715295D01*
X118770833Y-76715295D02*
X118818452Y-76905771D01*
X118818452Y-76905771D02*
X118818452Y-77143866D01*
X118818452Y-77143866D02*
X118770833Y-77334342D01*
X118770833Y-77334342D02*
X118723214Y-77429580D01*
X118723214Y-77429580D02*
X118675595Y-77477200D01*
X118675595Y-77477200D02*
X118580357Y-77524819D01*
X118580357Y-77524819D02*
X118485119Y-77524819D01*
X118485119Y-77524819D02*
X118389881Y-77477200D01*
X118389881Y-77477200D02*
X118342262Y-77429580D01*
X118342262Y-77429580D02*
X118294643Y-77334342D01*
X118294643Y-77334342D02*
X118247024Y-77143866D01*
X118247024Y-77143866D02*
X118247024Y-76905771D01*
X118247024Y-76905771D02*
X118294643Y-76715295D01*
X118294643Y-76715295D02*
X118342262Y-76620057D01*
X118342262Y-76620057D02*
X118389881Y-76572438D01*
X118389881Y-76572438D02*
X118485119Y-76524819D01*
X119247024Y-76858152D02*
X119247024Y-77858152D01*
X119247024Y-76905771D02*
X119342262Y-76858152D01*
X119342262Y-76858152D02*
X119532738Y-76858152D01*
X119532738Y-76858152D02*
X119627976Y-76905771D01*
X119627976Y-76905771D02*
X119675595Y-76953390D01*
X119675595Y-76953390D02*
X119723214Y-77048628D01*
X119723214Y-77048628D02*
X119723214Y-77334342D01*
X119723214Y-77334342D02*
X119675595Y-77429580D01*
X119675595Y-77429580D02*
X119627976Y-77477200D01*
X119627976Y-77477200D02*
X119532738Y-77524819D01*
X119532738Y-77524819D02*
X119342262Y-77524819D01*
X119342262Y-77524819D02*
X119247024Y-77477200D01*
X120485119Y-77001009D02*
X120151786Y-77001009D01*
X120151786Y-77524819D02*
X120151786Y-76524819D01*
X120151786Y-76524819D02*
X120627976Y-76524819D01*
D11*
X118680357Y-78643832D02*
X118661309Y-78662880D01*
X118661309Y-78662880D02*
X118604167Y-78681927D01*
X118604167Y-78681927D02*
X118566071Y-78681927D01*
X118566071Y-78681927D02*
X118508928Y-78662880D01*
X118508928Y-78662880D02*
X118470833Y-78624784D01*
X118470833Y-78624784D02*
X118451786Y-78586689D01*
X118451786Y-78586689D02*
X118432738Y-78510499D01*
X118432738Y-78510499D02*
X118432738Y-78453356D01*
X118432738Y-78453356D02*
X118451786Y-78377165D01*
X118451786Y-78377165D02*
X118470833Y-78339070D01*
X118470833Y-78339070D02*
X118508928Y-78300975D01*
X118508928Y-78300975D02*
X118566071Y-78281927D01*
X118566071Y-78281927D02*
X118604167Y-78281927D01*
X118604167Y-78281927D02*
X118661309Y-78300975D01*
X118661309Y-78300975D02*
X118680357Y-78320022D01*
X119061309Y-78681927D02*
X118832738Y-78681927D01*
X118947024Y-78681927D02*
X118947024Y-78281927D01*
X118947024Y-78281927D02*
X118908928Y-78339070D01*
X118908928Y-78339070D02*
X118870833Y-78377165D01*
X118870833Y-78377165D02*
X118832738Y-78396213D01*
X119308928Y-78281927D02*
X119347023Y-78281927D01*
X119347023Y-78281927D02*
X119385119Y-78300975D01*
X119385119Y-78300975D02*
X119404166Y-78320022D01*
X119404166Y-78320022D02*
X119423214Y-78358118D01*
X119423214Y-78358118D02*
X119442261Y-78434308D01*
X119442261Y-78434308D02*
X119442261Y-78529546D01*
X119442261Y-78529546D02*
X119423214Y-78605737D01*
X119423214Y-78605737D02*
X119404166Y-78643832D01*
X119404166Y-78643832D02*
X119385119Y-78662880D01*
X119385119Y-78662880D02*
X119347023Y-78681927D01*
X119347023Y-78681927D02*
X119308928Y-78681927D01*
X119308928Y-78681927D02*
X119270833Y-78662880D01*
X119270833Y-78662880D02*
X119251785Y-78643832D01*
X119251785Y-78643832D02*
X119232738Y-78605737D01*
X119232738Y-78605737D02*
X119213690Y-78529546D01*
X119213690Y-78529546D02*
X119213690Y-78434308D01*
X119213690Y-78434308D02*
X119232738Y-78358118D01*
X119232738Y-78358118D02*
X119251785Y-78320022D01*
X119251785Y-78320022D02*
X119270833Y-78300975D01*
X119270833Y-78300975D02*
X119308928Y-78281927D01*
D10*
X111231009Y-92104761D02*
X111278628Y-91961904D01*
X111278628Y-91961904D02*
X111326247Y-91914285D01*
X111326247Y-91914285D02*
X111421485Y-91866666D01*
X111421485Y-91866666D02*
X111564342Y-91866666D01*
X111564342Y-91866666D02*
X111659580Y-91914285D01*
X111659580Y-91914285D02*
X111707200Y-91961904D01*
X111707200Y-91961904D02*
X111754819Y-92057142D01*
X111754819Y-92057142D02*
X111754819Y-92438094D01*
X111754819Y-92438094D02*
X110754819Y-92438094D01*
X110754819Y-92438094D02*
X110754819Y-92104761D01*
X110754819Y-92104761D02*
X110802438Y-92009523D01*
X110802438Y-92009523D02*
X110850057Y-91961904D01*
X110850057Y-91961904D02*
X110945295Y-91914285D01*
X110945295Y-91914285D02*
X111040533Y-91914285D01*
X111040533Y-91914285D02*
X111135771Y-91961904D01*
X111135771Y-91961904D02*
X111183390Y-92009523D01*
X111183390Y-92009523D02*
X111231009Y-92104761D01*
X111231009Y-92104761D02*
X111231009Y-92438094D01*
X110754819Y-90961904D02*
X110754819Y-91438094D01*
X110754819Y-91438094D02*
X111231009Y-91485713D01*
X111231009Y-91485713D02*
X111183390Y-91438094D01*
X111183390Y-91438094D02*
X111135771Y-91342856D01*
X111135771Y-91342856D02*
X111135771Y-91104761D01*
X111135771Y-91104761D02*
X111183390Y-91009523D01*
X111183390Y-91009523D02*
X111231009Y-90961904D01*
X111231009Y-90961904D02*
X111326247Y-90914285D01*
X111326247Y-90914285D02*
X111564342Y-90914285D01*
X111564342Y-90914285D02*
X111659580Y-90961904D01*
X111659580Y-90961904D02*
X111707200Y-91009523D01*
X111707200Y-91009523D02*
X111754819Y-91104761D01*
X111754819Y-91104761D02*
X111754819Y-91342856D01*
X111754819Y-91342856D02*
X111707200Y-91438094D01*
X111707200Y-91438094D02*
X111659580Y-91485713D01*
X111183390Y-90342856D02*
X111135771Y-90438094D01*
X111135771Y-90438094D02*
X111088152Y-90485713D01*
X111088152Y-90485713D02*
X110992914Y-90533332D01*
X110992914Y-90533332D02*
X110945295Y-90533332D01*
X110945295Y-90533332D02*
X110850057Y-90485713D01*
X110850057Y-90485713D02*
X110802438Y-90438094D01*
X110802438Y-90438094D02*
X110754819Y-90342856D01*
X110754819Y-90342856D02*
X110754819Y-90152380D01*
X110754819Y-90152380D02*
X110802438Y-90057142D01*
X110802438Y-90057142D02*
X110850057Y-90009523D01*
X110850057Y-90009523D02*
X110945295Y-89961904D01*
X110945295Y-89961904D02*
X110992914Y-89961904D01*
X110992914Y-89961904D02*
X111088152Y-90009523D01*
X111088152Y-90009523D02*
X111135771Y-90057142D01*
X111135771Y-90057142D02*
X111183390Y-90152380D01*
X111183390Y-90152380D02*
X111183390Y-90342856D01*
X111183390Y-90342856D02*
X111231009Y-90438094D01*
X111231009Y-90438094D02*
X111278628Y-90485713D01*
X111278628Y-90485713D02*
X111373866Y-90533332D01*
X111373866Y-90533332D02*
X111564342Y-90533332D01*
X111564342Y-90533332D02*
X111659580Y-90485713D01*
X111659580Y-90485713D02*
X111707200Y-90438094D01*
X111707200Y-90438094D02*
X111754819Y-90342856D01*
X111754819Y-90342856D02*
X111754819Y-90152380D01*
X111754819Y-90152380D02*
X111707200Y-90057142D01*
X111707200Y-90057142D02*
X111659580Y-90009523D01*
X111659580Y-90009523D02*
X111564342Y-89961904D01*
X111564342Y-89961904D02*
X111373866Y-89961904D01*
X111373866Y-89961904D02*
X111278628Y-90009523D01*
X111278628Y-90009523D02*
X111231009Y-90057142D01*
X111231009Y-90057142D02*
X111183390Y-90152380D01*
X111754819Y-89009523D02*
X111754819Y-89580951D01*
X111754819Y-89295237D02*
X110754819Y-89295237D01*
X110754819Y-89295237D02*
X110897676Y-89390475D01*
X110897676Y-89390475D02*
X110992914Y-89485713D01*
X110992914Y-89485713D02*
X111040533Y-89580951D01*
X111754819Y-88533332D02*
X111754819Y-88342856D01*
X111754819Y-88342856D02*
X111707200Y-88247618D01*
X111707200Y-88247618D02*
X111659580Y-88199999D01*
X111659580Y-88199999D02*
X111516723Y-88104761D01*
X111516723Y-88104761D02*
X111326247Y-88057142D01*
X111326247Y-88057142D02*
X110945295Y-88057142D01*
X110945295Y-88057142D02*
X110850057Y-88104761D01*
X110850057Y-88104761D02*
X110802438Y-88152380D01*
X110802438Y-88152380D02*
X110754819Y-88247618D01*
X110754819Y-88247618D02*
X110754819Y-88438094D01*
X110754819Y-88438094D02*
X110802438Y-88533332D01*
X110802438Y-88533332D02*
X110850057Y-88580951D01*
X110850057Y-88580951D02*
X110945295Y-88628570D01*
X110945295Y-88628570D02*
X111183390Y-88628570D01*
X111183390Y-88628570D02*
X111278628Y-88580951D01*
X111278628Y-88580951D02*
X111326247Y-88533332D01*
X111326247Y-88533332D02*
X111373866Y-88438094D01*
X111373866Y-88438094D02*
X111373866Y-88247618D01*
X111373866Y-88247618D02*
X111326247Y-88152380D01*
X111326247Y-88152380D02*
X111278628Y-88104761D01*
X111278628Y-88104761D02*
X111183390Y-88057142D01*
X110754819Y-87723808D02*
X111754819Y-87485713D01*
X111754819Y-87485713D02*
X111040533Y-87295237D01*
X111040533Y-87295237D02*
X111754819Y-87104761D01*
X111754819Y-87104761D02*
X110754819Y-86866666D01*
X116017320Y-88438094D02*
X115017320Y-88438094D01*
X115017320Y-88438094D02*
X115017320Y-88199999D01*
X115017320Y-88199999D02*
X115064939Y-88057142D01*
X115064939Y-88057142D02*
X115160177Y-87961904D01*
X115160177Y-87961904D02*
X115255415Y-87914285D01*
X115255415Y-87914285D02*
X115445891Y-87866666D01*
X115445891Y-87866666D02*
X115588748Y-87866666D01*
X115588748Y-87866666D02*
X115779224Y-87914285D01*
X115779224Y-87914285D02*
X115874462Y-87961904D01*
X115874462Y-87961904D02*
X115969701Y-88057142D01*
X115969701Y-88057142D02*
X116017320Y-88199999D01*
X116017320Y-88199999D02*
X116017320Y-88438094D01*
X115350653Y-87009523D02*
X116017320Y-87009523D01*
X114969701Y-87247618D02*
X115683986Y-87485713D01*
X115683986Y-87485713D02*
X115683986Y-86866666D01*
X114557200Y-90309523D02*
X114604819Y-90166666D01*
X114604819Y-90166666D02*
X114604819Y-89928571D01*
X114604819Y-89928571D02*
X114557200Y-89833333D01*
X114557200Y-89833333D02*
X114509580Y-89785714D01*
X114509580Y-89785714D02*
X114414342Y-89738095D01*
X114414342Y-89738095D02*
X114319104Y-89738095D01*
X114319104Y-89738095D02*
X114223866Y-89785714D01*
X114223866Y-89785714D02*
X114176247Y-89833333D01*
X114176247Y-89833333D02*
X114128628Y-89928571D01*
X114128628Y-89928571D02*
X114081009Y-90119047D01*
X114081009Y-90119047D02*
X114033390Y-90214285D01*
X114033390Y-90214285D02*
X113985771Y-90261904D01*
X113985771Y-90261904D02*
X113890533Y-90309523D01*
X113890533Y-90309523D02*
X113795295Y-90309523D01*
X113795295Y-90309523D02*
X113700057Y-90261904D01*
X113700057Y-90261904D02*
X113652438Y-90214285D01*
X113652438Y-90214285D02*
X113604819Y-90119047D01*
X113604819Y-90119047D02*
X113604819Y-89880952D01*
X113604819Y-89880952D02*
X113652438Y-89738095D01*
X113604819Y-89452380D02*
X113604819Y-88880952D01*
X114604819Y-89166666D02*
X113604819Y-89166666D01*
X114604819Y-88547618D02*
X113604819Y-88547618D01*
X113604819Y-88547618D02*
X114319104Y-88214285D01*
X114319104Y-88214285D02*
X113604819Y-87880952D01*
X113604819Y-87880952D02*
X114604819Y-87880952D01*
X113604819Y-87499999D02*
X113604819Y-86880952D01*
X113604819Y-86880952D02*
X113985771Y-87214285D01*
X113985771Y-87214285D02*
X113985771Y-87071428D01*
X113985771Y-87071428D02*
X114033390Y-86976190D01*
X114033390Y-86976190D02*
X114081009Y-86928571D01*
X114081009Y-86928571D02*
X114176247Y-86880952D01*
X114176247Y-86880952D02*
X114414342Y-86880952D01*
X114414342Y-86880952D02*
X114509580Y-86928571D01*
X114509580Y-86928571D02*
X114557200Y-86976190D01*
X114557200Y-86976190D02*
X114604819Y-87071428D01*
X114604819Y-87071428D02*
X114604819Y-87357142D01*
X114604819Y-87357142D02*
X114557200Y-87452380D01*
X114557200Y-87452380D02*
X114509580Y-87499999D01*
X113700057Y-86499999D02*
X113652438Y-86452380D01*
X113652438Y-86452380D02*
X113604819Y-86357142D01*
X113604819Y-86357142D02*
X113604819Y-86119047D01*
X113604819Y-86119047D02*
X113652438Y-86023809D01*
X113652438Y-86023809D02*
X113700057Y-85976190D01*
X113700057Y-85976190D02*
X113795295Y-85928571D01*
X113795295Y-85928571D02*
X113890533Y-85928571D01*
X113890533Y-85928571D02*
X114033390Y-85976190D01*
X114033390Y-85976190D02*
X114604819Y-86547618D01*
X114604819Y-86547618D02*
X114604819Y-85928571D01*
X114081009Y-85166666D02*
X114081009Y-85499999D01*
X114604819Y-85499999D02*
X113604819Y-85499999D01*
X113604819Y-85499999D02*
X113604819Y-85023809D01*
X114604819Y-84119047D02*
X114604819Y-84690475D01*
X114604819Y-84404761D02*
X113604819Y-84404761D01*
X113604819Y-84404761D02*
X113747676Y-84499999D01*
X113747676Y-84499999D02*
X113842914Y-84595237D01*
X113842914Y-84595237D02*
X113890533Y-84690475D01*
X113604819Y-83499999D02*
X113604819Y-83404761D01*
X113604819Y-83404761D02*
X113652438Y-83309523D01*
X113652438Y-83309523D02*
X113700057Y-83261904D01*
X113700057Y-83261904D02*
X113795295Y-83214285D01*
X113795295Y-83214285D02*
X113985771Y-83166666D01*
X113985771Y-83166666D02*
X114223866Y-83166666D01*
X114223866Y-83166666D02*
X114414342Y-83214285D01*
X114414342Y-83214285D02*
X114509580Y-83261904D01*
X114509580Y-83261904D02*
X114557200Y-83309523D01*
X114557200Y-83309523D02*
X114604819Y-83404761D01*
X114604819Y-83404761D02*
X114604819Y-83499999D01*
X114604819Y-83499999D02*
X114557200Y-83595237D01*
X114557200Y-83595237D02*
X114509580Y-83642856D01*
X114509580Y-83642856D02*
X114414342Y-83690475D01*
X114414342Y-83690475D02*
X114223866Y-83738094D01*
X114223866Y-83738094D02*
X113985771Y-83738094D01*
X113985771Y-83738094D02*
X113795295Y-83690475D01*
X113795295Y-83690475D02*
X113700057Y-83642856D01*
X113700057Y-83642856D02*
X113652438Y-83595237D01*
X113652438Y-83595237D02*
X113604819Y-83499999D01*
X113604819Y-82833332D02*
X113604819Y-82214285D01*
X113604819Y-82214285D02*
X113985771Y-82547618D01*
X113985771Y-82547618D02*
X113985771Y-82404761D01*
X113985771Y-82404761D02*
X114033390Y-82309523D01*
X114033390Y-82309523D02*
X114081009Y-82261904D01*
X114081009Y-82261904D02*
X114176247Y-82214285D01*
X114176247Y-82214285D02*
X114414342Y-82214285D01*
X114414342Y-82214285D02*
X114509580Y-82261904D01*
X114509580Y-82261904D02*
X114557200Y-82309523D01*
X114557200Y-82309523D02*
X114604819Y-82404761D01*
X114604819Y-82404761D02*
X114604819Y-82690475D01*
X114604819Y-82690475D02*
X114557200Y-82785713D01*
X114557200Y-82785713D02*
X114509580Y-82833332D01*
X114509580Y-81214285D02*
X114557200Y-81261904D01*
X114557200Y-81261904D02*
X114604819Y-81404761D01*
X114604819Y-81404761D02*
X114604819Y-81499999D01*
X114604819Y-81499999D02*
X114557200Y-81642856D01*
X114557200Y-81642856D02*
X114461961Y-81738094D01*
X114461961Y-81738094D02*
X114366723Y-81785713D01*
X114366723Y-81785713D02*
X114176247Y-81833332D01*
X114176247Y-81833332D02*
X114033390Y-81833332D01*
X114033390Y-81833332D02*
X113842914Y-81785713D01*
X113842914Y-81785713D02*
X113747676Y-81738094D01*
X113747676Y-81738094D02*
X113652438Y-81642856D01*
X113652438Y-81642856D02*
X113604819Y-81499999D01*
X113604819Y-81499999D02*
X113604819Y-81404761D01*
X113604819Y-81404761D02*
X113652438Y-81261904D01*
X113652438Y-81261904D02*
X113700057Y-81214285D01*
X114033390Y-80642856D02*
X113985771Y-80738094D01*
X113985771Y-80738094D02*
X113938152Y-80785713D01*
X113938152Y-80785713D02*
X113842914Y-80833332D01*
X113842914Y-80833332D02*
X113795295Y-80833332D01*
X113795295Y-80833332D02*
X113700057Y-80785713D01*
X113700057Y-80785713D02*
X113652438Y-80738094D01*
X113652438Y-80738094D02*
X113604819Y-80642856D01*
X113604819Y-80642856D02*
X113604819Y-80452380D01*
X113604819Y-80452380D02*
X113652438Y-80357142D01*
X113652438Y-80357142D02*
X113700057Y-80309523D01*
X113700057Y-80309523D02*
X113795295Y-80261904D01*
X113795295Y-80261904D02*
X113842914Y-80261904D01*
X113842914Y-80261904D02*
X113938152Y-80309523D01*
X113938152Y-80309523D02*
X113985771Y-80357142D01*
X113985771Y-80357142D02*
X114033390Y-80452380D01*
X114033390Y-80452380D02*
X114033390Y-80642856D01*
X114033390Y-80642856D02*
X114081009Y-80738094D01*
X114081009Y-80738094D02*
X114128628Y-80785713D01*
X114128628Y-80785713D02*
X114223866Y-80833332D01*
X114223866Y-80833332D02*
X114414342Y-80833332D01*
X114414342Y-80833332D02*
X114509580Y-80785713D01*
X114509580Y-80785713D02*
X114557200Y-80738094D01*
X114557200Y-80738094D02*
X114604819Y-80642856D01*
X114604819Y-80642856D02*
X114604819Y-80452380D01*
X114604819Y-80452380D02*
X114557200Y-80357142D01*
X114557200Y-80357142D02*
X114509580Y-80309523D01*
X114509580Y-80309523D02*
X114414342Y-80261904D01*
X114414342Y-80261904D02*
X114223866Y-80261904D01*
X114223866Y-80261904D02*
X114128628Y-80309523D01*
X114128628Y-80309523D02*
X114081009Y-80357142D01*
X114081009Y-80357142D02*
X114033390Y-80452380D01*
X113604819Y-79976189D02*
X113604819Y-79404761D01*
X114604819Y-79690475D02*
X113604819Y-79690475D01*
X114604819Y-79166665D02*
X113938152Y-78642856D01*
X113938152Y-79166665D02*
X114604819Y-78642856D01*
X119379819Y-85080729D02*
X120189342Y-85080729D01*
X120189342Y-85080729D02*
X120284580Y-85033110D01*
X120284580Y-85033110D02*
X120332200Y-84985491D01*
X120332200Y-84985491D02*
X120379819Y-84890253D01*
X120379819Y-84890253D02*
X120379819Y-84699777D01*
X120379819Y-84699777D02*
X120332200Y-84604539D01*
X120332200Y-84604539D02*
X120284580Y-84556920D01*
X120284580Y-84556920D02*
X120189342Y-84509301D01*
X120189342Y-84509301D02*
X119379819Y-84509301D01*
X119379819Y-83556920D02*
X119379819Y-84033110D01*
X119379819Y-84033110D02*
X119856009Y-84080729D01*
X119856009Y-84080729D02*
X119808390Y-84033110D01*
X119808390Y-84033110D02*
X119760771Y-83937872D01*
X119760771Y-83937872D02*
X119760771Y-83699777D01*
X119760771Y-83699777D02*
X119808390Y-83604539D01*
X119808390Y-83604539D02*
X119856009Y-83556920D01*
X119856009Y-83556920D02*
X119951247Y-83509301D01*
X119951247Y-83509301D02*
X120189342Y-83509301D01*
X120189342Y-83509301D02*
X120284580Y-83556920D01*
X120284580Y-83556920D02*
X120332200Y-83604539D01*
X120332200Y-83604539D02*
X120379819Y-83699777D01*
X120379819Y-83699777D02*
X120379819Y-83937872D01*
X120379819Y-83937872D02*
X120332200Y-84033110D01*
X120332200Y-84033110D02*
X120284580Y-84080729D01*
X113380057Y-61938094D02*
X113332438Y-61890475D01*
X113332438Y-61890475D02*
X113284819Y-61795237D01*
X113284819Y-61795237D02*
X113284819Y-61557142D01*
X113284819Y-61557142D02*
X113332438Y-61461904D01*
X113332438Y-61461904D02*
X113380057Y-61414285D01*
X113380057Y-61414285D02*
X113475295Y-61366666D01*
X113475295Y-61366666D02*
X113570533Y-61366666D01*
X113570533Y-61366666D02*
X113713390Y-61414285D01*
X113713390Y-61414285D02*
X114284819Y-61985713D01*
X114284819Y-61985713D02*
X114284819Y-61366666D01*
X113380057Y-60985713D02*
X113332438Y-60938094D01*
X113332438Y-60938094D02*
X113284819Y-60842856D01*
X113284819Y-60842856D02*
X113284819Y-60604761D01*
X113284819Y-60604761D02*
X113332438Y-60509523D01*
X113332438Y-60509523D02*
X113380057Y-60461904D01*
X113380057Y-60461904D02*
X113475295Y-60414285D01*
X113475295Y-60414285D02*
X113570533Y-60414285D01*
X113570533Y-60414285D02*
X113713390Y-60461904D01*
X113713390Y-60461904D02*
X114284819Y-61033332D01*
X114284819Y-61033332D02*
X114284819Y-60414285D01*
X113284819Y-59795237D02*
X113284819Y-59699999D01*
X113284819Y-59699999D02*
X113332438Y-59604761D01*
X113332438Y-59604761D02*
X113380057Y-59557142D01*
X113380057Y-59557142D02*
X113475295Y-59509523D01*
X113475295Y-59509523D02*
X113665771Y-59461904D01*
X113665771Y-59461904D02*
X113903866Y-59461904D01*
X113903866Y-59461904D02*
X114094342Y-59509523D01*
X114094342Y-59509523D02*
X114189580Y-59557142D01*
X114189580Y-59557142D02*
X114237200Y-59604761D01*
X114237200Y-59604761D02*
X114284819Y-59699999D01*
X114284819Y-59699999D02*
X114284819Y-59795237D01*
X114284819Y-59795237D02*
X114237200Y-59890475D01*
X114237200Y-59890475D02*
X114189580Y-59938094D01*
X114189580Y-59938094D02*
X114094342Y-59985713D01*
X114094342Y-59985713D02*
X113903866Y-60033332D01*
X113903866Y-60033332D02*
X113665771Y-60033332D01*
X113665771Y-60033332D02*
X113475295Y-59985713D01*
X113475295Y-59985713D02*
X113380057Y-59938094D01*
X113380057Y-59938094D02*
X113332438Y-59890475D01*
X113332438Y-59890475D02*
X113284819Y-59795237D01*
D14*
X115118200Y-60867142D02*
X114994391Y-60953809D01*
X115118200Y-61015714D02*
X114858200Y-61015714D01*
X114858200Y-61015714D02*
X114858200Y-60916666D01*
X114858200Y-60916666D02*
X114870581Y-60891904D01*
X114870581Y-60891904D02*
X114882962Y-60879523D01*
X114882962Y-60879523D02*
X114907724Y-60867142D01*
X114907724Y-60867142D02*
X114944867Y-60867142D01*
X114944867Y-60867142D02*
X114969629Y-60879523D01*
X114969629Y-60879523D02*
X114982010Y-60891904D01*
X114982010Y-60891904D02*
X114994391Y-60916666D01*
X114994391Y-60916666D02*
X114994391Y-61015714D01*
X115118200Y-60619523D02*
X115118200Y-60768095D01*
X115118200Y-60693809D02*
X114858200Y-60693809D01*
X114858200Y-60693809D02*
X114895343Y-60718571D01*
X114895343Y-60718571D02*
X114920105Y-60743333D01*
X114920105Y-60743333D02*
X114932486Y-60768095D01*
X114969629Y-60470952D02*
X114957248Y-60495714D01*
X114957248Y-60495714D02*
X114944867Y-60508095D01*
X114944867Y-60508095D02*
X114920105Y-60520476D01*
X114920105Y-60520476D02*
X114907724Y-60520476D01*
X114907724Y-60520476D02*
X114882962Y-60508095D01*
X114882962Y-60508095D02*
X114870581Y-60495714D01*
X114870581Y-60495714D02*
X114858200Y-60470952D01*
X114858200Y-60470952D02*
X114858200Y-60421428D01*
X114858200Y-60421428D02*
X114870581Y-60396666D01*
X114870581Y-60396666D02*
X114882962Y-60384285D01*
X114882962Y-60384285D02*
X114907724Y-60371904D01*
X114907724Y-60371904D02*
X114920105Y-60371904D01*
X114920105Y-60371904D02*
X114944867Y-60384285D01*
X114944867Y-60384285D02*
X114957248Y-60396666D01*
X114957248Y-60396666D02*
X114969629Y-60421428D01*
X114969629Y-60421428D02*
X114969629Y-60470952D01*
X114969629Y-60470952D02*
X114982010Y-60495714D01*
X114982010Y-60495714D02*
X114994391Y-60508095D01*
X114994391Y-60508095D02*
X115019153Y-60520476D01*
X115019153Y-60520476D02*
X115068677Y-60520476D01*
X115068677Y-60520476D02*
X115093439Y-60508095D01*
X115093439Y-60508095D02*
X115105820Y-60495714D01*
X115105820Y-60495714D02*
X115118200Y-60470952D01*
X115118200Y-60470952D02*
X115118200Y-60421428D01*
X115118200Y-60421428D02*
X115105820Y-60396666D01*
X115105820Y-60396666D02*
X115093439Y-60384285D01*
X115093439Y-60384285D02*
X115068677Y-60371904D01*
X115068677Y-60371904D02*
X115019153Y-60371904D01*
X115019153Y-60371904D02*
X114994391Y-60384285D01*
X114994391Y-60384285D02*
X114982010Y-60396666D01*
X114982010Y-60396666D02*
X114969629Y-60421428D01*
D10*
X127990641Y-69106118D02*
X128038260Y-68963261D01*
X128038260Y-68963261D02*
X128038260Y-68725166D01*
X128038260Y-68725166D02*
X127990641Y-68629928D01*
X127990641Y-68629928D02*
X127943021Y-68582309D01*
X127943021Y-68582309D02*
X127847783Y-68534690D01*
X127847783Y-68534690D02*
X127752545Y-68534690D01*
X127752545Y-68534690D02*
X127657307Y-68582309D01*
X127657307Y-68582309D02*
X127609688Y-68629928D01*
X127609688Y-68629928D02*
X127562069Y-68725166D01*
X127562069Y-68725166D02*
X127514450Y-68915642D01*
X127514450Y-68915642D02*
X127466831Y-69010880D01*
X127466831Y-69010880D02*
X127419212Y-69058499D01*
X127419212Y-69058499D02*
X127323974Y-69106118D01*
X127323974Y-69106118D02*
X127228736Y-69106118D01*
X127228736Y-69106118D02*
X127133498Y-69058499D01*
X127133498Y-69058499D02*
X127085879Y-69010880D01*
X127085879Y-69010880D02*
X127038260Y-68915642D01*
X127038260Y-68915642D02*
X127038260Y-68677547D01*
X127038260Y-68677547D02*
X127085879Y-68534690D01*
X127038260Y-68248975D02*
X127038260Y-67677547D01*
X128038260Y-67963261D02*
X127038260Y-67963261D01*
X128038260Y-67344213D02*
X127038260Y-67344213D01*
X127038260Y-67344213D02*
X127752545Y-67010880D01*
X127752545Y-67010880D02*
X127038260Y-66677547D01*
X127038260Y-66677547D02*
X128038260Y-66677547D01*
X127038260Y-66296594D02*
X127038260Y-65677547D01*
X127038260Y-65677547D02*
X127419212Y-66010880D01*
X127419212Y-66010880D02*
X127419212Y-65868023D01*
X127419212Y-65868023D02*
X127466831Y-65772785D01*
X127466831Y-65772785D02*
X127514450Y-65725166D01*
X127514450Y-65725166D02*
X127609688Y-65677547D01*
X127609688Y-65677547D02*
X127847783Y-65677547D01*
X127847783Y-65677547D02*
X127943021Y-65725166D01*
X127943021Y-65725166D02*
X127990641Y-65772785D01*
X127990641Y-65772785D02*
X128038260Y-65868023D01*
X128038260Y-65868023D02*
X128038260Y-66153737D01*
X128038260Y-66153737D02*
X127990641Y-66248975D01*
X127990641Y-66248975D02*
X127943021Y-66296594D01*
X127133498Y-65296594D02*
X127085879Y-65248975D01*
X127085879Y-65248975D02*
X127038260Y-65153737D01*
X127038260Y-65153737D02*
X127038260Y-64915642D01*
X127038260Y-64915642D02*
X127085879Y-64820404D01*
X127085879Y-64820404D02*
X127133498Y-64772785D01*
X127133498Y-64772785D02*
X127228736Y-64725166D01*
X127228736Y-64725166D02*
X127323974Y-64725166D01*
X127323974Y-64725166D02*
X127466831Y-64772785D01*
X127466831Y-64772785D02*
X128038260Y-65344213D01*
X128038260Y-65344213D02*
X128038260Y-64725166D01*
X127085879Y-63772785D02*
X127038260Y-63868023D01*
X127038260Y-63868023D02*
X127038260Y-64010880D01*
X127038260Y-64010880D02*
X127085879Y-64153737D01*
X127085879Y-64153737D02*
X127181117Y-64248975D01*
X127181117Y-64248975D02*
X127276355Y-64296594D01*
X127276355Y-64296594D02*
X127466831Y-64344213D01*
X127466831Y-64344213D02*
X127609688Y-64344213D01*
X127609688Y-64344213D02*
X127800164Y-64296594D01*
X127800164Y-64296594D02*
X127895402Y-64248975D01*
X127895402Y-64248975D02*
X127990641Y-64153737D01*
X127990641Y-64153737D02*
X128038260Y-64010880D01*
X128038260Y-64010880D02*
X128038260Y-63915642D01*
X128038260Y-63915642D02*
X127990641Y-63772785D01*
X127990641Y-63772785D02*
X127943021Y-63725166D01*
X127943021Y-63725166D02*
X127609688Y-63725166D01*
X127609688Y-63725166D02*
X127609688Y-63915642D01*
X127371593Y-62868023D02*
X128038260Y-62868023D01*
X126990641Y-63106118D02*
X127704926Y-63344213D01*
X127704926Y-63344213D02*
X127704926Y-62725166D01*
X127038260Y-62439451D02*
X127038260Y-61772785D01*
X127038260Y-61772785D02*
X128038260Y-62201356D01*
X127371593Y-60963261D02*
X128038260Y-60963261D01*
X126990641Y-61201356D02*
X127704926Y-61439451D01*
X127704926Y-61439451D02*
X127704926Y-60820404D01*
X128038260Y-59868023D02*
X127562069Y-60201356D01*
X128038260Y-60439451D02*
X127038260Y-60439451D01*
X127038260Y-60439451D02*
X127038260Y-60058499D01*
X127038260Y-60058499D02*
X127085879Y-59963261D01*
X127085879Y-59963261D02*
X127133498Y-59915642D01*
X127133498Y-59915642D02*
X127228736Y-59868023D01*
X127228736Y-59868023D02*
X127371593Y-59868023D01*
X127371593Y-59868023D02*
X127466831Y-59915642D01*
X127466831Y-59915642D02*
X127514450Y-59963261D01*
X127514450Y-59963261D02*
X127562069Y-60058499D01*
X127562069Y-60058499D02*
X127562069Y-60439451D01*
X127514450Y-59106118D02*
X127562069Y-58963261D01*
X127562069Y-58963261D02*
X127609688Y-58915642D01*
X127609688Y-58915642D02*
X127704926Y-58868023D01*
X127704926Y-58868023D02*
X127847783Y-58868023D01*
X127847783Y-58868023D02*
X127943021Y-58915642D01*
X127943021Y-58915642D02*
X127990641Y-58963261D01*
X127990641Y-58963261D02*
X128038260Y-59058499D01*
X128038260Y-59058499D02*
X128038260Y-59439451D01*
X128038260Y-59439451D02*
X127038260Y-59439451D01*
X127038260Y-59439451D02*
X127038260Y-59106118D01*
X127038260Y-59106118D02*
X127085879Y-59010880D01*
X127085879Y-59010880D02*
X127133498Y-58963261D01*
X127133498Y-58963261D02*
X127228736Y-58915642D01*
X127228736Y-58915642D02*
X127323974Y-58915642D01*
X127323974Y-58915642D02*
X127419212Y-58963261D01*
X127419212Y-58963261D02*
X127466831Y-59010880D01*
X127466831Y-59010880D02*
X127514450Y-59106118D01*
X127514450Y-59106118D02*
X127514450Y-59439451D01*
X127038260Y-58582308D02*
X127038260Y-58010880D01*
X128038260Y-58296594D02*
X127038260Y-58296594D01*
X128038260Y-57772784D02*
X127371593Y-57248975D01*
X127371593Y-57772784D02*
X128038260Y-57248975D01*
X119038095Y-66654819D02*
X119038095Y-67464342D01*
X119038095Y-67464342D02*
X119085714Y-67559580D01*
X119085714Y-67559580D02*
X119133333Y-67607200D01*
X119133333Y-67607200D02*
X119228571Y-67654819D01*
X119228571Y-67654819D02*
X119419047Y-67654819D01*
X119419047Y-67654819D02*
X119514285Y-67607200D01*
X119514285Y-67607200D02*
X119561904Y-67559580D01*
X119561904Y-67559580D02*
X119609523Y-67464342D01*
X119609523Y-67464342D02*
X119609523Y-66654819D01*
X120609523Y-67654819D02*
X120038095Y-67654819D01*
X120323809Y-67654819D02*
X120323809Y-66654819D01*
X120323809Y-66654819D02*
X120228571Y-66797676D01*
X120228571Y-66797676D02*
X120133333Y-66892914D01*
X120133333Y-66892914D02*
X120038095Y-66940533D01*
X112624819Y-61942857D02*
X112148628Y-62276190D01*
X112624819Y-62514285D02*
X111624819Y-62514285D01*
X111624819Y-62514285D02*
X111624819Y-62133333D01*
X111624819Y-62133333D02*
X111672438Y-62038095D01*
X111672438Y-62038095D02*
X111720057Y-61990476D01*
X111720057Y-61990476D02*
X111815295Y-61942857D01*
X111815295Y-61942857D02*
X111958152Y-61942857D01*
X111958152Y-61942857D02*
X112053390Y-61990476D01*
X112053390Y-61990476D02*
X112101009Y-62038095D01*
X112101009Y-62038095D02*
X112148628Y-62133333D01*
X112148628Y-62133333D02*
X112148628Y-62514285D01*
X112101009Y-61514285D02*
X112101009Y-61180952D01*
X112624819Y-61038095D02*
X112624819Y-61514285D01*
X112624819Y-61514285D02*
X111624819Y-61514285D01*
X111624819Y-61514285D02*
X111624819Y-61038095D01*
X112624819Y-60609523D02*
X111624819Y-60609523D01*
X111624819Y-60609523D02*
X111624819Y-60371428D01*
X111624819Y-60371428D02*
X111672438Y-60228571D01*
X111672438Y-60228571D02*
X111767676Y-60133333D01*
X111767676Y-60133333D02*
X111862914Y-60085714D01*
X111862914Y-60085714D02*
X112053390Y-60038095D01*
X112053390Y-60038095D02*
X112196247Y-60038095D01*
X112196247Y-60038095D02*
X112386723Y-60085714D01*
X112386723Y-60085714D02*
X112481961Y-60133333D01*
X112481961Y-60133333D02*
X112577200Y-60228571D01*
X112577200Y-60228571D02*
X112624819Y-60371428D01*
X112624819Y-60371428D02*
X112624819Y-60609523D01*
D11*
X113781927Y-61595237D02*
X113381927Y-61595237D01*
X113381927Y-61595237D02*
X113381927Y-61499999D01*
X113381927Y-61499999D02*
X113400975Y-61442856D01*
X113400975Y-61442856D02*
X113439070Y-61404761D01*
X113439070Y-61404761D02*
X113477165Y-61385714D01*
X113477165Y-61385714D02*
X113553356Y-61366666D01*
X113553356Y-61366666D02*
X113610499Y-61366666D01*
X113610499Y-61366666D02*
X113686689Y-61385714D01*
X113686689Y-61385714D02*
X113724784Y-61404761D01*
X113724784Y-61404761D02*
X113762880Y-61442856D01*
X113762880Y-61442856D02*
X113781927Y-61499999D01*
X113781927Y-61499999D02*
X113781927Y-61595237D01*
X113381927Y-61004761D02*
X113381927Y-61195237D01*
X113381927Y-61195237D02*
X113572403Y-61214285D01*
X113572403Y-61214285D02*
X113553356Y-61195237D01*
X113553356Y-61195237D02*
X113534308Y-61157142D01*
X113534308Y-61157142D02*
X113534308Y-61061904D01*
X113534308Y-61061904D02*
X113553356Y-61023809D01*
X113553356Y-61023809D02*
X113572403Y-61004761D01*
X113572403Y-61004761D02*
X113610499Y-60985714D01*
X113610499Y-60985714D02*
X113705737Y-60985714D01*
X113705737Y-60985714D02*
X113743832Y-61004761D01*
X113743832Y-61004761D02*
X113762880Y-61023809D01*
X113762880Y-61023809D02*
X113781927Y-61061904D01*
X113781927Y-61061904D02*
X113781927Y-61157142D01*
X113781927Y-61157142D02*
X113762880Y-61195237D01*
X113762880Y-61195237D02*
X113743832Y-61214285D01*
D10*
X117043332Y-91924819D02*
X116471904Y-91924819D01*
X116757618Y-91924819D02*
X116757618Y-90924819D01*
X116757618Y-90924819D02*
X116662380Y-91067676D01*
X116662380Y-91067676D02*
X116567142Y-91162914D01*
X116567142Y-91162914D02*
X116471904Y-91210533D01*
X117662380Y-90924819D02*
X117757618Y-90924819D01*
X117757618Y-90924819D02*
X117852856Y-90972438D01*
X117852856Y-90972438D02*
X117900475Y-91020057D01*
X117900475Y-91020057D02*
X117948094Y-91115295D01*
X117948094Y-91115295D02*
X117995713Y-91305771D01*
X117995713Y-91305771D02*
X117995713Y-91543866D01*
X117995713Y-91543866D02*
X117948094Y-91734342D01*
X117948094Y-91734342D02*
X117900475Y-91829580D01*
X117900475Y-91829580D02*
X117852856Y-91877200D01*
X117852856Y-91877200D02*
X117757618Y-91924819D01*
X117757618Y-91924819D02*
X117662380Y-91924819D01*
X117662380Y-91924819D02*
X117567142Y-91877200D01*
X117567142Y-91877200D02*
X117519523Y-91829580D01*
X117519523Y-91829580D02*
X117471904Y-91734342D01*
X117471904Y-91734342D02*
X117424285Y-91543866D01*
X117424285Y-91543866D02*
X117424285Y-91305771D01*
X117424285Y-91305771D02*
X117471904Y-91115295D01*
X117471904Y-91115295D02*
X117519523Y-91020057D01*
X117519523Y-91020057D02*
X117567142Y-90972438D01*
X117567142Y-90972438D02*
X117662380Y-90924819D01*
X118614761Y-90924819D02*
X118709999Y-90924819D01*
X118709999Y-90924819D02*
X118805237Y-90972438D01*
X118805237Y-90972438D02*
X118852856Y-91020057D01*
X118852856Y-91020057D02*
X118900475Y-91115295D01*
X118900475Y-91115295D02*
X118948094Y-91305771D01*
X118948094Y-91305771D02*
X118948094Y-91543866D01*
X118948094Y-91543866D02*
X118900475Y-91734342D01*
X118900475Y-91734342D02*
X118852856Y-91829580D01*
X118852856Y-91829580D02*
X118805237Y-91877200D01*
X118805237Y-91877200D02*
X118709999Y-91924819D01*
X118709999Y-91924819D02*
X118614761Y-91924819D01*
X118614761Y-91924819D02*
X118519523Y-91877200D01*
X118519523Y-91877200D02*
X118471904Y-91829580D01*
X118471904Y-91829580D02*
X118424285Y-91734342D01*
X118424285Y-91734342D02*
X118376666Y-91543866D01*
X118376666Y-91543866D02*
X118376666Y-91305771D01*
X118376666Y-91305771D02*
X118424285Y-91115295D01*
X118424285Y-91115295D02*
X118471904Y-91020057D01*
X118471904Y-91020057D02*
X118519523Y-90972438D01*
X118519523Y-90972438D02*
X118614761Y-90924819D01*
D14*
X117542856Y-90418200D02*
X117456189Y-90294391D01*
X117394284Y-90418200D02*
X117394284Y-90158200D01*
X117394284Y-90158200D02*
X117493332Y-90158200D01*
X117493332Y-90158200D02*
X117518094Y-90170581D01*
X117518094Y-90170581D02*
X117530475Y-90182962D01*
X117530475Y-90182962D02*
X117542856Y-90207724D01*
X117542856Y-90207724D02*
X117542856Y-90244867D01*
X117542856Y-90244867D02*
X117530475Y-90269629D01*
X117530475Y-90269629D02*
X117518094Y-90282010D01*
X117518094Y-90282010D02*
X117493332Y-90294391D01*
X117493332Y-90294391D02*
X117394284Y-90294391D01*
X117790475Y-90418200D02*
X117641903Y-90418200D01*
X117716189Y-90418200D02*
X117716189Y-90158200D01*
X117716189Y-90158200D02*
X117691427Y-90195343D01*
X117691427Y-90195343D02*
X117666665Y-90220105D01*
X117666665Y-90220105D02*
X117641903Y-90232486D01*
X117889522Y-90182962D02*
X117901903Y-90170581D01*
X117901903Y-90170581D02*
X117926665Y-90158200D01*
X117926665Y-90158200D02*
X117988570Y-90158200D01*
X117988570Y-90158200D02*
X118013332Y-90170581D01*
X118013332Y-90170581D02*
X118025713Y-90182962D01*
X118025713Y-90182962D02*
X118038094Y-90207724D01*
X118038094Y-90207724D02*
X118038094Y-90232486D01*
X118038094Y-90232486D02*
X118025713Y-90269629D01*
X118025713Y-90269629D02*
X117877141Y-90418200D01*
X117877141Y-90418200D02*
X118038094Y-90418200D01*
D15*
G04 #@! TO.C,D1*
X123100000Y-29700000D02*
X123100000Y-31000000D01*
X123100000Y-31000000D02*
X123400000Y-31300000D01*
X123400000Y-31300000D02*
X123900000Y-31300000D01*
X123900000Y-29700000D02*
X123100000Y-29700000D01*
X123900000Y-31300000D02*
X123900000Y-29700000D01*
G04 #@! TO.C,C7*
X113775000Y-35200000D02*
X115025000Y-35200000D01*
X113775000Y-37200000D02*
X113775000Y-35200000D01*
X115025000Y-35200000D02*
X115025000Y-37200000D01*
X115025000Y-37200000D02*
X113775000Y-37200000D01*
G04 #@! TO.C,U4*
X115650000Y-31650000D02*
X122350000Y-31650000D01*
X115650000Y-34350000D02*
X115650000Y-31650000D01*
X116650001Y-35350000D02*
X115650000Y-34350000D01*
X116650001Y-35350000D02*
X122350000Y-35350000D01*
X122350000Y-35350000D02*
X122350000Y-31650000D01*
G04 #@! TO.C,R3*
X123230000Y-33225000D02*
X123770000Y-33225000D01*
X123230000Y-34275000D02*
X123230000Y-33225000D01*
X123770000Y-33225000D02*
X123770000Y-34275000D01*
X123770000Y-34275000D02*
X123230000Y-34275000D01*
G04 #@! TO.C,Y1*
X118162501Y-74350000D02*
X118362500Y-74150000D01*
X118162501Y-77150000D02*
X118162501Y-74350000D01*
X118362500Y-74150000D02*
X122962500Y-74150000D01*
X118362500Y-77350000D02*
X118162501Y-77150000D01*
X122962500Y-74150000D02*
X123162499Y-74350000D01*
X122962500Y-77350000D02*
X118362500Y-77350000D01*
X123162499Y-74350000D02*
X123162499Y-77150000D01*
X123162499Y-77150000D02*
X122962500Y-77350000D01*
X123162500Y-75150000D02*
X122162500Y-74150000D01*
G04 #@! TO.C,C6*
X123500000Y-36125000D02*
X125500000Y-36125000D01*
X123500000Y-37375000D02*
X123500000Y-36125000D01*
X125500000Y-36125000D02*
X125500000Y-37375000D01*
X125500000Y-37375000D02*
X123500000Y-37375000D01*
G04 #@! TO.C,C9*
X121587500Y-78100000D02*
X123187500Y-78100000D01*
X121587500Y-78900000D02*
X121587500Y-78100000D01*
X123187500Y-78100000D02*
X123187500Y-78900000D01*
X123187500Y-78900000D02*
X121587500Y-78900000D01*
G04 #@! TO.C,J1*
X112390000Y-92190000D02*
X112390000Y-93440000D01*
X112800000Y-92600000D02*
X112800000Y-97100000D01*
X112800000Y-97100000D02*
X126700000Y-97100000D01*
X113640000Y-92190000D02*
X112390000Y-92190000D01*
X126700000Y-92600000D02*
X112800000Y-92600000D01*
X126700000Y-97100000D02*
X126700000Y-92600000D01*
G04 #@! TO.C,C10*
X118137500Y-78100000D02*
X119737500Y-78100000D01*
X118137500Y-78900000D02*
X118137500Y-78100000D01*
X119737500Y-78100000D02*
X119737500Y-78900000D01*
X119737500Y-78900000D02*
X118137500Y-78900000D01*
G04 #@! TO.C,D4*
X112499999Y-88300000D02*
X114300001Y-88300000D01*
X112499999Y-91100000D02*
X112499999Y-88300000D01*
X113000000Y-89950000D02*
X113400000Y-89350001D01*
X113400000Y-88950000D02*
X113400000Y-89350001D01*
X113400000Y-89350001D02*
X112850000Y-89350000D01*
X113400000Y-89350001D02*
X113800000Y-89950000D01*
X113400000Y-89350001D02*
X113950000Y-89350000D01*
X113400000Y-89950000D02*
X113400000Y-90450000D01*
X113800000Y-89950000D02*
X113000000Y-89950000D01*
X114300001Y-88300000D02*
X114300001Y-91100000D01*
X114300001Y-91100000D02*
X112499999Y-91100000D01*
G04 #@! TO.C,U5*
X116500000Y-81000000D02*
X122500000Y-81000000D01*
X116500000Y-88000000D02*
X116500000Y-81000000D01*
X122500000Y-81000000D02*
X123500000Y-82000000D01*
X123500000Y-82000000D02*
X123500000Y-88000000D01*
X123500000Y-88000000D02*
X116500000Y-88000000D01*
G04 #@! TO.C,R18*
X114730000Y-60175000D02*
X115270000Y-60175000D01*
X114730000Y-61225000D02*
X114730000Y-60175000D01*
X115270000Y-60175000D02*
X115270000Y-61225000D01*
X115270000Y-61225000D02*
X114730000Y-61225000D01*
G04 #@! TO.C,U1*
X114750000Y-62075000D02*
X124750000Y-62075000D01*
X114750000Y-71075000D02*
X114750000Y-62075000D01*
X115750000Y-72075000D02*
X114750000Y-71075000D01*
X124750000Y-62075000D02*
X124750000Y-72075000D01*
X124750000Y-72075000D02*
X115750000Y-72075000D01*
G04 #@! TO.C,D5*
X113200000Y-60500000D02*
X113200000Y-62100000D01*
X113200000Y-62100000D02*
X114000000Y-62100000D01*
X113700000Y-60500000D02*
X113200000Y-60500000D01*
X114000000Y-60800000D02*
X113700000Y-60500000D01*
X114000000Y-62100000D02*
X114000000Y-60800000D01*
G04 #@! TO.C,R12*
X117184999Y-90030000D02*
X118234999Y-90030000D01*
X117184999Y-90570000D02*
X117184999Y-90030000D01*
X118234999Y-90030000D02*
X118234999Y-90570000D01*
X118234999Y-90570000D02*
X117184999Y-90570000D01*
G04 #@! TD*
M02*
