M48
; DRILL file {KiCad 8.0.5} date 2024-10-01T14:56:49-0700
; FORMAT={-:-/ absolute / metric / decimal}
; #@! TF.CreationDate,2024-10-01T14:56:49-07:00
; #@! TF.GenerationSoftware,Kicad,Pcbnew,8.0.5
; #@! TF.FileFunction,Plated,1,4,PTH
FMAT,2
METRIC
; #@! TA.AperFunction,Plated,PTH,ViaDrill
T1C0.300
; #@! TA.AperFunction,Plated,PTH,ComponentDrill
T2C0.750
; #@! TA.AperFunction,Plated,PTH,ComponentDrill
T3C1.000
%
G90
G05
T1
X109.8Y-89.5
X112.8Y-33.3
X112.8Y-33.9
X112.8Y-34.5
X112.8Y-35.1
X113.45Y-71.05
X113.6Y-38.8
X113.75Y-77.75
X113.75Y-85.75
X113.8Y-76.0
X114.0Y-39.2
X114.1Y-54.4
X114.4Y-39.6
X114.5Y-59.5
X114.8Y-40.1
X114.95Y-29.845
X115.144Y-75.879
X115.15Y-72.7
X115.2Y-40.6
X115.35Y-68.8
X115.363Y-64.35
X115.377Y-65.881
X115.435Y-65.121
X115.435Y-67.16
X115.45Y-80.15
X115.55Y-67.85
X115.6Y-54.5
X115.838Y-88.412
X115.927Y-63.9
X116.0Y-41.3
X116.2Y-59.8
X116.2Y-62.675
X116.3Y-71.5
X116.6Y-41.3
X116.7Y-79.4
X116.8Y-69.351
X116.85Y-77.45
X117.1Y-83.2
X117.2Y-41.3
X117.2Y-64.8
X117.275Y-82.2
X117.4Y-48.5
X117.5Y-71.4
X117.625Y-53.1
X117.629Y-86.971
X117.75Y-78.05
X117.8Y-41.3
X118.4Y-41.3
X118.4Y-62.9
X118.7Y-68.25
X118.795Y-87.325
X118.825Y-82.2
X119.0Y-41.3
X119.6Y-41.3
X120.103Y-86.387
X120.2Y-85.3
X120.225Y-96.1
X120.7Y-47.7
X120.75Y-69.3
X121.109Y-81.784
X121.35Y-87.3
X121.49Y-92.0
X121.85Y-90.3
X121.863Y-84.137
X121.9Y-62.75
X121.9Y-67.95
X121.924Y-69.875
X122.3Y-82.25
X122.55Y-89.85
X122.575Y-57.2
X122.575Y-59.2
X122.6Y-54.9
X122.7Y-85.52
X122.85Y-86.75
X122.975Y-83.15
X123.1Y-51.5
X123.1Y-65.3
X123.162Y-78.5
X123.25Y-69.15
X123.25Y-71.45
X123.4Y-62.75
X123.4Y-67.95
X123.425Y-80.05
X123.8Y-65.3
X123.95Y-88.2
X124.0Y-69.85
X124.013Y-80.594
X124.15Y-73.7
X124.2Y-77.05
X124.7Y-81.15
X124.8Y-38.8
X124.85Y-75.2
X124.9Y-60.925
X124.9Y-62.475
X125.525Y-77.4
X125.8Y-37.8
X126.4Y-37.0
X126.4Y-52.8
X126.75Y-69.35
X126.9Y-65.55
X126.95Y-63.45
T2
X114.75Y-94.3
X116.75Y-94.3
X118.75Y-94.3
X120.75Y-94.3
X122.75Y-94.3
X124.75Y-94.3
T3
X110.7Y-29.76
X110.7Y-32.3
X110.7Y-34.84
X110.7Y-37.38
X110.7Y-39.92
X110.7Y-42.46
X110.7Y-45.0
X110.7Y-47.54
X110.7Y-50.08
X110.7Y-52.62
X110.7Y-55.16
X110.7Y-57.7
X110.7Y-60.24
X110.7Y-62.78
X110.7Y-65.32
X110.7Y-67.86
X110.7Y-70.4
X110.7Y-72.94
X110.7Y-75.48
X110.7Y-78.02
X110.7Y-80.56
X110.7Y-83.1
X110.7Y-85.64
X110.7Y-88.18
X110.7Y-90.72
X110.7Y-93.26
X110.7Y-95.8
X128.7Y-29.76
X128.7Y-32.3
X128.7Y-34.84
X128.7Y-37.38
X128.7Y-39.92
X128.7Y-42.46
X128.7Y-45.0
X128.7Y-47.54
X128.7Y-50.08
X128.7Y-52.62
X128.7Y-55.16
X128.7Y-57.7
X128.7Y-60.24
X128.7Y-62.78
X128.7Y-65.32
X128.7Y-67.86
X128.7Y-70.4
X128.7Y-72.94
X128.7Y-75.48
X128.7Y-78.02
X128.7Y-80.56
X128.7Y-83.1
X128.7Y-85.64
X128.7Y-88.18
X128.7Y-90.72
X128.7Y-93.26
X128.7Y-95.8
M30
