G04 #@! TF.GenerationSoftware,KiCad,Pcbnew,8.0.5*
G04 #@! TF.CreationDate,2024-10-01T14:56:49-07:00*
G04 #@! TF.ProjectId,gr25_nodes,67723235-5f6e-46f6-9465-732e6b696361,rev?*
G04 #@! TF.SameCoordinates,Original*
G04 #@! TF.FileFunction,Copper,L2,Inr*
G04 #@! TF.FilePolarity,Positive*
%FSLAX46Y46*%
G04 Gerber Fmt 4.6, Leading zero omitted, Abs format (unit mm)*
G04 Created by KiCad (PCBNEW 8.0.5) date 2024-10-01 14:56:49*
%MOMM*%
%LPD*%
G01*
G04 APERTURE LIST*
G04 Aperture macros list*
%AMRoundRect*
0 Rectangle with rounded corners*
0 $1 Rounding radius*
0 $2 $3 $4 $5 $6 $7 $8 $9 X,Y pos of 4 corners*
0 Add a 4 corners polygon primitive as box body*
4,1,4,$2,$3,$4,$5,$6,$7,$8,$9,$2,$3,0*
0 Add four circle primitives for the rounded corners*
1,1,$1+$1,$2,$3*
1,1,$1+$1,$4,$5*
1,1,$1+$1,$6,$7*
1,1,$1+$1,$8,$9*
0 Add four rect primitives between the rounded corners*
20,1,$1+$1,$2,$3,$4,$5,0*
20,1,$1+$1,$4,$5,$6,$7,0*
20,1,$1+$1,$6,$7,$8,$9,0*
20,1,$1+$1,$8,$9,$2,$3,0*%
G04 Aperture macros list end*
G04 #@! TA.AperFunction,ComponentPad*
%ADD10RoundRect,0.250000X-0.350000X-0.625000X0.350000X-0.625000X0.350000X0.625000X-0.350000X0.625000X0*%
G04 #@! TD*
G04 #@! TA.AperFunction,ComponentPad*
%ADD11O,1.200000X1.750000*%
G04 #@! TD*
G04 #@! TA.AperFunction,ComponentPad*
%ADD12R,1.700000X1.700000*%
G04 #@! TD*
G04 #@! TA.AperFunction,ComponentPad*
%ADD13O,1.700000X1.700000*%
G04 #@! TD*
G04 #@! TA.AperFunction,ViaPad*
%ADD14C,0.500000*%
G04 #@! TD*
G04 APERTURE END LIST*
D10*
G04 #@! TO.N,GND*
G04 #@! TO.C,J1*
X114750000Y-94300000D03*
D11*
G04 #@! TO.N,Net-(J1-Pin_2)*
X116750000Y-94300000D03*
G04 #@! TO.N,D-*
X118750000Y-94300000D03*
G04 #@! TO.N,D+*
X120750000Y-94300000D03*
G04 #@! TO.N,Net-(J1-Pin_5)*
X122750000Y-94300000D03*
G04 #@! TO.N,VBUS*
X124750000Y-94300000D03*
G04 #@! TD*
D12*
G04 #@! TO.N,+12V*
G04 #@! TO.C,J6*
X128700000Y-29760000D03*
D13*
G04 #@! TO.N,GND*
X128700000Y-32300000D03*
G04 #@! TO.N,+5V*
X128700000Y-34839999D03*
G04 #@! TO.N,+3.3V*
X128700000Y-37380000D03*
G04 #@! TO.N,I2C3_SDA*
X128700000Y-39920000D03*
G04 #@! TO.N,I2C3_SCL*
X128700000Y-42460000D03*
G04 #@! TO.N,I2C4_SDA*
X128700000Y-45000000D03*
G04 #@! TO.N,I2C4_SCL*
X128700000Y-47540001D03*
G04 #@! TO.N,PB15*
X128700000Y-50080000D03*
G04 #@! TO.N,PB14*
X128700000Y-52620000D03*
G04 #@! TO.N,CANL2*
X128700000Y-55160000D03*
G04 #@! TO.N,CANH2*
X128700000Y-57699999D03*
G04 #@! TO.N,PB11*
X128700000Y-60240000D03*
G04 #@! TO.N,PB10*
X128700000Y-62780000D03*
G04 #@! TO.N,PB2*
X128700000Y-65320000D03*
G04 #@! TO.N,PB1*
X128700000Y-67859999D03*
G04 #@! TO.N,PB0*
X128700000Y-70400001D03*
G04 #@! TO.N,PC5*
X128700000Y-72940000D03*
G04 #@! TO.N,PC4*
X128700000Y-75480000D03*
G04 #@! TO.N,SPI1_MISO*
X128700000Y-78020000D03*
G04 #@! TO.N,SPI1_MOSI*
X128700000Y-80559999D03*
G04 #@! TO.N,SPI1_SCK*
X128700000Y-83100000D03*
G04 #@! TO.N,PA4*
X128700000Y-85640000D03*
G04 #@! TO.N,PA3*
X128700000Y-88180000D03*
G04 #@! TO.N,PA2*
X128700000Y-90719999D03*
G04 #@! TO.N,PA1*
X128700000Y-93260001D03*
G04 #@! TO.N,PA0*
X128700000Y-95800000D03*
G04 #@! TD*
D12*
G04 #@! TO.N,+12V*
G04 #@! TO.C,J7*
X110700000Y-29760000D03*
D13*
G04 #@! TO.N,GND*
X110700000Y-32300000D03*
G04 #@! TO.N,+5V*
X110700000Y-34839999D03*
G04 #@! TO.N,+3.3V*
X110700000Y-37380000D03*
G04 #@! TO.N,I2C2_SDA*
X110700000Y-39920000D03*
G04 #@! TO.N,I2C2_SCL*
X110700000Y-42460000D03*
G04 #@! TO.N,PA10*
X110700000Y-45000000D03*
G04 #@! TO.N,CANH3*
X110700000Y-47540001D03*
G04 #@! TO.N,CANL3*
X110700000Y-50080000D03*
G04 #@! TO.N,SPI3_SCK*
X110700000Y-52620000D03*
G04 #@! TO.N,SPI3_MISO*
X110700000Y-55160000D03*
G04 #@! TO.N,SPI3_MOSI*
X110700000Y-57699999D03*
G04 #@! TO.N,PD2*
X110700000Y-60240000D03*
G04 #@! TO.N,PB3*
X110700000Y-62780000D03*
G04 #@! TO.N,PB4*
X110700000Y-65320000D03*
G04 #@! TO.N,PB5*
X110700000Y-67859999D03*
G04 #@! TO.N,PB6*
X110700000Y-70400001D03*
G04 #@! TO.N,I2C1_SDA*
X110700000Y-72940000D03*
G04 #@! TO.N,I2C1_SCL*
X110700000Y-75480000D03*
G04 #@! TO.N,PB9*
X110700000Y-78020000D03*
G04 #@! TO.N,PC13*
X110700000Y-80559999D03*
G04 #@! TO.N,PC14*
X110700000Y-83100000D03*
G04 #@! TO.N,PC15*
X110700000Y-85640000D03*
G04 #@! TO.N,PC2*
X110700000Y-88180000D03*
G04 #@! TO.N,PC1*
X110700000Y-90719999D03*
G04 #@! TO.N,PC0*
X110700000Y-93260001D03*
G04 #@! TO.N,PC3*
X110700000Y-95800000D03*
G04 #@! TD*
D14*
G04 #@! TO.N,GND*
X120200000Y-85300000D03*
X114400000Y-39600000D03*
X119000000Y-41300000D03*
X120700000Y-47700000D03*
X118400000Y-41300000D03*
X116000000Y-41300000D03*
X121900000Y-62750000D03*
X117200000Y-41300000D03*
X119600000Y-41300000D03*
X117275000Y-82200000D03*
X115350000Y-68800000D03*
X122300000Y-82250000D03*
X116600000Y-41300000D03*
X125525000Y-77400000D03*
X121900000Y-67950000D03*
X115600000Y-54500000D03*
X122700000Y-85519998D03*
X113600000Y-38800000D03*
X115200000Y-40600000D03*
X123400000Y-62750000D03*
X126400000Y-37000000D03*
X122975000Y-83150000D03*
X113750000Y-77750000D03*
X121350000Y-87300000D03*
X116200000Y-62675000D03*
X114950000Y-29844975D03*
X116300000Y-71500000D03*
X120225000Y-96100000D03*
X114500000Y-59500000D03*
X124900000Y-60925000D03*
X123162500Y-78500000D03*
X122575000Y-57200000D03*
X114800000Y-40100000D03*
X117628635Y-86971365D03*
X117800000Y-41300000D03*
X123250000Y-71450000D03*
X123400000Y-67950000D03*
X123100000Y-51500000D03*
X125800000Y-37800000D03*
X126900000Y-65550000D03*
X114000000Y-39200000D03*
X117750000Y-78050000D03*
X126950000Y-63450000D03*
G04 #@! TO.N,+5V*
X124800000Y-38800000D03*
X109800000Y-89500000D03*
G04 #@! TO.N,+3.3V*
X112800000Y-33900000D03*
X113450000Y-71050000D03*
X112800000Y-33300000D03*
X124150000Y-73700000D03*
X112800000Y-34500000D03*
X124700000Y-81150000D03*
X115150000Y-72700000D03*
X113750000Y-85750000D03*
X124900000Y-62475000D03*
X114100000Y-54400000D03*
X118825000Y-82200000D03*
X123425000Y-80050000D03*
X115837653Y-88412347D03*
X118400000Y-62900000D03*
X116200000Y-59800000D03*
X112800000Y-35100000D03*
X122550000Y-89850000D03*
X120102654Y-86387347D03*
X126400000Y-52800000D03*
G04 #@! TO.N,VDDA*
X123800000Y-65300000D03*
X123100000Y-65300000D03*
G04 #@! TO.N,LED*
X118795444Y-87325000D03*
G04 #@! TO.N,D+*
X121490001Y-92000000D03*
G04 #@! TO.N,PC0*
X116800000Y-69351257D03*
G04 #@! TO.N,PA0*
X120750000Y-69300000D03*
X124200000Y-77050000D03*
G04 #@! TO.N,PA1*
X121924201Y-69875000D03*
X124850000Y-75200000D03*
G04 #@! TO.N,PC2*
X115434920Y-67159522D03*
G04 #@! TO.N,PC3*
X118700000Y-68250000D03*
G04 #@! TO.N,PC1*
X115550000Y-67850000D03*
G04 #@! TO.N,SPI3_MOSI*
X115376633Y-65881236D03*
G04 #@! TO.N,SPI3_SCK*
X115363173Y-64350000D03*
G04 #@! TO.N,SPI3_MISO*
X115434556Y-65121382D03*
G04 #@! TO.N,PC4*
X123250000Y-69150000D03*
G04 #@! TO.N,SPI1_MISO*
X126750000Y-69350000D03*
G04 #@! TO.N,SPI1_MOSI*
X124000000Y-69850000D03*
G04 #@! TO.N,Net-(U5-PA0)*
X116700000Y-79400000D03*
G04 #@! TO.N,Net-(U5-PC13)*
X124013376Y-80593860D03*
G04 #@! TO.N,Net-(U5-PC14)*
X121108882Y-81783882D03*
G04 #@! TO.N,B0*
X116850000Y-77450000D03*
X121862653Y-84137347D03*
X115450000Y-80150000D03*
G04 #@! TO.N,T_DIO*
X113800000Y-76000000D03*
X117200000Y-64800000D03*
G04 #@! TO.N,RENUM*
X122850000Y-86750000D03*
G04 #@! TO.N,DIO*
X121850000Y-90300000D03*
G04 #@! TO.N,CLK*
X123950000Y-88200000D03*
G04 #@! TO.N,CTXD2*
X122575000Y-59200000D03*
G04 #@! TO.N,T_CLK*
X115926926Y-63900000D03*
X115144011Y-75879050D03*
G04 #@! TO.N,CTXD3*
X117400000Y-48500000D03*
G04 #@! TO.N,CRXD3*
X117625003Y-53100000D03*
G04 #@! TO.N,CRXD2*
X122600000Y-54900000D03*
G04 #@! TO.N,T_RST*
X117500000Y-71400000D03*
X117100000Y-83200000D03*
G04 #@! TD*
G04 #@! TA.AperFunction,Conductor*
G04 #@! TO.N,GND*
G36*
X130626142Y-27774830D02*
G01*
X130693158Y-27794591D01*
X130738853Y-27847447D01*
X130750000Y-27898830D01*
X130750000Y-97626000D01*
X130730315Y-97693039D01*
X130677511Y-97738794D01*
X130626000Y-97750000D01*
X108874000Y-97750000D01*
X108806961Y-97730315D01*
X108761206Y-97677511D01*
X108750000Y-97626000D01*
X108750000Y-89499997D01*
X109044751Y-89499997D01*
X109044751Y-89500002D01*
X109063685Y-89668056D01*
X109119545Y-89827694D01*
X109119547Y-89827697D01*
X109209518Y-89970884D01*
X109209523Y-89970890D01*
X109329111Y-90090478D01*
X109372670Y-90117848D01*
X109418960Y-90170182D01*
X109429608Y-90239236D01*
X109426472Y-90254934D01*
X109364938Y-90484585D01*
X109364936Y-90484595D01*
X109344341Y-90719998D01*
X109344341Y-90719999D01*
X109364936Y-90955402D01*
X109364938Y-90955412D01*
X109426094Y-91183654D01*
X109426096Y-91183658D01*
X109426097Y-91183662D01*
X109525965Y-91397829D01*
X109525967Y-91397833D01*
X109634281Y-91552520D01*
X109661505Y-91591400D01*
X109828599Y-91758494D01*
X109933492Y-91831941D01*
X110014160Y-91888425D01*
X110057784Y-91943002D01*
X110064977Y-92012501D01*
X110033455Y-92074855D01*
X110014160Y-92091575D01*
X109828594Y-92221509D01*
X109661505Y-92388598D01*
X109525965Y-92582170D01*
X109525964Y-92582172D01*
X109426098Y-92796336D01*
X109426094Y-92796345D01*
X109364938Y-93024587D01*
X109364936Y-93024597D01*
X109344341Y-93260000D01*
X109344341Y-93260001D01*
X109364936Y-93495404D01*
X109364938Y-93495414D01*
X109426094Y-93723656D01*
X109426096Y-93723660D01*
X109426097Y-93723664D01*
X109446446Y-93767302D01*
X109525965Y-93937831D01*
X109525967Y-93937835D01*
X109661501Y-94131396D01*
X109661506Y-94131403D01*
X109828597Y-94298494D01*
X109828603Y-94298499D01*
X110014157Y-94428425D01*
X110057782Y-94483002D01*
X110064976Y-94552500D01*
X110033453Y-94614855D01*
X110014158Y-94631575D01*
X109828594Y-94761508D01*
X109661505Y-94928597D01*
X109525965Y-95122169D01*
X109525964Y-95122171D01*
X109469099Y-95244119D01*
X109429475Y-95329094D01*
X109426098Y-95336335D01*
X109426094Y-95336344D01*
X109364938Y-95564586D01*
X109364936Y-95564596D01*
X109344341Y-95799999D01*
X109344341Y-95800000D01*
X109364936Y-96035403D01*
X109364938Y-96035413D01*
X109426094Y-96263655D01*
X109426096Y-96263659D01*
X109426097Y-96263663D01*
X109525965Y-96477830D01*
X109525967Y-96477834D01*
X109634281Y-96632521D01*
X109661505Y-96671401D01*
X109828599Y-96838495D01*
X109925384Y-96906265D01*
X110022165Y-96974032D01*
X110022167Y-96974033D01*
X110022170Y-96974035D01*
X110236337Y-97073903D01*
X110464592Y-97135063D01*
X110652918Y-97151539D01*
X110699999Y-97155659D01*
X110700000Y-97155659D01*
X110700001Y-97155659D01*
X110739234Y-97152226D01*
X110935408Y-97135063D01*
X111163663Y-97073903D01*
X111377830Y-96974035D01*
X111571401Y-96838495D01*
X111738495Y-96671401D01*
X111874035Y-96477830D01*
X111973903Y-96263663D01*
X112035063Y-96035408D01*
X112055659Y-95800000D01*
X112035063Y-95564592D01*
X111973903Y-95336337D01*
X111874035Y-95122171D01*
X111842895Y-95077697D01*
X111738494Y-94928597D01*
X111571402Y-94761506D01*
X111571401Y-94761505D01*
X111385842Y-94631575D01*
X111342218Y-94576998D01*
X111335025Y-94507499D01*
X111366547Y-94445145D01*
X111385843Y-94428425D01*
X111498745Y-94349370D01*
X111571401Y-94298496D01*
X111738495Y-94131402D01*
X111874035Y-93937831D01*
X111973903Y-93723664D01*
X112000336Y-93625013D01*
X113650000Y-93625013D01*
X113650000Y-94050000D01*
X114469670Y-94050000D01*
X114449925Y-94069745D01*
X114400556Y-94155255D01*
X114375000Y-94250630D01*
X114375000Y-94349370D01*
X114400556Y-94444745D01*
X114449925Y-94530255D01*
X114469670Y-94550000D01*
X113650001Y-94550000D01*
X113650001Y-94974986D01*
X113660494Y-95077697D01*
X113715641Y-95244119D01*
X113715643Y-95244124D01*
X113807684Y-95393345D01*
X113931654Y-95517315D01*
X114080875Y-95609356D01*
X114080880Y-95609358D01*
X114247302Y-95664505D01*
X114247309Y-95664506D01*
X114350019Y-95674999D01*
X114499999Y-95674999D01*
X114500000Y-95674998D01*
X114500000Y-94580330D01*
X114519745Y-94600075D01*
X114605255Y-94649444D01*
X114700630Y-94675000D01*
X114799370Y-94675000D01*
X114894745Y-94649444D01*
X114980255Y-94600075D01*
X115000000Y-94580330D01*
X115000000Y-95674999D01*
X115149972Y-95674999D01*
X115149986Y-95674998D01*
X115252697Y-95664505D01*
X115419119Y-95609358D01*
X115419124Y-95609356D01*
X115568345Y-95517315D01*
X115692315Y-95393345D01*
X115731945Y-95329094D01*
X115783893Y-95282368D01*
X115852855Y-95271145D01*
X115916937Y-95298988D01*
X115925166Y-95306508D01*
X116033072Y-95414414D01*
X116173212Y-95516232D01*
X116327555Y-95594873D01*
X116492299Y-95648402D01*
X116663389Y-95675500D01*
X116663390Y-95675500D01*
X116836610Y-95675500D01*
X116836611Y-95675500D01*
X117007701Y-95648402D01*
X117172445Y-95594873D01*
X117326788Y-95516232D01*
X117466928Y-95414414D01*
X117589414Y-95291928D01*
X117649682Y-95208975D01*
X117705012Y-95166311D01*
X117774626Y-95160332D01*
X117836421Y-95192938D01*
X117850315Y-95208973D01*
X117910586Y-95291928D01*
X118033072Y-95414414D01*
X118173212Y-95516232D01*
X118327555Y-95594873D01*
X118492299Y-95648402D01*
X118663389Y-95675500D01*
X118663390Y-95675500D01*
X118836610Y-95675500D01*
X118836611Y-95675500D01*
X119007701Y-95648402D01*
X119172445Y-95594873D01*
X119326788Y-95516232D01*
X119466928Y-95414414D01*
X119589414Y-95291928D01*
X119649682Y-95208975D01*
X119705012Y-95166311D01*
X119774626Y-95160332D01*
X119836421Y-95192938D01*
X119850315Y-95208973D01*
X119910586Y-95291928D01*
X120033072Y-95414414D01*
X120173212Y-95516232D01*
X120327555Y-95594873D01*
X120492299Y-95648402D01*
X120663389Y-95675500D01*
X120663390Y-95675500D01*
X120836610Y-95675500D01*
X120836611Y-95675500D01*
X121007701Y-95648402D01*
X121172445Y-95594873D01*
X121326788Y-95516232D01*
X121466928Y-95414414D01*
X121589414Y-95291928D01*
X121649682Y-95208975D01*
X121705012Y-95166311D01*
X121774626Y-95160332D01*
X121836421Y-95192938D01*
X121850315Y-95208973D01*
X121910586Y-95291928D01*
X122033072Y-95414414D01*
X122173212Y-95516232D01*
X122327555Y-95594873D01*
X122492299Y-95648402D01*
X122663389Y-95675500D01*
X122663390Y-95675500D01*
X122836610Y-95675500D01*
X122836611Y-95675500D01*
X123007701Y-95648402D01*
X123172445Y-95594873D01*
X123326788Y-95516232D01*
X123466928Y-95414414D01*
X123589414Y-95291928D01*
X123649682Y-95208975D01*
X123705012Y-95166311D01*
X123774626Y-95160332D01*
X123836421Y-95192938D01*
X123850315Y-95208973D01*
X123910586Y-95291928D01*
X124033072Y-95414414D01*
X124173212Y-95516232D01*
X124327555Y-95594873D01*
X124492299Y-95648402D01*
X124663389Y-95675500D01*
X124663390Y-95675500D01*
X124836610Y-95675500D01*
X124836611Y-95675500D01*
X125007701Y-95648402D01*
X125172445Y-95594873D01*
X125326788Y-95516232D01*
X125466928Y-95414414D01*
X125589414Y-95291928D01*
X125691232Y-95151788D01*
X125769873Y-94997445D01*
X125823402Y-94832701D01*
X125850500Y-94661611D01*
X125850500Y-93938389D01*
X125823402Y-93767299D01*
X125769873Y-93602555D01*
X125691232Y-93448212D01*
X125589414Y-93308072D01*
X125466928Y-93185586D01*
X125326788Y-93083768D01*
X125172445Y-93005127D01*
X125007701Y-92951598D01*
X125007699Y-92951597D01*
X125007698Y-92951597D01*
X124876271Y-92930781D01*
X124836611Y-92924500D01*
X124663389Y-92924500D01*
X124623728Y-92930781D01*
X124492302Y-92951597D01*
X124327552Y-93005128D01*
X124173211Y-93083768D01*
X124093256Y-93141859D01*
X124033072Y-93185586D01*
X124033070Y-93185588D01*
X124033069Y-93185588D01*
X123910588Y-93308069D01*
X123910581Y-93308078D01*
X123850317Y-93391023D01*
X123794987Y-93433689D01*
X123725374Y-93439667D01*
X123663579Y-93407061D01*
X123649683Y-93391023D01*
X123601899Y-93325257D01*
X123589414Y-93308072D01*
X123466928Y-93185586D01*
X123326788Y-93083768D01*
X123172445Y-93005127D01*
X123007701Y-92951598D01*
X123007699Y-92951597D01*
X123007698Y-92951597D01*
X122876271Y-92930781D01*
X122836611Y-92924500D01*
X122663389Y-92924500D01*
X122623728Y-92930781D01*
X122492302Y-92951597D01*
X122327552Y-93005128D01*
X122173211Y-93083768D01*
X122093256Y-93141859D01*
X122033072Y-93185586D01*
X122033070Y-93185588D01*
X122033069Y-93185588D01*
X121910588Y-93308069D01*
X121910581Y-93308078D01*
X121850317Y-93391023D01*
X121794987Y-93433689D01*
X121725374Y-93439667D01*
X121663579Y-93407061D01*
X121649683Y-93391023D01*
X121601899Y-93325257D01*
X121589414Y-93308072D01*
X121466928Y-93185586D01*
X121326788Y-93083768D01*
X121172445Y-93005127D01*
X121007701Y-92951598D01*
X121007699Y-92951597D01*
X121007698Y-92951597D01*
X120876271Y-92930781D01*
X120836611Y-92924500D01*
X120663389Y-92924500D01*
X120623728Y-92930781D01*
X120492302Y-92951597D01*
X120327552Y-93005128D01*
X120173211Y-93083768D01*
X120093256Y-93141859D01*
X120033072Y-93185586D01*
X120033070Y-93185588D01*
X120033069Y-93185588D01*
X119910588Y-93308069D01*
X119910581Y-93308078D01*
X119850317Y-93391023D01*
X119794987Y-93433689D01*
X119725374Y-93439667D01*
X119663579Y-93407061D01*
X119649683Y-93391023D01*
X119601899Y-93325257D01*
X119589414Y-93308072D01*
X119466928Y-93185586D01*
X119326788Y-93083768D01*
X119172445Y-93005127D01*
X119007701Y-92951598D01*
X119007699Y-92951597D01*
X119007698Y-92951597D01*
X118876271Y-92930781D01*
X118836611Y-92924500D01*
X118663389Y-92924500D01*
X118623728Y-92930781D01*
X118492302Y-92951597D01*
X118327552Y-93005128D01*
X118173211Y-93083768D01*
X118093256Y-93141859D01*
X118033072Y-93185586D01*
X118033070Y-93185588D01*
X118033069Y-93185588D01*
X117910588Y-93308069D01*
X117910581Y-93308078D01*
X117850317Y-93391023D01*
X117794987Y-93433689D01*
X117725374Y-93439667D01*
X117663579Y-93407061D01*
X117649683Y-93391023D01*
X117601899Y-93325257D01*
X117589414Y-93308072D01*
X117466928Y-93185586D01*
X117326788Y-93083768D01*
X117172445Y-93005127D01*
X117007701Y-92951598D01*
X117007699Y-92951597D01*
X117007698Y-92951597D01*
X116876271Y-92930781D01*
X116836611Y-92924500D01*
X116663389Y-92924500D01*
X116623728Y-92930781D01*
X116492302Y-92951597D01*
X116327552Y-93005128D01*
X116173211Y-93083768D01*
X116033073Y-93185585D01*
X115925166Y-93293492D01*
X115863843Y-93326976D01*
X115794151Y-93321992D01*
X115738218Y-93280120D01*
X115731946Y-93270906D01*
X115692317Y-93206656D01*
X115568345Y-93082684D01*
X115419124Y-92990643D01*
X115419119Y-92990641D01*
X115252697Y-92935494D01*
X115252690Y-92935493D01*
X115149986Y-92925000D01*
X115000000Y-92925000D01*
X115000000Y-94019670D01*
X114980255Y-93999925D01*
X114894745Y-93950556D01*
X114799370Y-93925000D01*
X114700630Y-93925000D01*
X114605255Y-93950556D01*
X114519745Y-93999925D01*
X114500000Y-94019670D01*
X114500000Y-92925000D01*
X114350027Y-92925000D01*
X114350012Y-92925001D01*
X114247302Y-92935494D01*
X114080880Y-92990641D01*
X114080875Y-92990643D01*
X113931654Y-93082684D01*
X113807684Y-93206654D01*
X113715643Y-93355875D01*
X113715641Y-93355880D01*
X113660494Y-93522302D01*
X113660493Y-93522309D01*
X113650000Y-93625013D01*
X112000336Y-93625013D01*
X112035063Y-93495409D01*
X112055659Y-93260001D01*
X112035063Y-93024593D01*
X111973903Y-92796338D01*
X111874035Y-92582172D01*
X111738495Y-92388600D01*
X111738494Y-92388598D01*
X111571402Y-92221507D01*
X111571396Y-92221502D01*
X111385840Y-92091575D01*
X111342215Y-92036998D01*
X111338385Y-91999997D01*
X120734752Y-91999997D01*
X120734752Y-92000002D01*
X120753686Y-92168056D01*
X120809546Y-92327694D01*
X120809548Y-92327697D01*
X120899519Y-92470884D01*
X120899524Y-92470890D01*
X121019110Y-92590476D01*
X121019116Y-92590481D01*
X121162303Y-92680452D01*
X121162306Y-92680454D01*
X121162310Y-92680455D01*
X121162311Y-92680456D01*
X121234914Y-92705860D01*
X121321944Y-92736314D01*
X121489998Y-92755249D01*
X121490001Y-92755249D01*
X121490004Y-92755249D01*
X121658057Y-92736314D01*
X121658060Y-92736313D01*
X121817691Y-92680456D01*
X121817693Y-92680454D01*
X121817695Y-92680454D01*
X121817698Y-92680452D01*
X121960885Y-92590481D01*
X121960886Y-92590480D01*
X121960891Y-92590477D01*
X122080478Y-92470890D01*
X122170453Y-92327697D01*
X122170455Y-92327694D01*
X122170455Y-92327692D01*
X122170457Y-92327690D01*
X122226314Y-92168059D01*
X122226314Y-92168058D01*
X122226315Y-92168056D01*
X122245250Y-92000002D01*
X122245250Y-91999997D01*
X122226315Y-91831943D01*
X122170455Y-91672305D01*
X122170453Y-91672302D01*
X122080482Y-91529115D01*
X122080477Y-91529109D01*
X121960891Y-91409523D01*
X121960885Y-91409518D01*
X121817698Y-91319547D01*
X121817687Y-91319542D01*
X121727089Y-91287840D01*
X121670313Y-91247119D01*
X121656685Y-91212740D01*
X121633591Y-91236797D01*
X121565635Y-91253039D01*
X121558073Y-91252420D01*
X121490005Y-91244751D01*
X121489998Y-91244751D01*
X121321944Y-91263685D01*
X121162306Y-91319545D01*
X121162303Y-91319547D01*
X121019116Y-91409518D01*
X121019110Y-91409523D01*
X120899524Y-91529109D01*
X120899519Y-91529115D01*
X120809548Y-91672302D01*
X120809546Y-91672305D01*
X120753686Y-91831943D01*
X120734752Y-91999997D01*
X111338385Y-91999997D01*
X111335021Y-91967500D01*
X111366544Y-91905145D01*
X111385840Y-91888425D01*
X111571401Y-91758494D01*
X111738495Y-91591400D01*
X111874035Y-91397829D01*
X111973903Y-91183662D01*
X112035063Y-90955407D01*
X112055659Y-90719999D01*
X112035063Y-90484591D01*
X111985602Y-90299997D01*
X121094751Y-90299997D01*
X121094751Y-90300002D01*
X121113685Y-90468056D01*
X121169545Y-90627694D01*
X121169547Y-90627697D01*
X121259518Y-90770884D01*
X121259523Y-90770890D01*
X121379109Y-90890476D01*
X121379115Y-90890481D01*
X121522302Y-90980452D01*
X121522308Y-90980455D01*
X121522310Y-90980456D01*
X121612910Y-91012158D01*
X121669686Y-91052880D01*
X121683314Y-91087258D01*
X121706410Y-91063201D01*
X121774366Y-91046960D01*
X121781928Y-91047579D01*
X121849998Y-91055249D01*
X121850000Y-91055249D01*
X121850003Y-91055249D01*
X122018056Y-91036314D01*
X122087090Y-91012158D01*
X122177690Y-90980456D01*
X122177692Y-90980454D01*
X122177694Y-90980454D01*
X122177697Y-90980452D01*
X122320884Y-90890481D01*
X122320885Y-90890480D01*
X122320890Y-90890477D01*
X122440477Y-90770890D01*
X122512372Y-90656469D01*
X122564706Y-90610180D01*
X122603482Y-90599223D01*
X122718055Y-90586314D01*
X122718057Y-90586313D01*
X122718059Y-90586313D01*
X122877690Y-90530456D01*
X122877692Y-90530454D01*
X122877694Y-90530454D01*
X122877697Y-90530452D01*
X123020884Y-90440481D01*
X123020885Y-90440480D01*
X123020890Y-90440477D01*
X123140477Y-90320890D01*
X123181039Y-90256336D01*
X123230452Y-90177697D01*
X123230454Y-90177694D01*
X123230454Y-90177692D01*
X123230456Y-90177690D01*
X123286313Y-90018059D01*
X123286313Y-90018058D01*
X123286314Y-90018056D01*
X123305249Y-89850002D01*
X123305249Y-89849997D01*
X123286314Y-89681943D01*
X123240696Y-89551574D01*
X123230456Y-89522310D01*
X123230455Y-89522309D01*
X123230454Y-89522305D01*
X123230452Y-89522302D01*
X123140481Y-89379115D01*
X123140476Y-89379109D01*
X123020890Y-89259523D01*
X123020884Y-89259518D01*
X122877697Y-89169547D01*
X122877694Y-89169545D01*
X122718056Y-89113685D01*
X122550003Y-89094751D01*
X122549997Y-89094751D01*
X122381943Y-89113685D01*
X122222305Y-89169545D01*
X122222302Y-89169547D01*
X122079115Y-89259518D01*
X122079109Y-89259523D01*
X121959523Y-89379109D01*
X121887629Y-89493528D01*
X121835294Y-89539819D01*
X121796519Y-89550776D01*
X121681944Y-89563685D01*
X121522305Y-89619545D01*
X121522302Y-89619547D01*
X121379115Y-89709518D01*
X121379109Y-89709523D01*
X121259523Y-89829109D01*
X121259518Y-89829115D01*
X121169547Y-89972302D01*
X121169545Y-89972305D01*
X121113685Y-90131943D01*
X121094751Y-90299997D01*
X111985602Y-90299997D01*
X111973903Y-90256336D01*
X111874035Y-90042170D01*
X111857153Y-90018059D01*
X111738494Y-89848596D01*
X111571402Y-89681505D01*
X111571401Y-89681504D01*
X111385842Y-89551574D01*
X111342218Y-89496997D01*
X111335025Y-89427498D01*
X111366547Y-89365144D01*
X111385843Y-89348424D01*
X111571401Y-89218495D01*
X111738495Y-89051401D01*
X111874035Y-88857830D01*
X111973903Y-88643663D01*
X112035063Y-88415408D01*
X112035331Y-88412344D01*
X115082404Y-88412344D01*
X115082404Y-88412349D01*
X115101338Y-88580403D01*
X115157198Y-88740041D01*
X115157200Y-88740044D01*
X115247171Y-88883231D01*
X115247176Y-88883237D01*
X115366762Y-89002823D01*
X115366768Y-89002828D01*
X115509955Y-89092799D01*
X115509958Y-89092801D01*
X115509962Y-89092802D01*
X115509963Y-89092803D01*
X115569641Y-89113685D01*
X115669596Y-89148661D01*
X115837650Y-89167596D01*
X115837653Y-89167596D01*
X115837656Y-89167596D01*
X116005709Y-89148661D01*
X116005712Y-89148660D01*
X116165343Y-89092803D01*
X116165345Y-89092801D01*
X116165347Y-89092801D01*
X116165350Y-89092799D01*
X116308537Y-89002828D01*
X116308538Y-89002827D01*
X116308543Y-89002824D01*
X116428130Y-88883237D01*
X116428134Y-88883231D01*
X116518105Y-88740044D01*
X116518107Y-88740041D01*
X116518107Y-88740039D01*
X116518109Y-88740037D01*
X116573966Y-88580406D01*
X116573966Y-88580405D01*
X116573967Y-88580403D01*
X116592902Y-88412349D01*
X116592902Y-88412344D01*
X116573967Y-88244290D01*
X116558468Y-88199997D01*
X123194751Y-88199997D01*
X123194751Y-88200002D01*
X123213685Y-88368056D01*
X123269545Y-88527694D01*
X123269547Y-88527697D01*
X123359518Y-88670884D01*
X123359523Y-88670890D01*
X123479109Y-88790476D01*
X123479115Y-88790481D01*
X123622302Y-88880452D01*
X123622305Y-88880454D01*
X123622309Y-88880455D01*
X123622310Y-88880456D01*
X123630241Y-88883231D01*
X123781943Y-88936314D01*
X123949997Y-88955249D01*
X123950000Y-88955249D01*
X123950003Y-88955249D01*
X124118056Y-88936314D01*
X124118059Y-88936313D01*
X124277690Y-88880456D01*
X124277692Y-88880454D01*
X124277694Y-88880454D01*
X124277697Y-88880452D01*
X124420884Y-88790481D01*
X124420885Y-88790480D01*
X124420890Y-88790477D01*
X124540477Y-88670890D01*
X124540481Y-88670884D01*
X124630452Y-88527697D01*
X124630454Y-88527694D01*
X124630454Y-88527692D01*
X124630456Y-88527690D01*
X124686313Y-88368059D01*
X124686313Y-88368058D01*
X124686314Y-88368056D01*
X124705249Y-88200002D01*
X124705249Y-88199997D01*
X124686314Y-88031943D01*
X124630454Y-87872305D01*
X124630452Y-87872302D01*
X124540481Y-87729115D01*
X124540476Y-87729109D01*
X124420890Y-87609523D01*
X124420884Y-87609518D01*
X124277697Y-87519547D01*
X124277694Y-87519545D01*
X124118056Y-87463685D01*
X123950003Y-87444751D01*
X123949997Y-87444751D01*
X123781943Y-87463685D01*
X123622305Y-87519545D01*
X123622302Y-87519547D01*
X123479115Y-87609518D01*
X123479109Y-87609523D01*
X123359523Y-87729109D01*
X123359518Y-87729115D01*
X123269547Y-87872302D01*
X123269545Y-87872305D01*
X123213685Y-88031943D01*
X123194751Y-88199997D01*
X116558468Y-88199997D01*
X116518107Y-88084652D01*
X116518105Y-88084649D01*
X116428134Y-87941462D01*
X116428129Y-87941456D01*
X116308543Y-87821870D01*
X116308537Y-87821865D01*
X116165350Y-87731894D01*
X116165347Y-87731892D01*
X116005709Y-87676032D01*
X115837656Y-87657098D01*
X115837650Y-87657098D01*
X115669596Y-87676032D01*
X115509958Y-87731892D01*
X115509955Y-87731894D01*
X115366768Y-87821865D01*
X115366762Y-87821870D01*
X115247176Y-87941456D01*
X115247171Y-87941462D01*
X115157200Y-88084649D01*
X115157198Y-88084652D01*
X115101338Y-88244290D01*
X115082404Y-88412344D01*
X112035331Y-88412344D01*
X112055659Y-88180000D01*
X112035063Y-87944592D01*
X111988626Y-87771285D01*
X111973905Y-87716344D01*
X111973904Y-87716343D01*
X111973903Y-87716337D01*
X111874035Y-87502171D01*
X111862932Y-87486313D01*
X111749977Y-87324997D01*
X118040195Y-87324997D01*
X118040195Y-87325002D01*
X118059129Y-87493056D01*
X118114989Y-87652694D01*
X118114991Y-87652697D01*
X118204962Y-87795884D01*
X118204967Y-87795890D01*
X118324553Y-87915476D01*
X118324559Y-87915481D01*
X118467746Y-88005452D01*
X118467749Y-88005454D01*
X118467753Y-88005455D01*
X118467754Y-88005456D01*
X118540357Y-88030860D01*
X118627387Y-88061314D01*
X118795441Y-88080249D01*
X118795444Y-88080249D01*
X118795447Y-88080249D01*
X118963500Y-88061314D01*
X118963503Y-88061313D01*
X119123134Y-88005456D01*
X119123136Y-88005454D01*
X119123138Y-88005454D01*
X119123141Y-88005452D01*
X119266328Y-87915481D01*
X119266329Y-87915480D01*
X119266334Y-87915477D01*
X119385921Y-87795890D01*
X119426134Y-87731892D01*
X119475896Y-87652697D01*
X119475898Y-87652694D01*
X119475898Y-87652692D01*
X119475900Y-87652690D01*
X119531757Y-87493059D01*
X119531757Y-87493058D01*
X119531758Y-87493056D01*
X119550693Y-87325002D01*
X119550693Y-87324997D01*
X119531248Y-87152421D01*
X119543302Y-87083599D01*
X119590651Y-87032219D01*
X119658262Y-87014595D01*
X119720441Y-87033544D01*
X119774961Y-87067801D01*
X119774959Y-87067801D01*
X119774963Y-87067802D01*
X119774964Y-87067803D01*
X119803220Y-87077690D01*
X119934597Y-87123661D01*
X120102651Y-87142596D01*
X120102654Y-87142596D01*
X120102657Y-87142596D01*
X120270710Y-87123661D01*
X120270713Y-87123660D01*
X120430344Y-87067803D01*
X120430346Y-87067801D01*
X120430348Y-87067801D01*
X120430351Y-87067799D01*
X120573538Y-86977828D01*
X120573539Y-86977827D01*
X120573544Y-86977824D01*
X120693131Y-86858237D01*
X120761140Y-86750002D01*
X120761143Y-86749997D01*
X122094751Y-86749997D01*
X122094751Y-86750002D01*
X122113685Y-86918056D01*
X122169545Y-87077694D01*
X122169547Y-87077697D01*
X122259518Y-87220884D01*
X122259523Y-87220890D01*
X122379109Y-87340476D01*
X122379115Y-87340481D01*
X122522302Y-87430452D01*
X122522305Y-87430454D01*
X122522309Y-87430455D01*
X122522310Y-87430456D01*
X122563163Y-87444751D01*
X122681943Y-87486314D01*
X122849997Y-87505249D01*
X122850000Y-87505249D01*
X122850003Y-87505249D01*
X123018056Y-87486314D01*
X123018059Y-87486313D01*
X123177690Y-87430456D01*
X123177692Y-87430454D01*
X123177694Y-87430454D01*
X123177697Y-87430452D01*
X123320884Y-87340481D01*
X123320885Y-87340480D01*
X123320890Y-87340477D01*
X123440477Y-87220890D01*
X123490361Y-87141501D01*
X123530452Y-87077697D01*
X123530454Y-87077694D01*
X123530454Y-87077692D01*
X123530456Y-87077690D01*
X123586313Y-86918059D01*
X123586313Y-86918058D01*
X123586314Y-86918056D01*
X123605249Y-86750002D01*
X123605249Y-86749997D01*
X123586314Y-86581943D01*
X123533306Y-86430456D01*
X123530456Y-86422310D01*
X123530455Y-86422309D01*
X123530454Y-86422305D01*
X123530452Y-86422302D01*
X123440481Y-86279115D01*
X123440476Y-86279109D01*
X123320890Y-86159523D01*
X123320884Y-86159518D01*
X123177697Y-86069547D01*
X123177694Y-86069545D01*
X123018056Y-86013685D01*
X122850003Y-85994751D01*
X122849997Y-85994751D01*
X122681943Y-86013685D01*
X122522305Y-86069545D01*
X122522302Y-86069547D01*
X122379115Y-86159518D01*
X122379109Y-86159523D01*
X122259523Y-86279109D01*
X122259518Y-86279115D01*
X122169547Y-86422302D01*
X122169545Y-86422305D01*
X122113685Y-86581943D01*
X122094751Y-86749997D01*
X120761143Y-86749997D01*
X120783106Y-86715044D01*
X120783108Y-86715041D01*
X120783108Y-86715039D01*
X120783110Y-86715037D01*
X120838967Y-86555406D01*
X120838967Y-86555405D01*
X120838968Y-86555403D01*
X120857903Y-86387349D01*
X120857903Y-86387344D01*
X120838968Y-86219290D01*
X120789420Y-86077690D01*
X120783110Y-86059657D01*
X120783109Y-86059656D01*
X120783108Y-86059652D01*
X120783106Y-86059649D01*
X120693135Y-85916462D01*
X120693130Y-85916456D01*
X120573544Y-85796870D01*
X120573538Y-85796865D01*
X120430351Y-85706894D01*
X120430348Y-85706892D01*
X120270710Y-85651032D01*
X120102657Y-85632098D01*
X120102651Y-85632098D01*
X119934597Y-85651032D01*
X119774959Y-85706892D01*
X119774956Y-85706894D01*
X119631769Y-85796865D01*
X119631763Y-85796870D01*
X119512177Y-85916456D01*
X119512172Y-85916462D01*
X119422201Y-86059649D01*
X119422199Y-86059652D01*
X119366339Y-86219290D01*
X119347405Y-86387344D01*
X119347405Y-86387350D01*
X119366849Y-86559926D01*
X119354794Y-86628748D01*
X119307445Y-86680127D01*
X119239835Y-86697751D01*
X119177657Y-86678803D01*
X119123136Y-86644545D01*
X119123135Y-86644544D01*
X119123134Y-86644544D01*
X119084814Y-86631135D01*
X118963500Y-86588685D01*
X118795447Y-86569751D01*
X118795441Y-86569751D01*
X118627387Y-86588685D01*
X118467749Y-86644545D01*
X118467746Y-86644547D01*
X118324559Y-86734518D01*
X118324553Y-86734523D01*
X118204967Y-86854109D01*
X118204962Y-86854115D01*
X118114991Y-86997302D01*
X118114989Y-86997305D01*
X118059129Y-87156943D01*
X118040195Y-87324997D01*
X111749977Y-87324997D01*
X111738494Y-87308597D01*
X111571402Y-87141506D01*
X111571396Y-87141501D01*
X111385842Y-87011575D01*
X111342217Y-86956998D01*
X111335023Y-86887500D01*
X111366546Y-86825145D01*
X111385842Y-86808425D01*
X111408026Y-86792891D01*
X111571401Y-86678495D01*
X111738495Y-86511401D01*
X111874035Y-86317830D01*
X111973903Y-86103663D01*
X112035063Y-85875408D01*
X112046035Y-85749997D01*
X112994751Y-85749997D01*
X112994751Y-85750002D01*
X113013685Y-85918056D01*
X113069545Y-86077694D01*
X113069547Y-86077697D01*
X113159518Y-86220884D01*
X113159523Y-86220890D01*
X113279109Y-86340476D01*
X113279115Y-86340481D01*
X113422302Y-86430452D01*
X113422305Y-86430454D01*
X113422309Y-86430455D01*
X113422310Y-86430456D01*
X113494913Y-86455860D01*
X113581943Y-86486314D01*
X113749997Y-86505249D01*
X113750000Y-86505249D01*
X113750003Y-86505249D01*
X113918056Y-86486314D01*
X113918059Y-86486313D01*
X114077690Y-86430456D01*
X114077692Y-86430454D01*
X114077694Y-86430454D01*
X114077697Y-86430452D01*
X114220884Y-86340481D01*
X114220885Y-86340480D01*
X114220890Y-86340477D01*
X114340477Y-86220890D01*
X114340481Y-86220884D01*
X114430452Y-86077697D01*
X114430454Y-86077694D01*
X114430454Y-86077692D01*
X114430456Y-86077690D01*
X114486313Y-85918059D01*
X114486313Y-85918058D01*
X114486314Y-85918056D01*
X114505249Y-85750002D01*
X114505249Y-85749997D01*
X114486314Y-85581943D01*
X114430454Y-85422305D01*
X114430452Y-85422302D01*
X114340481Y-85279115D01*
X114340476Y-85279109D01*
X114220890Y-85159523D01*
X114220884Y-85159518D01*
X114077697Y-85069547D01*
X114077694Y-85069545D01*
X113918056Y-85013685D01*
X113750003Y-84994751D01*
X113749997Y-84994751D01*
X113581943Y-85013685D01*
X113422305Y-85069545D01*
X113422302Y-85069547D01*
X113279115Y-85159518D01*
X113279109Y-85159523D01*
X113159523Y-85279109D01*
X113159518Y-85279115D01*
X113069547Y-85422302D01*
X113069545Y-85422305D01*
X113013685Y-85581943D01*
X112994751Y-85749997D01*
X112046035Y-85749997D01*
X112055659Y-85640000D01*
X112035063Y-85404592D01*
X111973903Y-85176337D01*
X111874035Y-84962171D01*
X111825319Y-84892596D01*
X111738494Y-84768597D01*
X111571402Y-84601506D01*
X111571396Y-84601501D01*
X111385842Y-84471575D01*
X111342217Y-84416998D01*
X111335023Y-84347500D01*
X111366546Y-84285145D01*
X111385842Y-84268425D01*
X111408026Y-84252891D01*
X111571401Y-84138495D01*
X111572552Y-84137344D01*
X121107404Y-84137344D01*
X121107404Y-84137349D01*
X121126338Y-84305403D01*
X121182198Y-84465041D01*
X121182200Y-84465044D01*
X121272171Y-84608231D01*
X121272176Y-84608237D01*
X121391762Y-84727823D01*
X121391768Y-84727828D01*
X121534955Y-84817799D01*
X121534958Y-84817801D01*
X121534962Y-84817802D01*
X121534963Y-84817803D01*
X121607566Y-84843207D01*
X121694596Y-84873661D01*
X121862650Y-84892596D01*
X121862653Y-84892596D01*
X121862656Y-84892596D01*
X122030709Y-84873661D01*
X122030712Y-84873660D01*
X122190343Y-84817803D01*
X122190345Y-84817801D01*
X122190347Y-84817801D01*
X122190350Y-84817799D01*
X122333537Y-84727828D01*
X122333538Y-84727827D01*
X122333543Y-84727824D01*
X122453130Y-84608237D01*
X122453134Y-84608231D01*
X122543105Y-84465044D01*
X122543107Y-84465041D01*
X122543107Y-84465039D01*
X122543109Y-84465037D01*
X122598966Y-84305406D01*
X122598966Y-84305405D01*
X122598967Y-84305403D01*
X122617902Y-84137349D01*
X122617902Y-84137344D01*
X122598967Y-83969290D01*
X122543107Y-83809652D01*
X122543105Y-83809649D01*
X122453134Y-83666462D01*
X122453129Y-83666456D01*
X122333543Y-83546870D01*
X122333537Y-83546865D01*
X122190350Y-83456894D01*
X122190347Y-83456892D01*
X122030709Y-83401032D01*
X121862656Y-83382098D01*
X121862650Y-83382098D01*
X121694596Y-83401032D01*
X121534958Y-83456892D01*
X121534955Y-83456894D01*
X121391768Y-83546865D01*
X121391762Y-83546870D01*
X121272176Y-83666456D01*
X121272171Y-83666462D01*
X121182200Y-83809649D01*
X121182198Y-83809652D01*
X121126338Y-83969290D01*
X121107404Y-84137344D01*
X111572552Y-84137344D01*
X111738495Y-83971401D01*
X111874035Y-83777830D01*
X111973903Y-83563663D01*
X112035063Y-83335408D01*
X112046910Y-83199997D01*
X116344751Y-83199997D01*
X116344751Y-83200002D01*
X116363685Y-83368056D01*
X116419545Y-83527694D01*
X116419547Y-83527697D01*
X116509518Y-83670884D01*
X116509523Y-83670890D01*
X116629109Y-83790476D01*
X116629115Y-83790481D01*
X116772302Y-83880452D01*
X116772305Y-83880454D01*
X116772309Y-83880455D01*
X116772310Y-83880456D01*
X116844913Y-83905860D01*
X116931943Y-83936314D01*
X117099997Y-83955249D01*
X117100000Y-83955249D01*
X117100003Y-83955249D01*
X117268056Y-83936314D01*
X117268059Y-83936313D01*
X117427690Y-83880456D01*
X117427692Y-83880454D01*
X117427694Y-83880454D01*
X117427697Y-83880452D01*
X117570884Y-83790481D01*
X117570885Y-83790480D01*
X117570890Y-83790477D01*
X117690477Y-83670890D01*
X117690481Y-83670884D01*
X117780452Y-83527697D01*
X117780454Y-83527694D01*
X117780454Y-83527692D01*
X117780456Y-83527690D01*
X117836313Y-83368059D01*
X117836313Y-83368058D01*
X117836314Y-83368056D01*
X117855249Y-83200002D01*
X117855249Y-83199997D01*
X117836314Y-83031943D01*
X117783306Y-82880456D01*
X117780456Y-82872310D01*
X117780455Y-82872309D01*
X117780454Y-82872305D01*
X117780452Y-82872302D01*
X117690481Y-82729115D01*
X117690476Y-82729109D01*
X117570890Y-82609523D01*
X117570884Y-82609518D01*
X117427697Y-82519547D01*
X117427694Y-82519545D01*
X117268056Y-82463685D01*
X117100003Y-82444751D01*
X117099997Y-82444751D01*
X116931943Y-82463685D01*
X116772305Y-82519545D01*
X116772302Y-82519547D01*
X116629115Y-82609518D01*
X116629109Y-82609523D01*
X116509523Y-82729109D01*
X116509518Y-82729115D01*
X116419547Y-82872302D01*
X116419545Y-82872305D01*
X116363685Y-83031943D01*
X116344751Y-83199997D01*
X112046910Y-83199997D01*
X112055659Y-83100000D01*
X112035063Y-82864592D01*
X111973903Y-82636337D01*
X111874035Y-82422171D01*
X111840557Y-82374358D01*
X111738494Y-82228597D01*
X111709894Y-82199997D01*
X118069751Y-82199997D01*
X118069751Y-82200002D01*
X118088685Y-82368056D01*
X118144545Y-82527694D01*
X118144547Y-82527697D01*
X118234518Y-82670884D01*
X118234523Y-82670890D01*
X118354109Y-82790476D01*
X118354115Y-82790481D01*
X118497302Y-82880452D01*
X118497305Y-82880454D01*
X118497309Y-82880455D01*
X118497310Y-82880456D01*
X118569913Y-82905860D01*
X118656943Y-82936314D01*
X118824997Y-82955249D01*
X118825000Y-82955249D01*
X118825003Y-82955249D01*
X118993056Y-82936314D01*
X118993059Y-82936313D01*
X119152690Y-82880456D01*
X119152692Y-82880454D01*
X119152694Y-82880454D01*
X119152697Y-82880452D01*
X119295884Y-82790481D01*
X119295885Y-82790480D01*
X119295890Y-82790477D01*
X119415477Y-82670890D01*
X119437188Y-82636337D01*
X119505452Y-82527697D01*
X119505454Y-82527694D01*
X119505454Y-82527692D01*
X119505456Y-82527690D01*
X119561313Y-82368059D01*
X119561313Y-82368058D01*
X119561314Y-82368056D01*
X119580249Y-82200002D01*
X119580249Y-82199997D01*
X119561314Y-82031943D01*
X119505454Y-81872305D01*
X119505452Y-81872302D01*
X119449892Y-81783879D01*
X120353633Y-81783879D01*
X120353633Y-81783884D01*
X120372567Y-81951938D01*
X120428427Y-82111576D01*
X120428429Y-82111579D01*
X120518400Y-82254766D01*
X120518405Y-82254772D01*
X120637991Y-82374358D01*
X120637997Y-82374363D01*
X120781184Y-82464334D01*
X120781187Y-82464336D01*
X120781191Y-82464337D01*
X120781192Y-82464338D01*
X120853795Y-82489742D01*
X120940825Y-82520196D01*
X121108879Y-82539131D01*
X121108882Y-82539131D01*
X121108885Y-82539131D01*
X121276938Y-82520196D01*
X121278793Y-82519547D01*
X121436572Y-82464338D01*
X121436574Y-82464336D01*
X121436576Y-82464336D01*
X121436579Y-82464334D01*
X121579766Y-82374363D01*
X121579767Y-82374362D01*
X121579772Y-82374359D01*
X121699359Y-82254772D01*
X121715806Y-82228597D01*
X121789334Y-82111579D01*
X121789336Y-82111576D01*
X121789336Y-82111574D01*
X121789338Y-82111572D01*
X121845195Y-81951941D01*
X121845195Y-81951940D01*
X121845196Y-81951938D01*
X121864131Y-81783884D01*
X121864131Y-81783879D01*
X121845196Y-81615825D01*
X121796859Y-81477686D01*
X121789338Y-81456192D01*
X121789337Y-81456191D01*
X121789336Y-81456187D01*
X121789334Y-81456184D01*
X121699363Y-81312997D01*
X121699358Y-81312991D01*
X121579772Y-81193405D01*
X121579766Y-81193400D01*
X121436579Y-81103429D01*
X121436576Y-81103427D01*
X121276938Y-81047567D01*
X121108885Y-81028633D01*
X121108879Y-81028633D01*
X120940825Y-81047567D01*
X120781187Y-81103427D01*
X120781184Y-81103429D01*
X120637997Y-81193400D01*
X120637991Y-81193405D01*
X120518405Y-81312991D01*
X120518400Y-81312997D01*
X120428429Y-81456184D01*
X120428427Y-81456187D01*
X120372567Y-81615825D01*
X120353633Y-81783879D01*
X119449892Y-81783879D01*
X119415481Y-81729115D01*
X119415476Y-81729109D01*
X119295890Y-81609523D01*
X119295884Y-81609518D01*
X119152697Y-81519547D01*
X119152694Y-81519545D01*
X118993056Y-81463685D01*
X118825003Y-81444751D01*
X118824997Y-81444751D01*
X118656943Y-81463685D01*
X118497305Y-81519545D01*
X118497302Y-81519547D01*
X118354115Y-81609518D01*
X118354109Y-81609523D01*
X118234523Y-81729109D01*
X118234518Y-81729115D01*
X118144547Y-81872302D01*
X118144545Y-81872305D01*
X118088685Y-82031943D01*
X118069751Y-82199997D01*
X111709894Y-82199997D01*
X111571402Y-82061506D01*
X111571401Y-82061505D01*
X111529179Y-82031941D01*
X111385839Y-81931573D01*
X111342216Y-81876997D01*
X111335023Y-81807498D01*
X111366545Y-81745144D01*
X111385837Y-81728427D01*
X111571401Y-81598494D01*
X111738495Y-81431400D01*
X111874035Y-81237829D01*
X111973903Y-81023662D01*
X112035063Y-80795407D01*
X112055659Y-80559999D01*
X112035063Y-80324591D01*
X111988281Y-80149997D01*
X114694751Y-80149997D01*
X114694751Y-80150002D01*
X114713685Y-80318056D01*
X114769545Y-80477694D01*
X114769547Y-80477697D01*
X114859518Y-80620884D01*
X114859523Y-80620890D01*
X114979109Y-80740476D01*
X114979115Y-80740481D01*
X115122302Y-80830452D01*
X115122305Y-80830454D01*
X115122309Y-80830455D01*
X115122310Y-80830456D01*
X115194913Y-80855860D01*
X115281943Y-80886314D01*
X115449997Y-80905249D01*
X115450000Y-80905249D01*
X115450003Y-80905249D01*
X115618056Y-80886314D01*
X115618059Y-80886313D01*
X115777690Y-80830456D01*
X115777692Y-80830454D01*
X115777694Y-80830454D01*
X115777697Y-80830452D01*
X115920884Y-80740481D01*
X115920885Y-80740480D01*
X115920890Y-80740477D01*
X116040477Y-80620890D01*
X116079040Y-80559518D01*
X116130452Y-80477697D01*
X116130454Y-80477694D01*
X116130454Y-80477692D01*
X116130456Y-80477690D01*
X116186313Y-80318059D01*
X116186313Y-80318057D01*
X116186314Y-80318055D01*
X116201715Y-80181368D01*
X116228781Y-80116954D01*
X116286376Y-80077398D01*
X116356213Y-80075261D01*
X116365890Y-80078210D01*
X116531939Y-80136313D01*
X116699997Y-80155249D01*
X116700000Y-80155249D01*
X116700003Y-80155249D01*
X116868056Y-80136314D01*
X116906194Y-80122969D01*
X117027690Y-80080456D01*
X117027692Y-80080454D01*
X117027694Y-80080454D01*
X117027697Y-80080452D01*
X117076166Y-80049997D01*
X122669751Y-80049997D01*
X122669751Y-80050002D01*
X122688685Y-80218056D01*
X122744545Y-80377694D01*
X122744547Y-80377697D01*
X122834518Y-80520884D01*
X122834523Y-80520890D01*
X122954109Y-80640476D01*
X122954115Y-80640481D01*
X123097302Y-80730452D01*
X123097307Y-80730455D01*
X123097310Y-80730456D01*
X123233234Y-80778017D01*
X123290008Y-80818737D01*
X123309320Y-80854104D01*
X123332920Y-80921551D01*
X123332923Y-80921557D01*
X123422894Y-81064744D01*
X123422899Y-81064750D01*
X123542485Y-81184336D01*
X123542491Y-81184341D01*
X123685678Y-81274312D01*
X123685684Y-81274315D01*
X123685686Y-81274316D01*
X123810697Y-81318059D01*
X123845320Y-81330174D01*
X123895531Y-81335831D01*
X123959946Y-81362897D01*
X123998690Y-81418096D01*
X124019542Y-81477686D01*
X124019547Y-81477697D01*
X124109518Y-81620884D01*
X124109523Y-81620890D01*
X124229109Y-81740476D01*
X124229115Y-81740481D01*
X124372302Y-81830452D01*
X124372305Y-81830454D01*
X124372309Y-81830455D01*
X124372310Y-81830456D01*
X124435306Y-81852499D01*
X124531943Y-81886314D01*
X124699997Y-81905249D01*
X124700000Y-81905249D01*
X124700003Y-81905249D01*
X124868056Y-81886314D01*
X124868059Y-81886313D01*
X125027690Y-81830456D01*
X125027692Y-81830454D01*
X125027694Y-81830454D01*
X125027697Y-81830452D01*
X125170884Y-81740481D01*
X125170885Y-81740480D01*
X125170890Y-81740477D01*
X125290477Y-81620890D01*
X125293661Y-81615823D01*
X125380452Y-81477697D01*
X125380454Y-81477694D01*
X125380454Y-81477692D01*
X125380456Y-81477690D01*
X125436313Y-81318059D01*
X125436313Y-81318058D01*
X125436314Y-81318056D01*
X125455249Y-81150002D01*
X125455249Y-81149997D01*
X125436314Y-80981943D01*
X125383306Y-80830456D01*
X125380456Y-80822310D01*
X125380455Y-80822309D01*
X125380454Y-80822305D01*
X125380452Y-80822302D01*
X125290481Y-80679115D01*
X125290476Y-80679109D01*
X125170890Y-80559523D01*
X125170884Y-80559518D01*
X125027697Y-80469547D01*
X125027694Y-80469545D01*
X124868056Y-80413685D01*
X124817841Y-80408028D01*
X124753427Y-80380961D01*
X124714683Y-80325761D01*
X124693832Y-80266170D01*
X124693828Y-80266162D01*
X124603857Y-80122975D01*
X124603852Y-80122969D01*
X124484266Y-80003383D01*
X124484260Y-80003378D01*
X124341073Y-79913407D01*
X124341067Y-79913404D01*
X124219550Y-79870884D01*
X124205142Y-79865842D01*
X124148367Y-79825121D01*
X124129055Y-79789754D01*
X124107338Y-79727690D01*
X124105456Y-79722310D01*
X124105452Y-79722302D01*
X124015481Y-79579115D01*
X124015476Y-79579109D01*
X123895890Y-79459523D01*
X123895884Y-79459518D01*
X123752697Y-79369547D01*
X123752694Y-79369545D01*
X123593056Y-79313685D01*
X123425003Y-79294751D01*
X123424997Y-79294751D01*
X123256943Y-79313685D01*
X123097305Y-79369545D01*
X123097302Y-79369547D01*
X122954115Y-79459518D01*
X122954109Y-79459523D01*
X122834523Y-79579109D01*
X122834518Y-79579115D01*
X122744547Y-79722302D01*
X122744545Y-79722305D01*
X122688685Y-79881943D01*
X122669751Y-80049997D01*
X117076166Y-80049997D01*
X117170884Y-79990481D01*
X117170885Y-79990480D01*
X117170890Y-79990477D01*
X117290477Y-79870890D01*
X117321007Y-79822302D01*
X117380452Y-79727697D01*
X117380454Y-79727694D01*
X117380454Y-79727692D01*
X117380456Y-79727690D01*
X117436313Y-79568059D01*
X117436313Y-79568058D01*
X117436314Y-79568056D01*
X117455249Y-79400002D01*
X117455249Y-79399997D01*
X117436314Y-79231943D01*
X117380454Y-79072305D01*
X117380452Y-79072302D01*
X117290481Y-78929115D01*
X117290476Y-78929109D01*
X117170890Y-78809523D01*
X117170884Y-78809518D01*
X117027697Y-78719547D01*
X117027694Y-78719545D01*
X116868056Y-78663685D01*
X116700003Y-78644751D01*
X116699997Y-78644751D01*
X116531943Y-78663685D01*
X116372305Y-78719545D01*
X116372302Y-78719547D01*
X116229115Y-78809518D01*
X116229109Y-78809523D01*
X116109523Y-78929109D01*
X116109518Y-78929115D01*
X116019547Y-79072302D01*
X116019545Y-79072305D01*
X115963685Y-79231944D01*
X115948284Y-79368632D01*
X115921217Y-79433046D01*
X115863622Y-79472601D01*
X115793785Y-79474738D01*
X115784110Y-79471790D01*
X115618057Y-79413686D01*
X115450003Y-79394751D01*
X115449997Y-79394751D01*
X115281943Y-79413685D01*
X115122305Y-79469545D01*
X115122302Y-79469547D01*
X114979115Y-79559518D01*
X114979109Y-79559523D01*
X114859523Y-79679109D01*
X114859518Y-79679115D01*
X114769547Y-79822302D01*
X114769545Y-79822305D01*
X114713685Y-79981943D01*
X114694751Y-80149997D01*
X111988281Y-80149997D01*
X111981041Y-80122975D01*
X111973905Y-80096343D01*
X111973904Y-80096342D01*
X111973903Y-80096336D01*
X111874035Y-79882170D01*
X111866133Y-79870884D01*
X111738494Y-79688596D01*
X111571402Y-79521505D01*
X111571401Y-79521504D01*
X111385842Y-79391574D01*
X111342218Y-79336997D01*
X111335025Y-79267498D01*
X111366547Y-79205144D01*
X111385843Y-79188424D01*
X111571401Y-79058495D01*
X111738495Y-78891401D01*
X111874035Y-78697830D01*
X111973903Y-78483663D01*
X112035063Y-78255408D01*
X112055659Y-78020000D01*
X112035063Y-77784592D01*
X111973903Y-77556337D01*
X111924315Y-77449997D01*
X116094751Y-77449997D01*
X116094751Y-77450002D01*
X116113685Y-77618056D01*
X116169545Y-77777694D01*
X116169547Y-77777697D01*
X116259518Y-77920884D01*
X116259523Y-77920890D01*
X116379109Y-78040476D01*
X116379115Y-78040481D01*
X116522302Y-78130452D01*
X116522305Y-78130454D01*
X116522309Y-78130455D01*
X116522310Y-78130456D01*
X116594913Y-78155860D01*
X116681943Y-78186314D01*
X116849997Y-78205249D01*
X116850000Y-78205249D01*
X116850003Y-78205249D01*
X117018056Y-78186314D01*
X117018059Y-78186313D01*
X117177690Y-78130456D01*
X117177692Y-78130454D01*
X117177694Y-78130454D01*
X117177697Y-78130452D01*
X117320884Y-78040481D01*
X117320885Y-78040480D01*
X117320890Y-78040477D01*
X117440477Y-77920890D01*
X117440481Y-77920884D01*
X117530452Y-77777697D01*
X117530456Y-77777689D01*
X117546786Y-77731020D01*
X117587507Y-77674243D01*
X117652459Y-77648495D01*
X117662856Y-77647977D01*
X123638326Y-77602012D01*
X123705514Y-77621180D01*
X123726960Y-77638327D01*
X123729109Y-77640476D01*
X123729115Y-77640481D01*
X123872302Y-77730452D01*
X123872305Y-77730454D01*
X123872309Y-77730455D01*
X123872310Y-77730456D01*
X123944913Y-77755860D01*
X124031943Y-77786314D01*
X124199997Y-77805249D01*
X124200000Y-77805249D01*
X124200003Y-77805249D01*
X124368056Y-77786314D01*
X124372977Y-77784592D01*
X124527690Y-77730456D01*
X124527692Y-77730454D01*
X124527694Y-77730454D01*
X124527697Y-77730452D01*
X124670884Y-77640481D01*
X124670885Y-77640480D01*
X124670890Y-77640477D01*
X124790477Y-77520890D01*
X124835019Y-77450002D01*
X124880452Y-77377697D01*
X124880454Y-77377694D01*
X124880454Y-77377692D01*
X124880456Y-77377690D01*
X124936313Y-77218059D01*
X124936313Y-77218058D01*
X124936314Y-77218056D01*
X124955249Y-77050002D01*
X124955249Y-77049997D01*
X124936314Y-76881943D01*
X124880454Y-76722305D01*
X124880452Y-76722302D01*
X124790481Y-76579115D01*
X124790476Y-76579109D01*
X124670890Y-76459523D01*
X124670884Y-76459518D01*
X124527697Y-76369547D01*
X124527694Y-76369545D01*
X124368056Y-76313685D01*
X124200003Y-76294751D01*
X124199996Y-76294751D01*
X124037883Y-76313016D01*
X123969061Y-76300961D01*
X123917682Y-76253612D01*
X123900000Y-76189796D01*
X123900000Y-75487190D01*
X123919685Y-75420151D01*
X123972489Y-75374396D01*
X124041647Y-75364452D01*
X124105203Y-75393477D01*
X124141042Y-75446235D01*
X124169545Y-75527694D01*
X124169547Y-75527697D01*
X124259518Y-75670884D01*
X124259523Y-75670890D01*
X124379109Y-75790476D01*
X124379115Y-75790481D01*
X124522302Y-75880452D01*
X124522305Y-75880454D01*
X124522309Y-75880455D01*
X124522310Y-75880456D01*
X124594913Y-75905860D01*
X124681943Y-75936314D01*
X124849997Y-75955249D01*
X124850000Y-75955249D01*
X124850003Y-75955249D01*
X125018056Y-75936314D01*
X125018059Y-75936313D01*
X125177690Y-75880456D01*
X125177692Y-75880454D01*
X125177694Y-75880454D01*
X125177697Y-75880452D01*
X125320884Y-75790481D01*
X125320885Y-75790480D01*
X125320890Y-75790477D01*
X125440477Y-75670890D01*
X125515583Y-75551360D01*
X125530452Y-75527697D01*
X125530454Y-75527694D01*
X125530454Y-75527692D01*
X125530456Y-75527690D01*
X125586313Y-75368059D01*
X125586313Y-75368058D01*
X125586314Y-75368056D01*
X125605249Y-75200002D01*
X125605249Y-75199997D01*
X125586314Y-75031943D01*
X125530454Y-74872305D01*
X125530452Y-74872302D01*
X125440481Y-74729115D01*
X125440476Y-74729109D01*
X125320890Y-74609523D01*
X125320884Y-74609518D01*
X125177697Y-74519547D01*
X125177694Y-74519545D01*
X125018056Y-74463685D01*
X124850003Y-74444751D01*
X124849995Y-74444751D01*
X124770075Y-74453755D01*
X124701254Y-74441700D01*
X124649875Y-74394350D01*
X124632251Y-74326740D01*
X124653978Y-74260334D01*
X124668502Y-74242864D01*
X124740477Y-74170890D01*
X124740481Y-74170884D01*
X124830452Y-74027697D01*
X124830454Y-74027694D01*
X124830454Y-74027692D01*
X124830456Y-74027690D01*
X124886313Y-73868059D01*
X124886313Y-73868058D01*
X124886314Y-73868056D01*
X124905249Y-73700002D01*
X124905249Y-73699997D01*
X124886314Y-73531943D01*
X124833306Y-73380456D01*
X124830456Y-73372310D01*
X124830455Y-73372309D01*
X124830454Y-73372305D01*
X124830452Y-73372302D01*
X124740481Y-73229115D01*
X124740476Y-73229109D01*
X124620890Y-73109523D01*
X124620884Y-73109518D01*
X124477697Y-73019547D01*
X124477694Y-73019545D01*
X124318056Y-72963685D01*
X124150003Y-72944751D01*
X124149997Y-72944751D01*
X123981943Y-72963685D01*
X123822305Y-73019545D01*
X123822302Y-73019547D01*
X123679115Y-73109518D01*
X123679109Y-73109523D01*
X123559523Y-73229109D01*
X123559518Y-73229115D01*
X123469547Y-73372302D01*
X123469545Y-73372305D01*
X123413685Y-73531943D01*
X123394751Y-73699997D01*
X123394751Y-73700002D01*
X123413686Y-73868057D01*
X123454622Y-73985046D01*
X123458183Y-74054824D01*
X123423454Y-74115452D01*
X123361461Y-74147679D01*
X123337580Y-74150000D01*
X117400000Y-74150000D01*
X117400000Y-76684869D01*
X117380315Y-76751908D01*
X117327511Y-76797663D01*
X117258353Y-76807607D01*
X117210028Y-76789863D01*
X117177692Y-76769545D01*
X117177691Y-76769544D01*
X117177690Y-76769544D01*
X117127289Y-76751908D01*
X117018056Y-76713685D01*
X116850003Y-76694751D01*
X116849997Y-76694751D01*
X116681943Y-76713685D01*
X116522305Y-76769545D01*
X116522302Y-76769547D01*
X116379115Y-76859518D01*
X116379109Y-76859523D01*
X116259523Y-76979109D01*
X116259518Y-76979115D01*
X116169547Y-77122302D01*
X116169545Y-77122305D01*
X116113685Y-77281943D01*
X116094751Y-77449997D01*
X111924315Y-77449997D01*
X111874035Y-77342171D01*
X111787132Y-77218059D01*
X111738494Y-77148597D01*
X111571402Y-76981506D01*
X111571396Y-76981501D01*
X111385842Y-76851575D01*
X111342217Y-76796998D01*
X111335023Y-76727500D01*
X111366546Y-76665145D01*
X111385842Y-76648425D01*
X111468600Y-76590477D01*
X111571401Y-76518495D01*
X111738495Y-76351401D01*
X111874035Y-76157830D01*
X111947634Y-75999997D01*
X113044751Y-75999997D01*
X113044751Y-76000002D01*
X113063685Y-76168056D01*
X113119545Y-76327694D01*
X113119547Y-76327697D01*
X113209518Y-76470884D01*
X113209523Y-76470890D01*
X113329109Y-76590476D01*
X113329115Y-76590481D01*
X113472302Y-76680452D01*
X113472305Y-76680454D01*
X113472309Y-76680455D01*
X113472310Y-76680456D01*
X113484922Y-76684869D01*
X113631943Y-76736314D01*
X113799997Y-76755249D01*
X113800000Y-76755249D01*
X113800003Y-76755249D01*
X113968056Y-76736314D01*
X114008077Y-76722310D01*
X114127690Y-76680456D01*
X114127692Y-76680454D01*
X114127694Y-76680454D01*
X114127697Y-76680452D01*
X114270884Y-76590481D01*
X114270885Y-76590480D01*
X114270890Y-76590477D01*
X114390477Y-76470890D01*
X114417343Y-76428132D01*
X114469678Y-76381842D01*
X114538732Y-76371194D01*
X114602580Y-76399569D01*
X114610018Y-76406424D01*
X114673120Y-76469526D01*
X114673126Y-76469531D01*
X114816313Y-76559502D01*
X114816316Y-76559504D01*
X114816320Y-76559505D01*
X114816321Y-76559506D01*
X114872346Y-76579110D01*
X114975954Y-76615364D01*
X115144008Y-76634299D01*
X115144011Y-76634299D01*
X115144014Y-76634299D01*
X115312067Y-76615364D01*
X115312070Y-76615363D01*
X115471701Y-76559506D01*
X115471703Y-76559504D01*
X115471705Y-76559504D01*
X115471708Y-76559502D01*
X115614895Y-76469531D01*
X115614896Y-76469530D01*
X115614901Y-76469527D01*
X115734488Y-76349940D01*
X115734492Y-76349934D01*
X115824463Y-76206747D01*
X115824465Y-76206744D01*
X115824465Y-76206742D01*
X115824467Y-76206740D01*
X115880324Y-76047109D01*
X115880324Y-76047108D01*
X115880325Y-76047106D01*
X115899260Y-75879052D01*
X115899260Y-75879047D01*
X115880325Y-75710993D01*
X115824465Y-75551355D01*
X115824463Y-75551352D01*
X115734492Y-75408165D01*
X115734487Y-75408159D01*
X115614901Y-75288573D01*
X115614895Y-75288568D01*
X115471708Y-75198597D01*
X115471705Y-75198595D01*
X115312067Y-75142735D01*
X115144014Y-75123801D01*
X115144008Y-75123801D01*
X114975954Y-75142735D01*
X114816316Y-75198595D01*
X114816313Y-75198597D01*
X114673126Y-75288568D01*
X114673120Y-75288573D01*
X114553534Y-75408159D01*
X114526668Y-75450917D01*
X114474333Y-75497208D01*
X114405279Y-75507856D01*
X114341431Y-75479481D01*
X114333993Y-75472626D01*
X114270890Y-75409523D01*
X114270884Y-75409518D01*
X114127697Y-75319547D01*
X114127694Y-75319545D01*
X113968056Y-75263685D01*
X113800003Y-75244751D01*
X113799997Y-75244751D01*
X113631943Y-75263685D01*
X113472305Y-75319545D01*
X113472302Y-75319547D01*
X113329115Y-75409518D01*
X113329109Y-75409523D01*
X113209523Y-75529109D01*
X113209518Y-75529115D01*
X113119547Y-75672302D01*
X113119545Y-75672305D01*
X113063685Y-75831943D01*
X113044751Y-75999997D01*
X111947634Y-75999997D01*
X111973903Y-75943663D01*
X112035063Y-75715408D01*
X112055659Y-75480000D01*
X112035063Y-75244592D01*
X111973903Y-75016337D01*
X111874035Y-74802171D01*
X111822878Y-74729110D01*
X111738494Y-74608597D01*
X111571402Y-74441506D01*
X111571396Y-74441501D01*
X111385842Y-74311575D01*
X111342217Y-74256998D01*
X111335023Y-74187500D01*
X111366546Y-74125145D01*
X111385842Y-74108425D01*
X111501133Y-74027697D01*
X111571401Y-73978495D01*
X111738495Y-73811401D01*
X111874035Y-73617830D01*
X111973903Y-73403663D01*
X112035063Y-73175408D01*
X112055659Y-72940000D01*
X112035063Y-72704592D01*
X112033832Y-72699997D01*
X114394751Y-72699997D01*
X114394751Y-72700002D01*
X114413685Y-72868056D01*
X114469545Y-73027694D01*
X114469547Y-73027697D01*
X114559518Y-73170884D01*
X114559523Y-73170890D01*
X114679109Y-73290476D01*
X114679115Y-73290481D01*
X114822302Y-73380452D01*
X114822305Y-73380454D01*
X114822309Y-73380455D01*
X114822310Y-73380456D01*
X114888609Y-73403655D01*
X114981943Y-73436314D01*
X115149997Y-73455249D01*
X115150000Y-73455249D01*
X115150003Y-73455249D01*
X115318056Y-73436314D01*
X115318059Y-73436313D01*
X115477690Y-73380456D01*
X115477692Y-73380454D01*
X115477694Y-73380454D01*
X115477697Y-73380452D01*
X115620884Y-73290481D01*
X115620885Y-73290480D01*
X115620890Y-73290477D01*
X115740477Y-73170890D01*
X115830452Y-73027697D01*
X115830454Y-73027694D01*
X115830454Y-73027692D01*
X115830456Y-73027690D01*
X115886313Y-72868059D01*
X115886313Y-72868058D01*
X115886314Y-72868056D01*
X115905249Y-72700002D01*
X115905249Y-72699997D01*
X115886314Y-72531943D01*
X115830454Y-72372305D01*
X115830452Y-72372302D01*
X115740481Y-72229115D01*
X115740476Y-72229109D01*
X115620890Y-72109523D01*
X115620884Y-72109518D01*
X115477697Y-72019547D01*
X115477694Y-72019545D01*
X115318056Y-71963685D01*
X115150003Y-71944751D01*
X115149997Y-71944751D01*
X114981943Y-71963685D01*
X114822305Y-72019545D01*
X114822302Y-72019547D01*
X114679115Y-72109518D01*
X114679109Y-72109523D01*
X114559523Y-72229109D01*
X114559518Y-72229115D01*
X114469547Y-72372302D01*
X114469545Y-72372305D01*
X114413685Y-72531943D01*
X114394751Y-72699997D01*
X112033832Y-72699997D01*
X111973903Y-72476337D01*
X111874035Y-72262171D01*
X111785910Y-72136314D01*
X111738494Y-72068597D01*
X111571402Y-71901506D01*
X111571401Y-71901505D01*
X111385842Y-71771575D01*
X111342218Y-71716998D01*
X111335025Y-71647499D01*
X111366547Y-71585145D01*
X111385843Y-71568425D01*
X111453730Y-71520890D01*
X111571401Y-71438496D01*
X111738495Y-71271402D01*
X111874035Y-71077831D01*
X111887014Y-71049997D01*
X112694751Y-71049997D01*
X112694751Y-71050002D01*
X112713685Y-71218056D01*
X112769545Y-71377694D01*
X112769547Y-71377697D01*
X112859518Y-71520884D01*
X112859523Y-71520890D01*
X112979109Y-71640476D01*
X112979115Y-71640481D01*
X113122302Y-71730452D01*
X113122305Y-71730454D01*
X113122309Y-71730455D01*
X113122310Y-71730456D01*
X113192039Y-71754855D01*
X113281943Y-71786314D01*
X113449997Y-71805249D01*
X113450000Y-71805249D01*
X113450003Y-71805249D01*
X113618056Y-71786314D01*
X113618059Y-71786313D01*
X113777690Y-71730456D01*
X113777692Y-71730454D01*
X113777694Y-71730454D01*
X113777697Y-71730452D01*
X113920884Y-71640481D01*
X113920885Y-71640480D01*
X113920890Y-71640477D01*
X114040477Y-71520890D01*
X114092250Y-71438494D01*
X114116440Y-71399997D01*
X116744751Y-71399997D01*
X116744751Y-71400002D01*
X116763685Y-71568056D01*
X116819545Y-71727694D01*
X116819547Y-71727697D01*
X116909518Y-71870884D01*
X116909523Y-71870890D01*
X117029109Y-71990476D01*
X117029115Y-71990481D01*
X117172302Y-72080452D01*
X117172305Y-72080454D01*
X117172309Y-72080455D01*
X117172310Y-72080456D01*
X117244913Y-72105860D01*
X117331943Y-72136314D01*
X117499997Y-72155249D01*
X117500000Y-72155249D01*
X117500003Y-72155249D01*
X117668056Y-72136314D01*
X117668059Y-72136313D01*
X117827690Y-72080456D01*
X117827692Y-72080454D01*
X117827694Y-72080454D01*
X117827697Y-72080452D01*
X117970884Y-71990481D01*
X117970885Y-71990480D01*
X117970890Y-71990477D01*
X118090477Y-71870890D01*
X118178718Y-71730456D01*
X118180452Y-71727697D01*
X118180454Y-71727694D01*
X118180454Y-71727692D01*
X118180456Y-71727690D01*
X118236313Y-71568059D01*
X118236313Y-71568058D01*
X118236314Y-71568056D01*
X118255249Y-71400002D01*
X118255249Y-71399997D01*
X118236314Y-71231943D01*
X118180454Y-71072305D01*
X118180452Y-71072302D01*
X118090481Y-70929115D01*
X118090476Y-70929109D01*
X117970890Y-70809523D01*
X117970884Y-70809518D01*
X117827697Y-70719547D01*
X117827694Y-70719545D01*
X117668056Y-70663685D01*
X117500003Y-70644751D01*
X117499997Y-70644751D01*
X117331943Y-70663685D01*
X117172305Y-70719545D01*
X117172302Y-70719547D01*
X117029115Y-70809518D01*
X117029109Y-70809523D01*
X116909523Y-70929109D01*
X116909518Y-70929115D01*
X116819547Y-71072302D01*
X116819545Y-71072305D01*
X116763685Y-71231943D01*
X116744751Y-71399997D01*
X114116440Y-71399997D01*
X114130452Y-71377697D01*
X114130454Y-71377694D01*
X114130454Y-71377692D01*
X114130456Y-71377690D01*
X114186313Y-71218059D01*
X114186313Y-71218058D01*
X114186314Y-71218056D01*
X114205249Y-71050002D01*
X114205249Y-71049997D01*
X114186314Y-70881943D01*
X114130454Y-70722305D01*
X114130452Y-70722302D01*
X114040481Y-70579115D01*
X114040476Y-70579109D01*
X113920890Y-70459523D01*
X113920884Y-70459518D01*
X113777697Y-70369547D01*
X113777694Y-70369545D01*
X113618056Y-70313685D01*
X113450003Y-70294751D01*
X113449997Y-70294751D01*
X113281943Y-70313685D01*
X113122305Y-70369545D01*
X113122302Y-70369547D01*
X112979115Y-70459518D01*
X112979109Y-70459523D01*
X112859523Y-70579109D01*
X112859518Y-70579115D01*
X112769547Y-70722302D01*
X112769545Y-70722305D01*
X112713685Y-70881943D01*
X112694751Y-71049997D01*
X111887014Y-71049997D01*
X111973903Y-70863664D01*
X112035063Y-70635409D01*
X112055659Y-70400001D01*
X112035063Y-70164593D01*
X111973903Y-69936338D01*
X111874035Y-69722172D01*
X111863371Y-69706941D01*
X111738494Y-69528598D01*
X111571402Y-69361507D01*
X111571396Y-69361502D01*
X111556760Y-69351254D01*
X116044751Y-69351254D01*
X116044751Y-69351259D01*
X116063685Y-69519313D01*
X116119545Y-69678951D01*
X116119547Y-69678954D01*
X116209518Y-69822141D01*
X116209523Y-69822147D01*
X116329109Y-69941733D01*
X116329115Y-69941738D01*
X116472302Y-70031709D01*
X116472305Y-70031711D01*
X116472309Y-70031712D01*
X116472310Y-70031713D01*
X116539572Y-70055249D01*
X116631943Y-70087571D01*
X116799997Y-70106506D01*
X116800000Y-70106506D01*
X116800003Y-70106506D01*
X116968056Y-70087571D01*
X116971651Y-70086313D01*
X117127690Y-70031713D01*
X117127692Y-70031711D01*
X117127694Y-70031711D01*
X117127697Y-70031709D01*
X117270884Y-69941738D01*
X117270885Y-69941737D01*
X117270890Y-69941734D01*
X117390477Y-69822147D01*
X117415058Y-69783027D01*
X117480452Y-69678954D01*
X117480454Y-69678951D01*
X117480454Y-69678949D01*
X117480456Y-69678947D01*
X117536313Y-69519316D01*
X117536313Y-69519315D01*
X117536314Y-69519313D01*
X117555249Y-69351259D01*
X117555249Y-69351254D01*
X117549474Y-69299997D01*
X119994751Y-69299997D01*
X119994751Y-69300002D01*
X120013685Y-69468056D01*
X120069545Y-69627694D01*
X120069547Y-69627697D01*
X120159518Y-69770884D01*
X120159523Y-69770890D01*
X120279109Y-69890476D01*
X120279115Y-69890481D01*
X120422302Y-69980452D01*
X120422305Y-69980454D01*
X120422309Y-69980455D01*
X120422310Y-69980456D01*
X120460691Y-69993886D01*
X120581943Y-70036314D01*
X120749997Y-70055249D01*
X120750000Y-70055249D01*
X120750003Y-70055249D01*
X120918059Y-70036313D01*
X120918060Y-70036313D01*
X121039309Y-69993886D01*
X121109088Y-69990324D01*
X121169715Y-70025052D01*
X121197304Y-70069971D01*
X121209649Y-70105249D01*
X121243745Y-70202691D01*
X121243748Y-70202697D01*
X121333719Y-70345884D01*
X121333724Y-70345890D01*
X121453310Y-70465476D01*
X121453316Y-70465481D01*
X121596503Y-70555452D01*
X121596506Y-70555454D01*
X121596510Y-70555455D01*
X121596511Y-70555456D01*
X121664108Y-70579109D01*
X121756144Y-70611314D01*
X121924198Y-70630249D01*
X121924201Y-70630249D01*
X121924204Y-70630249D01*
X122092257Y-70611314D01*
X122163703Y-70586314D01*
X122251891Y-70555456D01*
X122251893Y-70555454D01*
X122251895Y-70555454D01*
X122251898Y-70555452D01*
X122395085Y-70465481D01*
X122395086Y-70465480D01*
X122395091Y-70465477D01*
X122514678Y-70345890D01*
X122530387Y-70320890D01*
X122604653Y-70202697D01*
X122604655Y-70202694D01*
X122604656Y-70202691D01*
X122604657Y-70202690D01*
X122660514Y-70043059D01*
X122660514Y-70043057D01*
X122660515Y-70043055D01*
X122672072Y-69940477D01*
X122678098Y-69886994D01*
X122705164Y-69822582D01*
X122762759Y-69783027D01*
X122832596Y-69780889D01*
X122867290Y-69795885D01*
X122907076Y-69820884D01*
X122922310Y-69830456D01*
X123043621Y-69872904D01*
X123081943Y-69886314D01*
X123152724Y-69894289D01*
X123217138Y-69921355D01*
X123256693Y-69978950D01*
X123262059Y-70003619D01*
X123263687Y-70018059D01*
X123272435Y-70043059D01*
X123319544Y-70177692D01*
X123319547Y-70177697D01*
X123409518Y-70320884D01*
X123409523Y-70320890D01*
X123529109Y-70440476D01*
X123529115Y-70440481D01*
X123672302Y-70530452D01*
X123672305Y-70530454D01*
X123672309Y-70530455D01*
X123672310Y-70530456D01*
X123743745Y-70555452D01*
X123831943Y-70586314D01*
X123999997Y-70605249D01*
X124000000Y-70605249D01*
X124000003Y-70605249D01*
X124168056Y-70586314D01*
X124168059Y-70586313D01*
X124327690Y-70530456D01*
X124327692Y-70530454D01*
X124327694Y-70530454D01*
X124327697Y-70530452D01*
X124470884Y-70440481D01*
X124470885Y-70440480D01*
X124470890Y-70440477D01*
X124590477Y-70320890D01*
X124595004Y-70313685D01*
X124680452Y-70177697D01*
X124680454Y-70177694D01*
X124680454Y-70177692D01*
X124680456Y-70177690D01*
X124736313Y-70018059D01*
X124736313Y-70018058D01*
X124736314Y-70018056D01*
X124755249Y-69850002D01*
X124755249Y-69849997D01*
X124736314Y-69681943D01*
X124680454Y-69522305D01*
X124680452Y-69522302D01*
X124590481Y-69379115D01*
X124590476Y-69379109D01*
X124470890Y-69259523D01*
X124470884Y-69259518D01*
X124327697Y-69169547D01*
X124327694Y-69169545D01*
X124168056Y-69113686D01*
X124097274Y-69105710D01*
X124032860Y-69078643D01*
X123993306Y-69021047D01*
X123987939Y-68996373D01*
X123986313Y-68981941D01*
X123930456Y-68822310D01*
X123930455Y-68822309D01*
X123930454Y-68822305D01*
X123930452Y-68822302D01*
X123840481Y-68679115D01*
X123840476Y-68679109D01*
X123720890Y-68559523D01*
X123720884Y-68559518D01*
X123577697Y-68469547D01*
X123577694Y-68469545D01*
X123418056Y-68413685D01*
X123250003Y-68394751D01*
X123249997Y-68394751D01*
X123081943Y-68413685D01*
X122922305Y-68469545D01*
X122922302Y-68469547D01*
X122779115Y-68559518D01*
X122779109Y-68559523D01*
X122659523Y-68679109D01*
X122659518Y-68679115D01*
X122569547Y-68822302D01*
X122569545Y-68822305D01*
X122513685Y-68981943D01*
X122496102Y-69138004D01*
X122469035Y-69202418D01*
X122411440Y-69241973D01*
X122341603Y-69244110D01*
X122306911Y-69229114D01*
X122251896Y-69194546D01*
X122251895Y-69194545D01*
X122092257Y-69138685D01*
X121924204Y-69119751D01*
X121924198Y-69119751D01*
X121756143Y-69138686D01*
X121634891Y-69181114D01*
X121565113Y-69184675D01*
X121504485Y-69149946D01*
X121476895Y-69105026D01*
X121430456Y-68972310D01*
X121430453Y-68972305D01*
X121430452Y-68972302D01*
X121340481Y-68829115D01*
X121340476Y-68829109D01*
X121220890Y-68709523D01*
X121220884Y-68709518D01*
X121077697Y-68619547D01*
X121077694Y-68619545D01*
X120918056Y-68563685D01*
X120750003Y-68544751D01*
X120749997Y-68544751D01*
X120581943Y-68563685D01*
X120422305Y-68619545D01*
X120422302Y-68619547D01*
X120279115Y-68709518D01*
X120279109Y-68709523D01*
X120159523Y-68829109D01*
X120159518Y-68829115D01*
X120069547Y-68972302D01*
X120069545Y-68972305D01*
X120013685Y-69131943D01*
X119994751Y-69299997D01*
X117549474Y-69299997D01*
X117536314Y-69183200D01*
X117488006Y-69045145D01*
X117480456Y-69023567D01*
X117480455Y-69023566D01*
X117480454Y-69023562D01*
X117480452Y-69023559D01*
X117390481Y-68880372D01*
X117390476Y-68880366D01*
X117270890Y-68760780D01*
X117270884Y-68760775D01*
X117127697Y-68670804D01*
X117127694Y-68670802D01*
X116968056Y-68614942D01*
X116800003Y-68596008D01*
X116799997Y-68596008D01*
X116631943Y-68614942D01*
X116472305Y-68670802D01*
X116472302Y-68670804D01*
X116329115Y-68760775D01*
X116329109Y-68760780D01*
X116209523Y-68880366D01*
X116209518Y-68880372D01*
X116119547Y-69023559D01*
X116119545Y-69023562D01*
X116063685Y-69183200D01*
X116044751Y-69351254D01*
X111556760Y-69351254D01*
X111385840Y-69231575D01*
X111342215Y-69176998D01*
X111335021Y-69107500D01*
X111366544Y-69045145D01*
X111385840Y-69028425D01*
X111392778Y-69023567D01*
X111571401Y-68898494D01*
X111738495Y-68731400D01*
X111874035Y-68537829D01*
X111973903Y-68323662D01*
X112035063Y-68095407D01*
X112055659Y-67859999D01*
X112035063Y-67624591D01*
X111973903Y-67396336D01*
X111874035Y-67182170D01*
X111858179Y-67159524D01*
X111738494Y-66988596D01*
X111571402Y-66821505D01*
X111571401Y-66821504D01*
X111385842Y-66691574D01*
X111342218Y-66636997D01*
X111335025Y-66567498D01*
X111366547Y-66505144D01*
X111385843Y-66488424D01*
X111409709Y-66471713D01*
X111571401Y-66358495D01*
X111738495Y-66191401D01*
X111874035Y-65997830D01*
X111973903Y-65783663D01*
X112035063Y-65555408D01*
X112055659Y-65320000D01*
X112035063Y-65084592D01*
X111973903Y-64856337D01*
X111874035Y-64642171D01*
X111869934Y-64636313D01*
X111738494Y-64448597D01*
X111639893Y-64349997D01*
X114607924Y-64349997D01*
X114607924Y-64350002D01*
X114626858Y-64518056D01*
X114682718Y-64677692D01*
X114722868Y-64741590D01*
X114741868Y-64808826D01*
X114734916Y-64848516D01*
X114698242Y-64953324D01*
X114679307Y-65121379D01*
X114679307Y-65121384D01*
X114698242Y-65289439D01*
X114737139Y-65400602D01*
X114740700Y-65470381D01*
X114725092Y-65507526D01*
X114696177Y-65553544D01*
X114640318Y-65713179D01*
X114621384Y-65881233D01*
X114621384Y-65881238D01*
X114640318Y-66049292D01*
X114696178Y-66208930D01*
X114696180Y-66208933D01*
X114786151Y-66352120D01*
X114786156Y-66352126D01*
X114895871Y-66461841D01*
X114929356Y-66523164D01*
X114924372Y-66592856D01*
X114895872Y-66637202D01*
X114844444Y-66688630D01*
X114844438Y-66688637D01*
X114754467Y-66831824D01*
X114754465Y-66831827D01*
X114698605Y-66991465D01*
X114679671Y-67159519D01*
X114679671Y-67159524D01*
X114698605Y-67327578D01*
X114754465Y-67487214D01*
X114804498Y-67566841D01*
X114823498Y-67634078D01*
X114816548Y-67673759D01*
X114813688Y-67681934D01*
X114813686Y-67681941D01*
X114794751Y-67849997D01*
X114794751Y-67850002D01*
X114813685Y-68018056D01*
X114869545Y-68177694D01*
X114869547Y-68177697D01*
X114959518Y-68320884D01*
X114959523Y-68320890D01*
X115079109Y-68440476D01*
X115079115Y-68440481D01*
X115222302Y-68530452D01*
X115222305Y-68530454D01*
X115222309Y-68530455D01*
X115222310Y-68530456D01*
X115263163Y-68544751D01*
X115381943Y-68586314D01*
X115549997Y-68605249D01*
X115550000Y-68605249D01*
X115550003Y-68605249D01*
X115718056Y-68586314D01*
X115742682Y-68577697D01*
X115877690Y-68530456D01*
X115877692Y-68530454D01*
X115877694Y-68530454D01*
X115877697Y-68530452D01*
X116020884Y-68440481D01*
X116020885Y-68440480D01*
X116020890Y-68440477D01*
X116140477Y-68320890D01*
X116185019Y-68250002D01*
X116185022Y-68249997D01*
X117944751Y-68249997D01*
X117944751Y-68250002D01*
X117963685Y-68418056D01*
X118019545Y-68577694D01*
X118019547Y-68577697D01*
X118109518Y-68720884D01*
X118109523Y-68720890D01*
X118229109Y-68840476D01*
X118229115Y-68840481D01*
X118372302Y-68930452D01*
X118372305Y-68930454D01*
X118372309Y-68930455D01*
X118372310Y-68930456D01*
X118444913Y-68955860D01*
X118531943Y-68986314D01*
X118699997Y-69005249D01*
X118700000Y-69005249D01*
X118700003Y-69005249D01*
X118868056Y-68986314D01*
X118880548Y-68981943D01*
X119027690Y-68930456D01*
X119027692Y-68930454D01*
X119027694Y-68930454D01*
X119027697Y-68930452D01*
X119170884Y-68840481D01*
X119170885Y-68840480D01*
X119170890Y-68840477D01*
X119290477Y-68720890D01*
X119290481Y-68720884D01*
X119380452Y-68577697D01*
X119380454Y-68577694D01*
X119380454Y-68577692D01*
X119380456Y-68577690D01*
X119436313Y-68418059D01*
X119436313Y-68418058D01*
X119436314Y-68418056D01*
X119455249Y-68250002D01*
X119455249Y-68249997D01*
X119436314Y-68081943D01*
X119380454Y-67922305D01*
X119380452Y-67922302D01*
X119290481Y-67779115D01*
X119290476Y-67779109D01*
X119170890Y-67659523D01*
X119170884Y-67659518D01*
X119027697Y-67569547D01*
X119027694Y-67569545D01*
X118868056Y-67513685D01*
X118700003Y-67494751D01*
X118699997Y-67494751D01*
X118531943Y-67513685D01*
X118372305Y-67569545D01*
X118372302Y-67569547D01*
X118229115Y-67659518D01*
X118229109Y-67659523D01*
X118109523Y-67779109D01*
X118109518Y-67779115D01*
X118019547Y-67922302D01*
X118019545Y-67922305D01*
X117963685Y-68081943D01*
X117944751Y-68249997D01*
X116185022Y-68249997D01*
X116230452Y-68177697D01*
X116230454Y-68177694D01*
X116230454Y-68177692D01*
X116230456Y-68177690D01*
X116286313Y-68018059D01*
X116286313Y-68018058D01*
X116286314Y-68018056D01*
X116305249Y-67850002D01*
X116305249Y-67849997D01*
X116286313Y-67681942D01*
X116286310Y-67681934D01*
X116230456Y-67522310D01*
X116225038Y-67513687D01*
X116180421Y-67442680D01*
X116161420Y-67375443D01*
X116168374Y-67335751D01*
X116171233Y-67327581D01*
X116187618Y-67182168D01*
X116190169Y-67159524D01*
X116190169Y-67159519D01*
X116171234Y-66991465D01*
X116115374Y-66831827D01*
X116115372Y-66831824D01*
X116025401Y-66688637D01*
X116025396Y-66688631D01*
X115915681Y-66578916D01*
X115882196Y-66517593D01*
X115887180Y-66447901D01*
X115915680Y-66403555D01*
X115967110Y-66352126D01*
X116057085Y-66208933D01*
X116057087Y-66208930D01*
X116057087Y-66208928D01*
X116057089Y-66208926D01*
X116112946Y-66049295D01*
X116112946Y-66049294D01*
X116112947Y-66049292D01*
X116131882Y-65881238D01*
X116131882Y-65881233D01*
X116112946Y-65713176D01*
X116112946Y-65713175D01*
X116074049Y-65602015D01*
X116070487Y-65532236D01*
X116086096Y-65495089D01*
X116115012Y-65449072D01*
X116170869Y-65289441D01*
X116188615Y-65131941D01*
X116189805Y-65121384D01*
X116189805Y-65121379D01*
X116170869Y-64953324D01*
X116115012Y-64793691D01*
X116113067Y-64790596D01*
X116112420Y-64788309D01*
X116111992Y-64787419D01*
X116112147Y-64787343D01*
X116094064Y-64723360D01*
X116114429Y-64656524D01*
X116167696Y-64611308D01*
X116177093Y-64607582D01*
X116254616Y-64580456D01*
X116267833Y-64572151D01*
X116335065Y-64553148D01*
X116401902Y-64573512D01*
X116447119Y-64626777D01*
X116457028Y-64691024D01*
X116444751Y-64799994D01*
X116444751Y-64800002D01*
X116463685Y-64968056D01*
X116519545Y-65127694D01*
X116519547Y-65127697D01*
X116609518Y-65270884D01*
X116609523Y-65270890D01*
X116729109Y-65390476D01*
X116729115Y-65390481D01*
X116872302Y-65480452D01*
X116872305Y-65480454D01*
X116872309Y-65480455D01*
X116872310Y-65480456D01*
X116944913Y-65505860D01*
X117031943Y-65536314D01*
X117199997Y-65555249D01*
X117200000Y-65555249D01*
X117200003Y-65555249D01*
X117368056Y-65536314D01*
X117379710Y-65532236D01*
X117527690Y-65480456D01*
X117527692Y-65480454D01*
X117527694Y-65480454D01*
X117527697Y-65480452D01*
X117670884Y-65390481D01*
X117670885Y-65390480D01*
X117670890Y-65390477D01*
X117761370Y-65299997D01*
X122344751Y-65299997D01*
X122344751Y-65300002D01*
X122363685Y-65468056D01*
X122419545Y-65627694D01*
X122419547Y-65627697D01*
X122509518Y-65770884D01*
X122509523Y-65770890D01*
X122629109Y-65890476D01*
X122629115Y-65890481D01*
X122772302Y-65980452D01*
X122772305Y-65980454D01*
X122772309Y-65980455D01*
X122772310Y-65980456D01*
X122821974Y-65997834D01*
X122931943Y-66036314D01*
X123099997Y-66055249D01*
X123100000Y-66055249D01*
X123100003Y-66055249D01*
X123268059Y-66036313D01*
X123268060Y-66036313D01*
X123409045Y-65986980D01*
X123478824Y-65983418D01*
X123490955Y-65986980D01*
X123631939Y-66036313D01*
X123799997Y-66055249D01*
X123800000Y-66055249D01*
X123800003Y-66055249D01*
X123968056Y-66036314D01*
X123968059Y-66036313D01*
X124127690Y-65980456D01*
X124127692Y-65980454D01*
X124127694Y-65980454D01*
X124127697Y-65980452D01*
X124270884Y-65890481D01*
X124270885Y-65890480D01*
X124270890Y-65890477D01*
X124390477Y-65770890D01*
X124390481Y-65770884D01*
X124480452Y-65627697D01*
X124480454Y-65627694D01*
X124480454Y-65627692D01*
X124480456Y-65627690D01*
X124536313Y-65468059D01*
X124536313Y-65468058D01*
X124536314Y-65468056D01*
X124555249Y-65300002D01*
X124555249Y-65299997D01*
X124536314Y-65131943D01*
X124480454Y-64972305D01*
X124480452Y-64972302D01*
X124390481Y-64829115D01*
X124390476Y-64829109D01*
X124270890Y-64709523D01*
X124270884Y-64709518D01*
X124127697Y-64619547D01*
X124127694Y-64619545D01*
X123968056Y-64563685D01*
X123800003Y-64544751D01*
X123799997Y-64544751D01*
X123631943Y-64563685D01*
X123490955Y-64613020D01*
X123421176Y-64616581D01*
X123409045Y-64613020D01*
X123404152Y-64611308D01*
X123391813Y-64606990D01*
X123268056Y-64563685D01*
X123100003Y-64544751D01*
X123099997Y-64544751D01*
X122931943Y-64563685D01*
X122772305Y-64619545D01*
X122772302Y-64619547D01*
X122629115Y-64709518D01*
X122629109Y-64709523D01*
X122509523Y-64829109D01*
X122509518Y-64829115D01*
X122419547Y-64972302D01*
X122419545Y-64972305D01*
X122363685Y-65131943D01*
X122344751Y-65299997D01*
X117761370Y-65299997D01*
X117790477Y-65270890D01*
X117880452Y-65127697D01*
X117880454Y-65127694D01*
X117880454Y-65127692D01*
X117880456Y-65127690D01*
X117936313Y-64968059D01*
X117936313Y-64968058D01*
X117936314Y-64968056D01*
X117955249Y-64800002D01*
X117955249Y-64799997D01*
X117936314Y-64631943D01*
X117880454Y-64472305D01*
X117880452Y-64472302D01*
X117790481Y-64329115D01*
X117790476Y-64329109D01*
X117670890Y-64209523D01*
X117670884Y-64209518D01*
X117527697Y-64119547D01*
X117527694Y-64119545D01*
X117368056Y-64063685D01*
X117200003Y-64044751D01*
X117199997Y-64044751D01*
X117031943Y-64063685D01*
X116872307Y-64119545D01*
X116859089Y-64127851D01*
X116791852Y-64146851D01*
X116725017Y-64126483D01*
X116679803Y-64073215D01*
X116669897Y-64008973D01*
X116682175Y-63900002D01*
X116682175Y-63899997D01*
X116663240Y-63731943D01*
X116610232Y-63580456D01*
X116607382Y-63572310D01*
X116607381Y-63572309D01*
X116607380Y-63572305D01*
X116607378Y-63572302D01*
X116517407Y-63429115D01*
X116517402Y-63429109D01*
X116397816Y-63309523D01*
X116397810Y-63309518D01*
X116254623Y-63219547D01*
X116254620Y-63219545D01*
X116094982Y-63163685D01*
X115926929Y-63144751D01*
X115926923Y-63144751D01*
X115758869Y-63163685D01*
X115599231Y-63219545D01*
X115599228Y-63219547D01*
X115456041Y-63309518D01*
X115456035Y-63309523D01*
X115336447Y-63429111D01*
X115250701Y-63565575D01*
X115198367Y-63611865D01*
X115186663Y-63616643D01*
X115035486Y-63669542D01*
X115035475Y-63669547D01*
X114892288Y-63759518D01*
X114892282Y-63759523D01*
X114772696Y-63879109D01*
X114772691Y-63879115D01*
X114682720Y-64022302D01*
X114682718Y-64022305D01*
X114626858Y-64181943D01*
X114607924Y-64349997D01*
X111639893Y-64349997D01*
X111571402Y-64281506D01*
X111571396Y-64281501D01*
X111385842Y-64151575D01*
X111342217Y-64096998D01*
X111335023Y-64027500D01*
X111366546Y-63965145D01*
X111385842Y-63948425D01*
X111455004Y-63899997D01*
X111571401Y-63818495D01*
X111738495Y-63651401D01*
X111874035Y-63457830D01*
X111973903Y-63243663D01*
X112035063Y-63015408D01*
X112045160Y-62899997D01*
X117644751Y-62899997D01*
X117644751Y-62900002D01*
X117663685Y-63068056D01*
X117719545Y-63227694D01*
X117719547Y-63227697D01*
X117809518Y-63370884D01*
X117809523Y-63370890D01*
X117929109Y-63490476D01*
X117929115Y-63490481D01*
X118072302Y-63580452D01*
X118072305Y-63580454D01*
X118072309Y-63580455D01*
X118072310Y-63580456D01*
X118144913Y-63605860D01*
X118231943Y-63636314D01*
X118399997Y-63655249D01*
X118400000Y-63655249D01*
X118400003Y-63655249D01*
X118568056Y-63636314D01*
X118568059Y-63636313D01*
X118727690Y-63580456D01*
X118727692Y-63580454D01*
X118727694Y-63580454D01*
X118727697Y-63580452D01*
X118870884Y-63490481D01*
X118870885Y-63490480D01*
X118870890Y-63490477D01*
X118990477Y-63370890D01*
X119070419Y-63243664D01*
X119080452Y-63227697D01*
X119080454Y-63227694D01*
X119080454Y-63227692D01*
X119080456Y-63227690D01*
X119136313Y-63068059D01*
X119136313Y-63068058D01*
X119136314Y-63068056D01*
X119155249Y-62900002D01*
X119155249Y-62899997D01*
X119136314Y-62731943D01*
X119080454Y-62572305D01*
X119080452Y-62572302D01*
X119019311Y-62474997D01*
X124144751Y-62474997D01*
X124144751Y-62475002D01*
X124163685Y-62643056D01*
X124219545Y-62802694D01*
X124219547Y-62802697D01*
X124309518Y-62945884D01*
X124309523Y-62945890D01*
X124429109Y-63065476D01*
X124429115Y-63065481D01*
X124572302Y-63155452D01*
X124572305Y-63155454D01*
X124572309Y-63155455D01*
X124572310Y-63155456D01*
X124595833Y-63163687D01*
X124731943Y-63211314D01*
X124899997Y-63230249D01*
X124900000Y-63230249D01*
X124900003Y-63230249D01*
X125068056Y-63211314D01*
X125068059Y-63211313D01*
X125227690Y-63155456D01*
X125227692Y-63155454D01*
X125227694Y-63155454D01*
X125227697Y-63155452D01*
X125370884Y-63065481D01*
X125370885Y-63065480D01*
X125370890Y-63065477D01*
X125490477Y-62945890D01*
X125490481Y-62945884D01*
X125580452Y-62802697D01*
X125580454Y-62802694D01*
X125580454Y-62802692D01*
X125580456Y-62802690D01*
X125636313Y-62643059D01*
X125636313Y-62643058D01*
X125636314Y-62643056D01*
X125655249Y-62475002D01*
X125655249Y-62474997D01*
X125636314Y-62306943D01*
X125605732Y-62219544D01*
X125580456Y-62147310D01*
X125580455Y-62147309D01*
X125580454Y-62147305D01*
X125580452Y-62147302D01*
X125490481Y-62004115D01*
X125490476Y-62004109D01*
X125370890Y-61884523D01*
X125370884Y-61884518D01*
X125227697Y-61794547D01*
X125227694Y-61794545D01*
X125068056Y-61738685D01*
X124900003Y-61719751D01*
X124899997Y-61719751D01*
X124731943Y-61738685D01*
X124572305Y-61794545D01*
X124572302Y-61794547D01*
X124429115Y-61884518D01*
X124429109Y-61884523D01*
X124309523Y-62004109D01*
X124309518Y-62004115D01*
X124219547Y-62147302D01*
X124219545Y-62147305D01*
X124163685Y-62306943D01*
X124144751Y-62474997D01*
X119019311Y-62474997D01*
X118990481Y-62429115D01*
X118990476Y-62429109D01*
X118870890Y-62309523D01*
X118870884Y-62309518D01*
X118727697Y-62219547D01*
X118727694Y-62219545D01*
X118568056Y-62163685D01*
X118400003Y-62144751D01*
X118399997Y-62144751D01*
X118231943Y-62163685D01*
X118072305Y-62219545D01*
X118072302Y-62219547D01*
X117929115Y-62309518D01*
X117929109Y-62309523D01*
X117809523Y-62429109D01*
X117809518Y-62429115D01*
X117719547Y-62572302D01*
X117719545Y-62572305D01*
X117663685Y-62731943D01*
X117644751Y-62899997D01*
X112045160Y-62899997D01*
X112055659Y-62780000D01*
X112035063Y-62544592D01*
X111973903Y-62316337D01*
X111874035Y-62102171D01*
X111805373Y-62004110D01*
X111738494Y-61908597D01*
X111571402Y-61741506D01*
X111571396Y-61741501D01*
X111385842Y-61611575D01*
X111342217Y-61556998D01*
X111335023Y-61487500D01*
X111366546Y-61425145D01*
X111385842Y-61408425D01*
X111408026Y-61392891D01*
X111571401Y-61278495D01*
X111738495Y-61111401D01*
X111874035Y-60917830D01*
X111973903Y-60703663D01*
X112035063Y-60475408D01*
X112055659Y-60240000D01*
X112035063Y-60004592D01*
X111980243Y-59799997D01*
X115444751Y-59799997D01*
X115444751Y-59800002D01*
X115463685Y-59968056D01*
X115519545Y-60127694D01*
X115519547Y-60127697D01*
X115609518Y-60270884D01*
X115609523Y-60270890D01*
X115729109Y-60390476D01*
X115729115Y-60390481D01*
X115872302Y-60480452D01*
X115872305Y-60480454D01*
X115872309Y-60480455D01*
X115872310Y-60480456D01*
X115944913Y-60505860D01*
X116031943Y-60536314D01*
X116199997Y-60555249D01*
X116200000Y-60555249D01*
X116200003Y-60555249D01*
X116368056Y-60536314D01*
X116368059Y-60536313D01*
X116527690Y-60480456D01*
X116527692Y-60480454D01*
X116527694Y-60480454D01*
X116527697Y-60480452D01*
X116670884Y-60390481D01*
X116670885Y-60390480D01*
X116670890Y-60390477D01*
X116790477Y-60270890D01*
X116880452Y-60127697D01*
X116880454Y-60127694D01*
X116880454Y-60127692D01*
X116880456Y-60127690D01*
X116936313Y-59968059D01*
X116936313Y-59968058D01*
X116936314Y-59968056D01*
X116955249Y-59800002D01*
X116955249Y-59799997D01*
X116936314Y-59631943D01*
X116880454Y-59472305D01*
X116880452Y-59472302D01*
X116790481Y-59329115D01*
X116790476Y-59329109D01*
X116670890Y-59209523D01*
X116670884Y-59209518D01*
X116655732Y-59199997D01*
X121819751Y-59199997D01*
X121819751Y-59200002D01*
X121838685Y-59368056D01*
X121894545Y-59527694D01*
X121894547Y-59527697D01*
X121984518Y-59670884D01*
X121984523Y-59670890D01*
X122104109Y-59790476D01*
X122104115Y-59790481D01*
X122247302Y-59880452D01*
X122247305Y-59880454D01*
X122247309Y-59880455D01*
X122247310Y-59880456D01*
X122319913Y-59905860D01*
X122406943Y-59936314D01*
X122574997Y-59955249D01*
X122575000Y-59955249D01*
X122575003Y-59955249D01*
X122743056Y-59936314D01*
X122743059Y-59936313D01*
X122902690Y-59880456D01*
X122902692Y-59880454D01*
X122902694Y-59880454D01*
X122902697Y-59880452D01*
X123045884Y-59790481D01*
X123045885Y-59790480D01*
X123045890Y-59790477D01*
X123165477Y-59670890D01*
X123189949Y-59631943D01*
X123255452Y-59527697D01*
X123255454Y-59527694D01*
X123255454Y-59527692D01*
X123255456Y-59527690D01*
X123311313Y-59368059D01*
X123311313Y-59368058D01*
X123311314Y-59368056D01*
X123330249Y-59200002D01*
X123330249Y-59199997D01*
X123311314Y-59031943D01*
X123255454Y-58872305D01*
X123255452Y-58872302D01*
X123165481Y-58729115D01*
X123165476Y-58729109D01*
X123045890Y-58609523D01*
X123045884Y-58609518D01*
X122902697Y-58519547D01*
X122902694Y-58519545D01*
X122743056Y-58463685D01*
X122575003Y-58444751D01*
X122574997Y-58444751D01*
X122406943Y-58463685D01*
X122247305Y-58519545D01*
X122247302Y-58519547D01*
X122104115Y-58609518D01*
X122104109Y-58609523D01*
X121984523Y-58729109D01*
X121984518Y-58729115D01*
X121894547Y-58872302D01*
X121894545Y-58872305D01*
X121838685Y-59031943D01*
X121819751Y-59199997D01*
X116655732Y-59199997D01*
X116527697Y-59119547D01*
X116527694Y-59119545D01*
X116368056Y-59063685D01*
X116200003Y-59044751D01*
X116199997Y-59044751D01*
X116031943Y-59063685D01*
X115872305Y-59119545D01*
X115872302Y-59119547D01*
X115729115Y-59209518D01*
X115729109Y-59209523D01*
X115609523Y-59329109D01*
X115609518Y-59329115D01*
X115519547Y-59472302D01*
X115519545Y-59472305D01*
X115463685Y-59631943D01*
X115444751Y-59799997D01*
X111980243Y-59799997D01*
X111977692Y-59790477D01*
X111973905Y-59776344D01*
X111973904Y-59776343D01*
X111973903Y-59776337D01*
X111874035Y-59562171D01*
X111849897Y-59527697D01*
X111738494Y-59368597D01*
X111571402Y-59201506D01*
X111571401Y-59201505D01*
X111454350Y-59119545D01*
X111385839Y-59071573D01*
X111342216Y-59016997D01*
X111335023Y-58947498D01*
X111366545Y-58885144D01*
X111385837Y-58868427D01*
X111571401Y-58738494D01*
X111738495Y-58571400D01*
X111874035Y-58377829D01*
X111973903Y-58163662D01*
X112035063Y-57935407D01*
X112055659Y-57699999D01*
X112035063Y-57464591D01*
X111973903Y-57236336D01*
X111874035Y-57022170D01*
X111738495Y-56828598D01*
X111738494Y-56828596D01*
X111571402Y-56661505D01*
X111571401Y-56661504D01*
X111385842Y-56531574D01*
X111342218Y-56476997D01*
X111335025Y-56407498D01*
X111366547Y-56345144D01*
X111385843Y-56328424D01*
X111571401Y-56198495D01*
X111738495Y-56031401D01*
X111874035Y-55837830D01*
X111973903Y-55623663D01*
X112035063Y-55395408D01*
X112055659Y-55160000D01*
X112035063Y-54924592D01*
X111988626Y-54751285D01*
X111973905Y-54696344D01*
X111973904Y-54696343D01*
X111973903Y-54696337D01*
X111874035Y-54482171D01*
X111836882Y-54429110D01*
X111816497Y-54399997D01*
X113344751Y-54399997D01*
X113344751Y-54400002D01*
X113363685Y-54568056D01*
X113419545Y-54727694D01*
X113419547Y-54727697D01*
X113509518Y-54870884D01*
X113509523Y-54870890D01*
X113629109Y-54990476D01*
X113629115Y-54990481D01*
X113772302Y-55080452D01*
X113772305Y-55080454D01*
X113772309Y-55080455D01*
X113772310Y-55080456D01*
X113844913Y-55105860D01*
X113931943Y-55136314D01*
X114099997Y-55155249D01*
X114100000Y-55155249D01*
X114100003Y-55155249D01*
X114268056Y-55136314D01*
X114268059Y-55136313D01*
X114427690Y-55080456D01*
X114427692Y-55080454D01*
X114427694Y-55080454D01*
X114427697Y-55080452D01*
X114570884Y-54990481D01*
X114570885Y-54990480D01*
X114570890Y-54990477D01*
X114661370Y-54899997D01*
X121844751Y-54899997D01*
X121844751Y-54900002D01*
X121863685Y-55068056D01*
X121919545Y-55227694D01*
X121919547Y-55227697D01*
X122009518Y-55370884D01*
X122009523Y-55370890D01*
X122129109Y-55490476D01*
X122129115Y-55490481D01*
X122272302Y-55580452D01*
X122272305Y-55580454D01*
X122272309Y-55580455D01*
X122272310Y-55580456D01*
X122344913Y-55605860D01*
X122431943Y-55636314D01*
X122599997Y-55655249D01*
X122600000Y-55655249D01*
X122600003Y-55655249D01*
X122768056Y-55636314D01*
X122768059Y-55636313D01*
X122927690Y-55580456D01*
X122927692Y-55580454D01*
X122927694Y-55580454D01*
X122927697Y-55580452D01*
X123070884Y-55490481D01*
X123070885Y-55490480D01*
X123070890Y-55490477D01*
X123190477Y-55370890D01*
X123280452Y-55227697D01*
X123280454Y-55227694D01*
X123280454Y-55227692D01*
X123280456Y-55227690D01*
X123336313Y-55068059D01*
X123336313Y-55068058D01*
X123336314Y-55068056D01*
X123355249Y-54900002D01*
X123355249Y-54899997D01*
X123336314Y-54731943D01*
X123280454Y-54572305D01*
X123280452Y-54572302D01*
X123190481Y-54429115D01*
X123190476Y-54429109D01*
X123070890Y-54309523D01*
X123070884Y-54309518D01*
X122927697Y-54219547D01*
X122927694Y-54219545D01*
X122768056Y-54163685D01*
X122600003Y-54144751D01*
X122599997Y-54144751D01*
X122431943Y-54163685D01*
X122272305Y-54219545D01*
X122272302Y-54219547D01*
X122129115Y-54309518D01*
X122129109Y-54309523D01*
X122009523Y-54429109D01*
X122009518Y-54429115D01*
X121919547Y-54572302D01*
X121919545Y-54572305D01*
X121863685Y-54731943D01*
X121844751Y-54899997D01*
X114661370Y-54899997D01*
X114690477Y-54870890D01*
X114780452Y-54727697D01*
X114780454Y-54727694D01*
X114780454Y-54727692D01*
X114780456Y-54727690D01*
X114836313Y-54568059D01*
X114836313Y-54568058D01*
X114836314Y-54568056D01*
X114855249Y-54400002D01*
X114855249Y-54399997D01*
X114836314Y-54231943D01*
X114780454Y-54072305D01*
X114780452Y-54072302D01*
X114690481Y-53929115D01*
X114690476Y-53929109D01*
X114570890Y-53809523D01*
X114570884Y-53809518D01*
X114427697Y-53719547D01*
X114427694Y-53719545D01*
X114268056Y-53663685D01*
X114100003Y-53644751D01*
X114099997Y-53644751D01*
X113931943Y-53663685D01*
X113772305Y-53719545D01*
X113772302Y-53719547D01*
X113629115Y-53809518D01*
X113629109Y-53809523D01*
X113509523Y-53929109D01*
X113509518Y-53929115D01*
X113419547Y-54072302D01*
X113419545Y-54072305D01*
X113363685Y-54231943D01*
X113344751Y-54399997D01*
X111816497Y-54399997D01*
X111738494Y-54288597D01*
X111571402Y-54121506D01*
X111571396Y-54121501D01*
X111385842Y-53991575D01*
X111342217Y-53936998D01*
X111335023Y-53867500D01*
X111366546Y-53805145D01*
X111385842Y-53788425D01*
X111408026Y-53772891D01*
X111571401Y-53658495D01*
X111738495Y-53491401D01*
X111874035Y-53297830D01*
X111966286Y-53099997D01*
X116869754Y-53099997D01*
X116869754Y-53100002D01*
X116888688Y-53268056D01*
X116944548Y-53427694D01*
X116944550Y-53427697D01*
X117034521Y-53570884D01*
X117034526Y-53570890D01*
X117154112Y-53690476D01*
X117154118Y-53690481D01*
X117297305Y-53780452D01*
X117297308Y-53780454D01*
X117297312Y-53780455D01*
X117297313Y-53780456D01*
X117369916Y-53805860D01*
X117456946Y-53836314D01*
X117625000Y-53855249D01*
X117625003Y-53855249D01*
X117625006Y-53855249D01*
X117793059Y-53836314D01*
X117793062Y-53836313D01*
X117952693Y-53780456D01*
X117952695Y-53780454D01*
X117952697Y-53780454D01*
X117952700Y-53780452D01*
X118095887Y-53690481D01*
X118095888Y-53690480D01*
X118095893Y-53690477D01*
X118215480Y-53570890D01*
X118237206Y-53536314D01*
X118305455Y-53427697D01*
X118305457Y-53427694D01*
X118305457Y-53427692D01*
X118305459Y-53427690D01*
X118361316Y-53268059D01*
X118361316Y-53268058D01*
X118361317Y-53268056D01*
X118380252Y-53100002D01*
X118380252Y-53099997D01*
X118361317Y-52931943D01*
X118315147Y-52799997D01*
X125644751Y-52799997D01*
X125644751Y-52800002D01*
X125663685Y-52968056D01*
X125719545Y-53127694D01*
X125719547Y-53127697D01*
X125809518Y-53270884D01*
X125809523Y-53270890D01*
X125929109Y-53390476D01*
X125929115Y-53390481D01*
X126072302Y-53480452D01*
X126072305Y-53480454D01*
X126072309Y-53480455D01*
X126072310Y-53480456D01*
X126103592Y-53491402D01*
X126231943Y-53536314D01*
X126399997Y-53555249D01*
X126400000Y-53555249D01*
X126400003Y-53555249D01*
X126568056Y-53536314D01*
X126568059Y-53536313D01*
X126727690Y-53480456D01*
X126727692Y-53480454D01*
X126727694Y-53480454D01*
X126727697Y-53480452D01*
X126870884Y-53390481D01*
X126870885Y-53390480D01*
X126870890Y-53390477D01*
X126990477Y-53270890D01*
X127080452Y-53127697D01*
X127080454Y-53127694D01*
X127080454Y-53127692D01*
X127080456Y-53127690D01*
X127136313Y-52968059D01*
X127136313Y-52968057D01*
X127136314Y-52968055D01*
X127139550Y-52939335D01*
X127166616Y-52874920D01*
X127224210Y-52835365D01*
X127294047Y-52833226D01*
X127353954Y-52869184D01*
X127382545Y-52921124D01*
X127426094Y-53083655D01*
X127426096Y-53083659D01*
X127426097Y-53083663D01*
X127512081Y-53268056D01*
X127525965Y-53297830D01*
X127525967Y-53297834D01*
X127590836Y-53390476D01*
X127653838Y-53480452D01*
X127661501Y-53491395D01*
X127661506Y-53491402D01*
X127828597Y-53658493D01*
X127828603Y-53658498D01*
X128014158Y-53788425D01*
X128057783Y-53843002D01*
X128064977Y-53912500D01*
X128033454Y-53974855D01*
X128014158Y-53991575D01*
X127828597Y-54121505D01*
X127661505Y-54288597D01*
X127525965Y-54482169D01*
X127525964Y-54482171D01*
X127426098Y-54696335D01*
X127426094Y-54696344D01*
X127364938Y-54924586D01*
X127364936Y-54924596D01*
X127344341Y-55159999D01*
X127344341Y-55160000D01*
X127364936Y-55395403D01*
X127364938Y-55395413D01*
X127426094Y-55623655D01*
X127426096Y-55623659D01*
X127426097Y-55623663D01*
X127440826Y-55655249D01*
X127525965Y-55837830D01*
X127525967Y-55837834D01*
X127661501Y-56031395D01*
X127661506Y-56031402D01*
X127828597Y-56198493D01*
X127828603Y-56198498D01*
X128014157Y-56328424D01*
X128057782Y-56383001D01*
X128064976Y-56452499D01*
X128033453Y-56514854D01*
X128014158Y-56531574D01*
X127828594Y-56661507D01*
X127661505Y-56828596D01*
X127525965Y-57022168D01*
X127525964Y-57022170D01*
X127426098Y-57236334D01*
X127426094Y-57236343D01*
X127364938Y-57464585D01*
X127364936Y-57464595D01*
X127344341Y-57699998D01*
X127344341Y-57699999D01*
X127364936Y-57935402D01*
X127364938Y-57935412D01*
X127426094Y-58163654D01*
X127426096Y-58163658D01*
X127426097Y-58163662D01*
X127525965Y-58377829D01*
X127525967Y-58377833D01*
X127661501Y-58571394D01*
X127661506Y-58571401D01*
X127828597Y-58738492D01*
X127828603Y-58738497D01*
X128014158Y-58868424D01*
X128057783Y-58923001D01*
X128064977Y-58992499D01*
X128033454Y-59054854D01*
X128014159Y-59071574D01*
X127828594Y-59201508D01*
X127661505Y-59368597D01*
X127525965Y-59562169D01*
X127525964Y-59562171D01*
X127426098Y-59776335D01*
X127426094Y-59776344D01*
X127364938Y-60004586D01*
X127364936Y-60004596D01*
X127344341Y-60239999D01*
X127344341Y-60240000D01*
X127364936Y-60475403D01*
X127364938Y-60475413D01*
X127426094Y-60703655D01*
X127426096Y-60703659D01*
X127426097Y-60703663D01*
X127525965Y-60917830D01*
X127525967Y-60917834D01*
X127661501Y-61111395D01*
X127661506Y-61111402D01*
X127828597Y-61278493D01*
X127828603Y-61278498D01*
X128014158Y-61408425D01*
X128057783Y-61463002D01*
X128064977Y-61532500D01*
X128033454Y-61594855D01*
X128014158Y-61611575D01*
X127828597Y-61741505D01*
X127661505Y-61908597D01*
X127525965Y-62102169D01*
X127525964Y-62102171D01*
X127426098Y-62316335D01*
X127426094Y-62316344D01*
X127364938Y-62544586D01*
X127364936Y-62544596D01*
X127344341Y-62779999D01*
X127344341Y-62780000D01*
X127364936Y-63015403D01*
X127364938Y-63015413D01*
X127426094Y-63243655D01*
X127426096Y-63243659D01*
X127426097Y-63243663D01*
X127485424Y-63370890D01*
X127525965Y-63457830D01*
X127525967Y-63457834D01*
X127661501Y-63651395D01*
X127661506Y-63651402D01*
X127828597Y-63818493D01*
X127828603Y-63818498D01*
X128014158Y-63948425D01*
X128057783Y-64003002D01*
X128064977Y-64072500D01*
X128033454Y-64134855D01*
X128014158Y-64151575D01*
X127828597Y-64281505D01*
X127661505Y-64448597D01*
X127525965Y-64642169D01*
X127525964Y-64642171D01*
X127426098Y-64856335D01*
X127426094Y-64856344D01*
X127364938Y-65084586D01*
X127364936Y-65084596D01*
X127344341Y-65319999D01*
X127344341Y-65320000D01*
X127364936Y-65555403D01*
X127364938Y-65555413D01*
X127426094Y-65783655D01*
X127426096Y-65783659D01*
X127426097Y-65783663D01*
X127517862Y-65980454D01*
X127525965Y-65997830D01*
X127525967Y-65997834D01*
X127661501Y-66191395D01*
X127661506Y-66191402D01*
X127828597Y-66358493D01*
X127828603Y-66358498D01*
X128014157Y-66488424D01*
X128057782Y-66543001D01*
X128064976Y-66612499D01*
X128033453Y-66674854D01*
X128014158Y-66691574D01*
X127828594Y-66821507D01*
X127661505Y-66988596D01*
X127525965Y-67182168D01*
X127525964Y-67182170D01*
X127426098Y-67396334D01*
X127426094Y-67396343D01*
X127364938Y-67624585D01*
X127364936Y-67624595D01*
X127344341Y-67859998D01*
X127344341Y-67859999D01*
X127364936Y-68095402D01*
X127364938Y-68095412D01*
X127426094Y-68323654D01*
X127426096Y-68323658D01*
X127426097Y-68323662D01*
X127522525Y-68530452D01*
X127525965Y-68537829D01*
X127525967Y-68537833D01*
X127618193Y-68669544D01*
X127661505Y-68731400D01*
X127828599Y-68898494D01*
X128007214Y-69023562D01*
X128014160Y-69028425D01*
X128057784Y-69083002D01*
X128064977Y-69152501D01*
X128033455Y-69214855D01*
X128014160Y-69231575D01*
X127828597Y-69361507D01*
X127713307Y-69476797D01*
X127651984Y-69510281D01*
X127582292Y-69505297D01*
X127526359Y-69463425D01*
X127501942Y-69397961D01*
X127502406Y-69375230D01*
X127503953Y-69361506D01*
X127505249Y-69350000D01*
X127501650Y-69318059D01*
X127486314Y-69181943D01*
X127434558Y-69034034D01*
X127430456Y-69022310D01*
X127430455Y-69022309D01*
X127430454Y-69022305D01*
X127430452Y-69022302D01*
X127340481Y-68879115D01*
X127340476Y-68879109D01*
X127220890Y-68759523D01*
X127220884Y-68759518D01*
X127077697Y-68669547D01*
X127077694Y-68669545D01*
X126918056Y-68613685D01*
X126750003Y-68594751D01*
X126749997Y-68594751D01*
X126581943Y-68613685D01*
X126422305Y-68669545D01*
X126422302Y-68669547D01*
X126279115Y-68759518D01*
X126279109Y-68759523D01*
X126159523Y-68879109D01*
X126159518Y-68879115D01*
X126069547Y-69022302D01*
X126069545Y-69022305D01*
X126013685Y-69181943D01*
X125994751Y-69349997D01*
X125994751Y-69350002D01*
X126013685Y-69518056D01*
X126069545Y-69677694D01*
X126069547Y-69677697D01*
X126159518Y-69820884D01*
X126159523Y-69820890D01*
X126279109Y-69940476D01*
X126279115Y-69940481D01*
X126422302Y-70030452D01*
X126422305Y-70030454D01*
X126422309Y-70030455D01*
X126422310Y-70030456D01*
X126493165Y-70055249D01*
X126581943Y-70086314D01*
X126749997Y-70105249D01*
X126750000Y-70105249D01*
X126750003Y-70105249D01*
X126918056Y-70086314D01*
X126918059Y-70086313D01*
X127077690Y-70030456D01*
X127198788Y-69954364D01*
X127266022Y-69935364D01*
X127332858Y-69955731D01*
X127378072Y-70008998D01*
X127387311Y-70078255D01*
X127384534Y-70091449D01*
X127364939Y-70164581D01*
X127364936Y-70164597D01*
X127344341Y-70400000D01*
X127344341Y-70400001D01*
X127364936Y-70635404D01*
X127364938Y-70635414D01*
X127426094Y-70863656D01*
X127426096Y-70863660D01*
X127426097Y-70863664D01*
X127512986Y-71049997D01*
X127525965Y-71077831D01*
X127525967Y-71077835D01*
X127661501Y-71271396D01*
X127661506Y-71271403D01*
X127828597Y-71438494D01*
X127828603Y-71438499D01*
X128014157Y-71568425D01*
X128057782Y-71623002D01*
X128064976Y-71692500D01*
X128033453Y-71754855D01*
X128014158Y-71771575D01*
X127828594Y-71901508D01*
X127661505Y-72068597D01*
X127525965Y-72262169D01*
X127525964Y-72262171D01*
X127426098Y-72476335D01*
X127426094Y-72476344D01*
X127364938Y-72704586D01*
X127364936Y-72704596D01*
X127344341Y-72939999D01*
X127344341Y-72940000D01*
X127364936Y-73175403D01*
X127364938Y-73175413D01*
X127426094Y-73403655D01*
X127426096Y-73403659D01*
X127426097Y-73403663D01*
X127450152Y-73455249D01*
X127525965Y-73617830D01*
X127525967Y-73617834D01*
X127661501Y-73811395D01*
X127661506Y-73811402D01*
X127828597Y-73978493D01*
X127828603Y-73978498D01*
X128014158Y-74108425D01*
X128057783Y-74163002D01*
X128064977Y-74232500D01*
X128033454Y-74294855D01*
X128014158Y-74311575D01*
X127828597Y-74441505D01*
X127661505Y-74608597D01*
X127525965Y-74802169D01*
X127525964Y-74802171D01*
X127426098Y-75016335D01*
X127426094Y-75016344D01*
X127364938Y-75244586D01*
X127364936Y-75244596D01*
X127344341Y-75479999D01*
X127344341Y-75480000D01*
X127364936Y-75715403D01*
X127364938Y-75715413D01*
X127426094Y-75943655D01*
X127426096Y-75943659D01*
X127426097Y-75943663D01*
X127474335Y-76047109D01*
X127525965Y-76157830D01*
X127525967Y-76157834D01*
X127661501Y-76351395D01*
X127661506Y-76351402D01*
X127828597Y-76518493D01*
X127828603Y-76518498D01*
X128014158Y-76648425D01*
X128057783Y-76703002D01*
X128064977Y-76772500D01*
X128033454Y-76834855D01*
X128014158Y-76851575D01*
X127828597Y-76981505D01*
X127661505Y-77148597D01*
X127525965Y-77342169D01*
X127525964Y-77342171D01*
X127426098Y-77556335D01*
X127426094Y-77556344D01*
X127364938Y-77784586D01*
X127364936Y-77784596D01*
X127344341Y-78019999D01*
X127344341Y-78020000D01*
X127364936Y-78255403D01*
X127364938Y-78255413D01*
X127426094Y-78483655D01*
X127426096Y-78483659D01*
X127426097Y-78483663D01*
X127501214Y-78644751D01*
X127525965Y-78697830D01*
X127525967Y-78697834D01*
X127661501Y-78891395D01*
X127661506Y-78891402D01*
X127828597Y-79058493D01*
X127828603Y-79058498D01*
X128014157Y-79188424D01*
X128057782Y-79243001D01*
X128064976Y-79312499D01*
X128033453Y-79374854D01*
X128014158Y-79391574D01*
X127828594Y-79521507D01*
X127661505Y-79688596D01*
X127525965Y-79882168D01*
X127525964Y-79882170D01*
X127426098Y-80096334D01*
X127426094Y-80096343D01*
X127364938Y-80324585D01*
X127364936Y-80324595D01*
X127344341Y-80559998D01*
X127344341Y-80559999D01*
X127364936Y-80795402D01*
X127364938Y-80795412D01*
X127426094Y-81023654D01*
X127426096Y-81023658D01*
X127426097Y-81023662D01*
X127501021Y-81184336D01*
X127525965Y-81237829D01*
X127525967Y-81237833D01*
X127634281Y-81392520D01*
X127652189Y-81418096D01*
X127661501Y-81431394D01*
X127661506Y-81431401D01*
X127828597Y-81598492D01*
X127828603Y-81598497D01*
X128014158Y-81728424D01*
X128057783Y-81783001D01*
X128064977Y-81852499D01*
X128033454Y-81914854D01*
X128014159Y-81931574D01*
X127828594Y-82061508D01*
X127661505Y-82228597D01*
X127525965Y-82422169D01*
X127525964Y-82422171D01*
X127426098Y-82636335D01*
X127426094Y-82636344D01*
X127364938Y-82864586D01*
X127364936Y-82864596D01*
X127344341Y-83099999D01*
X127344341Y-83100000D01*
X127364936Y-83335403D01*
X127364938Y-83335413D01*
X127426094Y-83563655D01*
X127426096Y-83563659D01*
X127426097Y-83563663D01*
X127474031Y-83666457D01*
X127525965Y-83777830D01*
X127525967Y-83777834D01*
X127634281Y-83932521D01*
X127660025Y-83969288D01*
X127661501Y-83971395D01*
X127661506Y-83971402D01*
X127828597Y-84138493D01*
X127828603Y-84138498D01*
X128014158Y-84268425D01*
X128057783Y-84323002D01*
X128064977Y-84392500D01*
X128033454Y-84454855D01*
X128014158Y-84471575D01*
X127828597Y-84601505D01*
X127661505Y-84768597D01*
X127525965Y-84962169D01*
X127525964Y-84962171D01*
X127426098Y-85176335D01*
X127426094Y-85176344D01*
X127364938Y-85404586D01*
X127364936Y-85404596D01*
X127344341Y-85639999D01*
X127344341Y-85640000D01*
X127364936Y-85875403D01*
X127364938Y-85875413D01*
X127426094Y-86103655D01*
X127426096Y-86103659D01*
X127426097Y-86103663D01*
X127452143Y-86159518D01*
X127525965Y-86317830D01*
X127525967Y-86317834D01*
X127661501Y-86511395D01*
X127661506Y-86511402D01*
X127828597Y-86678493D01*
X127828603Y-86678498D01*
X128014158Y-86808425D01*
X128057783Y-86863002D01*
X128064977Y-86932500D01*
X128033454Y-86994855D01*
X128014158Y-87011575D01*
X127828597Y-87141505D01*
X127661505Y-87308597D01*
X127525965Y-87502169D01*
X127525964Y-87502171D01*
X127426098Y-87716335D01*
X127426094Y-87716344D01*
X127364938Y-87944586D01*
X127364936Y-87944596D01*
X127344341Y-88179999D01*
X127344341Y-88180000D01*
X127364936Y-88415403D01*
X127364938Y-88415413D01*
X127426094Y-88643655D01*
X127426096Y-88643659D01*
X127426097Y-88643663D01*
X127485963Y-88772045D01*
X127525965Y-88857830D01*
X127525967Y-88857834D01*
X127627490Y-89002823D01*
X127661505Y-89051401D01*
X127828599Y-89218495D01*
X127990619Y-89331943D01*
X128014157Y-89348424D01*
X128057782Y-89403001D01*
X128064976Y-89472499D01*
X128033453Y-89534854D01*
X128014158Y-89551574D01*
X127828594Y-89681507D01*
X127661505Y-89848596D01*
X127525965Y-90042168D01*
X127525964Y-90042170D01*
X127426098Y-90256334D01*
X127426094Y-90256343D01*
X127364938Y-90484585D01*
X127364936Y-90484595D01*
X127344341Y-90719998D01*
X127344341Y-90719999D01*
X127364936Y-90955402D01*
X127364938Y-90955412D01*
X127426094Y-91183654D01*
X127426096Y-91183658D01*
X127426097Y-91183662D01*
X127525965Y-91397829D01*
X127525967Y-91397833D01*
X127634281Y-91552520D01*
X127661505Y-91591400D01*
X127828599Y-91758494D01*
X127933492Y-91831941D01*
X128014160Y-91888425D01*
X128057784Y-91943002D01*
X128064977Y-92012501D01*
X128033455Y-92074855D01*
X128014160Y-92091575D01*
X127828594Y-92221509D01*
X127661505Y-92388598D01*
X127525965Y-92582170D01*
X127525964Y-92582172D01*
X127426098Y-92796336D01*
X127426094Y-92796345D01*
X127364938Y-93024587D01*
X127364936Y-93024597D01*
X127344341Y-93260000D01*
X127344341Y-93260001D01*
X127364936Y-93495404D01*
X127364938Y-93495414D01*
X127426094Y-93723656D01*
X127426096Y-93723660D01*
X127426097Y-93723664D01*
X127446446Y-93767302D01*
X127525965Y-93937831D01*
X127525967Y-93937835D01*
X127661501Y-94131396D01*
X127661506Y-94131403D01*
X127828597Y-94298494D01*
X127828603Y-94298499D01*
X128014157Y-94428425D01*
X128057782Y-94483002D01*
X128064976Y-94552500D01*
X128033453Y-94614855D01*
X128014158Y-94631575D01*
X127828594Y-94761508D01*
X127661505Y-94928597D01*
X127525965Y-95122169D01*
X127525964Y-95122171D01*
X127469099Y-95244119D01*
X127429475Y-95329094D01*
X127426098Y-95336335D01*
X127426094Y-95336344D01*
X127364938Y-95564586D01*
X127364936Y-95564596D01*
X127344341Y-95799999D01*
X127344341Y-95800000D01*
X127364936Y-96035403D01*
X127364938Y-96035413D01*
X127426094Y-96263655D01*
X127426096Y-96263659D01*
X127426097Y-96263663D01*
X127525965Y-96477830D01*
X127525967Y-96477834D01*
X127634281Y-96632521D01*
X127661505Y-96671401D01*
X127828599Y-96838495D01*
X127925384Y-96906265D01*
X128022165Y-96974032D01*
X128022167Y-96974033D01*
X128022170Y-96974035D01*
X128236337Y-97073903D01*
X128464592Y-97135063D01*
X128652918Y-97151539D01*
X128699999Y-97155659D01*
X128700000Y-97155659D01*
X128700001Y-97155659D01*
X128739234Y-97152226D01*
X128935408Y-97135063D01*
X129163663Y-97073903D01*
X129377830Y-96974035D01*
X129571401Y-96838495D01*
X129738495Y-96671401D01*
X129874035Y-96477830D01*
X129973903Y-96263663D01*
X130035063Y-96035408D01*
X130055659Y-95800000D01*
X130035063Y-95564592D01*
X129973903Y-95336337D01*
X129874035Y-95122171D01*
X129842895Y-95077697D01*
X129738494Y-94928597D01*
X129571402Y-94761506D01*
X129571401Y-94761505D01*
X129385842Y-94631575D01*
X129342218Y-94576998D01*
X129335025Y-94507499D01*
X129366547Y-94445145D01*
X129385843Y-94428425D01*
X129498745Y-94349370D01*
X129571401Y-94298496D01*
X129738495Y-94131402D01*
X129874035Y-93937831D01*
X129973903Y-93723664D01*
X130035063Y-93495409D01*
X130055659Y-93260001D01*
X130035063Y-93024593D01*
X129973903Y-92796338D01*
X129874035Y-92582172D01*
X129738495Y-92388600D01*
X129738494Y-92388598D01*
X129571402Y-92221507D01*
X129571396Y-92221502D01*
X129385840Y-92091575D01*
X129342215Y-92036998D01*
X129335021Y-91967500D01*
X129366544Y-91905145D01*
X129385840Y-91888425D01*
X129571401Y-91758494D01*
X129738495Y-91591400D01*
X129874035Y-91397829D01*
X129973903Y-91183662D01*
X130035063Y-90955407D01*
X130055659Y-90719999D01*
X130035063Y-90484591D01*
X129973903Y-90256336D01*
X129874035Y-90042170D01*
X129857153Y-90018059D01*
X129738494Y-89848596D01*
X129571402Y-89681505D01*
X129571401Y-89681504D01*
X129385842Y-89551574D01*
X129342218Y-89496997D01*
X129335025Y-89427498D01*
X129366547Y-89365144D01*
X129385843Y-89348424D01*
X129571401Y-89218495D01*
X129738495Y-89051401D01*
X129874035Y-88857830D01*
X129973903Y-88643663D01*
X130035063Y-88415408D01*
X130055659Y-88180000D01*
X130035063Y-87944592D01*
X129988626Y-87771285D01*
X129973905Y-87716344D01*
X129973904Y-87716343D01*
X129973903Y-87716337D01*
X129874035Y-87502171D01*
X129862932Y-87486313D01*
X129738494Y-87308597D01*
X129571402Y-87141506D01*
X129571396Y-87141501D01*
X129385842Y-87011575D01*
X129342217Y-86956998D01*
X129335023Y-86887500D01*
X129366546Y-86825145D01*
X129385842Y-86808425D01*
X129408026Y-86792891D01*
X129571401Y-86678495D01*
X129738495Y-86511401D01*
X129874035Y-86317830D01*
X129973903Y-86103663D01*
X130035063Y-85875408D01*
X130055659Y-85640000D01*
X130035063Y-85404592D01*
X129973903Y-85176337D01*
X129874035Y-84962171D01*
X129825319Y-84892596D01*
X129738494Y-84768597D01*
X129571402Y-84601506D01*
X129571396Y-84601501D01*
X129385842Y-84471575D01*
X129342217Y-84416998D01*
X129335023Y-84347500D01*
X129366546Y-84285145D01*
X129385842Y-84268425D01*
X129408026Y-84252891D01*
X129571401Y-84138495D01*
X129738495Y-83971401D01*
X129874035Y-83777830D01*
X129973903Y-83563663D01*
X130035063Y-83335408D01*
X130055659Y-83100000D01*
X130035063Y-82864592D01*
X129973903Y-82636337D01*
X129874035Y-82422171D01*
X129840557Y-82374358D01*
X129738494Y-82228597D01*
X129571402Y-82061506D01*
X129571401Y-82061505D01*
X129529179Y-82031941D01*
X129385839Y-81931573D01*
X129342216Y-81876997D01*
X129335023Y-81807498D01*
X129366545Y-81745144D01*
X129385837Y-81728427D01*
X129571401Y-81598494D01*
X129738495Y-81431400D01*
X129874035Y-81237829D01*
X129973903Y-81023662D01*
X130035063Y-80795407D01*
X130055659Y-80559999D01*
X130035063Y-80324591D01*
X129981041Y-80122975D01*
X129973905Y-80096343D01*
X129973904Y-80096342D01*
X129973903Y-80096336D01*
X129874035Y-79882170D01*
X129866133Y-79870884D01*
X129738494Y-79688596D01*
X129571402Y-79521505D01*
X129571401Y-79521504D01*
X129385842Y-79391574D01*
X129342218Y-79336997D01*
X129335025Y-79267498D01*
X129366547Y-79205144D01*
X129385843Y-79188424D01*
X129571401Y-79058495D01*
X129738495Y-78891401D01*
X129874035Y-78697830D01*
X129973903Y-78483663D01*
X130035063Y-78255408D01*
X130055659Y-78020000D01*
X130035063Y-77784592D01*
X129973903Y-77556337D01*
X129874035Y-77342171D01*
X129787132Y-77218059D01*
X129738494Y-77148597D01*
X129571402Y-76981506D01*
X129571396Y-76981501D01*
X129385842Y-76851575D01*
X129342217Y-76796998D01*
X129335023Y-76727500D01*
X129366546Y-76665145D01*
X129385842Y-76648425D01*
X129468600Y-76590477D01*
X129571401Y-76518495D01*
X129738495Y-76351401D01*
X129874035Y-76157830D01*
X129973903Y-75943663D01*
X130035063Y-75715408D01*
X130055659Y-75480000D01*
X130035063Y-75244592D01*
X129973903Y-75016337D01*
X129874035Y-74802171D01*
X129822878Y-74729110D01*
X129738494Y-74608597D01*
X129571402Y-74441506D01*
X129571396Y-74441501D01*
X129385842Y-74311575D01*
X129342217Y-74256998D01*
X129335023Y-74187500D01*
X129366546Y-74125145D01*
X129385842Y-74108425D01*
X129501133Y-74027697D01*
X129571401Y-73978495D01*
X129738495Y-73811401D01*
X129874035Y-73617830D01*
X129973903Y-73403663D01*
X130035063Y-73175408D01*
X130055659Y-72940000D01*
X130035063Y-72704592D01*
X129973903Y-72476337D01*
X129874035Y-72262171D01*
X129785910Y-72136314D01*
X129738494Y-72068597D01*
X129571402Y-71901506D01*
X129571401Y-71901505D01*
X129385842Y-71771575D01*
X129342218Y-71716998D01*
X129335025Y-71647499D01*
X129366547Y-71585145D01*
X129385843Y-71568425D01*
X129453730Y-71520890D01*
X129571401Y-71438496D01*
X129738495Y-71271402D01*
X129874035Y-71077831D01*
X129973903Y-70863664D01*
X130035063Y-70635409D01*
X130055659Y-70400001D01*
X130035063Y-70164593D01*
X129973903Y-69936338D01*
X129874035Y-69722172D01*
X129863371Y-69706941D01*
X129738494Y-69528598D01*
X129571402Y-69361507D01*
X129571396Y-69361502D01*
X129385840Y-69231575D01*
X129342215Y-69176998D01*
X129335021Y-69107500D01*
X129366544Y-69045145D01*
X129385840Y-69028425D01*
X129392778Y-69023567D01*
X129571401Y-68898494D01*
X129738495Y-68731400D01*
X129874035Y-68537829D01*
X129973903Y-68323662D01*
X130035063Y-68095407D01*
X130055659Y-67859999D01*
X130035063Y-67624591D01*
X129973903Y-67396336D01*
X129874035Y-67182170D01*
X129858179Y-67159524D01*
X129738494Y-66988596D01*
X129571402Y-66821505D01*
X129571401Y-66821504D01*
X129385842Y-66691574D01*
X129342218Y-66636997D01*
X129335025Y-66567498D01*
X129366547Y-66505144D01*
X129385843Y-66488424D01*
X129409709Y-66471713D01*
X129571401Y-66358495D01*
X129738495Y-66191401D01*
X129874035Y-65997830D01*
X129973903Y-65783663D01*
X130035063Y-65555408D01*
X130055659Y-65320000D01*
X130035063Y-65084592D01*
X129973903Y-64856337D01*
X129874035Y-64642171D01*
X129869934Y-64636313D01*
X129738494Y-64448597D01*
X129571402Y-64281506D01*
X129571396Y-64281501D01*
X129385842Y-64151575D01*
X129342217Y-64096998D01*
X129335023Y-64027500D01*
X129366546Y-63965145D01*
X129385842Y-63948425D01*
X129455004Y-63899997D01*
X129571401Y-63818495D01*
X129738495Y-63651401D01*
X129874035Y-63457830D01*
X129973903Y-63243663D01*
X130035063Y-63015408D01*
X130055659Y-62780000D01*
X130035063Y-62544592D01*
X129973903Y-62316337D01*
X129874035Y-62102171D01*
X129805373Y-62004110D01*
X129738494Y-61908597D01*
X129571402Y-61741506D01*
X129571396Y-61741501D01*
X129385842Y-61611575D01*
X129342217Y-61556998D01*
X129335023Y-61487500D01*
X129366546Y-61425145D01*
X129385842Y-61408425D01*
X129408026Y-61392891D01*
X129571401Y-61278495D01*
X129738495Y-61111401D01*
X129874035Y-60917830D01*
X129973903Y-60703663D01*
X130035063Y-60475408D01*
X130055659Y-60240000D01*
X130035063Y-60004592D01*
X129977692Y-59790477D01*
X129973905Y-59776344D01*
X129973904Y-59776343D01*
X129973903Y-59776337D01*
X129874035Y-59562171D01*
X129849897Y-59527697D01*
X129738494Y-59368597D01*
X129571402Y-59201506D01*
X129571401Y-59201505D01*
X129454350Y-59119545D01*
X129385839Y-59071573D01*
X129342216Y-59016997D01*
X129335023Y-58947498D01*
X129366545Y-58885144D01*
X129385837Y-58868427D01*
X129571401Y-58738494D01*
X129738495Y-58571400D01*
X129874035Y-58377829D01*
X129973903Y-58163662D01*
X130035063Y-57935407D01*
X130055659Y-57699999D01*
X130035063Y-57464591D01*
X129973903Y-57236336D01*
X129874035Y-57022170D01*
X129738495Y-56828598D01*
X129738494Y-56828596D01*
X129571402Y-56661505D01*
X129571401Y-56661504D01*
X129385842Y-56531574D01*
X129342218Y-56476997D01*
X129335025Y-56407498D01*
X129366547Y-56345144D01*
X129385843Y-56328424D01*
X129571401Y-56198495D01*
X129738495Y-56031401D01*
X129874035Y-55837830D01*
X129973903Y-55623663D01*
X130035063Y-55395408D01*
X130055659Y-55160000D01*
X130035063Y-54924592D01*
X129988626Y-54751285D01*
X129973905Y-54696344D01*
X129973904Y-54696343D01*
X129973903Y-54696337D01*
X129874035Y-54482171D01*
X129836882Y-54429110D01*
X129738494Y-54288597D01*
X129571402Y-54121506D01*
X129571396Y-54121501D01*
X129385842Y-53991575D01*
X129342217Y-53936998D01*
X129335023Y-53867500D01*
X129366546Y-53805145D01*
X129385842Y-53788425D01*
X129408026Y-53772891D01*
X129571401Y-53658495D01*
X129738495Y-53491401D01*
X129874035Y-53297830D01*
X129973903Y-53083663D01*
X130035063Y-52855408D01*
X130055659Y-52620000D01*
X130053568Y-52596106D01*
X130050513Y-52561184D01*
X130035063Y-52384592D01*
X129973903Y-52156337D01*
X129874035Y-51942171D01*
X129738495Y-51748599D01*
X129738494Y-51748597D01*
X129571402Y-51581506D01*
X129571396Y-51581501D01*
X129385842Y-51451575D01*
X129342217Y-51396998D01*
X129335023Y-51327500D01*
X129366546Y-51265145D01*
X129385842Y-51248425D01*
X129408026Y-51232891D01*
X129571401Y-51118495D01*
X129738495Y-50951401D01*
X129874035Y-50757830D01*
X129973903Y-50543663D01*
X130035063Y-50315408D01*
X130055659Y-50080000D01*
X130035063Y-49844592D01*
X129973903Y-49616337D01*
X129874035Y-49402171D01*
X129757902Y-49236314D01*
X129738494Y-49208597D01*
X129571402Y-49041506D01*
X129571401Y-49041505D01*
X129385842Y-48911575D01*
X129342218Y-48856998D01*
X129335025Y-48787499D01*
X129366547Y-48725145D01*
X129385843Y-48708425D01*
X129571401Y-48578496D01*
X129738495Y-48411402D01*
X129874035Y-48217831D01*
X129973903Y-48003664D01*
X130035063Y-47775409D01*
X130055659Y-47540001D01*
X130035063Y-47304593D01*
X129973903Y-47076338D01*
X129874035Y-46862172D01*
X129738495Y-46668600D01*
X129738494Y-46668598D01*
X129571402Y-46501507D01*
X129571401Y-46501506D01*
X129385840Y-46371575D01*
X129342216Y-46316998D01*
X129335023Y-46247499D01*
X129366545Y-46185145D01*
X129385837Y-46168428D01*
X129571401Y-46038495D01*
X129738495Y-45871401D01*
X129874035Y-45677830D01*
X129973903Y-45463663D01*
X130035063Y-45235408D01*
X130055659Y-45000000D01*
X130035063Y-44764592D01*
X129973903Y-44536337D01*
X129874035Y-44322171D01*
X129738495Y-44128599D01*
X129738494Y-44128597D01*
X129571402Y-43961506D01*
X129571396Y-43961501D01*
X129385842Y-43831575D01*
X129342217Y-43776998D01*
X129335023Y-43707500D01*
X129366546Y-43645145D01*
X129385842Y-43628425D01*
X129408026Y-43612891D01*
X129571401Y-43498495D01*
X129738495Y-43331401D01*
X129874035Y-43137830D01*
X129973903Y-42923663D01*
X130035063Y-42695408D01*
X130055659Y-42460000D01*
X130035063Y-42224592D01*
X129973903Y-41996337D01*
X129874035Y-41782171D01*
X129738495Y-41588599D01*
X129738494Y-41588597D01*
X129571402Y-41421506D01*
X129571396Y-41421501D01*
X129385842Y-41291575D01*
X129342217Y-41236998D01*
X129335023Y-41167500D01*
X129366546Y-41105145D01*
X129385842Y-41088425D01*
X129408026Y-41072891D01*
X129571401Y-40958495D01*
X129738495Y-40791401D01*
X129874035Y-40597830D01*
X129973903Y-40383663D01*
X130035063Y-40155408D01*
X130055659Y-39920000D01*
X130035063Y-39684592D01*
X129973903Y-39456337D01*
X129874035Y-39242171D01*
X129738495Y-39048599D01*
X129738494Y-39048597D01*
X129571402Y-38881506D01*
X129571396Y-38881501D01*
X129385842Y-38751575D01*
X129342217Y-38696998D01*
X129335023Y-38627500D01*
X129366546Y-38565145D01*
X129385842Y-38548425D01*
X129494552Y-38472305D01*
X129571401Y-38418495D01*
X129738495Y-38251401D01*
X129874035Y-38057830D01*
X129973903Y-37843663D01*
X130035063Y-37615408D01*
X130055659Y-37380000D01*
X130035063Y-37144592D01*
X129973903Y-36916337D01*
X129874035Y-36702171D01*
X129738495Y-36508599D01*
X129738494Y-36508597D01*
X129571402Y-36341506D01*
X129571401Y-36341505D01*
X129385840Y-36211574D01*
X129342216Y-36156997D01*
X129335023Y-36087498D01*
X129366545Y-36025144D01*
X129385837Y-36008427D01*
X129571401Y-35878494D01*
X129738495Y-35711400D01*
X129874035Y-35517829D01*
X129973903Y-35303662D01*
X130035063Y-35075407D01*
X130055659Y-34839999D01*
X130035063Y-34604591D01*
X129973903Y-34376336D01*
X129874035Y-34162170D01*
X129858018Y-34139294D01*
X129738494Y-33968596D01*
X129571402Y-33801505D01*
X129571396Y-33801500D01*
X129385406Y-33671269D01*
X129341781Y-33616692D01*
X129334587Y-33547194D01*
X129366110Y-33484839D01*
X129385405Y-33468119D01*
X129571082Y-33338105D01*
X129738105Y-33171082D01*
X129873600Y-32977578D01*
X129973429Y-32763492D01*
X129973432Y-32763486D01*
X130030636Y-32550000D01*
X129133012Y-32550000D01*
X129165925Y-32492993D01*
X129200000Y-32365826D01*
X129200000Y-32234174D01*
X129165925Y-32107007D01*
X129133012Y-32050000D01*
X130030636Y-32050000D01*
X130030635Y-32049999D01*
X129973432Y-31836513D01*
X129973429Y-31836507D01*
X129873600Y-31622422D01*
X129873599Y-31622420D01*
X129738113Y-31428926D01*
X129738108Y-31428920D01*
X129616053Y-31306865D01*
X129582568Y-31245542D01*
X129587552Y-31175850D01*
X129629424Y-31119917D01*
X129660400Y-31103002D01*
X129792331Y-31053796D01*
X129907546Y-30967546D01*
X129993796Y-30852331D01*
X130044091Y-30717483D01*
X130050500Y-30657873D01*
X130050499Y-28862128D01*
X130044091Y-28802517D01*
X129993796Y-28667669D01*
X129993795Y-28667668D01*
X129993793Y-28667664D01*
X129907547Y-28552455D01*
X129907544Y-28552452D01*
X129792335Y-28466206D01*
X129792328Y-28466202D01*
X129657482Y-28415908D01*
X129657483Y-28415908D01*
X129597883Y-28409501D01*
X129597881Y-28409500D01*
X129597873Y-28409500D01*
X129597864Y-28409500D01*
X127802129Y-28409500D01*
X127802123Y-28409501D01*
X127742516Y-28415908D01*
X127607671Y-28466202D01*
X127607664Y-28466206D01*
X127492455Y-28552452D01*
X127492452Y-28552455D01*
X127406206Y-28667664D01*
X127406202Y-28667671D01*
X127355908Y-28802517D01*
X127349501Y-28862116D01*
X127349501Y-28862123D01*
X127349500Y-28862135D01*
X127349500Y-30657870D01*
X127349501Y-30657876D01*
X127355908Y-30717483D01*
X127406202Y-30852328D01*
X127406206Y-30852335D01*
X127492452Y-30967544D01*
X127492455Y-30967547D01*
X127607664Y-31053793D01*
X127607671Y-31053797D01*
X127607674Y-31053798D01*
X127739598Y-31103002D01*
X127795531Y-31144873D01*
X127819949Y-31210337D01*
X127805098Y-31278610D01*
X127783947Y-31306865D01*
X127661886Y-31428926D01*
X127526400Y-31622420D01*
X127526399Y-31622422D01*
X127426570Y-31836507D01*
X127426567Y-31836513D01*
X127369364Y-32049999D01*
X127369364Y-32050000D01*
X128266988Y-32050000D01*
X128234075Y-32107007D01*
X128200000Y-32234174D01*
X128200000Y-32365826D01*
X128234075Y-32492993D01*
X128266988Y-32550000D01*
X127369364Y-32550000D01*
X127426567Y-32763486D01*
X127426570Y-32763492D01*
X127526399Y-32977578D01*
X127661894Y-33171082D01*
X127828917Y-33338105D01*
X128014594Y-33468119D01*
X128058219Y-33522697D01*
X128065411Y-33592195D01*
X128033889Y-33654550D01*
X128014594Y-33671269D01*
X127828594Y-33801507D01*
X127661505Y-33968596D01*
X127525965Y-34162168D01*
X127525964Y-34162170D01*
X127426098Y-34376334D01*
X127426094Y-34376343D01*
X127364938Y-34604585D01*
X127364936Y-34604595D01*
X127344341Y-34839998D01*
X127344341Y-34839999D01*
X127364936Y-35075402D01*
X127364938Y-35075412D01*
X127426094Y-35303654D01*
X127426096Y-35303658D01*
X127426097Y-35303662D01*
X127483934Y-35427694D01*
X127525965Y-35517829D01*
X127525967Y-35517833D01*
X127661501Y-35711394D01*
X127661506Y-35711401D01*
X127828597Y-35878492D01*
X127828603Y-35878497D01*
X128014158Y-36008424D01*
X128057783Y-36063001D01*
X128064977Y-36132499D01*
X128033454Y-36194854D01*
X128014159Y-36211574D01*
X127828594Y-36341508D01*
X127661505Y-36508597D01*
X127525965Y-36702169D01*
X127525964Y-36702171D01*
X127426098Y-36916335D01*
X127426094Y-36916344D01*
X127364938Y-37144586D01*
X127364936Y-37144596D01*
X127344341Y-37379999D01*
X127344341Y-37380000D01*
X127364936Y-37615403D01*
X127364938Y-37615413D01*
X127426094Y-37843655D01*
X127426096Y-37843659D01*
X127426097Y-37843663D01*
X127519866Y-38044751D01*
X127525965Y-38057830D01*
X127525967Y-38057834D01*
X127661501Y-38251395D01*
X127661506Y-38251402D01*
X127828597Y-38418493D01*
X127828603Y-38418498D01*
X128014158Y-38548425D01*
X128057783Y-38603002D01*
X128064977Y-38672500D01*
X128033454Y-38734855D01*
X128014158Y-38751575D01*
X127828597Y-38881505D01*
X127661505Y-39048597D01*
X127525965Y-39242169D01*
X127525964Y-39242171D01*
X127426098Y-39456335D01*
X127426094Y-39456344D01*
X127364938Y-39684586D01*
X127364936Y-39684596D01*
X127344341Y-39919999D01*
X127344341Y-39920000D01*
X127364936Y-40155403D01*
X127364938Y-40155413D01*
X127426094Y-40383655D01*
X127426096Y-40383659D01*
X127426097Y-40383663D01*
X127525965Y-40597830D01*
X127525967Y-40597834D01*
X127661501Y-40791395D01*
X127661506Y-40791402D01*
X127828597Y-40958493D01*
X127828603Y-40958498D01*
X128014158Y-41088425D01*
X128057783Y-41143002D01*
X128064977Y-41212500D01*
X128033454Y-41274855D01*
X128014158Y-41291575D01*
X127828597Y-41421505D01*
X127661505Y-41588597D01*
X127525965Y-41782169D01*
X127525964Y-41782171D01*
X127426098Y-41996335D01*
X127426094Y-41996344D01*
X127364938Y-42224586D01*
X127364936Y-42224596D01*
X127344341Y-42459999D01*
X127344341Y-42460000D01*
X127364936Y-42695403D01*
X127364938Y-42695413D01*
X127426094Y-42923655D01*
X127426096Y-42923659D01*
X127426097Y-42923663D01*
X127525965Y-43137830D01*
X127525967Y-43137834D01*
X127661501Y-43331395D01*
X127661506Y-43331402D01*
X127828597Y-43498493D01*
X127828603Y-43498498D01*
X128014158Y-43628425D01*
X128057783Y-43683002D01*
X128064977Y-43752500D01*
X128033454Y-43814855D01*
X128014158Y-43831575D01*
X127828597Y-43961505D01*
X127661505Y-44128597D01*
X127525965Y-44322169D01*
X127525964Y-44322171D01*
X127426098Y-44536335D01*
X127426094Y-44536344D01*
X127364938Y-44764586D01*
X127364936Y-44764596D01*
X127344341Y-44999999D01*
X127344341Y-45000000D01*
X127364936Y-45235403D01*
X127364938Y-45235413D01*
X127426094Y-45463655D01*
X127426096Y-45463659D01*
X127426097Y-45463663D01*
X127525965Y-45677830D01*
X127525967Y-45677834D01*
X127661501Y-45871395D01*
X127661506Y-45871402D01*
X127828597Y-46038493D01*
X127828603Y-46038498D01*
X128014158Y-46168425D01*
X128057783Y-46223002D01*
X128064977Y-46292500D01*
X128033454Y-46354855D01*
X128014159Y-46371575D01*
X127828594Y-46501509D01*
X127661505Y-46668598D01*
X127525965Y-46862170D01*
X127525964Y-46862172D01*
X127426098Y-47076336D01*
X127426094Y-47076345D01*
X127364938Y-47304587D01*
X127364936Y-47304597D01*
X127344341Y-47540000D01*
X127344341Y-47540001D01*
X127364936Y-47775404D01*
X127364938Y-47775414D01*
X127426094Y-48003656D01*
X127426096Y-48003660D01*
X127426097Y-48003664D01*
X127504736Y-48172305D01*
X127525965Y-48217831D01*
X127525967Y-48217835D01*
X127661501Y-48411396D01*
X127661506Y-48411403D01*
X127828597Y-48578494D01*
X127828603Y-48578499D01*
X128014157Y-48708425D01*
X128057782Y-48763002D01*
X128064976Y-48832500D01*
X128033453Y-48894855D01*
X128014158Y-48911575D01*
X127828594Y-49041508D01*
X127661505Y-49208597D01*
X127525965Y-49402169D01*
X127525964Y-49402171D01*
X127426098Y-49616335D01*
X127426094Y-49616344D01*
X127364938Y-49844586D01*
X127364936Y-49844596D01*
X127344341Y-50079999D01*
X127344341Y-50080000D01*
X127364936Y-50315403D01*
X127364938Y-50315413D01*
X127426094Y-50543655D01*
X127426096Y-50543659D01*
X127426097Y-50543663D01*
X127525965Y-50757830D01*
X127525967Y-50757834D01*
X127661501Y-50951395D01*
X127661506Y-50951402D01*
X127828597Y-51118493D01*
X127828603Y-51118498D01*
X128014158Y-51248425D01*
X128057783Y-51303002D01*
X128064977Y-51372500D01*
X128033454Y-51434855D01*
X128014158Y-51451575D01*
X127828597Y-51581505D01*
X127661505Y-51748597D01*
X127525965Y-51942169D01*
X127525964Y-51942171D01*
X127426098Y-52156335D01*
X127426094Y-52156344D01*
X127364938Y-52384586D01*
X127364936Y-52384596D01*
X127352124Y-52531037D01*
X127326671Y-52596106D01*
X127270080Y-52637084D01*
X127200318Y-52640962D01*
X127139534Y-52606508D01*
X127111554Y-52561184D01*
X127093477Y-52509523D01*
X127080456Y-52472310D01*
X127080455Y-52472309D01*
X127080454Y-52472305D01*
X127080452Y-52472302D01*
X126990481Y-52329115D01*
X126990476Y-52329109D01*
X126870890Y-52209523D01*
X126870884Y-52209518D01*
X126727697Y-52119547D01*
X126727694Y-52119545D01*
X126568056Y-52063685D01*
X126400003Y-52044751D01*
X126399997Y-52044751D01*
X126231943Y-52063685D01*
X126072305Y-52119545D01*
X126072302Y-52119547D01*
X125929115Y-52209518D01*
X125929109Y-52209523D01*
X125809523Y-52329109D01*
X125809518Y-52329115D01*
X125719547Y-52472302D01*
X125719545Y-52472305D01*
X125663685Y-52631943D01*
X125644751Y-52799997D01*
X118315147Y-52799997D01*
X118305457Y-52772305D01*
X118305455Y-52772302D01*
X118215484Y-52629115D01*
X118215479Y-52629109D01*
X118095893Y-52509523D01*
X118095887Y-52509518D01*
X117952700Y-52419547D01*
X117952697Y-52419545D01*
X117793059Y-52363685D01*
X117625006Y-52344751D01*
X117625000Y-52344751D01*
X117456946Y-52363685D01*
X117297308Y-52419545D01*
X117297305Y-52419547D01*
X117154118Y-52509518D01*
X117154112Y-52509523D01*
X117034526Y-52629109D01*
X117034521Y-52629115D01*
X116944550Y-52772302D01*
X116944548Y-52772305D01*
X116888688Y-52931943D01*
X116869754Y-53099997D01*
X111966286Y-53099997D01*
X111973903Y-53083663D01*
X112035063Y-52855408D01*
X112055659Y-52620000D01*
X112053568Y-52596106D01*
X112050513Y-52561184D01*
X112035063Y-52384592D01*
X111973903Y-52156337D01*
X111874035Y-51942171D01*
X111738495Y-51748599D01*
X111738494Y-51748597D01*
X111571402Y-51581506D01*
X111571396Y-51581501D01*
X111385842Y-51451575D01*
X111342217Y-51396998D01*
X111335023Y-51327500D01*
X111366546Y-51265145D01*
X111385842Y-51248425D01*
X111408026Y-51232891D01*
X111571401Y-51118495D01*
X111738495Y-50951401D01*
X111874035Y-50757830D01*
X111973903Y-50543663D01*
X112035063Y-50315408D01*
X112055659Y-50080000D01*
X112035063Y-49844592D01*
X111973903Y-49616337D01*
X111874035Y-49402171D01*
X111757902Y-49236314D01*
X111738494Y-49208597D01*
X111571402Y-49041506D01*
X111571401Y-49041505D01*
X111385842Y-48911575D01*
X111342218Y-48856998D01*
X111335025Y-48787499D01*
X111366547Y-48725145D01*
X111385843Y-48708425D01*
X111571401Y-48578496D01*
X111649900Y-48499997D01*
X116644751Y-48499997D01*
X116644751Y-48500002D01*
X116663685Y-48668056D01*
X116719545Y-48827694D01*
X116719547Y-48827697D01*
X116809518Y-48970884D01*
X116809523Y-48970890D01*
X116929109Y-49090476D01*
X116929115Y-49090481D01*
X117072302Y-49180452D01*
X117072305Y-49180454D01*
X117072309Y-49180455D01*
X117072310Y-49180456D01*
X117144913Y-49205860D01*
X117231943Y-49236314D01*
X117399997Y-49255249D01*
X117400000Y-49255249D01*
X117400003Y-49255249D01*
X117568056Y-49236314D01*
X117647261Y-49208599D01*
X117727690Y-49180456D01*
X117727692Y-49180454D01*
X117727694Y-49180454D01*
X117727697Y-49180452D01*
X117870884Y-49090481D01*
X117870885Y-49090480D01*
X117870890Y-49090477D01*
X117990477Y-48970890D01*
X117990481Y-48970884D01*
X118080452Y-48827697D01*
X118080454Y-48827694D01*
X118080454Y-48827692D01*
X118080456Y-48827690D01*
X118136313Y-48668059D01*
X118136313Y-48668058D01*
X118136314Y-48668056D01*
X118155249Y-48500002D01*
X118155249Y-48499997D01*
X118136314Y-48331943D01*
X118080454Y-48172305D01*
X118080452Y-48172302D01*
X117990481Y-48029115D01*
X117990476Y-48029109D01*
X117870890Y-47909523D01*
X117870884Y-47909518D01*
X117727697Y-47819547D01*
X117727694Y-47819545D01*
X117568056Y-47763685D01*
X117400003Y-47744751D01*
X117399997Y-47744751D01*
X117231943Y-47763685D01*
X117072305Y-47819545D01*
X117072302Y-47819547D01*
X116929115Y-47909518D01*
X116929109Y-47909523D01*
X116809523Y-48029109D01*
X116809518Y-48029115D01*
X116719547Y-48172302D01*
X116719545Y-48172305D01*
X116663685Y-48331943D01*
X116644751Y-48499997D01*
X111649900Y-48499997D01*
X111738495Y-48411402D01*
X111874035Y-48217831D01*
X111973903Y-48003664D01*
X112035063Y-47775409D01*
X112055659Y-47540001D01*
X112035063Y-47304593D01*
X111973903Y-47076338D01*
X111874035Y-46862172D01*
X111738495Y-46668600D01*
X111738494Y-46668598D01*
X111571402Y-46501507D01*
X111571401Y-46501506D01*
X111385840Y-46371575D01*
X111342216Y-46316998D01*
X111335023Y-46247499D01*
X111366545Y-46185145D01*
X111385837Y-46168428D01*
X111571401Y-46038495D01*
X111738495Y-45871401D01*
X111874035Y-45677830D01*
X111973903Y-45463663D01*
X112035063Y-45235408D01*
X112055659Y-45000000D01*
X112035063Y-44764592D01*
X111973903Y-44536337D01*
X111874035Y-44322171D01*
X111738495Y-44128599D01*
X111738494Y-44128597D01*
X111571402Y-43961506D01*
X111571396Y-43961501D01*
X111385842Y-43831575D01*
X111342217Y-43776998D01*
X111335023Y-43707500D01*
X111366546Y-43645145D01*
X111385842Y-43628425D01*
X111408026Y-43612891D01*
X111571401Y-43498495D01*
X111738495Y-43331401D01*
X111874035Y-43137830D01*
X111973903Y-42923663D01*
X112035063Y-42695408D01*
X112055659Y-42460000D01*
X112035063Y-42224592D01*
X111973903Y-41996337D01*
X111874035Y-41782171D01*
X111738495Y-41588599D01*
X111738494Y-41588597D01*
X111571402Y-41421506D01*
X111571396Y-41421501D01*
X111385842Y-41291575D01*
X111342217Y-41236998D01*
X111335023Y-41167500D01*
X111366546Y-41105145D01*
X111385842Y-41088425D01*
X111408026Y-41072891D01*
X111571401Y-40958495D01*
X111738495Y-40791401D01*
X111874035Y-40597830D01*
X111973903Y-40383663D01*
X112035063Y-40155408D01*
X112055659Y-39920000D01*
X112035063Y-39684592D01*
X111973903Y-39456337D01*
X111874035Y-39242171D01*
X111738495Y-39048599D01*
X111738494Y-39048597D01*
X111571402Y-38881506D01*
X111571396Y-38881501D01*
X111454996Y-38799997D01*
X124044751Y-38799997D01*
X124044751Y-38800002D01*
X124063685Y-38968056D01*
X124119545Y-39127694D01*
X124119547Y-39127697D01*
X124209518Y-39270884D01*
X124209523Y-39270890D01*
X124329109Y-39390476D01*
X124329115Y-39390481D01*
X124472302Y-39480452D01*
X124472305Y-39480454D01*
X124472309Y-39480455D01*
X124472310Y-39480456D01*
X124544913Y-39505860D01*
X124631943Y-39536314D01*
X124799997Y-39555249D01*
X124800000Y-39555249D01*
X124800003Y-39555249D01*
X124968056Y-39536314D01*
X124968059Y-39536313D01*
X125127690Y-39480456D01*
X125127692Y-39480454D01*
X125127694Y-39480454D01*
X125127697Y-39480452D01*
X125270884Y-39390481D01*
X125270885Y-39390480D01*
X125270890Y-39390477D01*
X125390477Y-39270890D01*
X125390481Y-39270884D01*
X125480452Y-39127697D01*
X125480454Y-39127694D01*
X125480454Y-39127692D01*
X125480456Y-39127690D01*
X125536313Y-38968059D01*
X125536313Y-38968058D01*
X125536314Y-38968056D01*
X125555249Y-38800002D01*
X125555249Y-38799997D01*
X125536314Y-38631943D01*
X125480454Y-38472305D01*
X125480452Y-38472302D01*
X125390481Y-38329115D01*
X125390476Y-38329109D01*
X125270890Y-38209523D01*
X125270884Y-38209518D01*
X125127697Y-38119547D01*
X125127694Y-38119545D01*
X124968056Y-38063685D01*
X124800003Y-38044751D01*
X124799997Y-38044751D01*
X124631943Y-38063685D01*
X124472305Y-38119545D01*
X124472302Y-38119547D01*
X124329115Y-38209518D01*
X124329109Y-38209523D01*
X124209523Y-38329109D01*
X124209518Y-38329115D01*
X124119547Y-38472302D01*
X124119545Y-38472305D01*
X124063685Y-38631943D01*
X124044751Y-38799997D01*
X111454996Y-38799997D01*
X111385842Y-38751575D01*
X111342217Y-38696998D01*
X111335023Y-38627500D01*
X111366546Y-38565145D01*
X111385842Y-38548425D01*
X111494552Y-38472305D01*
X111571401Y-38418495D01*
X111738495Y-38251401D01*
X111874035Y-38057830D01*
X111973903Y-37843663D01*
X112035063Y-37615408D01*
X112055659Y-37380000D01*
X112035063Y-37144592D01*
X111973903Y-36916337D01*
X111874035Y-36702171D01*
X111738495Y-36508599D01*
X111738494Y-36508597D01*
X111571402Y-36341506D01*
X111571401Y-36341505D01*
X111385840Y-36211574D01*
X111342216Y-36156997D01*
X111335023Y-36087498D01*
X111366545Y-36025144D01*
X111385837Y-36008427D01*
X111571401Y-35878494D01*
X111738495Y-35711400D01*
X111874035Y-35517829D01*
X111906516Y-35448171D01*
X111952685Y-35395737D01*
X112019878Y-35376584D01*
X112086760Y-35396799D01*
X112123889Y-35434607D01*
X112209521Y-35570887D01*
X112209523Y-35570890D01*
X112329109Y-35690476D01*
X112329115Y-35690481D01*
X112472302Y-35780452D01*
X112472305Y-35780454D01*
X112472309Y-35780455D01*
X112472310Y-35780456D01*
X112544913Y-35805860D01*
X112631943Y-35836314D01*
X112799997Y-35855249D01*
X112800000Y-35855249D01*
X112800003Y-35855249D01*
X112968056Y-35836314D01*
X112968059Y-35836313D01*
X113127690Y-35780456D01*
X113127692Y-35780454D01*
X113127694Y-35780454D01*
X113127697Y-35780452D01*
X113270884Y-35690481D01*
X113270885Y-35690480D01*
X113270890Y-35690477D01*
X113390477Y-35570890D01*
X113480452Y-35427697D01*
X113480454Y-35427694D01*
X113480454Y-35427692D01*
X113480456Y-35427690D01*
X113536313Y-35268059D01*
X113536313Y-35268058D01*
X113536314Y-35268056D01*
X113555249Y-35100002D01*
X113555249Y-35099997D01*
X113536313Y-34931940D01*
X113536313Y-34931939D01*
X113504476Y-34840955D01*
X113500914Y-34771176D01*
X113504476Y-34759045D01*
X113536313Y-34668060D01*
X113536313Y-34668059D01*
X113555249Y-34500002D01*
X113555249Y-34499997D01*
X113536313Y-34331940D01*
X113536313Y-34331939D01*
X113504476Y-34240955D01*
X113500914Y-34171176D01*
X113504476Y-34159045D01*
X113536313Y-34068060D01*
X113536313Y-34068059D01*
X113555249Y-33900002D01*
X113555249Y-33899997D01*
X113536313Y-33731940D01*
X113536313Y-33731939D01*
X113504476Y-33640955D01*
X113500914Y-33571176D01*
X113504476Y-33559045D01*
X113536313Y-33468060D01*
X113536313Y-33468059D01*
X113555249Y-33300002D01*
X113555249Y-33299997D01*
X113536314Y-33131943D01*
X113480454Y-32972305D01*
X113480452Y-32972302D01*
X113390481Y-32829115D01*
X113390476Y-32829109D01*
X113270890Y-32709523D01*
X113270884Y-32709518D01*
X113127697Y-32619547D01*
X113127694Y-32619545D01*
X112968056Y-32563685D01*
X112800003Y-32544751D01*
X112799997Y-32544751D01*
X112631943Y-32563685D01*
X112472305Y-32619545D01*
X112472302Y-32619547D01*
X112329115Y-32709518D01*
X112329109Y-32709523D01*
X112209523Y-32829109D01*
X112209523Y-32829110D01*
X112204935Y-32836411D01*
X112152597Y-32882698D01*
X112083543Y-32893342D01*
X112019696Y-32864963D01*
X111981328Y-32806571D01*
X111980170Y-32738338D01*
X112030636Y-32550000D01*
X111133012Y-32550000D01*
X111165925Y-32492993D01*
X111200000Y-32365826D01*
X111200000Y-32234174D01*
X111165925Y-32107007D01*
X111133012Y-32050000D01*
X112030636Y-32050000D01*
X112030635Y-32049999D01*
X111973432Y-31836513D01*
X111973429Y-31836507D01*
X111873600Y-31622422D01*
X111873599Y-31622420D01*
X111738113Y-31428926D01*
X111738108Y-31428920D01*
X111616053Y-31306865D01*
X111582568Y-31245542D01*
X111587552Y-31175850D01*
X111629424Y-31119917D01*
X111660400Y-31103002D01*
X111792331Y-31053796D01*
X111907546Y-30967546D01*
X111993796Y-30852331D01*
X112044091Y-30717483D01*
X112050500Y-30657873D01*
X112050499Y-28862128D01*
X112044091Y-28802517D01*
X111993796Y-28667669D01*
X111993795Y-28667668D01*
X111993793Y-28667664D01*
X111907547Y-28552455D01*
X111907544Y-28552452D01*
X111792335Y-28466206D01*
X111792328Y-28466202D01*
X111657482Y-28415908D01*
X111657483Y-28415908D01*
X111597883Y-28409501D01*
X111597881Y-28409500D01*
X111597873Y-28409500D01*
X111597864Y-28409500D01*
X109802129Y-28409500D01*
X109802123Y-28409501D01*
X109742516Y-28415908D01*
X109607671Y-28466202D01*
X109607664Y-28466206D01*
X109492455Y-28552452D01*
X109492452Y-28552455D01*
X109406206Y-28667664D01*
X109406202Y-28667671D01*
X109355908Y-28802517D01*
X109349501Y-28862116D01*
X109349501Y-28862123D01*
X109349500Y-28862135D01*
X109349500Y-30657870D01*
X109349501Y-30657876D01*
X109355908Y-30717483D01*
X109406202Y-30852328D01*
X109406206Y-30852335D01*
X109492452Y-30967544D01*
X109492455Y-30967547D01*
X109607664Y-31053793D01*
X109607671Y-31053797D01*
X109607674Y-31053798D01*
X109739598Y-31103002D01*
X109795531Y-31144873D01*
X109819949Y-31210337D01*
X109805098Y-31278610D01*
X109783947Y-31306865D01*
X109661886Y-31428926D01*
X109526400Y-31622420D01*
X109526399Y-31622422D01*
X109426570Y-31836507D01*
X109426567Y-31836513D01*
X109369364Y-32049999D01*
X109369364Y-32050000D01*
X110266988Y-32050000D01*
X110234075Y-32107007D01*
X110200000Y-32234174D01*
X110200000Y-32365826D01*
X110234075Y-32492993D01*
X110266988Y-32550000D01*
X109369364Y-32550000D01*
X109426567Y-32763486D01*
X109426570Y-32763492D01*
X109526399Y-32977578D01*
X109661894Y-33171082D01*
X109828917Y-33338105D01*
X110014594Y-33468119D01*
X110058219Y-33522697D01*
X110065411Y-33592195D01*
X110033889Y-33654550D01*
X110014594Y-33671269D01*
X109828594Y-33801507D01*
X109661505Y-33968596D01*
X109525965Y-34162168D01*
X109525964Y-34162170D01*
X109426098Y-34376334D01*
X109426094Y-34376343D01*
X109364938Y-34604585D01*
X109364936Y-34604595D01*
X109344341Y-34839998D01*
X109344341Y-34839999D01*
X109364936Y-35075402D01*
X109364938Y-35075412D01*
X109426094Y-35303654D01*
X109426096Y-35303658D01*
X109426097Y-35303662D01*
X109483934Y-35427694D01*
X109525965Y-35517829D01*
X109525967Y-35517833D01*
X109661501Y-35711394D01*
X109661506Y-35711401D01*
X109828597Y-35878492D01*
X109828603Y-35878497D01*
X110014158Y-36008424D01*
X110057783Y-36063001D01*
X110064977Y-36132499D01*
X110033454Y-36194854D01*
X110014159Y-36211574D01*
X109828594Y-36341508D01*
X109661505Y-36508597D01*
X109525965Y-36702169D01*
X109525964Y-36702171D01*
X109426098Y-36916335D01*
X109426094Y-36916344D01*
X109364938Y-37144586D01*
X109364936Y-37144596D01*
X109344341Y-37379999D01*
X109344341Y-37380000D01*
X109364936Y-37615403D01*
X109364938Y-37615413D01*
X109426094Y-37843655D01*
X109426096Y-37843659D01*
X109426097Y-37843663D01*
X109519866Y-38044751D01*
X109525965Y-38057830D01*
X109525967Y-38057834D01*
X109661501Y-38251395D01*
X109661506Y-38251402D01*
X109828597Y-38418493D01*
X109828603Y-38418498D01*
X110014158Y-38548425D01*
X110057783Y-38603002D01*
X110064977Y-38672500D01*
X110033454Y-38734855D01*
X110014158Y-38751575D01*
X109828597Y-38881505D01*
X109661505Y-39048597D01*
X109525965Y-39242169D01*
X109525964Y-39242171D01*
X109426098Y-39456335D01*
X109426094Y-39456344D01*
X109364938Y-39684586D01*
X109364936Y-39684596D01*
X109344341Y-39919999D01*
X109344341Y-39920000D01*
X109364936Y-40155403D01*
X109364938Y-40155413D01*
X109426094Y-40383655D01*
X109426096Y-40383659D01*
X109426097Y-40383663D01*
X109525965Y-40597830D01*
X109525967Y-40597834D01*
X109661501Y-40791395D01*
X109661506Y-40791402D01*
X109828597Y-40958493D01*
X109828603Y-40958498D01*
X110014158Y-41088425D01*
X110057783Y-41143002D01*
X110064977Y-41212500D01*
X110033454Y-41274855D01*
X110014158Y-41291575D01*
X109828597Y-41421505D01*
X109661505Y-41588597D01*
X109525965Y-41782169D01*
X109525964Y-41782171D01*
X109426098Y-41996335D01*
X109426094Y-41996344D01*
X109364938Y-42224586D01*
X109364936Y-42224596D01*
X109344341Y-42459999D01*
X109344341Y-42460000D01*
X109364936Y-42695403D01*
X109364938Y-42695413D01*
X109426094Y-42923655D01*
X109426096Y-42923659D01*
X109426097Y-42923663D01*
X109525965Y-43137830D01*
X109525967Y-43137834D01*
X109661501Y-43331395D01*
X109661506Y-43331402D01*
X109828597Y-43498493D01*
X109828603Y-43498498D01*
X110014158Y-43628425D01*
X110057783Y-43683002D01*
X110064977Y-43752500D01*
X110033454Y-43814855D01*
X110014158Y-43831575D01*
X109828597Y-43961505D01*
X109661505Y-44128597D01*
X109525965Y-44322169D01*
X109525964Y-44322171D01*
X109426098Y-44536335D01*
X109426094Y-44536344D01*
X109364938Y-44764586D01*
X109364936Y-44764596D01*
X109344341Y-44999999D01*
X109344341Y-45000000D01*
X109364936Y-45235403D01*
X109364938Y-45235413D01*
X109426094Y-45463655D01*
X109426096Y-45463659D01*
X109426097Y-45463663D01*
X109525965Y-45677830D01*
X109525967Y-45677834D01*
X109661501Y-45871395D01*
X109661506Y-45871402D01*
X109828597Y-46038493D01*
X109828603Y-46038498D01*
X110014158Y-46168425D01*
X110057783Y-46223002D01*
X110064977Y-46292500D01*
X110033454Y-46354855D01*
X110014159Y-46371575D01*
X109828594Y-46501509D01*
X109661505Y-46668598D01*
X109525965Y-46862170D01*
X109525964Y-46862172D01*
X109426098Y-47076336D01*
X109426094Y-47076345D01*
X109364938Y-47304587D01*
X109364936Y-47304597D01*
X109344341Y-47540000D01*
X109344341Y-47540001D01*
X109364936Y-47775404D01*
X109364938Y-47775414D01*
X109426094Y-48003656D01*
X109426096Y-48003660D01*
X109426097Y-48003664D01*
X109504736Y-48172305D01*
X109525965Y-48217831D01*
X109525967Y-48217835D01*
X109661501Y-48411396D01*
X109661506Y-48411403D01*
X109828597Y-48578494D01*
X109828603Y-48578499D01*
X110014157Y-48708425D01*
X110057782Y-48763002D01*
X110064976Y-48832500D01*
X110033453Y-48894855D01*
X110014158Y-48911575D01*
X109828594Y-49041508D01*
X109661505Y-49208597D01*
X109525965Y-49402169D01*
X109525964Y-49402171D01*
X109426098Y-49616335D01*
X109426094Y-49616344D01*
X109364938Y-49844586D01*
X109364936Y-49844596D01*
X109344341Y-50079999D01*
X109344341Y-50080000D01*
X109364936Y-50315403D01*
X109364938Y-50315413D01*
X109426094Y-50543655D01*
X109426096Y-50543659D01*
X109426097Y-50543663D01*
X109525965Y-50757830D01*
X109525967Y-50757834D01*
X109661501Y-50951395D01*
X109661506Y-50951402D01*
X109828597Y-51118493D01*
X109828603Y-51118498D01*
X110014158Y-51248425D01*
X110057783Y-51303002D01*
X110064977Y-51372500D01*
X110033454Y-51434855D01*
X110014158Y-51451575D01*
X109828597Y-51581505D01*
X109661505Y-51748597D01*
X109525965Y-51942169D01*
X109525964Y-51942171D01*
X109426098Y-52156335D01*
X109426094Y-52156344D01*
X109364938Y-52384586D01*
X109364936Y-52384596D01*
X109344341Y-52619999D01*
X109344341Y-52620000D01*
X109364936Y-52855403D01*
X109364938Y-52855413D01*
X109426094Y-53083655D01*
X109426096Y-53083659D01*
X109426097Y-53083663D01*
X109512081Y-53268056D01*
X109525965Y-53297830D01*
X109525967Y-53297834D01*
X109590836Y-53390476D01*
X109653838Y-53480452D01*
X109661501Y-53491395D01*
X109661506Y-53491402D01*
X109828597Y-53658493D01*
X109828603Y-53658498D01*
X110014158Y-53788425D01*
X110057783Y-53843002D01*
X110064977Y-53912500D01*
X110033454Y-53974855D01*
X110014158Y-53991575D01*
X109828597Y-54121505D01*
X109661505Y-54288597D01*
X109525965Y-54482169D01*
X109525964Y-54482171D01*
X109426098Y-54696335D01*
X109426094Y-54696344D01*
X109364938Y-54924586D01*
X109364936Y-54924596D01*
X109344341Y-55159999D01*
X109344341Y-55160000D01*
X109364936Y-55395403D01*
X109364938Y-55395413D01*
X109426094Y-55623655D01*
X109426096Y-55623659D01*
X109426097Y-55623663D01*
X109440826Y-55655249D01*
X109525965Y-55837830D01*
X109525967Y-55837834D01*
X109661501Y-56031395D01*
X109661506Y-56031402D01*
X109828597Y-56198493D01*
X109828603Y-56198498D01*
X110014157Y-56328424D01*
X110057782Y-56383001D01*
X110064976Y-56452499D01*
X110033453Y-56514854D01*
X110014158Y-56531574D01*
X109828594Y-56661507D01*
X109661505Y-56828596D01*
X109525965Y-57022168D01*
X109525964Y-57022170D01*
X109426098Y-57236334D01*
X109426094Y-57236343D01*
X109364938Y-57464585D01*
X109364936Y-57464595D01*
X109344341Y-57699998D01*
X109344341Y-57699999D01*
X109364936Y-57935402D01*
X109364938Y-57935412D01*
X109426094Y-58163654D01*
X109426096Y-58163658D01*
X109426097Y-58163662D01*
X109525965Y-58377829D01*
X109525967Y-58377833D01*
X109661501Y-58571394D01*
X109661506Y-58571401D01*
X109828597Y-58738492D01*
X109828603Y-58738497D01*
X110014158Y-58868424D01*
X110057783Y-58923001D01*
X110064977Y-58992499D01*
X110033454Y-59054854D01*
X110014159Y-59071574D01*
X109828594Y-59201508D01*
X109661505Y-59368597D01*
X109525965Y-59562169D01*
X109525964Y-59562171D01*
X109426098Y-59776335D01*
X109426094Y-59776344D01*
X109364938Y-60004586D01*
X109364936Y-60004596D01*
X109344341Y-60239999D01*
X109344341Y-60240000D01*
X109364936Y-60475403D01*
X109364938Y-60475413D01*
X109426094Y-60703655D01*
X109426096Y-60703659D01*
X109426097Y-60703663D01*
X109525965Y-60917830D01*
X109525967Y-60917834D01*
X109661501Y-61111395D01*
X109661506Y-61111402D01*
X109828597Y-61278493D01*
X109828603Y-61278498D01*
X110014158Y-61408425D01*
X110057783Y-61463002D01*
X110064977Y-61532500D01*
X110033454Y-61594855D01*
X110014158Y-61611575D01*
X109828597Y-61741505D01*
X109661505Y-61908597D01*
X109525965Y-62102169D01*
X109525964Y-62102171D01*
X109426098Y-62316335D01*
X109426094Y-62316344D01*
X109364938Y-62544586D01*
X109364936Y-62544596D01*
X109344341Y-62779999D01*
X109344341Y-62780000D01*
X109364936Y-63015403D01*
X109364938Y-63015413D01*
X109426094Y-63243655D01*
X109426096Y-63243659D01*
X109426097Y-63243663D01*
X109485424Y-63370890D01*
X109525965Y-63457830D01*
X109525967Y-63457834D01*
X109661501Y-63651395D01*
X109661506Y-63651402D01*
X109828597Y-63818493D01*
X109828603Y-63818498D01*
X110014158Y-63948425D01*
X110057783Y-64003002D01*
X110064977Y-64072500D01*
X110033454Y-64134855D01*
X110014158Y-64151575D01*
X109828597Y-64281505D01*
X109661505Y-64448597D01*
X109525965Y-64642169D01*
X109525964Y-64642171D01*
X109426098Y-64856335D01*
X109426094Y-64856344D01*
X109364938Y-65084586D01*
X109364936Y-65084596D01*
X109344341Y-65319999D01*
X109344341Y-65320000D01*
X109364936Y-65555403D01*
X109364938Y-65555413D01*
X109426094Y-65783655D01*
X109426096Y-65783659D01*
X109426097Y-65783663D01*
X109517862Y-65980454D01*
X109525965Y-65997830D01*
X109525967Y-65997834D01*
X109661501Y-66191395D01*
X109661506Y-66191402D01*
X109828597Y-66358493D01*
X109828603Y-66358498D01*
X110014157Y-66488424D01*
X110057782Y-66543001D01*
X110064976Y-66612499D01*
X110033453Y-66674854D01*
X110014158Y-66691574D01*
X109828594Y-66821507D01*
X109661505Y-66988596D01*
X109525965Y-67182168D01*
X109525964Y-67182170D01*
X109426098Y-67396334D01*
X109426094Y-67396343D01*
X109364938Y-67624585D01*
X109364936Y-67624595D01*
X109344341Y-67859998D01*
X109344341Y-67859999D01*
X109364936Y-68095402D01*
X109364938Y-68095412D01*
X109426094Y-68323654D01*
X109426096Y-68323658D01*
X109426097Y-68323662D01*
X109522525Y-68530452D01*
X109525965Y-68537829D01*
X109525967Y-68537833D01*
X109618193Y-68669544D01*
X109661505Y-68731400D01*
X109828599Y-68898494D01*
X110007214Y-69023562D01*
X110014160Y-69028425D01*
X110057784Y-69083002D01*
X110064977Y-69152501D01*
X110033455Y-69214855D01*
X110014160Y-69231575D01*
X109828594Y-69361509D01*
X109661505Y-69528598D01*
X109525965Y-69722170D01*
X109525964Y-69722172D01*
X109426098Y-69936336D01*
X109426094Y-69936345D01*
X109364938Y-70164587D01*
X109364936Y-70164597D01*
X109344341Y-70400000D01*
X109344341Y-70400001D01*
X109364936Y-70635404D01*
X109364938Y-70635414D01*
X109426094Y-70863656D01*
X109426096Y-70863660D01*
X109426097Y-70863664D01*
X109512986Y-71049997D01*
X109525965Y-71077831D01*
X109525967Y-71077835D01*
X109661501Y-71271396D01*
X109661506Y-71271403D01*
X109828597Y-71438494D01*
X109828603Y-71438499D01*
X110014157Y-71568425D01*
X110057782Y-71623002D01*
X110064976Y-71692500D01*
X110033453Y-71754855D01*
X110014158Y-71771575D01*
X109828594Y-71901508D01*
X109661505Y-72068597D01*
X109525965Y-72262169D01*
X109525964Y-72262171D01*
X109426098Y-72476335D01*
X109426094Y-72476344D01*
X109364938Y-72704586D01*
X109364936Y-72704596D01*
X109344341Y-72939999D01*
X109344341Y-72940000D01*
X109364936Y-73175403D01*
X109364938Y-73175413D01*
X109426094Y-73403655D01*
X109426096Y-73403659D01*
X109426097Y-73403663D01*
X109450152Y-73455249D01*
X109525965Y-73617830D01*
X109525967Y-73617834D01*
X109661501Y-73811395D01*
X109661506Y-73811402D01*
X109828597Y-73978493D01*
X109828603Y-73978498D01*
X110014158Y-74108425D01*
X110057783Y-74163002D01*
X110064977Y-74232500D01*
X110033454Y-74294855D01*
X110014158Y-74311575D01*
X109828597Y-74441505D01*
X109661505Y-74608597D01*
X109525965Y-74802169D01*
X109525964Y-74802171D01*
X109426098Y-75016335D01*
X109426094Y-75016344D01*
X109364938Y-75244586D01*
X109364936Y-75244596D01*
X109344341Y-75479999D01*
X109344341Y-75480000D01*
X109364936Y-75715403D01*
X109364938Y-75715413D01*
X109426094Y-75943655D01*
X109426096Y-75943659D01*
X109426097Y-75943663D01*
X109474335Y-76047109D01*
X109525965Y-76157830D01*
X109525967Y-76157834D01*
X109661501Y-76351395D01*
X109661506Y-76351402D01*
X109828597Y-76518493D01*
X109828603Y-76518498D01*
X110014158Y-76648425D01*
X110057783Y-76703002D01*
X110064977Y-76772500D01*
X110033454Y-76834855D01*
X110014158Y-76851575D01*
X109828597Y-76981505D01*
X109661505Y-77148597D01*
X109525965Y-77342169D01*
X109525964Y-77342171D01*
X109426098Y-77556335D01*
X109426094Y-77556344D01*
X109364938Y-77784586D01*
X109364936Y-77784596D01*
X109344341Y-78019999D01*
X109344341Y-78020000D01*
X109364936Y-78255403D01*
X109364938Y-78255413D01*
X109426094Y-78483655D01*
X109426096Y-78483659D01*
X109426097Y-78483663D01*
X109501214Y-78644751D01*
X109525965Y-78697830D01*
X109525967Y-78697834D01*
X109661501Y-78891395D01*
X109661506Y-78891402D01*
X109828597Y-79058493D01*
X109828603Y-79058498D01*
X110014157Y-79188424D01*
X110057782Y-79243001D01*
X110064976Y-79312499D01*
X110033453Y-79374854D01*
X110014158Y-79391574D01*
X109828594Y-79521507D01*
X109661505Y-79688596D01*
X109525965Y-79882168D01*
X109525964Y-79882170D01*
X109426098Y-80096334D01*
X109426094Y-80096343D01*
X109364938Y-80324585D01*
X109364936Y-80324595D01*
X109344341Y-80559998D01*
X109344341Y-80559999D01*
X109364936Y-80795402D01*
X109364938Y-80795412D01*
X109426094Y-81023654D01*
X109426096Y-81023658D01*
X109426097Y-81023662D01*
X109501021Y-81184336D01*
X109525965Y-81237829D01*
X109525967Y-81237833D01*
X109634281Y-81392520D01*
X109652189Y-81418096D01*
X109661501Y-81431394D01*
X109661506Y-81431401D01*
X109828597Y-81598492D01*
X109828603Y-81598497D01*
X110014158Y-81728424D01*
X110057783Y-81783001D01*
X110064977Y-81852499D01*
X110033454Y-81914854D01*
X110014159Y-81931574D01*
X109828594Y-82061508D01*
X109661505Y-82228597D01*
X109525965Y-82422169D01*
X109525964Y-82422171D01*
X109426098Y-82636335D01*
X109426094Y-82636344D01*
X109364938Y-82864586D01*
X109364936Y-82864596D01*
X109344341Y-83099999D01*
X109344341Y-83100000D01*
X109364936Y-83335403D01*
X109364938Y-83335413D01*
X109426094Y-83563655D01*
X109426096Y-83563659D01*
X109426097Y-83563663D01*
X109474031Y-83666457D01*
X109525965Y-83777830D01*
X109525967Y-83777834D01*
X109634281Y-83932521D01*
X109660025Y-83969288D01*
X109661501Y-83971395D01*
X109661506Y-83971402D01*
X109828597Y-84138493D01*
X109828603Y-84138498D01*
X110014158Y-84268425D01*
X110057783Y-84323002D01*
X110064977Y-84392500D01*
X110033454Y-84454855D01*
X110014158Y-84471575D01*
X109828597Y-84601505D01*
X109661505Y-84768597D01*
X109525965Y-84962169D01*
X109525964Y-84962171D01*
X109426098Y-85176335D01*
X109426094Y-85176344D01*
X109364938Y-85404586D01*
X109364936Y-85404596D01*
X109344341Y-85639999D01*
X109344341Y-85640000D01*
X109364936Y-85875403D01*
X109364938Y-85875413D01*
X109426094Y-86103655D01*
X109426096Y-86103659D01*
X109426097Y-86103663D01*
X109452143Y-86159518D01*
X109525965Y-86317830D01*
X109525967Y-86317834D01*
X109661501Y-86511395D01*
X109661506Y-86511402D01*
X109828597Y-86678493D01*
X109828603Y-86678498D01*
X110014158Y-86808425D01*
X110057783Y-86863002D01*
X110064977Y-86932500D01*
X110033454Y-86994855D01*
X110014158Y-87011575D01*
X109828597Y-87141505D01*
X109661505Y-87308597D01*
X109525965Y-87502169D01*
X109525964Y-87502171D01*
X109426098Y-87716335D01*
X109426094Y-87716344D01*
X109364938Y-87944586D01*
X109364936Y-87944596D01*
X109344341Y-88179999D01*
X109344341Y-88180000D01*
X109364936Y-88415403D01*
X109364938Y-88415413D01*
X109426094Y-88643655D01*
X109426096Y-88643659D01*
X109426097Y-88643663D01*
X109438793Y-88670890D01*
X109453751Y-88702967D01*
X109464243Y-88772045D01*
X109435723Y-88835829D01*
X109407342Y-88860365D01*
X109329112Y-88909521D01*
X109329109Y-88909523D01*
X109209523Y-89029109D01*
X109209518Y-89029115D01*
X109119547Y-89172302D01*
X109119545Y-89172305D01*
X109063685Y-89331943D01*
X109044751Y-89499997D01*
X108750000Y-89499997D01*
X108750000Y-27874140D01*
X108769685Y-27807101D01*
X108822489Y-27761346D01*
X108874136Y-27750140D01*
X130626142Y-27774830D01*
G37*
G04 #@! TD.AperFunction*
G04 #@! TD*
M02*
