G04 #@! TF.GenerationSoftware,KiCad,Pcbnew,8.0.5*
G04 #@! TF.CreationDate,2024-10-01T14:56:49-07:00*
G04 #@! TF.ProjectId,gr25_nodes,67723235-5f6e-46f6-9465-732e6b696361,rev?*
G04 #@! TF.SameCoordinates,Original*
G04 #@! TF.FileFunction,Copper,L4,Bot*
G04 #@! TF.FilePolarity,Positive*
%FSLAX46Y46*%
G04 Gerber Fmt 4.6, Leading zero omitted, Abs format (unit mm)*
G04 Created by KiCad (PCBNEW 8.0.5) date 2024-10-01 14:56:49*
%MOMM*%
%LPD*%
G01*
G04 APERTURE LIST*
G04 Aperture macros list*
%AMRoundRect*
0 Rectangle with rounded corners*
0 $1 Rounding radius*
0 $2 $3 $4 $5 $6 $7 $8 $9 X,Y pos of 4 corners*
0 Add a 4 corners polygon primitive as box body*
4,1,4,$2,$3,$4,$5,$6,$7,$8,$9,$2,$3,0*
0 Add four circle primitives for the rounded corners*
1,1,$1+$1,$2,$3*
1,1,$1+$1,$4,$5*
1,1,$1+$1,$6,$7*
1,1,$1+$1,$8,$9*
0 Add four rect primitives between the rounded corners*
20,1,$1+$1,$2,$3,$4,$5,0*
20,1,$1+$1,$4,$5,$6,$7,0*
20,1,$1+$1,$6,$7,$8,$9,0*
20,1,$1+$1,$8,$9,$2,$3,0*%
G04 Aperture macros list end*
G04 #@! TA.AperFunction,ComponentPad*
%ADD10RoundRect,0.250000X-0.350000X-0.625000X0.350000X-0.625000X0.350000X0.625000X-0.350000X0.625000X0*%
G04 #@! TD*
G04 #@! TA.AperFunction,ComponentPad*
%ADD11O,1.200000X1.750000*%
G04 #@! TD*
G04 #@! TA.AperFunction,SMDPad,CuDef*
%ADD12RoundRect,0.135000X0.185000X-0.135000X0.185000X0.135000X-0.185000X0.135000X-0.185000X-0.135000X0*%
G04 #@! TD*
G04 #@! TA.AperFunction,SMDPad,CuDef*
%ADD13RoundRect,0.250000X0.250000X0.475000X-0.250000X0.475000X-0.250000X-0.475000X0.250000X-0.475000X0*%
G04 #@! TD*
G04 #@! TA.AperFunction,SMDPad,CuDef*
%ADD14RoundRect,0.225000X0.225000X0.250000X-0.225000X0.250000X-0.225000X-0.250000X0.225000X-0.250000X0*%
G04 #@! TD*
G04 #@! TA.AperFunction,SMDPad,CuDef*
%ADD15RoundRect,0.225000X-0.250000X0.225000X-0.250000X-0.225000X0.250000X-0.225000X0.250000X0.225000X0*%
G04 #@! TD*
G04 #@! TA.AperFunction,SMDPad,CuDef*
%ADD16RoundRect,0.250000X0.250000X-0.250000X0.250000X0.250000X-0.250000X0.250000X-0.250000X-0.250000X0*%
G04 #@! TD*
G04 #@! TA.AperFunction,SMDPad,CuDef*
%ADD17RoundRect,0.135000X0.135000X0.185000X-0.135000X0.185000X-0.135000X-0.185000X0.135000X-0.185000X0*%
G04 #@! TD*
G04 #@! TA.AperFunction,ComponentPad*
%ADD18R,1.700000X1.700000*%
G04 #@! TD*
G04 #@! TA.AperFunction,ComponentPad*
%ADD19O,1.700000X1.700000*%
G04 #@! TD*
G04 #@! TA.AperFunction,SMDPad,CuDef*
%ADD20RoundRect,0.218750X-0.218750X-0.256250X0.218750X-0.256250X0.218750X0.256250X-0.218750X0.256250X0*%
G04 #@! TD*
G04 #@! TA.AperFunction,SMDPad,CuDef*
%ADD21R,1.000000X1.000000*%
G04 #@! TD*
G04 #@! TA.AperFunction,SMDPad,CuDef*
%ADD22RoundRect,0.135000X-0.185000X0.135000X-0.185000X-0.135000X0.185000X-0.135000X0.185000X0.135000X0*%
G04 #@! TD*
G04 #@! TA.AperFunction,SMDPad,CuDef*
%ADD23RoundRect,0.225000X0.250000X-0.225000X0.250000X0.225000X-0.250000X0.225000X-0.250000X-0.225000X0*%
G04 #@! TD*
G04 #@! TA.AperFunction,SMDPad,CuDef*
%ADD24RoundRect,0.150000X0.150000X-0.512500X0.150000X0.512500X-0.150000X0.512500X-0.150000X-0.512500X0*%
G04 #@! TD*
G04 #@! TA.AperFunction,SMDPad,CuDef*
%ADD25RoundRect,0.135000X-0.135000X-0.185000X0.135000X-0.185000X0.135000X0.185000X-0.135000X0.185000X0*%
G04 #@! TD*
G04 #@! TA.AperFunction,SMDPad,CuDef*
%ADD26RoundRect,0.150000X0.825000X0.150000X-0.825000X0.150000X-0.825000X-0.150000X0.825000X-0.150000X0*%
G04 #@! TD*
G04 #@! TA.AperFunction,SMDPad,CuDef*
%ADD27RoundRect,0.225000X-0.225000X-0.250000X0.225000X-0.250000X0.225000X0.250000X-0.225000X0.250000X0*%
G04 #@! TD*
G04 #@! TA.AperFunction,SMDPad,CuDef*
%ADD28RoundRect,0.250000X-0.250000X-0.475000X0.250000X-0.475000X0.250000X0.475000X-0.250000X0.475000X0*%
G04 #@! TD*
G04 #@! TA.AperFunction,SMDPad,CuDef*
%ADD29RoundRect,0.250000X-0.650000X0.325000X-0.650000X-0.325000X0.650000X-0.325000X0.650000X0.325000X0*%
G04 #@! TD*
G04 #@! TA.AperFunction,SMDPad,CuDef*
%ADD30RoundRect,0.150000X0.587500X0.150000X-0.587500X0.150000X-0.587500X-0.150000X0.587500X-0.150000X0*%
G04 #@! TD*
G04 #@! TA.AperFunction,SMDPad,CuDef*
%ADD31R,2.400000X5.700000*%
G04 #@! TD*
G04 #@! TA.AperFunction,SMDPad,CuDef*
%ADD32RoundRect,0.150000X-0.825000X-0.150000X0.825000X-0.150000X0.825000X0.150000X-0.825000X0.150000X0*%
G04 #@! TD*
G04 #@! TA.AperFunction,SMDPad,CuDef*
%ADD33RoundRect,0.218750X0.218750X0.256250X-0.218750X0.256250X-0.218750X-0.256250X0.218750X-0.256250X0*%
G04 #@! TD*
G04 #@! TA.AperFunction,ViaPad*
%ADD34C,0.500000*%
G04 #@! TD*
G04 #@! TA.AperFunction,Conductor*
%ADD35C,0.250000*%
G04 #@! TD*
G04 #@! TA.AperFunction,Conductor*
%ADD36C,0.500000*%
G04 #@! TD*
G04 #@! TA.AperFunction,Conductor*
%ADD37C,0.200000*%
G04 #@! TD*
G04 APERTURE END LIST*
D10*
G04 #@! TO.P,J1,1,Pin_1*
G04 #@! TO.N,GND*
X114750000Y-94300000D03*
D11*
G04 #@! TO.P,J1,2,Pin_2*
G04 #@! TO.N,Net-(J1-Pin_2)*
X116750000Y-94300000D03*
G04 #@! TO.P,J1,3,Pin_3*
G04 #@! TO.N,D-*
X118750000Y-94300000D03*
G04 #@! TO.P,J1,4,Pin_4*
G04 #@! TO.N,D+*
X120750000Y-94300000D03*
G04 #@! TO.P,J1,5,Pin_5*
G04 #@! TO.N,Net-(J1-Pin_5)*
X122750000Y-94300000D03*
G04 #@! TO.P,J1,6,Pin_6*
G04 #@! TO.N,VBUS*
X124750000Y-94300000D03*
G04 #@! TD*
D12*
G04 #@! TO.P,R8,1*
G04 #@! TO.N,Net-(D2-A)*
X120100000Y-87409999D03*
G04 #@! TO.P,R8,2*
G04 #@! TO.N,+3.3V*
X120100000Y-86390001D03*
G04 #@! TD*
D13*
G04 #@! TO.P,C4,1*
G04 #@! TO.N,+5V*
X123200000Y-37637500D03*
G04 #@! TO.P,C4,2*
G04 #@! TO.N,GND*
X121300000Y-37637500D03*
G04 #@! TD*
D14*
G04 #@! TO.P,C11,1*
G04 #@! TO.N,+3.3V*
X118825000Y-82200000D03*
G04 #@! TO.P,C11,2*
G04 #@! TO.N,GND*
X117275000Y-82200000D03*
G04 #@! TD*
D15*
G04 #@! TO.P,C31,1*
G04 #@! TO.N,+5V*
X118300000Y-55625000D03*
G04 #@! TO.P,C31,2*
G04 #@! TO.N,GND*
X118300000Y-57175000D03*
G04 #@! TD*
D16*
G04 #@! TO.P,D6,1,K*
G04 #@! TO.N,/Power/Vin_D*
X114250000Y-35999998D03*
G04 #@! TO.P,D6,2,A*
G04 #@! TO.N,+12V*
X114250000Y-33500000D03*
G04 #@! TD*
D17*
G04 #@! TO.P,R16,1*
G04 #@! TO.N,Net-(J1-Pin_2)*
X116400000Y-95900000D03*
G04 #@! TO.P,R16,2*
G04 #@! TO.N,GND*
X115380002Y-95900000D03*
G04 #@! TD*
G04 #@! TO.P,R7,1*
G04 #@! TO.N,GND*
X125819998Y-78400000D03*
G04 #@! TO.P,R7,2*
G04 #@! TO.N,Net-(U5-PC14)*
X124800000Y-78400000D03*
G04 #@! TD*
D18*
G04 #@! TO.P,J6,1,Pin_1*
G04 #@! TO.N,+12V*
X128700000Y-29760000D03*
D19*
G04 #@! TO.P,J6,2,Pin_2*
G04 #@! TO.N,GND*
X128700000Y-32300000D03*
G04 #@! TO.P,J6,3,Pin_3*
G04 #@! TO.N,+5V*
X128700000Y-34839999D03*
G04 #@! TO.P,J6,4,Pin_4*
G04 #@! TO.N,+3.3V*
X128700000Y-37380000D03*
G04 #@! TO.P,J6,5,Pin_5*
G04 #@! TO.N,I2C3_SDA*
X128700000Y-39920000D03*
G04 #@! TO.P,J6,6,Pin_6*
G04 #@! TO.N,I2C3_SCL*
X128700000Y-42460000D03*
G04 #@! TO.P,J6,7,Pin_7*
G04 #@! TO.N,I2C4_SDA*
X128700000Y-45000000D03*
G04 #@! TO.P,J6,8,Pin_8*
G04 #@! TO.N,I2C4_SCL*
X128700000Y-47540001D03*
G04 #@! TO.P,J6,9,Pin_9*
G04 #@! TO.N,PB15*
X128700000Y-50080000D03*
G04 #@! TO.P,J6,10,Pin_10*
G04 #@! TO.N,PB14*
X128700000Y-52620000D03*
G04 #@! TO.P,J6,11,Pin_11*
G04 #@! TO.N,CANL2*
X128700000Y-55160000D03*
G04 #@! TO.P,J6,12,Pin_12*
G04 #@! TO.N,CANH2*
X128700000Y-57699999D03*
G04 #@! TO.P,J6,13,Pin_13*
G04 #@! TO.N,PB11*
X128700000Y-60240000D03*
G04 #@! TO.P,J6,14,Pin_14*
G04 #@! TO.N,PB10*
X128700000Y-62780000D03*
G04 #@! TO.P,J6,15,Pin_15*
G04 #@! TO.N,PB2*
X128700000Y-65320000D03*
G04 #@! TO.P,J6,16,Pin_16*
G04 #@! TO.N,PB1*
X128700000Y-67859999D03*
G04 #@! TO.P,J6,17,Pin_17*
G04 #@! TO.N,PB0*
X128700000Y-70400001D03*
G04 #@! TO.P,J6,18,Pin_18*
G04 #@! TO.N,PC5*
X128700000Y-72940000D03*
G04 #@! TO.P,J6,19,Pin_19*
G04 #@! TO.N,PC4*
X128700000Y-75480000D03*
G04 #@! TO.P,J6,20,Pin_20*
G04 #@! TO.N,SPI1_MISO*
X128700000Y-78020000D03*
G04 #@! TO.P,J6,21,Pin_21*
G04 #@! TO.N,SPI1_MOSI*
X128700000Y-80559999D03*
G04 #@! TO.P,J6,22,Pin_22*
G04 #@! TO.N,SPI1_SCK*
X128700000Y-83100000D03*
G04 #@! TO.P,J6,23,Pin_23*
G04 #@! TO.N,PA4*
X128700000Y-85640000D03*
G04 #@! TO.P,J6,24,Pin_24*
G04 #@! TO.N,PA3*
X128700000Y-88180000D03*
G04 #@! TO.P,J6,25,Pin_25*
G04 #@! TO.N,PA2*
X128700000Y-90719999D03*
G04 #@! TO.P,J6,26,Pin_26*
G04 #@! TO.N,PA1*
X128700000Y-93260001D03*
G04 #@! TO.P,J6,27,Pin_27*
G04 #@! TO.N,PA0*
X128700000Y-95800000D03*
G04 #@! TD*
D15*
G04 #@! TO.P,C16,1*
G04 #@! TO.N,+3.3V*
X116200000Y-61125000D03*
G04 #@! TO.P,C16,2*
G04 #@! TO.N,GND*
X116200000Y-62675000D03*
G04 #@! TD*
D20*
G04 #@! TO.P,D2,1,K*
G04 #@! TO.N,LED*
X117362499Y-86000000D03*
G04 #@! TO.P,D2,2,A*
G04 #@! TO.N,Net-(D2-A)*
X118937501Y-86000000D03*
G04 #@! TD*
D13*
G04 #@! TO.P,C5,1*
G04 #@! TO.N,+5V*
X123200000Y-39700000D03*
G04 #@! TO.P,C5,2*
G04 #@! TO.N,GND*
X121300000Y-39700000D03*
G04 #@! TD*
D21*
G04 #@! TO.P,TP4,1,1*
G04 #@! TO.N,B0*
X113750000Y-79750000D03*
G04 #@! TD*
D22*
G04 #@! TO.P,R13,1*
G04 #@! TO.N,Net-(Q1-B)*
X126000000Y-86300000D03*
G04 #@! TO.P,R13,2*
G04 #@! TO.N,+5V*
X126000000Y-87319998D03*
G04 #@! TD*
D23*
G04 #@! TO.P,C22,1*
G04 #@! TO.N,VDDA*
X123400000Y-64300000D03*
G04 #@! TO.P,C22,2*
G04 #@! TO.N,GND*
X123400000Y-62750000D03*
G04 #@! TD*
D24*
G04 #@! TO.P,U2,1,GND*
G04 #@! TO.N,GND*
X118550000Y-35637500D03*
G04 #@! TO.P,U2,2,SW*
G04 #@! TO.N,Net-(U2-SW)*
X117600000Y-35637500D03*
G04 #@! TO.P,U2,3,VIN*
G04 #@! TO.N,/Power/Vin_D*
X116650000Y-35637500D03*
G04 #@! TO.P,U2,4,VFB*
G04 #@! TO.N,Net-(U2-VFB)*
X116650000Y-33362500D03*
G04 #@! TO.P,U2,5,EN*
G04 #@! TO.N,/Power/Vin_D*
X117600000Y-33362500D03*
G04 #@! TO.P,U2,6,VBST*
G04 #@! TO.N,Net-(U2-VBST)*
X118550000Y-33362500D03*
G04 #@! TD*
D25*
G04 #@! TO.P,R14,1*
G04 #@! TO.N,GND*
X123980002Y-86250000D03*
G04 #@! TO.P,R14,2*
G04 #@! TO.N,Net-(Q1-B)*
X125000000Y-86250000D03*
G04 #@! TD*
D17*
G04 #@! TO.P,R6,1*
G04 #@! TO.N,GND*
X125800000Y-79400000D03*
G04 #@! TO.P,R6,2*
G04 #@! TO.N,Net-(U5-PC13)*
X124780002Y-79400000D03*
G04 #@! TD*
D18*
G04 #@! TO.P,J7,1,Pin_1*
G04 #@! TO.N,+12V*
X110700000Y-29760000D03*
D19*
G04 #@! TO.P,J7,2,Pin_2*
G04 #@! TO.N,GND*
X110700000Y-32300000D03*
G04 #@! TO.P,J7,3,Pin_3*
G04 #@! TO.N,+5V*
X110700000Y-34839999D03*
G04 #@! TO.P,J7,4,Pin_4*
G04 #@! TO.N,+3.3V*
X110700000Y-37380000D03*
G04 #@! TO.P,J7,5,Pin_5*
G04 #@! TO.N,I2C2_SDA*
X110700000Y-39920000D03*
G04 #@! TO.P,J7,6,Pin_6*
G04 #@! TO.N,I2C2_SCL*
X110700000Y-42460000D03*
G04 #@! TO.P,J7,7,Pin_7*
G04 #@! TO.N,PA10*
X110700000Y-45000000D03*
G04 #@! TO.P,J7,8,Pin_8*
G04 #@! TO.N,CANH3*
X110700000Y-47540001D03*
G04 #@! TO.P,J7,9,Pin_9*
G04 #@! TO.N,CANL3*
X110700000Y-50080000D03*
G04 #@! TO.P,J7,10,Pin_10*
G04 #@! TO.N,SPI3_SCK*
X110700000Y-52620000D03*
G04 #@! TO.P,J7,11,Pin_11*
G04 #@! TO.N,SPI3_MISO*
X110700000Y-55160000D03*
G04 #@! TO.P,J7,12,Pin_12*
G04 #@! TO.N,SPI3_MOSI*
X110700000Y-57699999D03*
G04 #@! TO.P,J7,13,Pin_13*
G04 #@! TO.N,PD2*
X110700000Y-60240000D03*
G04 #@! TO.P,J7,14,Pin_14*
G04 #@! TO.N,PB3*
X110700000Y-62780000D03*
G04 #@! TO.P,J7,15,Pin_15*
G04 #@! TO.N,PB4*
X110700000Y-65320000D03*
G04 #@! TO.P,J7,16,Pin_16*
G04 #@! TO.N,PB5*
X110700000Y-67859999D03*
G04 #@! TO.P,J7,17,Pin_17*
G04 #@! TO.N,PB6*
X110700000Y-70400001D03*
G04 #@! TO.P,J7,18,Pin_18*
G04 #@! TO.N,I2C1_SDA*
X110700000Y-72940000D03*
G04 #@! TO.P,J7,19,Pin_19*
G04 #@! TO.N,I2C1_SCL*
X110700000Y-75480000D03*
G04 #@! TO.P,J7,20,Pin_20*
G04 #@! TO.N,PB9*
X110700000Y-78020000D03*
G04 #@! TO.P,J7,21,Pin_21*
G04 #@! TO.N,PC13*
X110700000Y-80559999D03*
G04 #@! TO.P,J7,22,Pin_22*
G04 #@! TO.N,PC14*
X110700000Y-83100000D03*
G04 #@! TO.P,J7,23,Pin_23*
G04 #@! TO.N,PC15*
X110700000Y-85640000D03*
G04 #@! TO.P,J7,24,Pin_24*
G04 #@! TO.N,PC2*
X110700000Y-88180000D03*
G04 #@! TO.P,J7,25,Pin_25*
G04 #@! TO.N,PC1*
X110700000Y-90719999D03*
G04 #@! TO.P,J7,26,Pin_26*
G04 #@! TO.N,PC0*
X110700000Y-93260001D03*
G04 #@! TO.P,J7,27,Pin_27*
G04 #@! TO.N,PC3*
X110700000Y-95800000D03*
G04 #@! TD*
D25*
G04 #@! TO.P,R10,1*
G04 #@! TO.N,D+*
X121490001Y-92000000D03*
G04 #@! TO.P,R10,2*
G04 #@! TO.N,Net-(Q1-E)*
X122509999Y-92000000D03*
G04 #@! TD*
G04 #@! TO.P,R15,1*
G04 #@! TO.N,RENUM*
X123990001Y-87250000D03*
G04 #@! TO.P,R15,2*
G04 #@! TO.N,Net-(Q1-B)*
X125009999Y-87250000D03*
G04 #@! TD*
D26*
G04 #@! TO.P,U3,1,TXD*
G04 #@! TO.N,CTXD3*
X118875000Y-47920000D03*
G04 #@! TO.P,U3,2,VSS*
G04 #@! TO.N,GND*
X118875000Y-49190000D03*
G04 #@! TO.P,U3,3,VDD*
G04 #@! TO.N,+5V*
X118875000Y-50460000D03*
G04 #@! TO.P,U3,4,RXD*
G04 #@! TO.N,CRXD3*
X118875000Y-51730000D03*
G04 #@! TO.P,U3,5,VIO*
G04 #@! TO.N,+3.3V*
X113925000Y-51730000D03*
G04 #@! TO.P,U3,6,CANL*
G04 #@! TO.N,CANL3*
X113925000Y-50460000D03*
G04 #@! TO.P,U3,7,CANH*
G04 #@! TO.N,CANH3*
X113925000Y-49190000D03*
G04 #@! TO.P,U3,8,STBY*
G04 #@! TO.N,unconnected-(U3-STBY-Pad8)*
X113925000Y-47920000D03*
G04 #@! TD*
D15*
G04 #@! TO.P,C25,1*
G04 #@! TO.N,VDDA*
X121900000Y-66400000D03*
G04 #@! TO.P,C25,2*
G04 #@! TO.N,GND*
X121900000Y-67950000D03*
G04 #@! TD*
D22*
G04 #@! TO.P,R4,1*
G04 #@! TO.N,Net-(U5-PA0)*
X118700000Y-79700000D03*
G04 #@! TO.P,R4,2*
G04 #@! TO.N,+3.3V*
X118700000Y-80719998D03*
G04 #@! TD*
D15*
G04 #@! TO.P,C13,1*
G04 #@! TO.N,+3.3V*
X124400000Y-82150000D03*
G04 #@! TO.P,C13,2*
G04 #@! TO.N,GND*
X124400000Y-83700000D03*
G04 #@! TD*
D27*
G04 #@! TO.P,C28,1*
G04 #@! TO.N,+3.3V*
X114000000Y-53400000D03*
G04 #@! TO.P,C28,2*
G04 #@! TO.N,GND*
X115550000Y-53400000D03*
G04 #@! TD*
D15*
G04 #@! TO.P,C24,1*
G04 #@! TO.N,VDDA*
X123400000Y-66400000D03*
G04 #@! TO.P,C24,2*
G04 #@! TO.N,GND*
X123400000Y-67950000D03*
G04 #@! TD*
D28*
G04 #@! TO.P,C1,1*
G04 #@! TO.N,/Power/Vin_D*
X116400000Y-37600000D03*
G04 #@! TO.P,C1,2*
G04 #@! TO.N,GND*
X118300000Y-37600000D03*
G04 #@! TD*
D29*
G04 #@! TO.P,L2,1,1*
G04 #@! TO.N,+3.3V*
X119900000Y-62925000D03*
G04 #@! TO.P,L2,2,2*
G04 #@! TO.N,VDDA*
X119900000Y-65875000D03*
G04 #@! TD*
D21*
G04 #@! TO.P,TP3,1,1*
G04 #@! TO.N,CLK*
X113750000Y-81750000D03*
G04 #@! TD*
D12*
G04 #@! TO.P,R9,1*
G04 #@! TO.N,GND*
X120200000Y-85300000D03*
G04 #@! TO.P,R9,2*
G04 #@! TO.N,Net-(D3-K)*
X120200000Y-84280002D03*
G04 #@! TD*
D22*
G04 #@! TO.P,R5,1*
G04 #@! TO.N,GND*
X117700000Y-79700000D03*
G04 #@! TO.P,R5,2*
G04 #@! TO.N,Net-(U5-PA0)*
X117700000Y-80719998D03*
G04 #@! TD*
D17*
G04 #@! TO.P,R17,1*
G04 #@! TO.N,Net-(J1-Pin_5)*
X122419998Y-95900000D03*
G04 #@! TO.P,R17,2*
G04 #@! TO.N,GND*
X121400000Y-95900000D03*
G04 #@! TD*
D30*
G04 #@! TO.P,Q1,1,B*
G04 #@! TO.N,Net-(Q1-B)*
X125837500Y-89500000D03*
G04 #@! TO.P,Q1,2,E*
G04 #@! TO.N,Net-(Q1-E)*
X125837500Y-91400000D03*
G04 #@! TO.P,Q1,3,C*
G04 #@! TO.N,+3.3V*
X123962499Y-90450000D03*
G04 #@! TD*
D28*
G04 #@! TO.P,C2,1*
G04 #@! TO.N,/Power/Vin_D*
X116400000Y-39600000D03*
G04 #@! TO.P,C2,2*
G04 #@! TO.N,GND*
X118300000Y-39600000D03*
G04 #@! TD*
D23*
G04 #@! TO.P,C19,1*
G04 #@! TO.N,+3.3V*
X124900000Y-62475000D03*
G04 #@! TO.P,C19,2*
G04 #@! TO.N,GND*
X124900000Y-60925000D03*
G04 #@! TD*
D14*
G04 #@! TO.P,C8,1*
G04 #@! TO.N,+3.3V*
X122275000Y-88900000D03*
G04 #@! TO.P,C8,2*
G04 #@! TO.N,GND*
X120725000Y-88900000D03*
G04 #@! TD*
G04 #@! TO.P,C17,1*
G04 #@! TO.N,+3.3V*
X123300000Y-72800000D03*
G04 #@! TO.P,C17,2*
G04 #@! TO.N,GND*
X121750000Y-72800000D03*
G04 #@! TD*
D21*
G04 #@! TO.P,TP2,1,1*
G04 #@! TO.N,DIO*
X113750000Y-83750000D03*
G04 #@! TD*
D23*
G04 #@! TO.P,C23,1*
G04 #@! TO.N,VDDA*
X121900000Y-64300000D03*
G04 #@! TO.P,C23,2*
G04 #@! TO.N,GND*
X121900000Y-62750000D03*
G04 #@! TD*
G04 #@! TO.P,C21,1*
G04 #@! TO.N,+3.3V*
X116300000Y-73050000D03*
G04 #@! TO.P,C21,2*
G04 #@! TO.N,GND*
X116300000Y-71500000D03*
G04 #@! TD*
G04 #@! TO.P,C18,1*
G04 #@! TO.N,+3.3V*
X113700000Y-70475000D03*
G04 #@! TO.P,C18,2*
G04 #@! TO.N,GND*
X113700000Y-68925000D03*
G04 #@! TD*
D22*
G04 #@! TO.P,R11,1*
G04 #@! TO.N,B0*
X122700000Y-84500000D03*
G04 #@! TO.P,R11,2*
G04 #@! TO.N,GND*
X122700000Y-85519998D03*
G04 #@! TD*
D14*
G04 #@! TO.P,C30,1*
G04 #@! TO.N,+3.3V*
X125175000Y-52800000D03*
G04 #@! TO.P,C30,2*
G04 #@! TO.N,GND*
X123625000Y-52800000D03*
G04 #@! TD*
D31*
G04 #@! TO.P,L1,1,1*
G04 #@! TO.N,Net-(U2-SW)*
X120750000Y-33250000D03*
G04 #@! TO.P,L1,2,2*
G04 #@! TO.N,+5V*
X124950000Y-33250000D03*
G04 #@! TD*
D21*
G04 #@! TO.P,TP1,1,1*
G04 #@! TO.N,+3.3V*
X113750000Y-85750000D03*
G04 #@! TD*
D23*
G04 #@! TO.P,C29,1*
G04 #@! TO.N,+5V*
X120900000Y-50475000D03*
G04 #@! TO.P,C29,2*
G04 #@! TO.N,GND*
X120900000Y-48925000D03*
G04 #@! TD*
D12*
G04 #@! TO.P,R2,1*
G04 #@! TO.N,Net-(U2-VFB)*
X116000000Y-31907500D03*
G04 #@! TO.P,R2,2*
G04 #@! TO.N,GND*
X116000000Y-30887500D03*
G04 #@! TD*
D32*
G04 #@! TO.P,U6,1,TXD*
G04 #@! TO.N,CTXD2*
X120450000Y-58210000D03*
G04 #@! TO.P,U6,2,VSS*
G04 #@! TO.N,GND*
X120450000Y-56940000D03*
G04 #@! TO.P,U6,3,VDD*
G04 #@! TO.N,+5V*
X120450000Y-55670000D03*
G04 #@! TO.P,U6,4,RXD*
G04 #@! TO.N,CRXD2*
X120450000Y-54400000D03*
G04 #@! TO.P,U6,5,VIO*
G04 #@! TO.N,+3.3V*
X125400000Y-54400000D03*
G04 #@! TO.P,U6,6,CANL*
G04 #@! TO.N,CANL2*
X125400000Y-55670000D03*
G04 #@! TO.P,U6,7,CANH*
G04 #@! TO.N,CANH2*
X125400000Y-56940000D03*
G04 #@! TO.P,U6,8,STBY*
G04 #@! TO.N,unconnected-(U6-STBY-Pad8)*
X125400000Y-58210000D03*
G04 #@! TD*
D22*
G04 #@! TO.P,R1,1*
G04 #@! TO.N,+5V*
X117000000Y-30867502D03*
G04 #@! TO.P,R1,2*
G04 #@! TO.N,Net-(U2-VFB)*
X117000000Y-31887500D03*
G04 #@! TD*
D27*
G04 #@! TO.P,C12,1*
G04 #@! TO.N,+3.3V*
X116925000Y-88900000D03*
G04 #@! TO.P,C12,2*
G04 #@! TO.N,GND*
X118475000Y-88900000D03*
G04 #@! TD*
D15*
G04 #@! TO.P,C15,1*
G04 #@! TO.N,+3.3V*
X122300000Y-80700000D03*
G04 #@! TO.P,C15,2*
G04 #@! TO.N,GND*
X122300000Y-82250000D03*
G04 #@! TD*
G04 #@! TO.P,C3,1*
G04 #@! TO.N,Net-(U2-SW)*
X118400000Y-30025000D03*
G04 #@! TO.P,C3,2*
G04 #@! TO.N,Net-(U2-VBST)*
X118400000Y-31575000D03*
G04 #@! TD*
D21*
G04 #@! TO.P,TP5,1,1*
G04 #@! TO.N,GND*
X113750000Y-77750000D03*
G04 #@! TD*
D33*
G04 #@! TO.P,D3,1,K*
G04 #@! TO.N,Net-(D3-K)*
X118937501Y-84250000D03*
G04 #@! TO.P,D3,2,A*
G04 #@! TO.N,LED*
X117362499Y-84250000D03*
G04 #@! TD*
D34*
G04 #@! TO.N,GND*
X120200000Y-85300000D03*
X114400000Y-39600000D03*
X119000000Y-41300000D03*
X120700000Y-47700000D03*
X118400000Y-41300000D03*
X116000000Y-41300000D03*
X121900000Y-62750000D03*
X117200000Y-41300000D03*
X119600000Y-41300000D03*
X117275000Y-82200000D03*
X115350000Y-68800000D03*
X122300000Y-82250000D03*
X116600000Y-41300000D03*
X125525000Y-77400000D03*
X121900000Y-67950000D03*
X115600000Y-54500000D03*
X122700000Y-85519998D03*
X113600000Y-38800000D03*
X115200000Y-40600000D03*
X123400000Y-62750000D03*
X126400000Y-37000000D03*
X122975000Y-83150000D03*
X113750000Y-77750000D03*
X121350000Y-87300000D03*
X116200000Y-62675000D03*
X114950000Y-29844975D03*
X116300000Y-71500000D03*
X120225000Y-96100000D03*
X114500000Y-59500000D03*
X124900000Y-60925000D03*
X123162500Y-78500000D03*
X122575000Y-57200000D03*
X114800000Y-40100000D03*
X117628635Y-86971365D03*
X117800000Y-41300000D03*
X123250000Y-71450000D03*
X123400000Y-67950000D03*
X123100000Y-51500000D03*
X125800000Y-37800000D03*
X126900000Y-65550000D03*
X114000000Y-39200000D03*
X117750000Y-78050000D03*
X126950000Y-63450000D03*
G04 #@! TO.N,+5V*
X124800000Y-38800000D03*
X109800000Y-89500000D03*
G04 #@! TO.N,+3.3V*
X112800000Y-33900000D03*
X113450000Y-71050000D03*
X112800000Y-33300000D03*
X124150000Y-73700000D03*
X112800000Y-34500000D03*
X124700000Y-81150000D03*
X115150000Y-72700000D03*
X113750000Y-85750000D03*
X124900000Y-62475000D03*
X114100000Y-54400000D03*
X118825000Y-82200000D03*
X123425000Y-80050000D03*
X115837653Y-88412347D03*
X118400000Y-62900000D03*
X116200000Y-59800000D03*
X112800000Y-35100000D03*
X122550000Y-89850000D03*
X120102654Y-86387347D03*
X126400000Y-52800000D03*
G04 #@! TO.N,VDDA*
X123800000Y-65300000D03*
X123100000Y-65300000D03*
G04 #@! TO.N,LED*
X118795444Y-87325000D03*
G04 #@! TO.N,D+*
X121490001Y-92000000D03*
G04 #@! TO.N,PC0*
X116800000Y-69351257D03*
G04 #@! TO.N,PA0*
X120750000Y-69300000D03*
X124200000Y-77050000D03*
G04 #@! TO.N,PA1*
X121924201Y-69875000D03*
X124850000Y-75200000D03*
G04 #@! TO.N,PC2*
X115434920Y-67159522D03*
G04 #@! TO.N,PC3*
X118700000Y-68250000D03*
G04 #@! TO.N,PC1*
X115550000Y-67850000D03*
G04 #@! TO.N,SPI3_MOSI*
X115376633Y-65881236D03*
G04 #@! TO.N,SPI3_SCK*
X115363173Y-64350000D03*
G04 #@! TO.N,SPI3_MISO*
X115434556Y-65121382D03*
G04 #@! TO.N,PC4*
X123250000Y-69150000D03*
G04 #@! TO.N,SPI1_MISO*
X126750000Y-69350000D03*
G04 #@! TO.N,SPI1_MOSI*
X124000000Y-69850000D03*
G04 #@! TO.N,Net-(U5-PA0)*
X116700000Y-79400000D03*
G04 #@! TO.N,Net-(U5-PC13)*
X124013376Y-80593860D03*
G04 #@! TO.N,Net-(U5-PC14)*
X121108882Y-81783882D03*
G04 #@! TO.N,B0*
X116850000Y-77450000D03*
X121862653Y-84137347D03*
X115450000Y-80150000D03*
G04 #@! TO.N,T_DIO*
X113800000Y-76000000D03*
X117200000Y-64800000D03*
G04 #@! TO.N,RENUM*
X122850000Y-86750000D03*
G04 #@! TO.N,DIO*
X121850000Y-90300000D03*
G04 #@! TO.N,CLK*
X123950000Y-88200000D03*
G04 #@! TO.N,CTXD2*
X122575000Y-59200000D03*
G04 #@! TO.N,T_CLK*
X115926926Y-63900000D03*
X115144011Y-75879050D03*
G04 #@! TO.N,CTXD3*
X117400000Y-48500000D03*
G04 #@! TO.N,CRXD3*
X117625003Y-53100000D03*
G04 #@! TO.N,CRXD2*
X122600000Y-54900000D03*
G04 #@! TO.N,T_RST*
X117500000Y-71400000D03*
X117100000Y-83200000D03*
G04 #@! TD*
D35*
G04 #@! TO.N,GND*
X125800000Y-78419998D02*
X125819998Y-78400000D01*
X123430002Y-86250000D02*
X123980002Y-86250000D01*
X118300000Y-57175000D02*
X120215000Y-57175000D01*
X125800000Y-79400000D02*
X125800000Y-78419998D01*
X117750000Y-78050000D02*
X117750000Y-79650000D01*
X115350000Y-68800000D02*
X115225000Y-68925000D01*
X123525000Y-83700000D02*
X124400000Y-83700000D01*
X118300000Y-57175000D02*
X122550000Y-57175000D01*
X117250000Y-82175000D02*
X117250000Y-81900000D01*
X115550000Y-54450000D02*
X115600000Y-54500000D01*
X120725000Y-87925000D02*
X120725000Y-88900000D01*
X123400000Y-67950000D02*
X121900000Y-67950000D01*
X123400000Y-62750000D02*
X121900000Y-62750000D01*
X117275000Y-82200000D02*
X117250000Y-82175000D01*
X121400000Y-95900000D02*
X120425000Y-95900000D01*
D36*
X118550000Y-35637500D02*
X118550000Y-36987500D01*
D35*
X123625000Y-52025000D02*
X123100000Y-51500000D01*
X117750000Y-79650000D02*
X117700000Y-79700000D01*
X121350000Y-87300000D02*
X120725000Y-87925000D01*
X122550000Y-57175000D02*
X122575000Y-57200000D01*
X115380002Y-94930002D02*
X114750000Y-94300000D01*
X122700000Y-85519998D02*
X123430002Y-86250000D01*
X118875000Y-49190000D02*
X120635000Y-49190000D01*
X115380002Y-95900000D02*
X115380002Y-94930002D01*
X125819998Y-78400000D02*
X125819998Y-77694998D01*
X123100000Y-71450000D02*
X121750000Y-72800000D01*
X120425000Y-95900000D02*
X120225000Y-96100000D01*
X125819998Y-77694998D02*
X125525000Y-77400000D01*
X118475000Y-87817730D02*
X118475000Y-88900000D01*
X115550000Y-53400000D02*
X115550000Y-54450000D01*
D36*
X114950000Y-29844975D02*
X114957475Y-29844975D01*
D35*
X123250000Y-71450000D02*
X123100000Y-71450000D01*
X122975000Y-83150000D02*
X123525000Y-83700000D01*
X123625000Y-52800000D02*
X123625000Y-52025000D01*
X120900000Y-47900000D02*
X120700000Y-47700000D01*
X120215000Y-57175000D02*
X120450000Y-56940000D01*
X120900000Y-48925000D02*
X120900000Y-47900000D01*
D36*
X118550000Y-36987500D02*
X118150000Y-37387500D01*
D35*
X117628635Y-86971365D02*
X118475000Y-87817730D01*
X115225000Y-68925000D02*
X113700000Y-68925000D01*
X120635000Y-49190000D02*
X120900000Y-48925000D01*
D36*
X114957475Y-29844975D02*
X116000000Y-30887500D01*
G04 #@! TO.N,/Power/Vin_D*
X116650000Y-35637500D02*
X116650000Y-34974999D01*
X116650000Y-34974999D02*
X117600000Y-34024999D01*
X116287502Y-35999998D02*
X116650000Y-35637500D01*
X116650000Y-37350000D02*
X116400000Y-37600000D01*
X116400000Y-37600000D02*
X116400000Y-39600000D01*
X116650000Y-35637500D02*
X116650000Y-37350000D01*
X114250000Y-35999998D02*
X116287502Y-35999998D01*
X117600000Y-34024999D02*
X117600000Y-33362500D01*
G04 #@! TO.N,Net-(U2-SW)*
X118172316Y-34500000D02*
X119500000Y-34500000D01*
X120750000Y-32375000D02*
X120750000Y-33250000D01*
X117600000Y-35072316D02*
X118172316Y-34500000D01*
X117600000Y-35637500D02*
X117600000Y-35072316D01*
X118400000Y-30025000D02*
X120750000Y-32375000D01*
X119500000Y-34500000D02*
X120750000Y-33250000D01*
G04 #@! TO.N,Net-(U2-VBST)*
X118550000Y-31725000D02*
X118400000Y-31575000D01*
X118550000Y-33362500D02*
X118550000Y-31725000D01*
G04 #@! TO.N,+5V*
X118300000Y-55625000D02*
X120405000Y-55625000D01*
X123962500Y-39637500D02*
X123250000Y-39637500D01*
X117359457Y-30508045D02*
X117000000Y-30867502D01*
X120405000Y-55625000D02*
X120450000Y-55670000D01*
D35*
X109525000Y-36014999D02*
X109525000Y-89225000D01*
X126000000Y-88240001D02*
X126000000Y-87319998D01*
D36*
X123250000Y-34950000D02*
X124950000Y-33250000D01*
X118200000Y-29100000D02*
X117659779Y-29100000D01*
X123105000Y-55670000D02*
X120450000Y-55670000D01*
X123250000Y-39637500D02*
X123250000Y-34950000D01*
X118890000Y-50475000D02*
X118875000Y-50460000D01*
X120900000Y-52200000D02*
X123475000Y-54775000D01*
D35*
X126900000Y-89140001D02*
X126000000Y-88240001D01*
X115125000Y-96675000D02*
X125973300Y-96675000D01*
X109525000Y-89225000D02*
X109800000Y-89500000D01*
X110213299Y-94625000D02*
X113075000Y-94625000D01*
D36*
X117659779Y-29100000D02*
X117359457Y-29400322D01*
D35*
X109525000Y-93936701D02*
X110213299Y-94625000D01*
D36*
X112300000Y-39100000D02*
X112300000Y-36439999D01*
X124400000Y-29100000D02*
X118200000Y-29100000D01*
D35*
X126900000Y-95748300D02*
X126900000Y-89140001D01*
X113075000Y-94625000D02*
X115125000Y-96675000D01*
D36*
X126539999Y-34839999D02*
X124950000Y-33250000D01*
X120900000Y-50475000D02*
X118890000Y-50475000D01*
X124950000Y-33250000D02*
X124950000Y-29650000D01*
X124950000Y-29650000D02*
X124400000Y-29100000D01*
D35*
X109525000Y-89775000D02*
X109525000Y-93936701D01*
D36*
X115600000Y-42400000D02*
X114800000Y-41600000D01*
X120487500Y-42400000D02*
X115600000Y-42400000D01*
D35*
X109800000Y-89500000D02*
X109525000Y-89775000D01*
D36*
X112300000Y-36439999D02*
X110700000Y-34839999D01*
X128700000Y-34839999D02*
X126539999Y-34839999D01*
X123475000Y-55300000D02*
X123105000Y-55670000D01*
X118317316Y-50460000D02*
X118875000Y-50460000D01*
X114800000Y-41600000D02*
X112300000Y-39100000D01*
X117359457Y-29400322D02*
X117359457Y-30508045D01*
X120900000Y-50475000D02*
X120900000Y-52200000D01*
X114800000Y-41600000D02*
X114800000Y-46942684D01*
X114800000Y-46942684D02*
X118317316Y-50460000D01*
X123250000Y-39637500D02*
X120487500Y-42400000D01*
D35*
X110700000Y-34839999D02*
X109525000Y-36014999D01*
D36*
X123475000Y-54775000D02*
X123475000Y-55300000D01*
D35*
X125973300Y-96675000D02*
X126900000Y-95748300D01*
D36*
X124800000Y-38800000D02*
X123962500Y-39637500D01*
D35*
G04 #@! TO.N,+3.3V*
X122550000Y-89850000D02*
X123150000Y-90450000D01*
X114000000Y-54300000D02*
X114100000Y-54400000D01*
X123425000Y-80050000D02*
X122775000Y-80700000D01*
X119900000Y-62925000D02*
X118425000Y-62925000D01*
X115150000Y-72700000D02*
X115500000Y-73050000D01*
X114000000Y-51805000D02*
X113925000Y-51730000D01*
X113700000Y-70800000D02*
X113700000Y-70475000D01*
X118700000Y-80719998D02*
X118700000Y-82075000D01*
X114000000Y-53400000D02*
X114000000Y-54300000D01*
X120102654Y-86387347D02*
X120100000Y-86390001D01*
X124700000Y-81150000D02*
X124400000Y-81450000D01*
X116200000Y-61125000D02*
X116200000Y-59800000D01*
X125175000Y-52800000D02*
X126400000Y-52800000D01*
X122550000Y-89850000D02*
X122275000Y-89575000D01*
X124150000Y-73650000D02*
X123300000Y-72800000D01*
X122775000Y-80700000D02*
X122300000Y-80700000D01*
X113450000Y-71050000D02*
X113700000Y-70800000D01*
X123150000Y-90450000D02*
X123962499Y-90450000D01*
X115837653Y-88412347D02*
X116325306Y-88900000D01*
X114000000Y-53400000D02*
X114000000Y-51805000D01*
X116325306Y-88900000D02*
X116925000Y-88900000D01*
X118700000Y-82075000D02*
X118825000Y-82200000D01*
X115500000Y-73050000D02*
X116300000Y-73050000D01*
X124400000Y-81450000D02*
X124400000Y-82150000D01*
X124150000Y-73700000D02*
X124150000Y-73650000D01*
X125175000Y-52800000D02*
X125175000Y-54175000D01*
X125175000Y-54175000D02*
X125400000Y-54400000D01*
X122275000Y-89575000D02*
X122275000Y-88900000D01*
X118425000Y-62925000D02*
X118400000Y-62900000D01*
G04 #@! TO.N,VDDA*
X121900000Y-65100000D02*
X121900000Y-64300000D01*
X123400000Y-65000000D02*
X123400000Y-64300000D01*
X121125000Y-65875000D02*
X121900000Y-65100000D01*
X123800000Y-65300000D02*
X123400000Y-65700000D01*
X123400000Y-64900000D02*
X123400000Y-64300000D01*
X119900000Y-65875000D02*
X121125000Y-65875000D01*
X121900000Y-66400000D02*
X123400000Y-66400000D01*
X121375000Y-65875000D02*
X121900000Y-66400000D01*
X123100000Y-65300000D02*
X123400000Y-65000000D01*
X123400000Y-65700000D02*
X123400000Y-66400000D01*
X123100000Y-65300000D02*
X123400000Y-65600000D01*
X123800000Y-65300000D02*
X123400000Y-64900000D01*
X119900000Y-65875000D02*
X121375000Y-65875000D01*
X121900000Y-64300000D02*
X123400000Y-64300000D01*
X123400000Y-65600000D02*
X123400000Y-66400000D01*
G04 #@! TO.N,LED*
X117362499Y-86000000D02*
X117470444Y-86000000D01*
X117470444Y-86000000D02*
X118795444Y-87325000D01*
X117362499Y-86000000D02*
X117362499Y-84250000D01*
G04 #@! TO.N,Net-(D2-A)*
X118937501Y-86247500D02*
X118937501Y-86000000D01*
X120100000Y-87409999D02*
X118937501Y-86247500D01*
G04 #@! TO.N,Net-(D3-K)*
X118986328Y-84298827D02*
X118937501Y-84250000D01*
X120125000Y-84298827D02*
X118986328Y-84298827D01*
D36*
G04 #@! TO.N,+12V*
X127340000Y-28400000D02*
X115400000Y-28400000D01*
X114250000Y-29550000D02*
X114250000Y-33500000D01*
X128700000Y-29760000D02*
X127340000Y-28400000D01*
X110700000Y-29760000D02*
X112510000Y-29760000D01*
X112510000Y-29760000D02*
X114250000Y-31500000D01*
X114250000Y-31500000D02*
X114250000Y-33500000D01*
X115400000Y-28400000D02*
X114250000Y-29550000D01*
D35*
G04 #@! TO.N,Net-(J1-Pin_5)*
X122419998Y-95900000D02*
X122419998Y-94630002D01*
X122419998Y-94630002D02*
X122750000Y-94300000D01*
G04 #@! TO.N,Net-(J1-Pin_2)*
X116400000Y-95900000D02*
X116400000Y-94650000D01*
X116400000Y-94650000D02*
X116750000Y-94300000D01*
D37*
G04 #@! TO.N,D+*
X120750000Y-94300000D02*
X120750000Y-92740001D01*
X120750000Y-92740001D02*
X121490001Y-92000000D01*
D35*
G04 #@! TO.N,PC0*
X116553295Y-69351257D02*
X114950000Y-70954552D01*
X114950000Y-71120448D02*
X113750000Y-72320448D01*
X114575000Y-75961827D02*
X114575000Y-78925000D01*
X114950000Y-70954552D02*
X114950000Y-71120448D01*
X113750000Y-72320448D02*
X113750000Y-75136827D01*
X114575000Y-78925000D02*
X112925000Y-78925000D01*
X112925000Y-78925000D02*
X112925000Y-91035001D01*
X112925000Y-91035001D02*
X110700000Y-93260001D01*
X113750000Y-75136827D02*
X114575000Y-75961827D01*
X116800000Y-69351257D02*
X116553295Y-69351257D01*
G04 #@! TO.N,PA0*
X122600000Y-69300000D02*
X122675000Y-69375000D01*
X123025000Y-69725000D02*
X125500000Y-72200000D01*
X123011827Y-69725000D02*
X123025000Y-69725000D01*
X120750000Y-69300000D02*
X122600000Y-69300000D01*
X125500000Y-72200000D02*
X125500000Y-75750000D01*
X122675000Y-69375000D02*
X122675000Y-69388173D01*
X125500000Y-75750000D02*
X124200000Y-77050000D01*
X122675000Y-69388173D02*
X123011827Y-69725000D01*
G04 #@! TO.N,PA1*
X122525431Y-69875000D02*
X122825431Y-70175000D01*
X122838604Y-70175000D02*
X124850000Y-72186396D01*
X124850000Y-72186396D02*
X124850000Y-75200000D01*
X121924201Y-69875000D02*
X122525431Y-69875000D01*
X122825431Y-70175000D02*
X122838604Y-70175000D01*
G04 #@! TO.N,PC2*
X115434920Y-67159522D02*
X113570030Y-67159522D01*
X113570030Y-67159522D02*
X111875000Y-68854552D01*
X111875000Y-87005000D02*
X110700000Y-88180000D01*
X111875000Y-68854552D02*
X111875000Y-87005000D01*
G04 #@! TO.N,PC3*
X119775000Y-67175000D02*
X125352818Y-67175000D01*
X112100000Y-97200000D02*
X110700000Y-95800000D01*
X127325000Y-69147182D02*
X127402819Y-69225001D01*
X130325000Y-70363300D02*
X130325000Y-95925000D01*
X126952818Y-68775000D02*
X126988173Y-68775000D01*
X125352818Y-67175000D02*
X126952818Y-68775000D01*
X127402819Y-69225001D02*
X129186701Y-69225001D01*
X118700000Y-68250000D02*
X119775000Y-67175000D01*
X130325000Y-95925000D02*
X129050000Y-97200000D01*
X126988173Y-68775000D02*
X127325000Y-69111827D01*
X129186701Y-69225001D02*
X130325000Y-70363300D01*
X127325000Y-69111827D02*
X127325000Y-69147182D01*
X129050000Y-97200000D02*
X112100000Y-97200000D01*
G04 #@! TO.N,PC1*
X112475000Y-89625000D02*
X111380001Y-90719999D01*
X115550000Y-67850000D02*
X113515948Y-67850000D01*
X113515948Y-67850000D02*
X112475000Y-68890948D01*
X112475000Y-68890948D02*
X112475000Y-89625000D01*
X111380001Y-90719999D02*
X110700000Y-90719999D01*
G04 #@! TO.N,SPI3_MOSI*
X112100000Y-62600000D02*
X112100000Y-59099999D01*
X115376633Y-65876633D02*
X112100000Y-62600000D01*
X112100000Y-59099999D02*
X110700000Y-57699999D01*
X115376633Y-65881236D02*
X115376633Y-65876633D01*
G04 #@! TO.N,CANH3*
X113925000Y-49190000D02*
X112349999Y-49190000D01*
X112349999Y-49190000D02*
X110700000Y-47540001D01*
G04 #@! TO.N,CANL3*
X113925000Y-50460000D02*
X111080000Y-50460000D01*
X111080000Y-50460000D02*
X110700000Y-50080000D01*
G04 #@! TO.N,SPI3_SCK*
X115363173Y-64350000D02*
X115363173Y-64013173D01*
X115363173Y-64013173D02*
X113000000Y-61650000D01*
X113000000Y-54920000D02*
X110700000Y-52620000D01*
X113000000Y-61650000D02*
X113000000Y-54920000D01*
G04 #@! TO.N,SPI3_MISO*
X112550000Y-57010000D02*
X110700000Y-55160000D01*
X115321382Y-65121382D02*
X112550000Y-62350000D01*
X112550000Y-62350000D02*
X112550000Y-57010000D01*
X115434556Y-65121382D02*
X115321382Y-65121382D01*
G04 #@! TO.N,PC4*
X127525000Y-74305000D02*
X128700000Y-75480000D01*
X127525000Y-71975000D02*
X127525000Y-74305000D01*
X123250000Y-69150000D02*
X123350000Y-69250000D01*
X124800000Y-69250000D02*
X127525000Y-71975000D01*
X123350000Y-69250000D02*
X124800000Y-69250000D01*
G04 #@! TO.N,SPI1_MISO*
X128213299Y-71765000D02*
X129186701Y-71765000D01*
X129875000Y-76845000D02*
X128700000Y-78020000D01*
X126750000Y-70301701D02*
X128213299Y-71765000D01*
X129186701Y-71765000D02*
X129875000Y-72453299D01*
X126750000Y-69350000D02*
X126750000Y-70301701D01*
X129875000Y-72453299D02*
X129875000Y-76845000D01*
G04 #@! TO.N,SPI1_MOSI*
X127000000Y-77100000D02*
X127000000Y-78605722D01*
X126725000Y-72575000D02*
X126725000Y-76825000D01*
X124000000Y-69850000D02*
X126725000Y-72575000D01*
X128700000Y-80305722D02*
X128700000Y-80559999D01*
X127000000Y-78605722D02*
X128700000Y-80305722D01*
X126725000Y-76825000D02*
X127000000Y-77100000D01*
G04 #@! TO.N,CANH2*
X125400000Y-56940000D02*
X127940001Y-56940000D01*
X127940001Y-56940000D02*
X128700000Y-57699999D01*
G04 #@! TO.N,CANL2*
X125400000Y-55670000D02*
X128190000Y-55670000D01*
X128190000Y-55670000D02*
X128700000Y-55160000D01*
G04 #@! TO.N,Net-(Q1-B)*
X125009999Y-86259999D02*
X125000000Y-86250000D01*
X125050000Y-86300000D02*
X125000000Y-86250000D01*
X126000000Y-86300000D02*
X125050000Y-86300000D01*
X125837500Y-89500000D02*
X125837500Y-89097499D01*
X124990001Y-87269998D02*
X125009999Y-87250000D01*
X124990001Y-88250000D02*
X124990001Y-87269998D01*
X125837500Y-89097499D02*
X124990001Y-88250000D01*
X125009999Y-87250000D02*
X125009999Y-86259999D01*
G04 #@! TO.N,Net-(Q1-E)*
X122509999Y-92000000D02*
X125237500Y-92000000D01*
X125237500Y-92000000D02*
X125837500Y-91400000D01*
D36*
G04 #@! TO.N,Net-(U2-VFB)*
X116000000Y-31907500D02*
X116320000Y-31907500D01*
X116650000Y-32237500D02*
X116650000Y-33362500D01*
X116320000Y-31907500D02*
X116650000Y-32237500D01*
X117000000Y-31887500D02*
X116650000Y-32237500D01*
D35*
G04 #@! TO.N,Net-(U5-PA0)*
X116700000Y-79400000D02*
X116700000Y-79719998D01*
X118700000Y-79719998D02*
X117700000Y-80719998D01*
X118700000Y-79700000D02*
X118700000Y-79719998D01*
X116700000Y-79719998D02*
X117700000Y-80719998D01*
G04 #@! TO.N,Net-(U5-PC13)*
X124780002Y-79827234D02*
X124780002Y-79400000D01*
X124013376Y-80593860D02*
X124780002Y-79827234D01*
G04 #@! TO.N,Net-(U5-PC14)*
X122665948Y-79075000D02*
X124125000Y-79075000D01*
X121108882Y-80632066D02*
X122665948Y-79075000D01*
X124125000Y-79075000D02*
X124800000Y-78400000D01*
X121108882Y-81783882D02*
X121108882Y-80632066D01*
G04 #@! TO.N,B0*
X116850000Y-77450000D02*
X119500000Y-77450000D01*
X115450000Y-80150000D02*
X114150000Y-80150000D01*
X120525000Y-82799694D02*
X121862653Y-84137347D01*
X114150000Y-80150000D02*
X113750000Y-79750000D01*
X122337347Y-84137347D02*
X122700000Y-84500000D01*
X119500000Y-77450000D02*
X120525000Y-78475000D01*
X121862653Y-84137347D02*
X122337347Y-84137347D01*
X120525000Y-78475000D02*
X120525000Y-82799694D01*
G04 #@! TO.N,T_DIO*
X113300000Y-72134052D02*
X114500000Y-70934052D01*
X113800000Y-76000000D02*
X113300000Y-75500000D01*
X114500000Y-70724695D02*
X117350000Y-67874695D01*
X114500000Y-70934052D02*
X114500000Y-70724695D01*
X117350000Y-67874695D02*
X117350000Y-64950000D01*
X117350000Y-64950000D02*
X117200000Y-64800000D01*
X113300000Y-75500000D02*
X113300000Y-72134052D01*
G04 #@! TO.N,RENUM*
X123350000Y-87250000D02*
X123990001Y-87250000D01*
X122850000Y-86750000D02*
X123350000Y-87250000D01*
G04 #@! TO.N,DIO*
X114575000Y-84575000D02*
X113750000Y-83750000D01*
X116950000Y-90550000D02*
X114575000Y-88175000D01*
X121850000Y-90300000D02*
X121600000Y-90550000D01*
X114575000Y-88175000D02*
X114575000Y-84575000D01*
X121600000Y-90550000D02*
X116950000Y-90550000D01*
G04 #@! TO.N,CLK*
X117700000Y-88415948D02*
X115575000Y-86290948D01*
X122215948Y-87700000D02*
X121500000Y-88415948D01*
X121500000Y-89384052D02*
X121184052Y-89700000D01*
X117700000Y-89384052D02*
X117700000Y-88415948D01*
X123950000Y-88200000D02*
X123450000Y-87700000D01*
X118015948Y-89700000D02*
X117700000Y-89384052D01*
X115575000Y-83575000D02*
X113750000Y-81750000D01*
X121184052Y-89700000D02*
X118015948Y-89700000D01*
X121500000Y-88415948D02*
X121500000Y-89384052D01*
X115575000Y-86290948D02*
X115575000Y-83575000D01*
X123450000Y-87700000D02*
X122215948Y-87700000D01*
G04 #@! TO.N,CTXD2*
X121440000Y-59200000D02*
X120450000Y-58210000D01*
X122575000Y-59200000D02*
X121440000Y-59200000D01*
G04 #@! TO.N,T_CLK*
X115815948Y-70725000D02*
X116325000Y-70725000D01*
X114500000Y-75235039D02*
X114500000Y-72206844D01*
X115144011Y-75879050D02*
X114500000Y-75235039D01*
X116325000Y-70725000D02*
X117900000Y-69150000D01*
X117324259Y-63900000D02*
X115926926Y-63900000D01*
X115400000Y-71140948D02*
X115815948Y-70725000D01*
X114500000Y-72206844D02*
X115400000Y-71306844D01*
X115400000Y-71306844D02*
X115400000Y-71140948D01*
X117900000Y-69150000D02*
X117900000Y-64475741D01*
X117900000Y-64475741D02*
X117324259Y-63900000D01*
G04 #@! TO.N,CTXD3*
X117400000Y-48500000D02*
X117400000Y-48420001D01*
X117400000Y-48420001D02*
X117900001Y-47920000D01*
X117900001Y-47920000D02*
X118875000Y-47920000D01*
G04 #@! TO.N,CRXD3*
X117625003Y-53100000D02*
X117625003Y-52979997D01*
X117625003Y-52979997D02*
X118875000Y-51730000D01*
G04 #@! TO.N,CRXD2*
X120950000Y-54900000D02*
X120450000Y-54400000D01*
X122600000Y-54900000D02*
X120950000Y-54900000D01*
G04 #@! TO.N,T_RST*
X116500000Y-75636827D02*
X116500000Y-74109052D01*
X117500000Y-73109052D02*
X117500000Y-71400000D01*
X116025000Y-82209052D02*
X116025000Y-77461827D01*
X117015948Y-83200000D02*
X116025000Y-82209052D01*
X117100000Y-83200000D02*
X117015948Y-83200000D01*
X116625000Y-75761827D02*
X116500000Y-75636827D01*
X116500000Y-74109052D02*
X117500000Y-73109052D01*
X116625000Y-76861827D02*
X116625000Y-75761827D01*
X116025000Y-77461827D02*
X116625000Y-76861827D01*
G04 #@! TD*
G04 #@! TA.AperFunction,NonConductor*
G36*
X116559891Y-29170185D02*
G01*
X116605646Y-29222989D01*
X116615590Y-29292147D01*
X116614469Y-29298692D01*
X116608957Y-29326401D01*
X116608957Y-30045310D01*
X116589272Y-30112349D01*
X116548075Y-30152044D01*
X116544184Y-30154345D01*
X116476460Y-30171525D01*
X116446471Y-30166687D01*
X116327756Y-30132197D01*
X116274670Y-30100802D01*
X115605298Y-29431430D01*
X115571813Y-29370107D01*
X115576797Y-29300415D01*
X115605295Y-29256071D01*
X115674549Y-29186817D01*
X115735872Y-29153334D01*
X115762229Y-29150500D01*
X116492852Y-29150500D01*
X116559891Y-29170185D01*
G37*
G04 #@! TD.AperFunction*
G04 #@! TA.AperFunction,NonConductor*
G36*
X112260604Y-30571999D02*
G01*
X112262179Y-30573547D01*
X113463181Y-31774548D01*
X113496666Y-31835871D01*
X113499500Y-31862229D01*
X113499500Y-32637770D01*
X113479815Y-32704809D01*
X113463098Y-32725533D01*
X113462681Y-32725951D01*
X113462593Y-32726039D01*
X113401236Y-32759462D01*
X113331549Y-32754408D01*
X113287318Y-32725951D01*
X113270890Y-32709523D01*
X113270884Y-32709518D01*
X113127697Y-32619547D01*
X113127694Y-32619545D01*
X112968056Y-32563685D01*
X112800003Y-32544751D01*
X112799997Y-32544751D01*
X112631943Y-32563685D01*
X112472305Y-32619545D01*
X112472302Y-32619547D01*
X112329115Y-32709518D01*
X112329109Y-32709523D01*
X112209523Y-32829109D01*
X112209518Y-32829116D01*
X112205837Y-32834974D01*
X112153500Y-32881262D01*
X112084446Y-32891905D01*
X112020599Y-32863526D01*
X111982231Y-32805134D01*
X111981073Y-32736903D01*
X112035063Y-32535408D01*
X112055659Y-32300000D01*
X112035063Y-32064592D01*
X111973903Y-31836337D01*
X111874035Y-31622171D01*
X111738495Y-31428599D01*
X111616567Y-31306671D01*
X111583084Y-31245351D01*
X111588068Y-31175659D01*
X111629939Y-31119725D01*
X111660915Y-31102810D01*
X111792331Y-31053796D01*
X111907546Y-30967546D01*
X111993796Y-30852331D01*
X112044091Y-30717483D01*
X112050500Y-30657873D01*
X112050500Y-30657861D01*
X112050676Y-30654586D01*
X112073923Y-30588697D01*
X112129103Y-30545836D01*
X112198694Y-30539612D01*
X112260604Y-30571999D01*
G37*
G04 #@! TD.AperFunction*
G04 #@! TA.AperFunction,NonConductor*
G36*
X127044809Y-29170185D02*
G01*
X127065451Y-29186819D01*
X127313181Y-29434548D01*
X127346666Y-29495871D01*
X127349500Y-29522229D01*
X127349500Y-30657870D01*
X127349501Y-30657876D01*
X127355908Y-30717483D01*
X127406202Y-30852328D01*
X127406206Y-30852335D01*
X127492452Y-30967544D01*
X127492455Y-30967547D01*
X127607664Y-31053793D01*
X127607671Y-31053797D01*
X127739081Y-31102810D01*
X127795015Y-31144681D01*
X127819432Y-31210145D01*
X127804580Y-31278418D01*
X127783430Y-31306673D01*
X127661503Y-31428600D01*
X127525965Y-31622169D01*
X127525964Y-31622171D01*
X127426098Y-31836335D01*
X127426094Y-31836344D01*
X127364938Y-32064586D01*
X127364936Y-32064596D01*
X127344341Y-32299999D01*
X127344341Y-32300000D01*
X127364936Y-32535403D01*
X127364938Y-32535413D01*
X127426094Y-32763655D01*
X127426096Y-32763659D01*
X127426097Y-32763663D01*
X127503971Y-32930663D01*
X127525965Y-32977830D01*
X127525967Y-32977834D01*
X127554464Y-33018531D01*
X127661505Y-33171401D01*
X127828599Y-33338495D01*
X128013635Y-33468059D01*
X128014157Y-33468424D01*
X128057782Y-33523001D01*
X128064976Y-33592499D01*
X128033453Y-33654854D01*
X128014158Y-33671574D01*
X127828594Y-33801507D01*
X127661506Y-33968595D01*
X127613874Y-34036622D01*
X127559297Y-34080247D01*
X127512299Y-34089499D01*
X126902228Y-34089499D01*
X126835189Y-34069814D01*
X126814547Y-34053180D01*
X126686818Y-33925451D01*
X126653333Y-33864128D01*
X126650499Y-33837770D01*
X126650499Y-30352129D01*
X126650498Y-30352123D01*
X126650497Y-30352116D01*
X126644091Y-30292517D01*
X126606031Y-30190474D01*
X126593797Y-30157671D01*
X126593793Y-30157664D01*
X126507547Y-30042455D01*
X126507544Y-30042452D01*
X126392335Y-29956206D01*
X126392328Y-29956202D01*
X126257482Y-29905908D01*
X126257483Y-29905908D01*
X126197883Y-29899501D01*
X126197881Y-29899500D01*
X126197873Y-29899500D01*
X126197865Y-29899500D01*
X125824500Y-29899500D01*
X125757461Y-29879815D01*
X125711706Y-29827011D01*
X125700500Y-29775500D01*
X125700500Y-29576079D01*
X125671659Y-29431092D01*
X125671658Y-29431091D01*
X125671658Y-29431087D01*
X125626452Y-29321951D01*
X125618984Y-29252483D01*
X125650259Y-29190004D01*
X125710348Y-29154352D01*
X125741014Y-29150500D01*
X126977770Y-29150500D01*
X127044809Y-29170185D01*
G37*
G04 #@! TD.AperFunction*
G04 #@! TA.AperFunction,NonConductor*
G36*
X112031966Y-32999235D02*
G01*
X112067380Y-33059465D01*
X112064777Y-33125046D01*
X112065236Y-33125151D01*
X112064675Y-33127607D01*
X112064609Y-33129279D01*
X112064153Y-33130608D01*
X112063686Y-33131942D01*
X112044751Y-33299997D01*
X112044751Y-33300002D01*
X112063686Y-33468058D01*
X112095523Y-33559047D01*
X112099084Y-33628826D01*
X112095523Y-33640953D01*
X112063686Y-33731941D01*
X112044751Y-33899997D01*
X112044751Y-33900003D01*
X112058169Y-34019093D01*
X112046115Y-34087914D01*
X111998765Y-34139294D01*
X111931155Y-34156918D01*
X111864749Y-34135191D01*
X111833374Y-34104099D01*
X111738494Y-33968596D01*
X111571402Y-33801505D01*
X111571401Y-33801504D01*
X111385842Y-33671574D01*
X111342218Y-33616997D01*
X111335025Y-33547498D01*
X111366547Y-33485144D01*
X111385843Y-33468424D01*
X111571401Y-33338495D01*
X111738495Y-33171401D01*
X111845536Y-33018531D01*
X111900113Y-32974906D01*
X111969611Y-32967712D01*
X112031966Y-32999235D01*
G37*
G04 #@! TD.AperFunction*
G04 #@! TA.AperFunction,NonConductor*
G36*
X123355468Y-29870185D02*
G01*
X123401223Y-29922989D01*
X123411167Y-29992147D01*
X123387695Y-30048811D01*
X123306206Y-30157664D01*
X123306202Y-30157671D01*
X123255908Y-30292517D01*
X123249501Y-30352116D01*
X123249501Y-30352123D01*
X123249500Y-30352135D01*
X123249500Y-33837769D01*
X123229815Y-33904808D01*
X123213181Y-33925450D01*
X122662740Y-34475892D01*
X122660883Y-34474035D01*
X122612491Y-34506929D01*
X122542644Y-34508731D01*
X122482912Y-34472485D01*
X122452257Y-34409699D01*
X122450499Y-34388900D01*
X122450499Y-30352128D01*
X122444091Y-30292517D01*
X122406031Y-30190474D01*
X122393797Y-30157671D01*
X122393793Y-30157664D01*
X122312305Y-30048811D01*
X122287887Y-29983347D01*
X122302738Y-29915074D01*
X122352143Y-29865668D01*
X122411571Y-29850500D01*
X123288429Y-29850500D01*
X123355468Y-29870185D01*
G37*
G04 #@! TD.AperFunction*
G04 #@! TA.AperFunction,NonConductor*
G36*
X115205703Y-32273235D02*
G01*
X115231232Y-32303827D01*
X115308863Y-32435095D01*
X115308869Y-32435103D01*
X115422396Y-32548630D01*
X115422400Y-32548633D01*
X115422402Y-32548635D01*
X115560607Y-32630369D01*
X115601268Y-32642182D01*
X115714791Y-32675164D01*
X115714794Y-32675164D01*
X115714796Y-32675165D01*
X115733487Y-32676636D01*
X115735228Y-32676773D01*
X115800517Y-32701656D01*
X115841988Y-32757887D01*
X115849500Y-32800391D01*
X115849500Y-33940701D01*
X115852401Y-33977567D01*
X115852402Y-33977573D01*
X115898254Y-34135393D01*
X115898255Y-34135396D01*
X115898256Y-34135398D01*
X115981919Y-34276865D01*
X116048999Y-34343945D01*
X116082483Y-34405266D01*
X116077499Y-34474958D01*
X116064421Y-34500513D01*
X116031025Y-34550497D01*
X116031023Y-34550500D01*
X115984919Y-34619498D01*
X115984912Y-34619510D01*
X115928342Y-34756083D01*
X115928340Y-34756091D01*
X115915188Y-34822211D01*
X115900304Y-34861138D01*
X115898258Y-34864596D01*
X115898254Y-34864607D01*
X115852402Y-35022426D01*
X115852401Y-35022432D01*
X115849500Y-35059298D01*
X115849500Y-35125498D01*
X115829815Y-35192537D01*
X115777011Y-35238292D01*
X115725500Y-35249498D01*
X115112230Y-35249498D01*
X115045191Y-35229813D01*
X115024549Y-35213179D01*
X114968657Y-35157287D01*
X114968656Y-35157286D01*
X114875780Y-35100000D01*
X114819336Y-35065185D01*
X114819331Y-35065183D01*
X114801571Y-35059298D01*
X114652797Y-35009999D01*
X114652795Y-35009998D01*
X114550010Y-34999498D01*
X113949998Y-34999498D01*
X113949980Y-34999499D01*
X113847203Y-35009998D01*
X113847200Y-35009999D01*
X113701090Y-35058416D01*
X113631262Y-35060818D01*
X113571220Y-35025086D01*
X113540027Y-34962566D01*
X113538866Y-34954593D01*
X113536313Y-34931941D01*
X113536313Y-34931939D01*
X113504476Y-34840955D01*
X113500914Y-34771176D01*
X113504476Y-34759045D01*
X113536313Y-34668060D01*
X113536313Y-34668058D01*
X113549728Y-34549003D01*
X113576794Y-34484589D01*
X113634389Y-34445033D01*
X113704226Y-34442896D01*
X113711910Y-34445167D01*
X113847203Y-34489999D01*
X113949991Y-34500500D01*
X114550008Y-34500499D01*
X114550016Y-34500498D01*
X114550019Y-34500498D01*
X114606302Y-34494748D01*
X114652797Y-34489999D01*
X114819334Y-34434814D01*
X114968656Y-34342712D01*
X115092712Y-34218656D01*
X115184814Y-34069334D01*
X115239999Y-33902797D01*
X115250500Y-33800009D01*
X115250499Y-33199992D01*
X115247578Y-33171401D01*
X115239999Y-33097203D01*
X115239998Y-33097200D01*
X115227494Y-33059465D01*
X115184814Y-32930666D01*
X115092712Y-32781344D01*
X115036819Y-32725451D01*
X115003334Y-32664128D01*
X115000500Y-32637770D01*
X115000500Y-32366948D01*
X115020185Y-32299909D01*
X115072989Y-32254154D01*
X115142147Y-32244210D01*
X115205703Y-32273235D01*
G37*
G04 #@! TD.AperFunction*
G04 #@! TA.AperFunction,NonConductor*
G36*
X114682679Y-27756733D02*
G01*
X114749694Y-27776494D01*
X114795389Y-27829350D01*
X114805254Y-27898519D01*
X114776157Y-27962042D01*
X114770217Y-27968414D01*
X113667049Y-29071581D01*
X113667048Y-29071583D01*
X113651460Y-29094913D01*
X113632482Y-29123317D01*
X113611745Y-29154352D01*
X113584914Y-29194507D01*
X113528343Y-29331082D01*
X113528340Y-29331091D01*
X113509576Y-29425422D01*
X113477190Y-29487333D01*
X113416474Y-29521906D01*
X113346704Y-29518165D01*
X113300278Y-29488910D01*
X112988421Y-29177052D01*
X112988420Y-29177051D01*
X112980238Y-29171584D01*
X112886067Y-29108662D01*
X112865495Y-29094916D01*
X112865491Y-29094914D01*
X112865489Y-29094913D01*
X112728917Y-29038343D01*
X112728907Y-29038340D01*
X112583920Y-29009500D01*
X112583918Y-29009500D01*
X112174499Y-29009500D01*
X112107460Y-28989815D01*
X112061705Y-28937011D01*
X112050499Y-28885500D01*
X112050499Y-28862129D01*
X112050498Y-28862123D01*
X112050497Y-28862116D01*
X112044091Y-28802517D01*
X111993796Y-28667669D01*
X111993795Y-28667668D01*
X111993793Y-28667664D01*
X111907547Y-28552455D01*
X111907544Y-28552452D01*
X111792335Y-28466206D01*
X111792328Y-28466202D01*
X111657482Y-28415908D01*
X111657483Y-28415908D01*
X111597883Y-28409501D01*
X111597881Y-28409500D01*
X111597873Y-28409500D01*
X111597864Y-28409500D01*
X109802129Y-28409500D01*
X109802123Y-28409501D01*
X109742516Y-28415908D01*
X109607671Y-28466202D01*
X109607664Y-28466206D01*
X109492455Y-28552452D01*
X109492452Y-28552455D01*
X109406206Y-28667664D01*
X109406202Y-28667671D01*
X109355908Y-28802517D01*
X109349501Y-28862116D01*
X109349501Y-28862123D01*
X109349500Y-28862135D01*
X109349500Y-30657870D01*
X109349501Y-30657876D01*
X109355908Y-30717483D01*
X109406202Y-30852328D01*
X109406206Y-30852335D01*
X109492452Y-30967544D01*
X109492455Y-30967547D01*
X109607664Y-31053793D01*
X109607671Y-31053797D01*
X109739081Y-31102810D01*
X109795015Y-31144681D01*
X109819432Y-31210145D01*
X109804580Y-31278418D01*
X109783430Y-31306673D01*
X109661503Y-31428600D01*
X109525965Y-31622169D01*
X109525964Y-31622171D01*
X109426098Y-31836335D01*
X109426094Y-31836344D01*
X109364938Y-32064586D01*
X109364936Y-32064596D01*
X109344341Y-32299999D01*
X109344341Y-32300000D01*
X109364936Y-32535403D01*
X109364938Y-32535413D01*
X109426094Y-32763655D01*
X109426096Y-32763659D01*
X109426097Y-32763663D01*
X109503971Y-32930663D01*
X109525965Y-32977830D01*
X109525967Y-32977834D01*
X109554464Y-33018531D01*
X109661505Y-33171401D01*
X109828599Y-33338495D01*
X110013635Y-33468059D01*
X110014157Y-33468424D01*
X110057782Y-33523001D01*
X110064976Y-33592499D01*
X110033453Y-33654854D01*
X110014158Y-33671574D01*
X109828594Y-33801507D01*
X109661505Y-33968596D01*
X109525965Y-34162168D01*
X109525964Y-34162170D01*
X109426098Y-34376334D01*
X109426094Y-34376343D01*
X109364938Y-34604585D01*
X109364936Y-34604595D01*
X109344341Y-34839998D01*
X109344341Y-34839999D01*
X109364936Y-35075402D01*
X109364938Y-35075412D01*
X109391856Y-35175871D01*
X109390193Y-35245721D01*
X109359762Y-35295645D01*
X109137579Y-35517829D01*
X109126270Y-35529138D01*
X109126267Y-35529141D01*
X109082704Y-35572703D01*
X109039142Y-35616265D01*
X109020275Y-35644503D01*
X108977100Y-35709116D01*
X108923489Y-35753919D01*
X108854164Y-35762626D01*
X108791137Y-35732471D01*
X108754418Y-35673027D01*
X108750000Y-35640223D01*
X108750000Y-27874140D01*
X108769685Y-27807101D01*
X108822489Y-27761346D01*
X108874136Y-27750140D01*
X114682679Y-27756733D01*
G37*
G04 #@! TD.AperFunction*
G04 #@! TA.AperFunction,NonConductor*
G36*
X127579338Y-35610184D02*
G01*
X127613873Y-35643375D01*
X127661505Y-35711400D01*
X127828597Y-35878492D01*
X127828603Y-35878497D01*
X128014158Y-36008424D01*
X128057783Y-36063001D01*
X128064977Y-36132499D01*
X128033454Y-36194854D01*
X128014159Y-36211574D01*
X127828594Y-36341508D01*
X127661505Y-36508597D01*
X127525965Y-36702169D01*
X127525964Y-36702171D01*
X127426098Y-36916335D01*
X127426094Y-36916344D01*
X127398409Y-37019670D01*
X127362044Y-37079331D01*
X127299197Y-37109860D01*
X127229822Y-37101565D01*
X127175944Y-37057080D01*
X127155414Y-37001461D01*
X127136314Y-36831943D01*
X127104893Y-36742146D01*
X127080456Y-36672310D01*
X127080455Y-36672309D01*
X127080454Y-36672305D01*
X127080452Y-36672302D01*
X126990481Y-36529115D01*
X126990476Y-36529109D01*
X126870890Y-36409523D01*
X126870884Y-36409518D01*
X126727699Y-36319548D01*
X126721422Y-36316526D01*
X126722038Y-36315246D01*
X126671579Y-36279050D01*
X126645836Y-36214096D01*
X126646025Y-36189486D01*
X126650500Y-36147873D01*
X126650500Y-35714499D01*
X126670185Y-35647460D01*
X126722989Y-35601705D01*
X126774500Y-35590499D01*
X127512299Y-35590499D01*
X127579338Y-35610184D01*
G37*
G04 #@! TD.AperFunction*
G04 #@! TA.AperFunction,NonConductor*
G36*
X125636949Y-36620184D02*
G01*
X125682704Y-36672988D01*
X125692648Y-36742146D01*
X125686951Y-36765454D01*
X125663686Y-36831938D01*
X125663686Y-36831940D01*
X125646529Y-36984210D01*
X125619462Y-37048624D01*
X125564264Y-37087367D01*
X125472313Y-37119542D01*
X125472302Y-37119547D01*
X125329115Y-37209518D01*
X125329109Y-37209523D01*
X125209523Y-37329109D01*
X125209518Y-37329115D01*
X125119547Y-37472302D01*
X125119545Y-37472305D01*
X125063685Y-37631943D01*
X125044751Y-37799997D01*
X125044751Y-37800003D01*
X125058419Y-37921316D01*
X125046364Y-37990138D01*
X124999015Y-38041517D01*
X124931405Y-38059141D01*
X124921408Y-38058430D01*
X124921166Y-38058402D01*
X124920702Y-38058350D01*
X124910312Y-38056739D01*
X124910302Y-38056737D01*
X124873918Y-38049500D01*
X124873917Y-38049500D01*
X124849110Y-38049500D01*
X124835226Y-38048720D01*
X124800002Y-38044751D01*
X124799998Y-38044751D01*
X124764774Y-38048720D01*
X124750890Y-38049500D01*
X124726079Y-38049500D01*
X124689698Y-38056737D01*
X124679391Y-38058340D01*
X124631946Y-38063685D01*
X124631935Y-38063688D01*
X124610084Y-38071333D01*
X124593336Y-38075905D01*
X124581087Y-38078342D01*
X124581086Y-38078342D01*
X124535478Y-38097233D01*
X124528984Y-38099712D01*
X124472309Y-38119543D01*
X124463154Y-38125296D01*
X124444651Y-38134856D01*
X124444508Y-38134914D01*
X124444504Y-38134917D01*
X124393387Y-38169071D01*
X124326709Y-38189947D01*
X124259330Y-38171461D01*
X124212641Y-38119481D01*
X124200499Y-38065971D01*
X124200499Y-37112492D01*
X124197932Y-37087367D01*
X124189999Y-37009703D01*
X124189998Y-37009700D01*
X124181551Y-36984210D01*
X124134814Y-36843166D01*
X124134810Y-36843160D01*
X124134809Y-36843157D01*
X124101772Y-36789596D01*
X124083331Y-36722204D01*
X124104253Y-36655540D01*
X124157895Y-36610770D01*
X124207310Y-36600499D01*
X125569910Y-36600499D01*
X125636949Y-36620184D01*
G37*
G04 #@! TD.AperFunction*
G04 #@! TA.AperFunction,NonConductor*
G36*
X112202790Y-40076719D02*
G01*
X112241659Y-40103027D01*
X112482058Y-40343426D01*
X112515543Y-40404749D01*
X112510559Y-40474441D01*
X112488089Y-40512310D01*
X112394435Y-40620390D01*
X112394430Y-40620398D01*
X112334664Y-40751264D01*
X112314976Y-40818312D01*
X112309009Y-40859814D01*
X112294500Y-40960730D01*
X112294500Y-41676000D01*
X112294501Y-41676009D01*
X112306052Y-41783450D01*
X112306054Y-41783462D01*
X112317260Y-41834972D01*
X112351383Y-41937497D01*
X112351386Y-41937503D01*
X112429171Y-42058537D01*
X112429179Y-42058548D01*
X112474923Y-42111340D01*
X112474926Y-42111343D01*
X112474930Y-42111347D01*
X112583664Y-42205567D01*
X112583667Y-42205568D01*
X112583668Y-42205569D01*
X112678536Y-42248895D01*
X112714541Y-42265338D01*
X112781580Y-42285023D01*
X112781584Y-42285024D01*
X112924000Y-42305500D01*
X112924003Y-42305500D01*
X113639289Y-42305500D01*
X113657271Y-42305179D01*
X113657281Y-42305178D01*
X113657316Y-42305178D01*
X113666162Y-42304862D01*
X113684179Y-42303896D01*
X113824771Y-42273312D01*
X113882167Y-42251903D01*
X113951858Y-42246920D01*
X114013181Y-42280405D01*
X114046666Y-42341728D01*
X114049500Y-42368086D01*
X114049500Y-46995500D01*
X114029815Y-47062539D01*
X113977011Y-47108294D01*
X113925500Y-47119500D01*
X113034298Y-47119500D01*
X112997432Y-47122401D01*
X112997426Y-47122402D01*
X112839606Y-47168254D01*
X112839603Y-47168255D01*
X112698137Y-47251917D01*
X112698129Y-47251923D01*
X112581923Y-47368129D01*
X112581917Y-47368137D01*
X112498255Y-47509603D01*
X112498254Y-47509606D01*
X112452402Y-47667426D01*
X112452401Y-47667432D01*
X112449500Y-47704298D01*
X112449500Y-48105549D01*
X112429815Y-48172588D01*
X112377011Y-48218343D01*
X112307853Y-48228287D01*
X112244297Y-48199262D01*
X112237819Y-48193230D01*
X112040237Y-47995648D01*
X112006752Y-47934325D01*
X112008143Y-47875873D01*
X112018185Y-47838396D01*
X112035063Y-47775409D01*
X112055659Y-47540001D01*
X112035063Y-47304593D01*
X111982793Y-47109518D01*
X111973905Y-47076345D01*
X111973904Y-47076344D01*
X111973903Y-47076338D01*
X111874035Y-46862172D01*
X111738495Y-46668600D01*
X111738494Y-46668598D01*
X111571402Y-46501507D01*
X111571401Y-46501506D01*
X111385840Y-46371575D01*
X111342216Y-46316998D01*
X111335023Y-46247499D01*
X111366545Y-46185145D01*
X111385837Y-46168428D01*
X111571401Y-46038495D01*
X111738495Y-45871401D01*
X111874035Y-45677830D01*
X111973903Y-45463663D01*
X112035063Y-45235408D01*
X112055659Y-45000000D01*
X112035063Y-44764592D01*
X111973903Y-44536337D01*
X111874035Y-44322171D01*
X111738495Y-44128599D01*
X111738494Y-44128597D01*
X111571402Y-43961506D01*
X111571396Y-43961501D01*
X111385842Y-43831575D01*
X111342217Y-43776998D01*
X111335023Y-43707500D01*
X111366546Y-43645145D01*
X111385842Y-43628425D01*
X111408026Y-43612891D01*
X111571401Y-43498495D01*
X111738495Y-43331401D01*
X111874035Y-43137830D01*
X111973903Y-42923663D01*
X112035063Y-42695408D01*
X112055659Y-42460000D01*
X112035063Y-42224592D01*
X111973903Y-41996337D01*
X111874035Y-41782171D01*
X111738495Y-41588599D01*
X111738494Y-41588597D01*
X111571402Y-41421506D01*
X111571396Y-41421501D01*
X111385842Y-41291575D01*
X111342217Y-41236998D01*
X111335023Y-41167500D01*
X111366546Y-41105145D01*
X111385842Y-41088425D01*
X111566655Y-40961818D01*
X111571401Y-40958495D01*
X111738495Y-40791401D01*
X111874035Y-40597830D01*
X111973903Y-40383663D01*
X112034204Y-40158612D01*
X112070567Y-40098955D01*
X112133414Y-40068425D01*
X112202790Y-40076719D01*
G37*
G04 #@! TD.AperFunction*
G04 #@! TA.AperFunction,NonConductor*
G36*
X127285844Y-37169594D02*
G01*
X127336247Y-37217981D01*
X127352489Y-37285937D01*
X127352178Y-37290424D01*
X127344341Y-37379999D01*
X127344341Y-37380000D01*
X127364936Y-37615403D01*
X127364938Y-37615413D01*
X127426094Y-37843655D01*
X127426096Y-37843659D01*
X127426097Y-37843663D01*
X127484102Y-37968055D01*
X127525965Y-38057830D01*
X127525967Y-38057834D01*
X127661501Y-38251395D01*
X127661506Y-38251402D01*
X127828597Y-38418493D01*
X127828603Y-38418498D01*
X128014158Y-38548425D01*
X128057783Y-38603002D01*
X128064977Y-38672500D01*
X128033454Y-38734855D01*
X128014158Y-38751575D01*
X127828597Y-38881505D01*
X127661505Y-39048597D01*
X127525965Y-39242169D01*
X127525964Y-39242171D01*
X127426098Y-39456335D01*
X127426094Y-39456344D01*
X127364938Y-39684586D01*
X127364936Y-39684596D01*
X127344341Y-39919999D01*
X127344341Y-39920000D01*
X127364936Y-40155403D01*
X127364938Y-40155413D01*
X127426094Y-40383655D01*
X127426096Y-40383659D01*
X127426097Y-40383663D01*
X127468428Y-40474441D01*
X127525965Y-40597830D01*
X127525967Y-40597834D01*
X127661501Y-40791395D01*
X127661506Y-40791402D01*
X127828597Y-40958493D01*
X127828603Y-40958498D01*
X128014158Y-41088425D01*
X128057783Y-41143002D01*
X128064977Y-41212500D01*
X128033454Y-41274855D01*
X128014158Y-41291575D01*
X127828597Y-41421505D01*
X127661505Y-41588597D01*
X127525965Y-41782169D01*
X127525964Y-41782171D01*
X127426098Y-41996335D01*
X127426094Y-41996344D01*
X127364938Y-42224586D01*
X127364936Y-42224596D01*
X127344341Y-42459999D01*
X127344341Y-42460000D01*
X127364936Y-42695403D01*
X127364938Y-42695413D01*
X127426094Y-42923655D01*
X127426096Y-42923659D01*
X127426097Y-42923663D01*
X127492043Y-43065084D01*
X127525965Y-43137830D01*
X127525967Y-43137834D01*
X127661501Y-43331395D01*
X127661506Y-43331402D01*
X127828597Y-43498493D01*
X127828603Y-43498498D01*
X128014158Y-43628425D01*
X128057783Y-43683002D01*
X128064977Y-43752500D01*
X128033454Y-43814855D01*
X128014158Y-43831575D01*
X127828597Y-43961505D01*
X127661505Y-44128597D01*
X127525965Y-44322169D01*
X127525964Y-44322171D01*
X127426098Y-44536335D01*
X127426094Y-44536344D01*
X127364938Y-44764586D01*
X127364936Y-44764596D01*
X127344341Y-44999999D01*
X127344341Y-45000000D01*
X127364936Y-45235403D01*
X127364938Y-45235413D01*
X127426094Y-45463655D01*
X127426096Y-45463659D01*
X127426097Y-45463663D01*
X127525965Y-45677830D01*
X127525967Y-45677834D01*
X127661501Y-45871395D01*
X127661506Y-45871402D01*
X127828597Y-46038493D01*
X127828603Y-46038498D01*
X128014158Y-46168425D01*
X128057783Y-46223002D01*
X128064977Y-46292500D01*
X128033454Y-46354855D01*
X128014159Y-46371575D01*
X127828594Y-46501509D01*
X127661505Y-46668598D01*
X127525965Y-46862170D01*
X127525964Y-46862172D01*
X127426098Y-47076336D01*
X127426094Y-47076345D01*
X127364938Y-47304587D01*
X127364936Y-47304597D01*
X127344341Y-47540000D01*
X127344341Y-47540001D01*
X127364936Y-47775404D01*
X127364938Y-47775414D01*
X127426094Y-48003656D01*
X127426096Y-48003660D01*
X127426097Y-48003664D01*
X127461321Y-48079201D01*
X127525965Y-48217831D01*
X127525967Y-48217835D01*
X127661501Y-48411396D01*
X127661506Y-48411403D01*
X127828597Y-48578494D01*
X127828603Y-48578499D01*
X128014157Y-48708425D01*
X128057782Y-48763002D01*
X128064976Y-48832500D01*
X128033453Y-48894855D01*
X128014158Y-48911575D01*
X127828594Y-49041508D01*
X127661505Y-49208597D01*
X127525965Y-49402169D01*
X127525964Y-49402171D01*
X127426098Y-49616335D01*
X127426094Y-49616344D01*
X127364938Y-49844586D01*
X127364936Y-49844596D01*
X127344341Y-50079999D01*
X127344341Y-50080000D01*
X127364936Y-50315403D01*
X127364938Y-50315413D01*
X127426094Y-50543655D01*
X127426096Y-50543659D01*
X127426097Y-50543663D01*
X127504861Y-50712573D01*
X127525965Y-50757830D01*
X127525967Y-50757834D01*
X127661501Y-50951395D01*
X127661506Y-50951402D01*
X127828597Y-51118493D01*
X127828603Y-51118498D01*
X128014158Y-51248425D01*
X128057783Y-51303002D01*
X128064977Y-51372500D01*
X128033454Y-51434855D01*
X128014158Y-51451575D01*
X127828597Y-51581505D01*
X127661505Y-51748597D01*
X127525965Y-51942169D01*
X127525964Y-51942171D01*
X127426098Y-52156335D01*
X127426094Y-52156344D01*
X127364938Y-52384586D01*
X127364936Y-52384596D01*
X127352124Y-52531037D01*
X127326671Y-52596106D01*
X127270080Y-52637084D01*
X127200318Y-52640962D01*
X127139534Y-52606508D01*
X127111554Y-52561184D01*
X127080456Y-52472310D01*
X127080455Y-52472309D01*
X127080454Y-52472305D01*
X127080452Y-52472302D01*
X126990481Y-52329115D01*
X126990476Y-52329109D01*
X126870890Y-52209523D01*
X126870884Y-52209518D01*
X126727697Y-52119547D01*
X126727694Y-52119545D01*
X126568056Y-52063685D01*
X126400003Y-52044751D01*
X126399997Y-52044751D01*
X126231942Y-52063686D01*
X126088992Y-52113706D01*
X126019213Y-52117267D01*
X125960357Y-52084345D01*
X125853044Y-51977032D01*
X125853040Y-51977029D01*
X125708705Y-51888001D01*
X125708699Y-51887998D01*
X125708697Y-51887997D01*
X125708694Y-51887996D01*
X125547709Y-51834651D01*
X125448346Y-51824500D01*
X124901662Y-51824500D01*
X124901644Y-51824501D01*
X124802292Y-51834650D01*
X124802289Y-51834651D01*
X124641305Y-51887996D01*
X124641294Y-51888001D01*
X124496959Y-51977029D01*
X124496955Y-51977032D01*
X124487681Y-51986307D01*
X124426358Y-52019792D01*
X124356666Y-52014808D01*
X124312319Y-51986307D01*
X124303045Y-51977033D01*
X124303044Y-51977032D01*
X124292224Y-51970358D01*
X124245500Y-51918412D01*
X124235705Y-51889015D01*
X124226463Y-51842549D01*
X124220308Y-51827690D01*
X124210712Y-51804523D01*
X124179312Y-51728714D01*
X124169442Y-51713943D01*
X124139009Y-51668396D01*
X124139006Y-51668393D01*
X124110858Y-51626267D01*
X124110856Y-51626264D01*
X124020637Y-51536045D01*
X124020606Y-51536016D01*
X123866973Y-51382383D01*
X123837612Y-51335656D01*
X123836313Y-51331943D01*
X123836313Y-51331941D01*
X123780456Y-51172310D01*
X123780455Y-51172307D01*
X123780452Y-51172302D01*
X123690481Y-51029115D01*
X123690476Y-51029109D01*
X123570890Y-50909523D01*
X123570884Y-50909518D01*
X123427697Y-50819547D01*
X123427694Y-50819545D01*
X123268056Y-50763685D01*
X123100003Y-50744751D01*
X123099997Y-50744751D01*
X122931943Y-50763685D01*
X122772305Y-50819545D01*
X122772302Y-50819547D01*
X122629115Y-50909518D01*
X122629109Y-50909523D01*
X122509523Y-51029109D01*
X122509518Y-51029115D01*
X122419547Y-51172302D01*
X122419545Y-51172305D01*
X122363685Y-51331943D01*
X122344751Y-51499997D01*
X122344751Y-51500002D01*
X122363685Y-51668056D01*
X122419545Y-51827694D01*
X122419547Y-51827697D01*
X122509518Y-51970884D01*
X122509523Y-51970890D01*
X122629110Y-52090477D01*
X122678286Y-52121377D01*
X122724577Y-52173711D01*
X122735225Y-52242764D01*
X122730020Y-52265373D01*
X122684651Y-52402288D01*
X122674500Y-52501647D01*
X122674500Y-52613770D01*
X122654815Y-52680809D01*
X122602011Y-52726564D01*
X122532853Y-52736508D01*
X122469297Y-52707483D01*
X122462819Y-52701451D01*
X121686819Y-51925451D01*
X121653334Y-51864128D01*
X121650500Y-51837770D01*
X121650500Y-51276874D01*
X121670185Y-51209835D01*
X121686819Y-51189193D01*
X121704043Y-51171969D01*
X121722968Y-51153044D01*
X121812003Y-51008697D01*
X121865349Y-50847708D01*
X121875500Y-50748345D01*
X121875499Y-50201656D01*
X121865349Y-50102292D01*
X121812003Y-49941303D01*
X121811999Y-49941297D01*
X121811998Y-49941294D01*
X121722970Y-49796959D01*
X121722967Y-49796955D01*
X121713693Y-49787681D01*
X121680208Y-49726358D01*
X121685192Y-49656666D01*
X121713693Y-49612319D01*
X121722968Y-49603044D01*
X121812003Y-49458697D01*
X121865349Y-49297708D01*
X121875500Y-49198345D01*
X121875499Y-48651656D01*
X121865349Y-48552292D01*
X121812003Y-48391303D01*
X121811999Y-48391297D01*
X121811998Y-48391294D01*
X121722970Y-48246959D01*
X121722969Y-48246958D01*
X121722968Y-48246956D01*
X121603044Y-48127032D01*
X121584399Y-48115531D01*
X121537677Y-48063582D01*
X121525500Y-48009995D01*
X121525500Y-47838396D01*
X121525500Y-47838394D01*
X121501463Y-47717548D01*
X121479424Y-47664342D01*
X121454312Y-47603715D01*
X121454310Y-47603713D01*
X121454307Y-47603704D01*
X121452952Y-47601169D01*
X121452032Y-47598213D01*
X121451980Y-47598086D01*
X121451991Y-47598081D01*
X121439091Y-47556601D01*
X121436313Y-47531941D01*
X121380456Y-47372310D01*
X121380455Y-47372308D01*
X121380452Y-47372302D01*
X121290481Y-47229115D01*
X121290476Y-47229109D01*
X121170890Y-47109523D01*
X121170884Y-47109518D01*
X121027697Y-47019547D01*
X121027694Y-47019545D01*
X120868056Y-46963685D01*
X120700003Y-46944751D01*
X120699997Y-46944751D01*
X120531943Y-46963685D01*
X120372305Y-47019545D01*
X120372302Y-47019547D01*
X120229115Y-47109518D01*
X120229108Y-47109524D01*
X120160355Y-47178276D01*
X120099031Y-47211761D01*
X120029340Y-47206775D01*
X120009555Y-47197327D01*
X119977341Y-47178276D01*
X119960398Y-47168256D01*
X119960396Y-47168255D01*
X119960394Y-47168254D01*
X119802573Y-47122402D01*
X119802567Y-47122401D01*
X119765701Y-47119500D01*
X119765694Y-47119500D01*
X117984306Y-47119500D01*
X117984298Y-47119500D01*
X117947432Y-47122401D01*
X117947426Y-47122402D01*
X117789606Y-47168254D01*
X117789603Y-47168255D01*
X117648137Y-47251917D01*
X117648129Y-47251923D01*
X117531923Y-47368129D01*
X117531917Y-47368137D01*
X117488718Y-47441181D01*
X117469670Y-47465738D01*
X117414144Y-47521266D01*
X117414143Y-47521265D01*
X117414140Y-47521270D01*
X117159323Y-47776086D01*
X117112599Y-47805446D01*
X117072306Y-47819545D01*
X116950872Y-47895848D01*
X116883635Y-47914848D01*
X116816800Y-47894480D01*
X116797219Y-47878535D01*
X115586819Y-46668135D01*
X115553334Y-46606812D01*
X115550500Y-46580454D01*
X115550500Y-43274500D01*
X115570185Y-43207461D01*
X115622989Y-43161706D01*
X115674500Y-43150500D01*
X120561420Y-43150500D01*
X120658962Y-43131096D01*
X120706413Y-43121658D01*
X120842995Y-43065084D01*
X120892229Y-43032186D01*
X120965916Y-42982952D01*
X122987049Y-40961817D01*
X123048372Y-40928333D01*
X123074730Y-40925499D01*
X123500002Y-40925499D01*
X123500008Y-40925499D01*
X123602797Y-40914999D01*
X123769334Y-40859814D01*
X123918656Y-40767712D01*
X124042712Y-40643656D01*
X124134814Y-40494334D01*
X124161475Y-40413872D01*
X124201247Y-40356429D01*
X124231720Y-40338319D01*
X124317995Y-40302584D01*
X124386489Y-40256818D01*
X124440916Y-40220452D01*
X125382952Y-39278416D01*
X125382952Y-39278415D01*
X125390020Y-39271348D01*
X125390021Y-39271349D01*
X125390031Y-39271335D01*
X125390477Y-39270890D01*
X125428976Y-39209617D01*
X125430802Y-39206799D01*
X125465084Y-39155494D01*
X125465141Y-39155355D01*
X125474706Y-39136838D01*
X125480456Y-39127690D01*
X125500295Y-39070987D01*
X125502753Y-39064547D01*
X125521658Y-39018912D01*
X125524093Y-39006664D01*
X125528667Y-38989906D01*
X125536313Y-38968059D01*
X125541660Y-38920590D01*
X125543257Y-38910320D01*
X125550500Y-38873917D01*
X125550500Y-38849108D01*
X125551280Y-38835223D01*
X125555249Y-38800000D01*
X125555249Y-38799997D01*
X125551280Y-38764774D01*
X125550500Y-38750890D01*
X125550500Y-38726081D01*
X125543261Y-38689692D01*
X125541665Y-38679443D01*
X125541586Y-38678745D01*
X125553606Y-38609917D01*
X125600929Y-38558514D01*
X125668531Y-38540856D01*
X125678683Y-38541580D01*
X125799997Y-38555249D01*
X125800000Y-38555249D01*
X125800003Y-38555249D01*
X125968056Y-38536314D01*
X125979633Y-38532263D01*
X126127690Y-38480456D01*
X126127692Y-38480454D01*
X126127694Y-38480454D01*
X126127697Y-38480452D01*
X126270884Y-38390481D01*
X126270885Y-38390480D01*
X126270890Y-38390477D01*
X126390477Y-38270890D01*
X126390481Y-38270884D01*
X126480452Y-38127697D01*
X126480454Y-38127694D01*
X126480454Y-38127692D01*
X126480456Y-38127690D01*
X126536313Y-37968059D01*
X126536313Y-37968057D01*
X126536314Y-37968055D01*
X126553470Y-37815790D01*
X126580536Y-37751376D01*
X126635735Y-37712632D01*
X126727690Y-37680456D01*
X126727693Y-37680453D01*
X126727697Y-37680452D01*
X126870884Y-37590481D01*
X126870885Y-37590480D01*
X126870890Y-37590477D01*
X126990477Y-37470890D01*
X126990481Y-37470884D01*
X127080452Y-37327697D01*
X127080455Y-37327691D01*
X127080456Y-37327690D01*
X127111608Y-37238661D01*
X127152330Y-37181886D01*
X127217283Y-37156138D01*
X127285844Y-37169594D01*
G37*
G04 #@! TD.AperFunction*
G04 #@! TA.AperFunction,NonConductor*
G36*
X112486347Y-51105185D02*
G01*
X112532102Y-51157989D01*
X112542046Y-51227147D01*
X112526041Y-51272620D01*
X112498254Y-51319605D01*
X112498254Y-51319606D01*
X112452402Y-51477426D01*
X112452401Y-51477432D01*
X112449500Y-51514298D01*
X112449500Y-51945701D01*
X112452401Y-51982567D01*
X112452402Y-51982573D01*
X112498254Y-52140393D01*
X112498255Y-52140396D01*
X112498256Y-52140398D01*
X112508796Y-52158220D01*
X112581917Y-52281862D01*
X112581923Y-52281870D01*
X112698129Y-52398076D01*
X112698133Y-52398079D01*
X112698135Y-52398081D01*
X112839602Y-52481744D01*
X112861125Y-52487997D01*
X112997426Y-52527597D01*
X112997429Y-52527597D01*
X112997431Y-52527598D01*
X113034306Y-52530500D01*
X113082528Y-52530500D01*
X113149567Y-52550185D01*
X113195322Y-52602989D01*
X113205266Y-52672147D01*
X113188066Y-52719597D01*
X113113001Y-52841294D01*
X113112996Y-52841305D01*
X113059651Y-53002290D01*
X113049500Y-53101647D01*
X113049500Y-53698337D01*
X113049502Y-53698358D01*
X113058061Y-53782151D01*
X113045291Y-53850843D01*
X112997409Y-53901727D01*
X112929619Y-53918647D01*
X112863443Y-53896230D01*
X112847022Y-53882432D01*
X112040237Y-53075647D01*
X112006752Y-53014324D01*
X112008143Y-52955872D01*
X112035063Y-52855408D01*
X112055659Y-52620000D01*
X112053568Y-52596106D01*
X112049064Y-52544622D01*
X112035063Y-52384592D01*
X111973903Y-52156337D01*
X111874035Y-51942171D01*
X111873914Y-51941997D01*
X111738494Y-51748597D01*
X111571402Y-51581506D01*
X111571396Y-51581501D01*
X111385842Y-51451575D01*
X111342217Y-51396998D01*
X111335023Y-51327500D01*
X111366546Y-51265145D01*
X111385842Y-51248425D01*
X111494545Y-51172310D01*
X111571401Y-51118495D01*
X111571408Y-51118487D01*
X111575544Y-51115018D01*
X111577111Y-51116885D01*
X111629400Y-51088334D01*
X111655758Y-51085500D01*
X112419308Y-51085500D01*
X112486347Y-51105185D01*
G37*
G04 #@! TD.AperFunction*
G04 #@! TA.AperFunction,NonConductor*
G36*
X127353954Y-52869184D02*
G01*
X127382545Y-52921124D01*
X127426094Y-53083655D01*
X127426096Y-53083659D01*
X127426097Y-53083663D01*
X127458728Y-53153640D01*
X127525965Y-53297830D01*
X127525967Y-53297834D01*
X127588976Y-53387819D01*
X127653838Y-53480452D01*
X127661501Y-53491395D01*
X127661506Y-53491402D01*
X127828597Y-53658493D01*
X127828603Y-53658498D01*
X128014158Y-53788425D01*
X128057783Y-53843002D01*
X128064977Y-53912500D01*
X128033454Y-53974855D01*
X128014158Y-53991575D01*
X127828597Y-54121505D01*
X127661505Y-54288597D01*
X127525965Y-54482169D01*
X127525964Y-54482171D01*
X127426098Y-54696335D01*
X127426094Y-54696344D01*
X127364938Y-54924586D01*
X127364936Y-54924599D01*
X127364350Y-54931303D01*
X127338900Y-54996373D01*
X127282311Y-55037353D01*
X127240822Y-55044500D01*
X126905692Y-55044500D01*
X126838653Y-55024815D01*
X126792898Y-54972011D01*
X126782954Y-54902853D01*
X126798959Y-54857380D01*
X126812721Y-54834109D01*
X126826744Y-54810398D01*
X126872598Y-54652569D01*
X126875500Y-54615694D01*
X126875500Y-54184306D01*
X126872598Y-54147431D01*
X126863441Y-54115914D01*
X126826745Y-53989606D01*
X126826744Y-53989603D01*
X126826744Y-53989602D01*
X126743081Y-53848135D01*
X126743079Y-53848133D01*
X126743076Y-53848129D01*
X126626870Y-53731923D01*
X126626861Y-53731916D01*
X126626693Y-53731817D01*
X126626587Y-53731704D01*
X126620702Y-53727139D01*
X126621438Y-53726189D01*
X126579007Y-53680750D01*
X126566501Y-53612008D01*
X126593145Y-53547418D01*
X126648856Y-53508041D01*
X126727690Y-53480456D01*
X126727693Y-53480453D01*
X126727697Y-53480452D01*
X126870884Y-53390481D01*
X126870885Y-53390480D01*
X126870890Y-53390477D01*
X126990477Y-53270890D01*
X126992256Y-53268059D01*
X127080452Y-53127697D01*
X127080454Y-53127694D01*
X127080454Y-53127692D01*
X127080456Y-53127690D01*
X127136313Y-52968059D01*
X127136313Y-52968057D01*
X127136314Y-52968055D01*
X127139550Y-52939335D01*
X127166616Y-52874920D01*
X127224210Y-52835365D01*
X127294047Y-52833226D01*
X127353954Y-52869184D01*
G37*
G04 #@! TD.AperFunction*
G04 #@! TA.AperFunction,NonConductor*
G36*
X112260862Y-55065898D02*
G01*
X112267340Y-55071930D01*
X112338181Y-55142771D01*
X112371666Y-55204094D01*
X112374500Y-55230452D01*
X112374500Y-55650548D01*
X112354815Y-55717587D01*
X112302011Y-55763342D01*
X112232853Y-55773286D01*
X112169297Y-55744261D01*
X112162819Y-55738229D01*
X112040237Y-55615647D01*
X112006752Y-55554324D01*
X112008143Y-55495872D01*
X112035063Y-55395408D01*
X112055659Y-55160000D01*
X112055659Y-55159999D01*
X112055659Y-55159611D01*
X112055707Y-55159445D01*
X112056131Y-55154606D01*
X112057103Y-55154691D01*
X112075344Y-55092572D01*
X112128148Y-55046817D01*
X112197306Y-55036873D01*
X112260862Y-55065898D01*
G37*
G04 #@! TD.AperFunction*
G04 #@! TA.AperFunction,NonConductor*
G36*
X115377945Y-59692168D02*
G01*
X115428348Y-59740555D01*
X115442374Y-59793259D01*
X115443971Y-59793080D01*
X115463686Y-59968057D01*
X115519543Y-60127690D01*
X115536981Y-60155441D01*
X115555982Y-60222677D01*
X115535615Y-60289513D01*
X115502179Y-60322003D01*
X115502617Y-60322556D01*
X115497217Y-60326824D01*
X115497089Y-60326950D01*
X115496955Y-60327032D01*
X115377029Y-60446959D01*
X115288001Y-60591294D01*
X115287996Y-60591305D01*
X115234651Y-60752290D01*
X115224500Y-60851647D01*
X115224500Y-61398337D01*
X115224501Y-61398355D01*
X115234650Y-61497707D01*
X115234651Y-61497710D01*
X115287996Y-61658694D01*
X115288001Y-61658705D01*
X115377029Y-61803040D01*
X115377032Y-61803044D01*
X115386307Y-61812319D01*
X115419792Y-61873642D01*
X115414808Y-61943334D01*
X115386307Y-61987681D01*
X115377032Y-61996955D01*
X115377029Y-61996959D01*
X115288001Y-62141294D01*
X115287996Y-62141305D01*
X115234651Y-62302290D01*
X115224500Y-62401647D01*
X115224500Y-62690548D01*
X115204815Y-62757587D01*
X115152011Y-62803342D01*
X115082853Y-62813286D01*
X115019297Y-62784261D01*
X115012819Y-62778229D01*
X113661819Y-61427229D01*
X113628334Y-61365906D01*
X113625500Y-61339548D01*
X113625500Y-59949284D01*
X113645185Y-59882245D01*
X113697989Y-59836490D01*
X113767147Y-59826546D01*
X113830703Y-59855571D01*
X113854494Y-59883312D01*
X113909523Y-59970890D01*
X114029109Y-60090476D01*
X114029115Y-60090481D01*
X114172302Y-60180452D01*
X114172305Y-60180454D01*
X114172309Y-60180455D01*
X114172310Y-60180456D01*
X114244913Y-60205860D01*
X114331943Y-60236314D01*
X114499997Y-60255249D01*
X114500000Y-60255249D01*
X114500003Y-60255249D01*
X114668056Y-60236314D01*
X114668059Y-60236313D01*
X114827690Y-60180456D01*
X114827692Y-60180454D01*
X114827694Y-60180454D01*
X114827697Y-60180452D01*
X114970884Y-60090481D01*
X114970885Y-60090480D01*
X114970890Y-60090477D01*
X115090477Y-59970890D01*
X115112203Y-59936314D01*
X115180452Y-59827697D01*
X115180455Y-59827691D01*
X115180456Y-59827690D01*
X115203709Y-59761235D01*
X115244431Y-59704460D01*
X115309383Y-59678712D01*
X115377945Y-59692168D01*
G37*
G04 #@! TD.AperFunction*
G04 #@! TA.AperFunction,NonConductor*
G36*
X118260891Y-63639575D02*
G01*
X118399998Y-63655249D01*
X118400000Y-63655249D01*
X118400003Y-63655249D01*
X118525859Y-63641068D01*
X118594681Y-63653122D01*
X118645281Y-63699190D01*
X118657288Y-63718656D01*
X118781344Y-63842712D01*
X118930666Y-63934814D01*
X119097203Y-63989999D01*
X119199991Y-64000500D01*
X120600008Y-64000499D01*
X120702797Y-63989999D01*
X120761496Y-63970547D01*
X120831324Y-63968146D01*
X120891366Y-64003878D01*
X120922559Y-64066398D01*
X120924500Y-64088254D01*
X120924500Y-64573337D01*
X120924501Y-64573355D01*
X120934650Y-64672707D01*
X120934651Y-64672711D01*
X120936694Y-64678876D01*
X120939091Y-64748704D01*
X120903355Y-64808744D01*
X120840833Y-64839932D01*
X120779983Y-64835578D01*
X120713915Y-64813685D01*
X120702795Y-64810000D01*
X120600010Y-64799500D01*
X119199998Y-64799500D01*
X119199981Y-64799501D01*
X119097203Y-64810000D01*
X119097200Y-64810001D01*
X118930668Y-64865185D01*
X118930663Y-64865187D01*
X118781342Y-64957289D01*
X118737181Y-65001451D01*
X118675858Y-65034936D01*
X118606166Y-65029952D01*
X118550233Y-64988080D01*
X118525816Y-64922616D01*
X118525500Y-64913770D01*
X118525500Y-64414134D01*
X118525499Y-64414130D01*
X118501464Y-64293296D01*
X118501463Y-64293289D01*
X118466766Y-64209523D01*
X118454312Y-64179456D01*
X118454311Y-64179454D01*
X118454310Y-64179452D01*
X118385858Y-64077008D01*
X118385855Y-64077004D01*
X118159326Y-63850476D01*
X118125841Y-63789153D01*
X118130825Y-63719462D01*
X118172696Y-63663528D01*
X118238161Y-63639111D01*
X118260891Y-63639575D01*
G37*
G04 #@! TD.AperFunction*
G04 #@! TA.AperFunction,NonConductor*
G36*
X118730703Y-66742517D02*
G01*
X118737181Y-66748549D01*
X118781344Y-66792712D01*
X118930666Y-66884814D01*
X118930670Y-66884815D01*
X118937209Y-66887864D01*
X118936292Y-66889830D01*
X118985004Y-66923557D01*
X119011827Y-66988073D01*
X118999512Y-67056849D01*
X118976236Y-67089171D01*
X118737181Y-67328227D01*
X118675858Y-67361712D01*
X118606167Y-67356728D01*
X118550233Y-67314857D01*
X118525816Y-67249392D01*
X118525500Y-67240546D01*
X118525500Y-66836230D01*
X118545185Y-66769191D01*
X118597989Y-66723436D01*
X118667147Y-66713492D01*
X118730703Y-66742517D01*
G37*
G04 #@! TD.AperFunction*
G04 #@! TA.AperFunction,NonConductor*
G36*
X112057743Y-63442421D02*
G01*
X112060569Y-63445159D01*
X114607847Y-65992437D01*
X114636030Y-66043419D01*
X114638021Y-66042723D01*
X114640319Y-66049292D01*
X114640320Y-66049295D01*
X114656318Y-66095015D01*
X114696177Y-66208928D01*
X114781081Y-66344049D01*
X114800082Y-66411286D01*
X114779715Y-66478121D01*
X114726447Y-66523336D01*
X114676088Y-66534022D01*
X113508419Y-66534022D01*
X113430613Y-66549499D01*
X113396137Y-66556356D01*
X113387577Y-66558059D01*
X113273746Y-66605209D01*
X113171784Y-66673339D01*
X113171766Y-66673351D01*
X113171293Y-66673666D01*
X112226091Y-67618869D01*
X112164768Y-67652354D01*
X112095076Y-67647370D01*
X112039143Y-67605498D01*
X112018635Y-67563281D01*
X111973905Y-67396343D01*
X111973904Y-67396342D01*
X111973903Y-67396336D01*
X111874035Y-67182170D01*
X111858179Y-67159524D01*
X111738494Y-66988596D01*
X111571402Y-66821505D01*
X111571401Y-66821504D01*
X111385842Y-66691574D01*
X111342218Y-66636997D01*
X111335025Y-66567498D01*
X111366547Y-66505144D01*
X111385843Y-66488424D01*
X111571401Y-66358495D01*
X111738495Y-66191401D01*
X111874035Y-65997830D01*
X111973903Y-65783663D01*
X112035063Y-65555408D01*
X112055659Y-65320000D01*
X112035063Y-65084592D01*
X111973903Y-64856337D01*
X111874035Y-64642171D01*
X111869934Y-64636313D01*
X111738494Y-64448597D01*
X111571402Y-64281506D01*
X111571396Y-64281501D01*
X111385842Y-64151575D01*
X111342217Y-64096998D01*
X111335023Y-64027500D01*
X111366546Y-63965145D01*
X111385842Y-63948425D01*
X111525727Y-63850476D01*
X111571401Y-63818495D01*
X111738495Y-63651401D01*
X111871313Y-63461716D01*
X111925890Y-63418092D01*
X111995388Y-63410898D01*
X112057743Y-63442421D01*
G37*
G04 #@! TD.AperFunction*
G04 #@! TA.AperFunction,NonConductor*
G36*
X116401902Y-64573512D02*
G01*
X116447119Y-64626777D01*
X116457028Y-64691024D01*
X116444751Y-64799994D01*
X116444751Y-64800002D01*
X116463685Y-64968056D01*
X116519545Y-65127694D01*
X116519547Y-65127697D01*
X116609518Y-65270884D01*
X116609523Y-65270890D01*
X116688181Y-65349548D01*
X116721666Y-65410871D01*
X116724500Y-65437229D01*
X116724500Y-67564241D01*
X116704815Y-67631280D01*
X116688181Y-67651922D01*
X116506039Y-67834063D01*
X116444716Y-67867548D01*
X116375024Y-67862564D01*
X116319091Y-67820692D01*
X116295138Y-67760264D01*
X116286314Y-67681943D01*
X116230455Y-67522308D01*
X116180421Y-67442680D01*
X116161420Y-67375443D01*
X116168374Y-67335751D01*
X116171233Y-67327581D01*
X116187618Y-67182168D01*
X116190169Y-67159524D01*
X116190169Y-67159519D01*
X116171234Y-66991465D01*
X116115374Y-66831827D01*
X116115372Y-66831824D01*
X116025401Y-66688637D01*
X116025396Y-66688631D01*
X115915681Y-66578916D01*
X115882196Y-66517593D01*
X115887180Y-66447901D01*
X115915680Y-66403555D01*
X115967110Y-66352126D01*
X116008463Y-66286314D01*
X116057085Y-66208933D01*
X116057087Y-66208930D01*
X116057087Y-66208928D01*
X116057089Y-66208926D01*
X116112946Y-66049295D01*
X116112946Y-66049294D01*
X116112947Y-66049292D01*
X116131882Y-65881238D01*
X116131882Y-65881233D01*
X116112946Y-65713176D01*
X116112946Y-65713175D01*
X116074049Y-65602015D01*
X116070487Y-65532236D01*
X116086096Y-65495089D01*
X116115012Y-65449072D01*
X116170869Y-65289441D01*
X116188615Y-65131941D01*
X116189805Y-65121384D01*
X116189805Y-65121379D01*
X116172529Y-64968056D01*
X116170869Y-64953323D01*
X116129685Y-64835624D01*
X116115012Y-64793691D01*
X116113067Y-64790596D01*
X116112420Y-64788309D01*
X116111992Y-64787419D01*
X116112147Y-64787343D01*
X116094064Y-64723360D01*
X116114429Y-64656524D01*
X116167696Y-64611308D01*
X116177093Y-64607582D01*
X116254616Y-64580456D01*
X116267833Y-64572151D01*
X116335065Y-64553148D01*
X116401902Y-64573512D01*
G37*
G04 #@! TD.AperFunction*
G04 #@! TA.AperFunction,NonConductor*
G36*
X115565743Y-48780677D02*
G01*
X115601592Y-48805644D01*
X117363181Y-50567233D01*
X117396666Y-50628556D01*
X117399500Y-50654914D01*
X117399500Y-50675701D01*
X117402401Y-50712567D01*
X117402402Y-50712573D01*
X117448254Y-50870393D01*
X117448255Y-50870396D01*
X117531917Y-51011862D01*
X117536702Y-51018031D01*
X117534256Y-51019927D01*
X117560857Y-51068642D01*
X117555873Y-51138334D01*
X117535069Y-51170703D01*
X117536702Y-51171969D01*
X117531917Y-51178137D01*
X117448255Y-51319603D01*
X117448254Y-51319606D01*
X117402402Y-51477426D01*
X117402401Y-51477432D01*
X117399500Y-51514298D01*
X117399500Y-51945701D01*
X117402401Y-51982567D01*
X117402402Y-51982573D01*
X117448254Y-52140393D01*
X117448256Y-52140398D01*
X117448260Y-52140405D01*
X117448261Y-52140410D01*
X117451353Y-52147554D01*
X117450199Y-52148053D01*
X117465439Y-52208130D01*
X117443277Y-52274391D01*
X117429206Y-52291202D01*
X117316751Y-52403657D01*
X117295043Y-52420969D01*
X117154115Y-52509521D01*
X117154112Y-52509523D01*
X117034526Y-52629109D01*
X117034521Y-52629115D01*
X116944550Y-52772302D01*
X116944548Y-52772305D01*
X116888688Y-52931943D01*
X116869754Y-53099997D01*
X116869754Y-53100002D01*
X116888688Y-53268056D01*
X116944548Y-53427694D01*
X116944550Y-53427697D01*
X117034521Y-53570884D01*
X117034526Y-53570890D01*
X117154112Y-53690476D01*
X117154118Y-53690481D01*
X117297305Y-53780452D01*
X117297308Y-53780454D01*
X117297312Y-53780455D01*
X117297313Y-53780456D01*
X117369916Y-53805860D01*
X117456946Y-53836314D01*
X117625000Y-53855249D01*
X117625003Y-53855249D01*
X117625006Y-53855249D01*
X117793059Y-53836314D01*
X117793062Y-53836313D01*
X117952693Y-53780456D01*
X117952695Y-53780454D01*
X117952697Y-53780454D01*
X117952700Y-53780452D01*
X118095887Y-53690481D01*
X118095888Y-53690480D01*
X118095893Y-53690477D01*
X118215480Y-53570890D01*
X118230229Y-53547418D01*
X118305455Y-53427697D01*
X118305457Y-53427694D01*
X118305457Y-53427692D01*
X118305459Y-53427690D01*
X118361316Y-53268059D01*
X118374208Y-53153640D01*
X118401274Y-53089226D01*
X118409737Y-53079852D01*
X118922772Y-52566819D01*
X118984095Y-52533334D01*
X119010453Y-52530500D01*
X119765686Y-52530500D01*
X119765694Y-52530500D01*
X119802569Y-52527598D01*
X119802571Y-52527597D01*
X119802573Y-52527597D01*
X119864790Y-52509521D01*
X119960398Y-52481744D01*
X120033366Y-52438590D01*
X120101089Y-52421408D01*
X120167351Y-52443568D01*
X120211047Y-52497871D01*
X120234914Y-52555492D01*
X120234915Y-52555494D01*
X120234916Y-52555495D01*
X120266650Y-52602989D01*
X120267812Y-52604727D01*
X120267813Y-52604730D01*
X120317046Y-52678414D01*
X120317052Y-52678421D01*
X121026451Y-53387819D01*
X121059936Y-53449142D01*
X121054952Y-53518833D01*
X121013081Y-53574767D01*
X120947616Y-53599184D01*
X120938770Y-53599500D01*
X119559298Y-53599500D01*
X119522432Y-53602401D01*
X119522426Y-53602402D01*
X119364606Y-53648254D01*
X119364603Y-53648255D01*
X119223137Y-53731917D01*
X119223129Y-53731923D01*
X119106923Y-53848129D01*
X119106917Y-53848137D01*
X119023255Y-53989603D01*
X119023254Y-53989606D01*
X118977402Y-54147426D01*
X118977401Y-54147432D01*
X118974500Y-54184298D01*
X118974500Y-54604650D01*
X118954815Y-54671689D01*
X118902011Y-54717444D01*
X118832853Y-54727388D01*
X118811496Y-54722356D01*
X118697709Y-54684651D01*
X118598346Y-54674500D01*
X118001662Y-54674500D01*
X118001644Y-54674501D01*
X117902292Y-54684650D01*
X117902289Y-54684651D01*
X117741305Y-54737996D01*
X117741294Y-54738001D01*
X117596959Y-54827029D01*
X117596955Y-54827032D01*
X117477032Y-54946955D01*
X117477029Y-54946959D01*
X117388001Y-55091294D01*
X117387996Y-55091305D01*
X117334651Y-55252290D01*
X117324500Y-55351647D01*
X117324500Y-55898337D01*
X117324501Y-55898355D01*
X117334650Y-55997707D01*
X117334651Y-55997710D01*
X117387996Y-56158694D01*
X117388001Y-56158705D01*
X117477029Y-56303040D01*
X117477032Y-56303044D01*
X117486307Y-56312319D01*
X117519792Y-56373642D01*
X117514808Y-56443334D01*
X117486307Y-56487681D01*
X117477032Y-56496955D01*
X117477029Y-56496959D01*
X117388001Y-56641294D01*
X117387996Y-56641305D01*
X117334651Y-56802290D01*
X117324500Y-56901647D01*
X117324500Y-57448337D01*
X117324501Y-57448355D01*
X117334650Y-57547707D01*
X117334651Y-57547710D01*
X117387996Y-57708694D01*
X117388001Y-57708705D01*
X117477029Y-57853040D01*
X117477032Y-57853044D01*
X117596955Y-57972967D01*
X117596959Y-57972970D01*
X117741294Y-58061998D01*
X117741297Y-58061999D01*
X117741303Y-58062003D01*
X117902292Y-58115349D01*
X118001655Y-58125500D01*
X118598344Y-58125499D01*
X118598352Y-58125498D01*
X118598355Y-58125498D01*
X118652760Y-58119940D01*
X118697708Y-58115349D01*
X118811498Y-58077642D01*
X118881324Y-58075241D01*
X118941366Y-58110973D01*
X118972559Y-58173493D01*
X118974500Y-58195349D01*
X118974500Y-58425701D01*
X118977401Y-58462567D01*
X118977402Y-58462573D01*
X119023254Y-58620393D01*
X119023255Y-58620396D01*
X119106917Y-58761862D01*
X119106923Y-58761870D01*
X119223129Y-58878076D01*
X119223133Y-58878079D01*
X119223135Y-58878081D01*
X119364602Y-58961744D01*
X119393016Y-58969999D01*
X119522426Y-59007597D01*
X119522429Y-59007597D01*
X119522431Y-59007598D01*
X119559306Y-59010500D01*
X120314548Y-59010500D01*
X120381587Y-59030185D01*
X120402229Y-59046819D01*
X121041262Y-59685854D01*
X121041265Y-59685857D01*
X121069107Y-59704460D01*
X121143714Y-59754311D01*
X121257548Y-59801463D01*
X121378388Y-59825499D01*
X121378392Y-59825500D01*
X121378393Y-59825500D01*
X121378394Y-59825500D01*
X122124124Y-59825500D01*
X122190095Y-59844505D01*
X122247310Y-59880456D01*
X122368621Y-59922904D01*
X122406943Y-59936314D01*
X122574997Y-59955249D01*
X122575000Y-59955249D01*
X122575003Y-59955249D01*
X122743056Y-59936314D01*
X122743059Y-59936313D01*
X122902690Y-59880456D01*
X122902692Y-59880454D01*
X122902694Y-59880454D01*
X122902697Y-59880452D01*
X123045884Y-59790481D01*
X123045885Y-59790480D01*
X123045890Y-59790477D01*
X123165477Y-59670890D01*
X123189949Y-59631943D01*
X123255452Y-59527697D01*
X123255454Y-59527694D01*
X123255454Y-59527692D01*
X123255456Y-59527690D01*
X123311313Y-59368059D01*
X123311313Y-59368058D01*
X123311314Y-59368056D01*
X123330249Y-59200002D01*
X123330249Y-59199997D01*
X123311314Y-59031943D01*
X123268477Y-58909523D01*
X123255456Y-58872310D01*
X123255455Y-58872309D01*
X123255454Y-58872305D01*
X123255452Y-58872302D01*
X123165481Y-58729115D01*
X123165476Y-58729109D01*
X123045890Y-58609523D01*
X123045884Y-58609518D01*
X122902697Y-58519547D01*
X122902694Y-58519545D01*
X122743056Y-58463685D01*
X122575003Y-58444751D01*
X122574997Y-58444751D01*
X122406943Y-58463685D01*
X122247307Y-58519545D01*
X122190096Y-58555494D01*
X122124124Y-58574500D01*
X122047931Y-58574500D01*
X121980892Y-58554815D01*
X121935137Y-58502011D01*
X121924313Y-58440771D01*
X121925500Y-58425694D01*
X121925500Y-57994306D01*
X121922598Y-57957431D01*
X121922597Y-57957426D01*
X121921460Y-57951201D01*
X121923104Y-57950900D01*
X121923282Y-57889222D01*
X121961226Y-57830553D01*
X122024865Y-57801712D01*
X122042158Y-57800500D01*
X122084337Y-57800500D01*
X122150308Y-57819505D01*
X122247310Y-57880456D01*
X122368621Y-57922904D01*
X122406943Y-57936314D01*
X122574997Y-57955249D01*
X122575000Y-57955249D01*
X122575003Y-57955249D01*
X122743056Y-57936314D01*
X122745648Y-57935407D01*
X122902690Y-57880456D01*
X122902692Y-57880454D01*
X122902694Y-57880454D01*
X122902697Y-57880452D01*
X123045884Y-57790481D01*
X123045885Y-57790480D01*
X123045890Y-57790477D01*
X123165477Y-57670890D01*
X123165481Y-57670884D01*
X123255452Y-57527697D01*
X123255454Y-57527694D01*
X123255454Y-57527692D01*
X123255456Y-57527690D01*
X123311313Y-57368059D01*
X123311313Y-57368058D01*
X123311314Y-57368056D01*
X123330249Y-57200002D01*
X123330249Y-57199997D01*
X123311314Y-57031943D01*
X123255454Y-56872305D01*
X123255452Y-56872302D01*
X123165481Y-56729115D01*
X123165476Y-56729109D01*
X123068548Y-56632181D01*
X123035063Y-56570858D01*
X123040047Y-56501166D01*
X123081919Y-56445233D01*
X123147383Y-56420816D01*
X123156229Y-56420500D01*
X123178920Y-56420500D01*
X123281976Y-56400000D01*
X123323913Y-56391658D01*
X123460495Y-56335084D01*
X123519737Y-56295500D01*
X123519737Y-56295499D01*
X123519739Y-56295499D01*
X123551576Y-56274226D01*
X123583416Y-56252952D01*
X123779473Y-56056894D01*
X123840791Y-56023412D01*
X123910483Y-56028396D01*
X123966417Y-56070267D01*
X123973882Y-56081457D01*
X124056916Y-56221861D01*
X124061702Y-56228031D01*
X124059256Y-56229927D01*
X124085857Y-56278642D01*
X124080873Y-56348334D01*
X124060069Y-56380703D01*
X124061702Y-56381969D01*
X124056917Y-56388137D01*
X123973255Y-56529603D01*
X123973254Y-56529606D01*
X123927402Y-56687426D01*
X123927401Y-56687432D01*
X123924500Y-56724298D01*
X123924500Y-57155701D01*
X123927401Y-57192567D01*
X123927402Y-57192573D01*
X123973254Y-57350393D01*
X123973255Y-57350396D01*
X124056917Y-57491862D01*
X124061702Y-57498031D01*
X124059256Y-57499927D01*
X124085857Y-57548642D01*
X124080873Y-57618334D01*
X124060069Y-57650703D01*
X124061702Y-57651969D01*
X124056917Y-57658137D01*
X123973255Y-57799603D01*
X123973254Y-57799606D01*
X123927402Y-57957426D01*
X123927401Y-57957432D01*
X123924500Y-57994298D01*
X123924500Y-58425701D01*
X123927401Y-58462567D01*
X123927402Y-58462573D01*
X123973254Y-58620393D01*
X123973255Y-58620396D01*
X124056917Y-58761862D01*
X124056923Y-58761870D01*
X124173129Y-58878076D01*
X124173133Y-58878079D01*
X124173135Y-58878081D01*
X124314602Y-58961744D01*
X124343016Y-58969999D01*
X124472426Y-59007597D01*
X124472429Y-59007597D01*
X124472431Y-59007598D01*
X124509306Y-59010500D01*
X124509314Y-59010500D01*
X126290686Y-59010500D01*
X126290694Y-59010500D01*
X126327569Y-59007598D01*
X126327571Y-59007597D01*
X126327573Y-59007597D01*
X126369191Y-58995505D01*
X126485398Y-58961744D01*
X126626865Y-58878081D01*
X126743081Y-58761865D01*
X126826744Y-58620398D01*
X126872598Y-58462569D01*
X126875500Y-58425694D01*
X126875500Y-57994306D01*
X126872598Y-57957431D01*
X126871964Y-57955249D01*
X126826745Y-57799606D01*
X126826745Y-57799605D01*
X126826744Y-57799603D01*
X126826744Y-57799602D01*
X126798958Y-57752619D01*
X126781778Y-57684896D01*
X126803938Y-57618634D01*
X126858404Y-57574871D01*
X126905692Y-57565500D01*
X127220786Y-57565500D01*
X127287825Y-57585185D01*
X127333580Y-57637989D01*
X127343328Y-57694585D01*
X127344341Y-57694585D01*
X127344341Y-57699999D01*
X127364936Y-57935402D01*
X127364938Y-57935412D01*
X127426094Y-58163654D01*
X127426096Y-58163658D01*
X127426097Y-58163662D01*
X127440873Y-58195349D01*
X127525965Y-58377829D01*
X127525967Y-58377833D01*
X127585303Y-58462573D01*
X127650367Y-58555494D01*
X127661501Y-58571394D01*
X127661506Y-58571401D01*
X127828597Y-58738492D01*
X127828603Y-58738497D01*
X128014158Y-58868424D01*
X128057783Y-58923001D01*
X128064977Y-58992499D01*
X128033454Y-59054854D01*
X128014159Y-59071574D01*
X127828594Y-59201508D01*
X127661505Y-59368597D01*
X127525965Y-59562169D01*
X127525964Y-59562171D01*
X127426098Y-59776335D01*
X127426094Y-59776344D01*
X127364938Y-60004586D01*
X127364936Y-60004596D01*
X127344341Y-60239999D01*
X127344341Y-60240000D01*
X127364936Y-60475403D01*
X127364938Y-60475413D01*
X127426094Y-60703655D01*
X127426096Y-60703659D01*
X127426097Y-60703663D01*
X127495110Y-60851662D01*
X127525965Y-60917830D01*
X127525967Y-60917834D01*
X127661501Y-61111395D01*
X127661506Y-61111402D01*
X127828597Y-61278493D01*
X127828603Y-61278498D01*
X128014158Y-61408425D01*
X128057783Y-61463002D01*
X128064977Y-61532500D01*
X128033454Y-61594855D01*
X128014158Y-61611575D01*
X127828597Y-61741505D01*
X127661505Y-61908597D01*
X127525965Y-62102169D01*
X127525964Y-62102171D01*
X127426098Y-62316335D01*
X127426094Y-62316344D01*
X127364938Y-62544586D01*
X127364936Y-62544596D01*
X127357153Y-62633560D01*
X127331700Y-62698629D01*
X127275109Y-62739607D01*
X127205347Y-62743485D01*
X127192671Y-62739794D01*
X127118057Y-62713686D01*
X126950003Y-62694751D01*
X126949997Y-62694751D01*
X126781943Y-62713685D01*
X126622305Y-62769545D01*
X126622302Y-62769547D01*
X126479115Y-62859518D01*
X126479109Y-62859523D01*
X126359523Y-62979109D01*
X126359518Y-62979115D01*
X126269547Y-63122302D01*
X126269545Y-63122305D01*
X126213685Y-63281943D01*
X126194751Y-63449997D01*
X126194751Y-63450002D01*
X126213685Y-63618056D01*
X126269545Y-63777694D01*
X126269547Y-63777697D01*
X126359518Y-63920884D01*
X126359523Y-63920890D01*
X126479109Y-64040476D01*
X126479115Y-64040481D01*
X126622302Y-64130452D01*
X126622305Y-64130454D01*
X126622309Y-64130455D01*
X126622310Y-64130456D01*
X126682665Y-64151575D01*
X126781943Y-64186314D01*
X126949997Y-64205249D01*
X126950000Y-64205249D01*
X126950003Y-64205249D01*
X127118056Y-64186314D01*
X127137655Y-64179456D01*
X127277690Y-64130456D01*
X127277692Y-64130454D01*
X127277694Y-64130454D01*
X127277697Y-64130452D01*
X127420884Y-64040481D01*
X127420885Y-64040480D01*
X127420890Y-64040477D01*
X127540477Y-63920890D01*
X127608443Y-63812722D01*
X127660778Y-63766432D01*
X127729832Y-63755784D01*
X127793680Y-63784159D01*
X127801118Y-63791014D01*
X127828597Y-63818493D01*
X127828603Y-63818498D01*
X128014158Y-63948425D01*
X128057783Y-64003002D01*
X128064977Y-64072500D01*
X128033454Y-64134855D01*
X128014158Y-64151575D01*
X127828597Y-64281505D01*
X127661505Y-64448597D01*
X127525965Y-64642169D01*
X127525964Y-64642171D01*
X127435755Y-64835624D01*
X127389582Y-64888063D01*
X127322389Y-64907215D01*
X127257400Y-64888212D01*
X127227693Y-64869545D01*
X127068056Y-64813685D01*
X126900003Y-64794751D01*
X126899997Y-64794751D01*
X126731943Y-64813685D01*
X126572305Y-64869545D01*
X126572302Y-64869547D01*
X126429115Y-64959518D01*
X126429109Y-64959523D01*
X126309523Y-65079109D01*
X126309518Y-65079115D01*
X126219547Y-65222302D01*
X126219545Y-65222305D01*
X126163685Y-65381943D01*
X126144751Y-65549997D01*
X126144751Y-65550002D01*
X126163685Y-65718056D01*
X126219545Y-65877694D01*
X126219547Y-65877697D01*
X126309518Y-66020884D01*
X126309523Y-66020890D01*
X126429109Y-66140476D01*
X126429115Y-66140481D01*
X126572302Y-66230452D01*
X126572305Y-66230454D01*
X126572309Y-66230455D01*
X126572310Y-66230456D01*
X126644913Y-66255860D01*
X126731943Y-66286314D01*
X126899997Y-66305249D01*
X126900000Y-66305249D01*
X126900003Y-66305249D01*
X127068056Y-66286314D01*
X127068059Y-66286313D01*
X127227690Y-66230456D01*
X127227692Y-66230454D01*
X127227694Y-66230454D01*
X127227697Y-66230452D01*
X127370884Y-66140481D01*
X127370885Y-66140480D01*
X127370890Y-66140477D01*
X127416352Y-66095015D01*
X127477675Y-66061530D01*
X127547367Y-66066514D01*
X127603300Y-66108386D01*
X127605608Y-66111572D01*
X127661505Y-66191401D01*
X127828599Y-66358495D01*
X127999442Y-66478121D01*
X128014157Y-66488424D01*
X128057782Y-66543001D01*
X128064976Y-66612499D01*
X128033453Y-66674854D01*
X128014158Y-66691574D01*
X127828594Y-66821507D01*
X127661505Y-66988596D01*
X127525965Y-67182168D01*
X127525964Y-67182170D01*
X127426098Y-67396334D01*
X127426094Y-67396343D01*
X127364938Y-67624585D01*
X127364936Y-67624595D01*
X127344341Y-67859998D01*
X127344341Y-67859999D01*
X127355102Y-67982995D01*
X127341336Y-68051495D01*
X127292720Y-68101678D01*
X127224692Y-68117612D01*
X127158848Y-68094237D01*
X127143893Y-68081484D01*
X125845746Y-66783338D01*
X125845743Y-66783334D01*
X125845743Y-66783335D01*
X125838676Y-66776268D01*
X125838676Y-66776267D01*
X125751551Y-66689142D01*
X125751550Y-66689141D01*
X125751549Y-66689140D01*
X125700327Y-66654915D01*
X125649104Y-66620688D01*
X125565590Y-66586096D01*
X125565588Y-66586094D01*
X125535273Y-66573538D01*
X125535271Y-66573537D01*
X125535270Y-66573537D01*
X125474847Y-66561518D01*
X125414428Y-66549500D01*
X125414425Y-66549500D01*
X125414424Y-66549500D01*
X124499500Y-66549500D01*
X124432461Y-66529815D01*
X124386706Y-66477011D01*
X124375500Y-66425500D01*
X124375499Y-66126663D01*
X124375498Y-66126644D01*
X124365349Y-66027292D01*
X124365348Y-66027288D01*
X124331845Y-65926182D01*
X124329443Y-65856353D01*
X124361870Y-65799496D01*
X124390477Y-65770890D01*
X124480456Y-65627690D01*
X124536313Y-65468059D01*
X124536313Y-65468058D01*
X124536314Y-65468056D01*
X124555249Y-65300002D01*
X124555249Y-65299997D01*
X124536314Y-65131943D01*
X124485974Y-64988080D01*
X124480456Y-64972310D01*
X124480455Y-64972309D01*
X124480454Y-64972305D01*
X124480452Y-64972302D01*
X124390481Y-64829115D01*
X124390476Y-64829109D01*
X124386759Y-64825392D01*
X124353274Y-64764069D01*
X124356734Y-64698707D01*
X124363698Y-64677690D01*
X124365349Y-64672708D01*
X124375500Y-64573345D01*
X124375499Y-64026656D01*
X124371754Y-63989999D01*
X124365349Y-63927292D01*
X124365348Y-63927289D01*
X124337322Y-63842712D01*
X124312003Y-63766303D01*
X124311999Y-63766297D01*
X124311998Y-63766294D01*
X124222970Y-63621959D01*
X124222967Y-63621955D01*
X124213693Y-63612681D01*
X124180208Y-63551358D01*
X124185192Y-63481666D01*
X124213693Y-63437319D01*
X124222968Y-63428044D01*
X124225398Y-63424103D01*
X124277343Y-63377379D01*
X124346305Y-63366154D01*
X124369930Y-63371489D01*
X124502292Y-63415349D01*
X124601655Y-63425500D01*
X125198344Y-63425499D01*
X125198352Y-63425498D01*
X125198355Y-63425498D01*
X125270855Y-63418092D01*
X125297708Y-63415349D01*
X125458697Y-63362003D01*
X125603044Y-63272968D01*
X125722968Y-63153044D01*
X125812003Y-63008697D01*
X125865349Y-62847708D01*
X125875500Y-62748345D01*
X125875499Y-62201656D01*
X125871620Y-62163687D01*
X125865349Y-62102292D01*
X125865348Y-62102289D01*
X125833868Y-62007288D01*
X125812003Y-61941303D01*
X125811999Y-61941297D01*
X125811998Y-61941294D01*
X125722970Y-61796959D01*
X125722969Y-61796957D01*
X125722968Y-61796956D01*
X125713693Y-61787681D01*
X125680208Y-61726358D01*
X125685192Y-61656666D01*
X125713693Y-61612319D01*
X125714437Y-61611575D01*
X125722968Y-61603044D01*
X125812003Y-61458697D01*
X125865349Y-61297708D01*
X125875500Y-61198345D01*
X125875499Y-60651656D01*
X125865349Y-60552292D01*
X125812003Y-60391303D01*
X125811999Y-60391297D01*
X125811998Y-60391294D01*
X125722970Y-60246959D01*
X125722967Y-60246955D01*
X125603044Y-60127032D01*
X125603040Y-60127029D01*
X125458705Y-60038001D01*
X125458699Y-60037998D01*
X125458697Y-60037997D01*
X125357899Y-60004596D01*
X125297709Y-59984651D01*
X125198346Y-59974500D01*
X124601662Y-59974500D01*
X124601644Y-59974501D01*
X124502292Y-59984650D01*
X124502289Y-59984651D01*
X124341305Y-60037996D01*
X124341294Y-60038001D01*
X124196959Y-60127029D01*
X124196955Y-60127032D01*
X124077032Y-60246955D01*
X124077029Y-60246959D01*
X123988001Y-60391294D01*
X123987996Y-60391305D01*
X123934651Y-60552290D01*
X123924500Y-60651647D01*
X123924500Y-61198337D01*
X123924501Y-61198355D01*
X123934650Y-61297707D01*
X123934651Y-61297710D01*
X123987996Y-61458694D01*
X123988001Y-61458705D01*
X124077029Y-61603040D01*
X124077032Y-61603044D01*
X124086307Y-61612319D01*
X124119792Y-61673642D01*
X124114808Y-61743334D01*
X124086307Y-61787681D01*
X124077032Y-61796955D01*
X124077030Y-61796957D01*
X124074595Y-61800906D01*
X124022643Y-61847626D01*
X123953680Y-61858843D01*
X123930059Y-61853507D01*
X123805760Y-61812319D01*
X123797709Y-61809651D01*
X123698346Y-61799500D01*
X123101662Y-61799500D01*
X123101644Y-61799501D01*
X123002292Y-61809650D01*
X123002289Y-61809651D01*
X122841305Y-61862996D01*
X122841300Y-61862998D01*
X122715097Y-61940842D01*
X122647704Y-61959282D01*
X122584903Y-61940842D01*
X122458699Y-61862998D01*
X122458694Y-61862996D01*
X122297709Y-61809651D01*
X122198346Y-61799500D01*
X121601662Y-61799500D01*
X121601644Y-61799501D01*
X121502292Y-61809650D01*
X121502289Y-61809651D01*
X121341305Y-61862996D01*
X121341294Y-61863001D01*
X121196959Y-61952029D01*
X121196954Y-61952032D01*
X121164087Y-61984900D01*
X121102764Y-62018385D01*
X121033072Y-62013399D01*
X121011311Y-62002757D01*
X120869340Y-61915189D01*
X120869335Y-61915187D01*
X120869334Y-61915186D01*
X120702797Y-61860001D01*
X120702795Y-61860000D01*
X120600010Y-61849500D01*
X119199998Y-61849500D01*
X119199981Y-61849501D01*
X119097203Y-61860000D01*
X119097200Y-61860001D01*
X118930668Y-61915185D01*
X118930663Y-61915187D01*
X118781345Y-62007287D01*
X118661409Y-62127222D01*
X118600085Y-62160706D01*
X118559845Y-62162760D01*
X118400004Y-62144751D01*
X118399997Y-62144751D01*
X118231943Y-62163685D01*
X118072305Y-62219545D01*
X118072302Y-62219547D01*
X117929115Y-62309518D01*
X117929109Y-62309523D01*
X117809523Y-62429109D01*
X117809518Y-62429115D01*
X117719547Y-62572302D01*
X117719545Y-62572305D01*
X117663685Y-62731943D01*
X117644751Y-62899997D01*
X117644751Y-62900002D01*
X117663685Y-63068056D01*
X117693089Y-63152085D01*
X117696650Y-63221864D01*
X117661921Y-63282492D01*
X117599928Y-63314719D01*
X117530353Y-63308314D01*
X117528596Y-63307602D01*
X117520320Y-63304174D01*
X117506711Y-63298537D01*
X117506707Y-63298536D01*
X117506703Y-63298535D01*
X117423284Y-63281941D01*
X117423275Y-63281941D01*
X117385866Y-63274500D01*
X117385865Y-63274500D01*
X117261918Y-63274500D01*
X117194879Y-63254815D01*
X117149124Y-63202011D01*
X117139180Y-63132853D01*
X117144212Y-63111496D01*
X117158606Y-63068056D01*
X117165349Y-63047708D01*
X117175500Y-62948345D01*
X117175499Y-62401656D01*
X117166783Y-62316335D01*
X117165349Y-62302292D01*
X117165348Y-62302289D01*
X117137930Y-62219547D01*
X117112003Y-62141303D01*
X117111999Y-62141297D01*
X117111998Y-62141294D01*
X117022970Y-61996959D01*
X117022967Y-61996955D01*
X117013693Y-61987681D01*
X116980208Y-61926358D01*
X116985192Y-61856666D01*
X117013693Y-61812319D01*
X117016362Y-61809650D01*
X117022968Y-61803044D01*
X117112003Y-61658697D01*
X117165349Y-61497708D01*
X117175500Y-61398345D01*
X117175499Y-60851656D01*
X117165349Y-60752292D01*
X117112003Y-60591303D01*
X117111999Y-60591297D01*
X117111998Y-60591294D01*
X117022970Y-60446959D01*
X117022969Y-60446958D01*
X117022968Y-60446956D01*
X116903044Y-60327032D01*
X116902916Y-60326953D01*
X116902847Y-60326876D01*
X116897383Y-60322556D01*
X116898121Y-60321622D01*
X116856191Y-60275009D01*
X116844967Y-60206047D01*
X116863017Y-60155442D01*
X116880456Y-60127690D01*
X116936313Y-59968059D01*
X116950234Y-59844506D01*
X116955249Y-59800002D01*
X116955249Y-59799997D01*
X116936314Y-59631943D01*
X116892566Y-59506920D01*
X116880456Y-59472310D01*
X116880455Y-59472309D01*
X116880454Y-59472305D01*
X116880452Y-59472302D01*
X116790481Y-59329115D01*
X116790476Y-59329109D01*
X116670890Y-59209523D01*
X116670884Y-59209518D01*
X116527697Y-59119547D01*
X116527694Y-59119545D01*
X116368056Y-59063685D01*
X116200003Y-59044751D01*
X116199997Y-59044751D01*
X116031943Y-59063685D01*
X115872305Y-59119545D01*
X115872302Y-59119547D01*
X115729115Y-59209518D01*
X115729109Y-59209523D01*
X115609523Y-59329109D01*
X115609518Y-59329115D01*
X115519547Y-59472302D01*
X115519542Y-59472313D01*
X115496290Y-59538764D01*
X115455569Y-59595540D01*
X115390616Y-59621287D01*
X115322054Y-59607831D01*
X115271652Y-59559443D01*
X115257625Y-59506740D01*
X115256029Y-59506920D01*
X115236314Y-59331943D01*
X115193477Y-59209523D01*
X115180456Y-59172310D01*
X115180455Y-59172309D01*
X115180454Y-59172305D01*
X115180452Y-59172302D01*
X115090481Y-59029115D01*
X115090476Y-59029109D01*
X114970890Y-58909523D01*
X114970884Y-58909518D01*
X114827697Y-58819547D01*
X114827694Y-58819545D01*
X114668056Y-58763685D01*
X114500003Y-58744751D01*
X114499997Y-58744751D01*
X114331943Y-58763685D01*
X114172305Y-58819545D01*
X114172302Y-58819547D01*
X114029115Y-58909518D01*
X114029109Y-58909523D01*
X113909521Y-59029111D01*
X113854493Y-59116688D01*
X113802158Y-59162979D01*
X113733105Y-59173626D01*
X113669257Y-59145251D01*
X113630885Y-59086861D01*
X113625500Y-59050715D01*
X113625500Y-55203846D01*
X113645185Y-55136807D01*
X113697989Y-55091052D01*
X113767147Y-55081108D01*
X113790453Y-55086804D01*
X113803309Y-55091303D01*
X113931939Y-55136313D01*
X114099997Y-55155249D01*
X114100000Y-55155249D01*
X114100003Y-55155249D01*
X114268056Y-55136314D01*
X114268059Y-55136313D01*
X114427690Y-55080456D01*
X114427692Y-55080454D01*
X114427694Y-55080454D01*
X114427697Y-55080452D01*
X114570884Y-54990481D01*
X114570885Y-54990480D01*
X114570890Y-54990477D01*
X114690477Y-54870890D01*
X114713588Y-54834108D01*
X114765922Y-54787817D01*
X114834975Y-54777168D01*
X114898824Y-54805543D01*
X114923575Y-54834107D01*
X115009521Y-54970888D01*
X115129109Y-55090476D01*
X115129115Y-55090481D01*
X115272302Y-55180452D01*
X115272305Y-55180454D01*
X115272309Y-55180455D01*
X115272310Y-55180456D01*
X115339155Y-55203846D01*
X115431943Y-55236314D01*
X115599997Y-55255249D01*
X115600000Y-55255249D01*
X115600003Y-55255249D01*
X115768056Y-55236314D01*
X115784809Y-55230452D01*
X115927690Y-55180456D01*
X115927692Y-55180454D01*
X115927694Y-55180454D01*
X115927697Y-55180452D01*
X116070884Y-55090481D01*
X116070885Y-55090480D01*
X116070890Y-55090477D01*
X116190477Y-54970890D01*
X116190481Y-54970884D01*
X116280452Y-54827697D01*
X116280454Y-54827694D01*
X116280454Y-54827692D01*
X116280456Y-54827690D01*
X116336313Y-54668059D01*
X116336313Y-54668058D01*
X116336314Y-54668056D01*
X116355249Y-54500002D01*
X116355249Y-54499997D01*
X116336313Y-54331940D01*
X116336313Y-54331939D01*
X116305735Y-54244553D01*
X116302172Y-54174774D01*
X116335095Y-54115915D01*
X116347968Y-54103044D01*
X116437003Y-53958697D01*
X116490349Y-53797708D01*
X116500500Y-53698345D01*
X116500499Y-53101656D01*
X116490349Y-53002292D01*
X116437003Y-52841303D01*
X116436999Y-52841297D01*
X116436998Y-52841294D01*
X116347970Y-52696959D01*
X116347967Y-52696955D01*
X116228044Y-52577032D01*
X116228040Y-52577029D01*
X116083705Y-52488001D01*
X116083699Y-52487998D01*
X116083697Y-52487997D01*
X116064827Y-52481744D01*
X115922709Y-52434651D01*
X115823352Y-52424500D01*
X115401121Y-52424500D01*
X115334082Y-52404815D01*
X115288327Y-52352011D01*
X115278383Y-52282853D01*
X115294387Y-52237382D01*
X115351744Y-52140398D01*
X115397598Y-51982569D01*
X115400500Y-51945694D01*
X115400500Y-51514306D01*
X115397598Y-51477431D01*
X115388456Y-51445965D01*
X115361806Y-51354234D01*
X115351744Y-51319602D01*
X115268081Y-51178135D01*
X115268078Y-51178132D01*
X115263298Y-51171969D01*
X115265750Y-51170066D01*
X115239155Y-51121421D01*
X115244104Y-51051726D01*
X115264940Y-51019304D01*
X115263298Y-51018031D01*
X115268075Y-51011870D01*
X115268081Y-51011865D01*
X115351744Y-50870398D01*
X115397598Y-50712569D01*
X115400500Y-50675694D01*
X115400500Y-50244306D01*
X115397598Y-50207431D01*
X115395920Y-50201656D01*
X115363836Y-50091224D01*
X115351744Y-50049602D01*
X115268081Y-49908135D01*
X115268078Y-49908132D01*
X115263298Y-49901969D01*
X115265750Y-49900066D01*
X115239155Y-49851421D01*
X115244104Y-49781726D01*
X115264940Y-49749304D01*
X115263298Y-49748031D01*
X115268075Y-49741870D01*
X115268081Y-49741865D01*
X115351744Y-49600398D01*
X115397598Y-49442569D01*
X115400500Y-49405694D01*
X115400500Y-48974306D01*
X115397598Y-48937431D01*
X115394835Y-48927920D01*
X115395034Y-48858052D01*
X115432975Y-48799382D01*
X115496613Y-48770537D01*
X115565743Y-48780677D01*
G37*
G04 #@! TD.AperFunction*
G04 #@! TA.AperFunction,NonConductor*
G36*
X125109405Y-67820185D02*
G01*
X125130047Y-67836819D01*
X126094544Y-68801316D01*
X126128029Y-68862639D01*
X126123045Y-68932331D01*
X126111857Y-68954969D01*
X126069545Y-69022307D01*
X126013685Y-69181944D01*
X126002298Y-69283010D01*
X125975231Y-69347424D01*
X125917636Y-69386979D01*
X125847799Y-69389116D01*
X125791397Y-69356807D01*
X125290198Y-68855608D01*
X125290178Y-68855586D01*
X125198733Y-68764141D01*
X125141286Y-68725757D01*
X125096286Y-68695688D01*
X125096287Y-68695688D01*
X125096285Y-68695687D01*
X125054805Y-68678506D01*
X125013325Y-68661325D01*
X125013323Y-68661323D01*
X124982458Y-68648539D01*
X124982454Y-68648537D01*
X124982452Y-68648537D01*
X124982448Y-68648536D01*
X124982444Y-68648535D01*
X124891559Y-68630456D01*
X124891550Y-68630456D01*
X124861607Y-68624500D01*
X124861606Y-68624500D01*
X124437065Y-68624500D01*
X124370026Y-68604815D01*
X124324271Y-68552011D01*
X124314327Y-68482853D01*
X124319357Y-68461502D01*
X124365349Y-68322708D01*
X124375500Y-68223345D01*
X124375499Y-67924499D01*
X124395183Y-67857461D01*
X124447987Y-67811706D01*
X124499499Y-67800500D01*
X125042366Y-67800500D01*
X125109405Y-67820185D01*
G37*
G04 #@! TD.AperFunction*
G04 #@! TA.AperFunction,NonConductor*
G36*
X130626142Y-27774830D02*
G01*
X130693158Y-27794591D01*
X130738853Y-27847447D01*
X130750000Y-27898830D01*
X130750000Y-69604348D01*
X130730315Y-69671387D01*
X130677511Y-69717142D01*
X130608353Y-69727086D01*
X130544797Y-69698061D01*
X130538319Y-69692029D01*
X129745471Y-68899181D01*
X129711986Y-68837858D01*
X129716970Y-68768166D01*
X129735690Y-68736045D01*
X129735390Y-68735835D01*
X129737913Y-68732231D01*
X129738181Y-68731772D01*
X129738480Y-68731414D01*
X129738495Y-68731400D01*
X129874035Y-68537829D01*
X129973903Y-68323662D01*
X130035063Y-68095407D01*
X130055659Y-67859999D01*
X130035063Y-67624591D01*
X129973903Y-67396336D01*
X129874035Y-67182170D01*
X129858179Y-67159524D01*
X129738494Y-66988596D01*
X129571402Y-66821505D01*
X129571401Y-66821504D01*
X129385842Y-66691574D01*
X129342218Y-66636997D01*
X129335025Y-66567498D01*
X129366547Y-66505144D01*
X129385843Y-66488424D01*
X129571401Y-66358495D01*
X129738495Y-66191401D01*
X129874035Y-65997830D01*
X129973903Y-65783663D01*
X130035063Y-65555408D01*
X130055659Y-65320000D01*
X130035063Y-65084592D01*
X129973903Y-64856337D01*
X129874035Y-64642171D01*
X129869934Y-64636313D01*
X129738494Y-64448597D01*
X129571402Y-64281506D01*
X129571396Y-64281501D01*
X129385842Y-64151575D01*
X129342217Y-64096998D01*
X129335023Y-64027500D01*
X129366546Y-63965145D01*
X129385842Y-63948425D01*
X129525727Y-63850476D01*
X129571401Y-63818495D01*
X129738495Y-63651401D01*
X129874035Y-63457830D01*
X129973903Y-63243663D01*
X130035063Y-63015408D01*
X130055659Y-62780000D01*
X130054744Y-62769547D01*
X130048540Y-62698629D01*
X130035063Y-62544592D01*
X129973903Y-62316337D01*
X129874035Y-62102171D01*
X129850676Y-62068810D01*
X129738494Y-61908597D01*
X129571402Y-61741506D01*
X129571396Y-61741501D01*
X129385842Y-61611575D01*
X129342217Y-61556998D01*
X129335023Y-61487500D01*
X129366546Y-61425145D01*
X129385842Y-61408425D01*
X129543959Y-61297710D01*
X129571401Y-61278495D01*
X129738495Y-61111401D01*
X129874035Y-60917830D01*
X129973903Y-60703663D01*
X130035063Y-60475408D01*
X130055659Y-60240000D01*
X130055336Y-60236313D01*
X130037986Y-60038001D01*
X130035063Y-60004592D01*
X129977692Y-59790477D01*
X129973905Y-59776344D01*
X129973904Y-59776343D01*
X129973903Y-59776337D01*
X129874035Y-59562171D01*
X129857646Y-59538764D01*
X129738494Y-59368597D01*
X129571402Y-59201506D01*
X129571401Y-59201505D01*
X129454350Y-59119545D01*
X129385839Y-59071573D01*
X129342216Y-59016997D01*
X129335023Y-58947498D01*
X129366545Y-58885144D01*
X129385837Y-58868427D01*
X129571401Y-58738494D01*
X129738495Y-58571400D01*
X129874035Y-58377829D01*
X129973903Y-58163662D01*
X130035063Y-57935407D01*
X130055659Y-57699999D01*
X130035063Y-57464591D01*
X129973903Y-57236336D01*
X129874035Y-57022170D01*
X129789645Y-56901647D01*
X129738494Y-56828596D01*
X129571402Y-56661505D01*
X129571401Y-56661504D01*
X129385842Y-56531574D01*
X129342218Y-56476997D01*
X129335025Y-56407498D01*
X129366547Y-56345144D01*
X129385843Y-56328424D01*
X129571401Y-56198495D01*
X129738495Y-56031401D01*
X129874035Y-55837830D01*
X129973903Y-55623663D01*
X130035063Y-55395408D01*
X130055659Y-55160000D01*
X130055610Y-55159445D01*
X130047426Y-55065898D01*
X130035063Y-54924592D01*
X129973903Y-54696337D01*
X129874035Y-54482171D01*
X129816499Y-54400000D01*
X129738494Y-54288597D01*
X129571402Y-54121506D01*
X129571396Y-54121501D01*
X129385842Y-53991575D01*
X129342217Y-53936998D01*
X129335023Y-53867500D01*
X129366546Y-53805145D01*
X129385842Y-53788425D01*
X129466541Y-53731919D01*
X129571401Y-53658495D01*
X129738495Y-53491401D01*
X129874035Y-53297830D01*
X129973903Y-53083663D01*
X130035063Y-52855408D01*
X130055659Y-52620000D01*
X130053568Y-52596106D01*
X130049064Y-52544622D01*
X130035063Y-52384592D01*
X129973903Y-52156337D01*
X129874035Y-51942171D01*
X129873914Y-51941997D01*
X129738494Y-51748597D01*
X129571402Y-51581506D01*
X129571396Y-51581501D01*
X129385842Y-51451575D01*
X129342217Y-51396998D01*
X129335023Y-51327500D01*
X129366546Y-51265145D01*
X129385842Y-51248425D01*
X129494545Y-51172310D01*
X129571401Y-51118495D01*
X129738495Y-50951401D01*
X129874035Y-50757830D01*
X129973903Y-50543663D01*
X130035063Y-50315408D01*
X130055659Y-50080000D01*
X130035063Y-49844592D01*
X129973903Y-49616337D01*
X129874035Y-49402171D01*
X129800891Y-49297709D01*
X129738494Y-49208597D01*
X129571402Y-49041506D01*
X129571401Y-49041505D01*
X129385842Y-48911575D01*
X129342218Y-48856998D01*
X129335025Y-48787499D01*
X129366547Y-48725145D01*
X129385843Y-48708425D01*
X129466909Y-48651662D01*
X129571401Y-48578496D01*
X129738495Y-48411402D01*
X129874035Y-48217831D01*
X129973903Y-48003664D01*
X130035063Y-47775409D01*
X130055659Y-47540001D01*
X130035063Y-47304593D01*
X129982793Y-47109518D01*
X129973905Y-47076345D01*
X129973904Y-47076344D01*
X129973903Y-47076338D01*
X129874035Y-46862172D01*
X129738495Y-46668600D01*
X129738494Y-46668598D01*
X129571402Y-46501507D01*
X129571401Y-46501506D01*
X129385840Y-46371575D01*
X129342216Y-46316998D01*
X129335023Y-46247499D01*
X129366545Y-46185145D01*
X129385837Y-46168428D01*
X129571401Y-46038495D01*
X129738495Y-45871401D01*
X129874035Y-45677830D01*
X129973903Y-45463663D01*
X130035063Y-45235408D01*
X130055659Y-45000000D01*
X130035063Y-44764592D01*
X129973903Y-44536337D01*
X129874035Y-44322171D01*
X129738495Y-44128599D01*
X129738494Y-44128597D01*
X129571402Y-43961506D01*
X129571396Y-43961501D01*
X129385842Y-43831575D01*
X129342217Y-43776998D01*
X129335023Y-43707500D01*
X129366546Y-43645145D01*
X129385842Y-43628425D01*
X129408026Y-43612891D01*
X129571401Y-43498495D01*
X129738495Y-43331401D01*
X129874035Y-43137830D01*
X129973903Y-42923663D01*
X130035063Y-42695408D01*
X130055659Y-42460000D01*
X130035063Y-42224592D01*
X129973903Y-41996337D01*
X129874035Y-41782171D01*
X129738495Y-41588599D01*
X129738494Y-41588597D01*
X129571402Y-41421506D01*
X129571396Y-41421501D01*
X129385842Y-41291575D01*
X129342217Y-41236998D01*
X129335023Y-41167500D01*
X129366546Y-41105145D01*
X129385842Y-41088425D01*
X129566655Y-40961818D01*
X129571401Y-40958495D01*
X129738495Y-40791401D01*
X129874035Y-40597830D01*
X129973903Y-40383663D01*
X130035063Y-40155408D01*
X130055659Y-39920000D01*
X130035063Y-39684592D01*
X129973903Y-39456337D01*
X129874035Y-39242171D01*
X129851284Y-39209678D01*
X129738494Y-39048597D01*
X129571402Y-38881506D01*
X129571396Y-38881501D01*
X129385842Y-38751575D01*
X129342217Y-38696998D01*
X129335023Y-38627500D01*
X129366546Y-38565145D01*
X129385842Y-38548425D01*
X129408924Y-38532263D01*
X129571401Y-38418495D01*
X129738495Y-38251401D01*
X129874035Y-38057830D01*
X129973903Y-37843663D01*
X130035063Y-37615408D01*
X130055659Y-37380000D01*
X130035063Y-37144592D01*
X129973903Y-36916337D01*
X129874035Y-36702171D01*
X129868205Y-36693844D01*
X129738494Y-36508597D01*
X129571402Y-36341506D01*
X129571401Y-36341505D01*
X129385840Y-36211574D01*
X129342216Y-36156997D01*
X129335023Y-36087498D01*
X129366545Y-36025144D01*
X129385837Y-36008427D01*
X129571401Y-35878494D01*
X129738495Y-35711400D01*
X129874035Y-35517829D01*
X129973903Y-35303662D01*
X130035063Y-35075407D01*
X130055659Y-34839999D01*
X130035063Y-34604591D01*
X129985600Y-34419991D01*
X129973905Y-34376343D01*
X129973904Y-34376342D01*
X129973903Y-34376336D01*
X129874035Y-34162170D01*
X129858018Y-34139294D01*
X129738494Y-33968596D01*
X129571402Y-33801505D01*
X129571401Y-33801504D01*
X129385842Y-33671574D01*
X129342218Y-33616997D01*
X129335025Y-33547498D01*
X129366547Y-33485144D01*
X129385843Y-33468424D01*
X129571401Y-33338495D01*
X129738495Y-33171401D01*
X129874035Y-32977830D01*
X129973903Y-32763663D01*
X130035063Y-32535408D01*
X130055659Y-32300000D01*
X130035063Y-32064592D01*
X129973903Y-31836337D01*
X129874035Y-31622171D01*
X129738495Y-31428599D01*
X129616567Y-31306671D01*
X129583084Y-31245351D01*
X129588068Y-31175659D01*
X129629939Y-31119725D01*
X129660915Y-31102810D01*
X129792331Y-31053796D01*
X129907546Y-30967546D01*
X129993796Y-30852331D01*
X130044091Y-30717483D01*
X130050500Y-30657873D01*
X130050499Y-28862128D01*
X130044091Y-28802517D01*
X129993796Y-28667669D01*
X129993795Y-28667668D01*
X129993793Y-28667664D01*
X129907547Y-28552455D01*
X129907544Y-28552452D01*
X129792335Y-28466206D01*
X129792328Y-28466202D01*
X129657482Y-28415908D01*
X129657483Y-28415908D01*
X129597883Y-28409501D01*
X129597881Y-28409500D01*
X129597873Y-28409500D01*
X129597865Y-28409500D01*
X128462230Y-28409500D01*
X128395191Y-28389815D01*
X128374549Y-28373181D01*
X127984981Y-27983613D01*
X127951496Y-27922290D01*
X127956480Y-27852598D01*
X127998352Y-27796665D01*
X128063816Y-27772248D01*
X128072795Y-27771932D01*
X130626142Y-27774830D01*
G37*
G04 #@! TD.AperFunction*
G04 #@! TA.AperFunction,NonConductor*
G36*
X120867539Y-67820185D02*
G01*
X120913294Y-67872989D01*
X120924500Y-67924500D01*
X120924500Y-68223336D01*
X120924501Y-68223355D01*
X120934650Y-68322707D01*
X120934652Y-68322713D01*
X120957299Y-68391058D01*
X120959701Y-68460886D01*
X120923969Y-68520928D01*
X120861448Y-68552120D01*
X120825709Y-68553281D01*
X120750003Y-68544751D01*
X120749997Y-68544751D01*
X120581943Y-68563685D01*
X120422305Y-68619545D01*
X120422302Y-68619547D01*
X120279115Y-68709518D01*
X120279109Y-68709523D01*
X120159523Y-68829109D01*
X120159518Y-68829115D01*
X120069547Y-68972302D01*
X120069545Y-68972305D01*
X120013685Y-69131943D01*
X119994751Y-69299997D01*
X119994751Y-69300002D01*
X120013685Y-69468056D01*
X120069545Y-69627694D01*
X120069547Y-69627697D01*
X120159518Y-69770884D01*
X120159523Y-69770890D01*
X120279109Y-69890476D01*
X120279115Y-69890481D01*
X120422302Y-69980452D01*
X120422305Y-69980454D01*
X120422309Y-69980455D01*
X120422310Y-69980456D01*
X120460691Y-69993886D01*
X120581943Y-70036314D01*
X120749997Y-70055249D01*
X120750000Y-70055249D01*
X120750003Y-70055249D01*
X120876044Y-70041047D01*
X120918059Y-70036313D01*
X121039309Y-69993885D01*
X121109086Y-69990323D01*
X121169714Y-70025052D01*
X121197304Y-70069972D01*
X121243743Y-70202686D01*
X121243748Y-70202697D01*
X121333719Y-70345884D01*
X121333724Y-70345890D01*
X121453310Y-70465476D01*
X121453316Y-70465481D01*
X121596503Y-70555452D01*
X121596506Y-70555454D01*
X121596510Y-70555455D01*
X121596511Y-70555456D01*
X121631320Y-70567636D01*
X121756144Y-70611314D01*
X121924198Y-70630249D01*
X121924201Y-70630249D01*
X121924204Y-70630249D01*
X122092260Y-70611313D01*
X122092261Y-70611313D01*
X122217082Y-70567636D01*
X122229762Y-70563198D01*
X122299540Y-70559636D01*
X122358398Y-70592559D01*
X122426695Y-70660856D01*
X122456246Y-70680601D01*
X122475037Y-70696023D01*
X122627647Y-70848633D01*
X122661132Y-70909956D01*
X122656148Y-70979648D01*
X122644959Y-71002288D01*
X122621683Y-71039330D01*
X122604371Y-71061037D01*
X121877227Y-71788181D01*
X121815904Y-71821666D01*
X121789546Y-71824500D01*
X121476663Y-71824500D01*
X121476644Y-71824501D01*
X121377292Y-71834650D01*
X121377289Y-71834651D01*
X121216305Y-71887996D01*
X121216294Y-71888001D01*
X121071959Y-71977029D01*
X121071955Y-71977032D01*
X120952032Y-72096955D01*
X120952029Y-72096959D01*
X120863001Y-72241294D01*
X120862996Y-72241305D01*
X120809651Y-72402290D01*
X120799500Y-72501647D01*
X120799500Y-73098337D01*
X120799501Y-73098355D01*
X120809650Y-73197707D01*
X120809651Y-73197710D01*
X120862996Y-73358694D01*
X120863001Y-73358705D01*
X120952029Y-73503040D01*
X120952032Y-73503044D01*
X121071955Y-73622967D01*
X121071959Y-73622970D01*
X121216294Y-73711998D01*
X121216297Y-73711999D01*
X121216303Y-73712003D01*
X121377292Y-73765349D01*
X121476655Y-73775500D01*
X122023344Y-73775499D01*
X122023352Y-73775498D01*
X122023355Y-73775498D01*
X122077760Y-73769940D01*
X122122708Y-73765349D01*
X122283697Y-73712003D01*
X122428044Y-73622968D01*
X122437319Y-73613693D01*
X122498642Y-73580208D01*
X122568334Y-73585192D01*
X122612681Y-73613693D01*
X122621955Y-73622967D01*
X122621959Y-73622970D01*
X122766294Y-73711998D01*
X122766297Y-73711999D01*
X122766303Y-73712003D01*
X122927292Y-73765349D01*
X123026655Y-73775500D01*
X123293674Y-73775499D01*
X123360713Y-73795183D01*
X123406468Y-73847987D01*
X123411076Y-73861596D01*
X123411388Y-73861487D01*
X123413686Y-73868056D01*
X123413687Y-73868059D01*
X123437811Y-73937003D01*
X123454622Y-73985046D01*
X123458183Y-74054825D01*
X123423454Y-74115452D01*
X123361460Y-74147679D01*
X123337580Y-74150000D01*
X117643005Y-74150000D01*
X117575966Y-74130315D01*
X117530211Y-74077511D01*
X117520267Y-74008353D01*
X117549292Y-73944797D01*
X117555324Y-73938319D01*
X117985855Y-73507788D01*
X117985855Y-73507787D01*
X117985858Y-73507785D01*
X118054312Y-73405337D01*
X118101463Y-73291503D01*
X118120120Y-73197710D01*
X118125501Y-73170660D01*
X118125501Y-73042335D01*
X118125500Y-73042309D01*
X118125500Y-71850875D01*
X118144507Y-71784902D01*
X118180456Y-71727690D01*
X118236313Y-71568059D01*
X118255249Y-71400000D01*
X118254484Y-71393209D01*
X118236314Y-71231943D01*
X118180454Y-71072305D01*
X118180452Y-71072302D01*
X118090481Y-70929115D01*
X118090476Y-70929109D01*
X117970890Y-70809523D01*
X117970884Y-70809518D01*
X117827697Y-70719547D01*
X117827694Y-70719545D01*
X117668055Y-70663685D01*
X117566988Y-70652298D01*
X117502574Y-70625231D01*
X117463019Y-70567636D01*
X117460882Y-70497799D01*
X117493189Y-70441400D01*
X118385857Y-69548734D01*
X118385879Y-69548700D01*
X118386822Y-69547292D01*
X118454307Y-69446292D01*
X118454307Y-69446291D01*
X118454311Y-69446286D01*
X118501463Y-69332452D01*
X118515416Y-69262304D01*
X118525500Y-69211607D01*
X118525500Y-69124343D01*
X118545185Y-69057304D01*
X118597989Y-69011549D01*
X118663383Y-69001123D01*
X118692185Y-69004368D01*
X118699999Y-69005249D01*
X118700000Y-69005249D01*
X118700003Y-69005249D01*
X118868056Y-68986314D01*
X118868059Y-68986313D01*
X119027690Y-68930456D01*
X119027692Y-68930454D01*
X119027694Y-68930454D01*
X119027697Y-68930452D01*
X119170884Y-68840481D01*
X119170885Y-68840480D01*
X119170890Y-68840477D01*
X119290477Y-68720890D01*
X119290481Y-68720884D01*
X119380452Y-68577697D01*
X119380455Y-68577692D01*
X119380456Y-68577690D01*
X119436313Y-68418059D01*
X119436313Y-68418054D01*
X119437613Y-68414341D01*
X119466972Y-68367616D01*
X119997772Y-67836819D01*
X120059095Y-67803334D01*
X120085453Y-67800500D01*
X120800500Y-67800500D01*
X120867539Y-67820185D01*
G37*
G04 #@! TD.AperFunction*
G04 #@! TA.AperFunction,NonConductor*
G36*
X124109871Y-74450727D02*
G01*
X124114384Y-74451236D01*
X124178798Y-74478303D01*
X124218353Y-74535898D01*
X124224500Y-74574456D01*
X124224500Y-74749123D01*
X124205494Y-74815095D01*
X124169544Y-74872309D01*
X124169542Y-74872313D01*
X124141041Y-74953764D01*
X124100320Y-75010540D01*
X124035367Y-75036287D01*
X123966805Y-75022831D01*
X123916402Y-74974443D01*
X123900000Y-74912809D01*
X123900000Y-74565836D01*
X123919685Y-74498797D01*
X123972489Y-74453042D01*
X124037882Y-74442616D01*
X124109871Y-74450727D01*
G37*
G04 #@! TD.AperFunction*
G04 #@! TA.AperFunction,NonConductor*
G36*
X115296951Y-73642931D02*
G01*
X115317548Y-73651463D01*
X115392507Y-73666372D01*
X115454418Y-73698757D01*
X115473853Y-73722891D01*
X115477030Y-73728042D01*
X115477031Y-73728043D01*
X115477032Y-73728044D01*
X115596956Y-73847968D01*
X115596958Y-73847969D01*
X115596959Y-73847970D01*
X115741302Y-73937003D01*
X115741308Y-73937005D01*
X115789502Y-73952975D01*
X115846948Y-73992746D01*
X115873772Y-74057262D01*
X115874500Y-74070681D01*
X115874500Y-75248810D01*
X115854815Y-75315849D01*
X115802011Y-75361604D01*
X115732853Y-75371548D01*
X115669297Y-75342523D01*
X115662819Y-75336491D01*
X115614901Y-75288573D01*
X115614895Y-75288568D01*
X115471708Y-75198597D01*
X115471705Y-75198595D01*
X115308352Y-75141436D01*
X115261626Y-75112075D01*
X115161819Y-75012268D01*
X115128334Y-74950945D01*
X115125500Y-74924587D01*
X115125500Y-73757493D01*
X115145185Y-73690454D01*
X115197989Y-73644699D01*
X115267147Y-73634755D01*
X115296951Y-73642931D01*
G37*
G04 #@! TD.AperFunction*
G04 #@! TA.AperFunction,NonConductor*
G36*
X117319334Y-74276822D02*
G01*
X117375267Y-74318694D01*
X117399684Y-74384158D01*
X117400000Y-74393004D01*
X117400000Y-75387051D01*
X117380315Y-75454090D01*
X117327511Y-75499845D01*
X117258353Y-75509789D01*
X117194797Y-75480764D01*
X117172898Y-75455942D01*
X117146398Y-75416282D01*
X117125520Y-75349604D01*
X117125500Y-75347391D01*
X117125500Y-74419504D01*
X117145185Y-74352465D01*
X117161819Y-74331823D01*
X117188319Y-74305323D01*
X117249642Y-74271838D01*
X117319334Y-74276822D01*
G37*
G04 #@! TD.AperFunction*
G04 #@! TA.AperFunction,NonConductor*
G36*
X124105203Y-75393477D02*
G01*
X124141041Y-75446234D01*
X124147798Y-75465542D01*
X124169545Y-75527694D01*
X124169547Y-75527697D01*
X124259518Y-75670884D01*
X124259523Y-75670890D01*
X124379110Y-75790477D01*
X124379117Y-75790481D01*
X124379564Y-75790838D01*
X124379783Y-75791150D01*
X124384034Y-75795401D01*
X124383289Y-75796145D01*
X124419707Y-75848024D01*
X124422561Y-75917836D01*
X124389937Y-75975470D01*
X124111681Y-76253727D01*
X124050358Y-76287212D01*
X123980667Y-76282228D01*
X123924733Y-76240357D01*
X123900316Y-76174892D01*
X123900000Y-76166046D01*
X123900000Y-75487190D01*
X123919685Y-75420151D01*
X123972489Y-75374396D01*
X124041647Y-75364452D01*
X124105203Y-75393477D01*
G37*
G04 #@! TD.AperFunction*
G04 #@! TA.AperFunction,NonConductor*
G36*
X126018834Y-76218271D02*
G01*
X126074767Y-76260143D01*
X126099184Y-76325608D01*
X126099500Y-76334453D01*
X126099500Y-76650263D01*
X126079815Y-76717302D01*
X126027011Y-76763057D01*
X125957853Y-76773001D01*
X125909528Y-76755257D01*
X125852692Y-76719545D01*
X125852691Y-76719544D01*
X125852690Y-76719544D01*
X125714757Y-76671279D01*
X125657982Y-76630558D01*
X125632235Y-76565605D01*
X125645691Y-76497044D01*
X125668027Y-76466562D01*
X125887820Y-76246770D01*
X125949142Y-76213287D01*
X126018834Y-76218271D01*
G37*
G04 #@! TD.AperFunction*
G04 #@! TA.AperFunction,NonConductor*
G36*
X127555703Y-76206804D02*
G01*
X127576073Y-76229392D01*
X127600343Y-76264053D01*
X127661501Y-76351396D01*
X127661506Y-76351402D01*
X127828597Y-76518493D01*
X127828603Y-76518498D01*
X128014158Y-76648425D01*
X128057783Y-76703002D01*
X128064977Y-76772500D01*
X128033454Y-76834855D01*
X128014158Y-76851575D01*
X127828597Y-76981505D01*
X127813798Y-76996305D01*
X127752475Y-77029790D01*
X127682783Y-77024806D01*
X127626850Y-76982934D01*
X127604500Y-76932815D01*
X127601464Y-76917555D01*
X127601463Y-76917548D01*
X127577428Y-76859523D01*
X127554312Y-76803715D01*
X127485858Y-76701267D01*
X127485855Y-76701263D01*
X127386819Y-76602227D01*
X127353334Y-76540904D01*
X127350500Y-76514546D01*
X127350500Y-76300517D01*
X127370185Y-76233478D01*
X127422989Y-76187723D01*
X127492147Y-76177779D01*
X127555703Y-76206804D01*
G37*
G04 #@! TD.AperFunction*
G04 #@! TA.AperFunction,NonConductor*
G36*
X115955743Y-76264053D02*
G01*
X115994115Y-76322442D01*
X115999500Y-76358589D01*
X115999500Y-76551374D01*
X115979815Y-76618413D01*
X115963181Y-76639055D01*
X115798524Y-76803712D01*
X115626270Y-76975966D01*
X115626267Y-76975969D01*
X115582704Y-77019531D01*
X115539142Y-77063093D01*
X115512000Y-77103715D01*
X115511999Y-77103716D01*
X115470690Y-77165535D01*
X115470688Y-77165540D01*
X115451975Y-77210718D01*
X115439062Y-77241894D01*
X115395222Y-77296299D01*
X115328928Y-77318365D01*
X115261229Y-77301087D01*
X115213617Y-77249951D01*
X115200500Y-77194444D01*
X115200500Y-76738747D01*
X115220185Y-76671708D01*
X115272989Y-76625953D01*
X115305301Y-76617000D01*
X115305282Y-76616913D01*
X115307187Y-76616478D01*
X115310624Y-76615526D01*
X115311196Y-76615461D01*
X115312070Y-76615363D01*
X115471701Y-76559506D01*
X115471703Y-76559504D01*
X115471705Y-76559504D01*
X115471708Y-76559502D01*
X115614895Y-76469531D01*
X115614896Y-76469530D01*
X115614901Y-76469527D01*
X115734488Y-76349940D01*
X115770507Y-76292615D01*
X115822841Y-76246326D01*
X115891894Y-76235678D01*
X115955743Y-76264053D01*
G37*
G04 #@! TD.AperFunction*
G04 #@! TA.AperFunction,NonConductor*
G36*
X123705514Y-77621180D02*
G01*
X123726960Y-77638327D01*
X123729109Y-77640476D01*
X123729115Y-77640481D01*
X123872302Y-77730452D01*
X123872305Y-77730454D01*
X123872309Y-77730455D01*
X123872310Y-77730456D01*
X124012008Y-77779338D01*
X124068784Y-77820060D01*
X124094531Y-77885013D01*
X124081075Y-77953574D01*
X124077787Y-77959498D01*
X124077131Y-77960605D01*
X124077129Y-77960610D01*
X124038110Y-78094915D01*
X124000504Y-78153800D01*
X123937031Y-78183006D01*
X123867844Y-78173260D01*
X123814910Y-78127656D01*
X123814040Y-78126291D01*
X123752976Y-78029109D01*
X123633390Y-77909523D01*
X123633384Y-77909518D01*
X123509210Y-77831494D01*
X123462919Y-77779160D01*
X123452271Y-77710106D01*
X123480646Y-77646258D01*
X123539036Y-77607886D01*
X123574224Y-77602505D01*
X123638326Y-77602012D01*
X123705514Y-77621180D01*
G37*
G04 #@! TD.AperFunction*
G04 #@! TA.AperFunction,NonConductor*
G36*
X116839481Y-78204063D02*
G01*
X116849999Y-78205249D01*
X116850000Y-78205249D01*
X116850001Y-78205249D01*
X116878996Y-78201981D01*
X116904899Y-78199063D01*
X116973721Y-78211117D01*
X117025101Y-78258466D01*
X117035826Y-78281329D01*
X117069544Y-78377690D01*
X117105493Y-78434902D01*
X117124500Y-78500875D01*
X117124500Y-78578657D01*
X117104815Y-78645696D01*
X117052011Y-78691451D01*
X116982853Y-78701395D01*
X116959546Y-78695699D01*
X116868057Y-78663686D01*
X116760616Y-78651580D01*
X116696202Y-78624513D01*
X116656647Y-78566918D01*
X116650500Y-78528360D01*
X116650500Y-78321526D01*
X116670185Y-78254487D01*
X116722989Y-78208732D01*
X116788382Y-78198306D01*
X116839481Y-78204063D01*
G37*
G04 #@! TD.AperFunction*
G04 #@! TA.AperFunction,NonConductor*
G36*
X122805822Y-77628101D02*
G01*
X122851982Y-77680551D01*
X122862457Y-77749631D01*
X122833922Y-77813408D01*
X122805560Y-77837922D01*
X122691612Y-77909521D01*
X122691609Y-77909523D01*
X122572023Y-78029109D01*
X122572018Y-78029115D01*
X122482047Y-78172302D01*
X122482045Y-78172305D01*
X122426185Y-78331944D01*
X122414237Y-78437987D01*
X122387170Y-78502401D01*
X122360037Y-78527118D01*
X122359637Y-78527386D01*
X122359504Y-78527474D01*
X122359505Y-78527475D01*
X122267216Y-78589140D01*
X122231844Y-78624513D01*
X122180090Y-78676267D01*
X121362181Y-79494176D01*
X121300858Y-79527661D01*
X121231166Y-79522677D01*
X121175233Y-79480805D01*
X121150816Y-79415341D01*
X121150500Y-79406495D01*
X121150500Y-78413393D01*
X121150499Y-78413389D01*
X121134299Y-78331944D01*
X121126463Y-78292548D01*
X121096781Y-78220890D01*
X121095608Y-78218059D01*
X121079313Y-78178718D01*
X121079312Y-78178715D01*
X121060672Y-78150819D01*
X121010858Y-78076267D01*
X121010856Y-78076264D01*
X120920637Y-77986045D01*
X120920606Y-77986016D01*
X120769679Y-77835089D01*
X120736194Y-77773766D01*
X120741178Y-77704074D01*
X120783050Y-77648141D01*
X120848514Y-77623724D01*
X120856403Y-77623412D01*
X122738633Y-77608933D01*
X122805822Y-77628101D01*
G37*
G04 #@! TD.AperFunction*
G04 #@! TA.AperFunction,NonConductor*
G36*
X119256587Y-78095185D02*
G01*
X119277229Y-78111819D01*
X119863181Y-78697771D01*
X119896666Y-78759094D01*
X119899500Y-78785452D01*
X119899500Y-81508046D01*
X119879815Y-81575085D01*
X119827011Y-81620840D01*
X119757853Y-81630784D01*
X119694297Y-81601759D01*
X119669962Y-81573144D01*
X119622968Y-81496956D01*
X119503043Y-81377031D01*
X119484307Y-81365474D01*
X119468549Y-81355755D01*
X119421825Y-81303808D01*
X119410602Y-81234846D01*
X119426913Y-81187098D01*
X119472869Y-81109391D01*
X119517665Y-80955202D01*
X119520500Y-80919179D01*
X119520499Y-80520818D01*
X119517665Y-80484794D01*
X119472869Y-80330605D01*
X119469312Y-80324591D01*
X119438873Y-80273121D01*
X119421689Y-80205397D01*
X119438873Y-80146877D01*
X119459034Y-80112785D01*
X119472869Y-80089393D01*
X119517665Y-79935204D01*
X119520500Y-79899181D01*
X119520499Y-79500820D01*
X119517665Y-79464796D01*
X119472869Y-79310607D01*
X119391135Y-79172402D01*
X119391133Y-79172400D01*
X119391130Y-79172396D01*
X119277603Y-79058869D01*
X119277595Y-79058863D01*
X119139393Y-78977131D01*
X119139388Y-78977129D01*
X118985208Y-78932335D01*
X118985202Y-78932334D01*
X118949188Y-78929500D01*
X118499500Y-78929500D01*
X118432461Y-78909815D01*
X118386706Y-78857011D01*
X118375500Y-78805500D01*
X118375500Y-78500875D01*
X118394507Y-78434902D01*
X118430456Y-78377690D01*
X118446464Y-78331941D01*
X118486313Y-78218059D01*
X118487756Y-78205249D01*
X118489969Y-78185617D01*
X118517035Y-78121203D01*
X118574630Y-78081648D01*
X118613189Y-78075500D01*
X119189548Y-78075500D01*
X119256587Y-78095185D01*
G37*
G04 #@! TD.AperFunction*
G04 #@! TA.AperFunction,NonConductor*
G36*
X123416370Y-81067268D02*
G01*
X123448694Y-81090545D01*
X123542486Y-81184337D01*
X123570802Y-81202129D01*
X123608676Y-81225927D01*
X123654967Y-81278262D01*
X123665615Y-81347316D01*
X123637240Y-81411164D01*
X123630386Y-81418601D01*
X123577032Y-81471955D01*
X123577029Y-81471959D01*
X123488001Y-81616294D01*
X123487997Y-81616303D01*
X123451137Y-81727539D01*
X123411364Y-81784983D01*
X123346848Y-81811806D01*
X123278072Y-81799491D01*
X123226872Y-81751947D01*
X123215726Y-81727539D01*
X123212003Y-81716303D01*
X123211999Y-81716296D01*
X123211998Y-81716294D01*
X123122970Y-81571959D01*
X123122967Y-81571955D01*
X123113693Y-81562681D01*
X123080208Y-81501358D01*
X123085192Y-81431666D01*
X123113693Y-81387319D01*
X123122968Y-81378044D01*
X123212003Y-81233697D01*
X123243308Y-81139222D01*
X123283078Y-81081778D01*
X123347594Y-81054954D01*
X123416370Y-81067268D01*
G37*
G04 #@! TD.AperFunction*
G04 #@! TA.AperFunction,NonConductor*
G36*
X115065096Y-80794506D02*
G01*
X115109345Y-80822310D01*
X115122310Y-80830456D01*
X115281941Y-80886313D01*
X115289383Y-80887151D01*
X115353796Y-80914217D01*
X115393352Y-80971812D01*
X115399500Y-81010372D01*
X115399500Y-82215548D01*
X115379815Y-82282587D01*
X115327011Y-82328342D01*
X115257853Y-82338286D01*
X115194297Y-82309261D01*
X115187819Y-82303229D01*
X114786818Y-81902228D01*
X114753333Y-81840905D01*
X114750499Y-81814547D01*
X114750499Y-81202129D01*
X114750498Y-81202123D01*
X114748586Y-81184337D01*
X114744091Y-81142517D01*
X114699761Y-81023663D01*
X114693797Y-81007671D01*
X114693795Y-81007668D01*
X114668450Y-80973811D01*
X114644033Y-80908346D01*
X114658885Y-80840074D01*
X114708290Y-80790668D01*
X114767717Y-80775500D01*
X114999124Y-80775500D01*
X115065096Y-80794506D01*
G37*
G04 #@! TD.AperFunction*
G04 #@! TA.AperFunction,NonConductor*
G36*
X118093334Y-82985192D02*
G01*
X118137681Y-83013693D01*
X118146955Y-83022967D01*
X118146959Y-83022970D01*
X118291294Y-83111998D01*
X118291297Y-83111999D01*
X118291303Y-83112003D01*
X118355632Y-83133319D01*
X118413077Y-83173091D01*
X118439901Y-83237607D01*
X118427586Y-83306383D01*
X118381727Y-83356563D01*
X118269610Y-83425718D01*
X118269608Y-83425719D01*
X118237680Y-83457648D01*
X118176356Y-83491133D01*
X118106665Y-83486147D01*
X118062320Y-83457648D01*
X118030391Y-83425719D01*
X118030386Y-83425716D01*
X117909777Y-83351323D01*
X117863052Y-83299375D01*
X117851654Y-83231901D01*
X117855249Y-83200000D01*
X117851757Y-83169013D01*
X117863810Y-83100195D01*
X117909881Y-83049591D01*
X117953044Y-83022968D01*
X117962319Y-83013693D01*
X118023642Y-82980208D01*
X118093334Y-82985192D01*
G37*
G04 #@! TD.AperFunction*
G04 #@! TA.AperFunction,NonConductor*
G36*
X119857727Y-82792256D02*
G01*
X119896583Y-82850324D01*
X119899883Y-82863226D01*
X119900147Y-82864551D01*
X119900151Y-82864591D01*
X119900154Y-82864591D01*
X119923535Y-82982139D01*
X119923537Y-82982146D01*
X119931535Y-83001455D01*
X119931536Y-83001460D01*
X119931537Y-83001460D01*
X119967854Y-83089139D01*
X119970688Y-83095980D01*
X119970688Y-83095981D01*
X119981395Y-83112004D01*
X119999027Y-83138391D01*
X119999028Y-83138394D01*
X119999029Y-83138394D01*
X120039141Y-83198427D01*
X120130586Y-83289872D01*
X120130608Y-83289892D01*
X120138537Y-83297821D01*
X120172022Y-83359144D01*
X120167038Y-83428836D01*
X120125166Y-83484769D01*
X120059702Y-83509186D01*
X120050857Y-83509502D01*
X119950830Y-83509502D01*
X119950808Y-83509503D01*
X119914797Y-83512336D01*
X119812584Y-83542032D01*
X119742715Y-83541832D01*
X119690309Y-83510636D01*
X119605392Y-83425719D01*
X119605388Y-83425716D01*
X119462296Y-83337455D01*
X119462290Y-83337452D01*
X119462288Y-83337451D01*
X119409547Y-83319974D01*
X119352104Y-83280202D01*
X119325281Y-83215686D01*
X119337596Y-83146910D01*
X119383453Y-83096733D01*
X119503044Y-83022968D01*
X119622968Y-82903044D01*
X119672735Y-82822358D01*
X119724682Y-82775635D01*
X119793644Y-82764412D01*
X119857727Y-82792256D01*
G37*
G04 #@! TD.AperFunction*
G04 #@! TA.AperFunction,NonConductor*
G36*
X116405703Y-84621039D02*
G01*
X116442204Y-84675746D01*
X116472973Y-84768597D01*
X116487449Y-84812284D01*
X116487454Y-84812295D01*
X116575715Y-84955387D01*
X116575718Y-84955391D01*
X116657645Y-85037318D01*
X116691130Y-85098641D01*
X116686146Y-85168333D01*
X116657646Y-85212679D01*
X116575718Y-85294608D01*
X116575715Y-85294612D01*
X116487454Y-85437704D01*
X116487449Y-85437715D01*
X116467081Y-85499181D01*
X116446142Y-85562374D01*
X116442206Y-85574251D01*
X116402433Y-85631696D01*
X116337917Y-85658519D01*
X116269142Y-85646204D01*
X116217942Y-85598661D01*
X116200500Y-85535247D01*
X116200500Y-84714752D01*
X116220185Y-84647713D01*
X116272989Y-84601958D01*
X116342147Y-84592014D01*
X116405703Y-84621039D01*
G37*
G04 #@! TD.AperFunction*
G04 #@! TA.AperFunction,NonConductor*
G36*
X121172839Y-84488804D02*
G01*
X121225773Y-84534407D01*
X121226644Y-84535773D01*
X121272176Y-84608237D01*
X121391762Y-84727823D01*
X121391768Y-84727828D01*
X121534955Y-84817799D01*
X121534958Y-84817801D01*
X121534962Y-84817802D01*
X121534963Y-84817803D01*
X121694594Y-84873660D01*
X121694597Y-84873661D01*
X121864701Y-84892827D01*
X121929115Y-84919893D01*
X121968671Y-84977488D01*
X121970808Y-85047325D01*
X121957551Y-85079167D01*
X121927130Y-85130606D01*
X121927129Y-85130609D01*
X121882335Y-85284789D01*
X121882334Y-85284795D01*
X121879500Y-85320809D01*
X121879500Y-85719167D01*
X121879501Y-85719189D01*
X121882335Y-85755203D01*
X121927129Y-85909386D01*
X121927131Y-85909391D01*
X122008863Y-86047593D01*
X122008869Y-86047601D01*
X122122396Y-86161128D01*
X122122399Y-86161130D01*
X122122402Y-86161133D01*
X122160356Y-86183579D01*
X122166773Y-86187374D01*
X122214456Y-86238443D01*
X122226960Y-86307185D01*
X122208646Y-86360077D01*
X122169546Y-86422304D01*
X122169545Y-86422305D01*
X122113686Y-86581943D01*
X122099946Y-86703882D01*
X122072879Y-86768295D01*
X122015284Y-86807850D01*
X121945447Y-86809987D01*
X121889045Y-86777678D01*
X121820890Y-86709523D01*
X121820884Y-86709518D01*
X121677697Y-86619547D01*
X121677694Y-86619545D01*
X121518056Y-86563685D01*
X121350003Y-86544751D01*
X121349997Y-86544751D01*
X121181942Y-86563686D01*
X121085453Y-86597449D01*
X121015675Y-86601010D01*
X120955047Y-86566281D01*
X120922820Y-86504288D01*
X120920499Y-86480414D01*
X120920499Y-86190821D01*
X120917665Y-86154797D01*
X120872869Y-86000608D01*
X120872867Y-86000604D01*
X120864325Y-85986160D01*
X120847141Y-85918436D01*
X120869300Y-85852173D01*
X120883368Y-85835364D01*
X120891135Y-85827598D01*
X120972869Y-85689393D01*
X121017665Y-85535204D01*
X121020500Y-85499181D01*
X121020499Y-85100820D01*
X121017665Y-85064796D01*
X120972869Y-84910607D01*
X120962217Y-84892596D01*
X120938873Y-84853123D01*
X120921689Y-84785399D01*
X120938873Y-84726879D01*
X120972867Y-84669398D01*
X120972868Y-84669396D01*
X120972869Y-84669395D01*
X121002574Y-84567149D01*
X121040180Y-84508265D01*
X121103652Y-84479058D01*
X121172839Y-84488804D01*
G37*
G04 #@! TD.AperFunction*
G04 #@! TA.AperFunction,NonConductor*
G36*
X115405703Y-87006687D02*
G01*
X115412181Y-87012719D01*
X115852320Y-87452858D01*
X115885805Y-87514181D01*
X115880821Y-87583873D01*
X115838949Y-87639806D01*
X115778524Y-87663759D01*
X115669596Y-87676033D01*
X115509960Y-87731892D01*
X115390472Y-87806972D01*
X115323235Y-87825972D01*
X115256400Y-87805604D01*
X115211186Y-87752336D01*
X115200500Y-87701978D01*
X115200500Y-87100400D01*
X115220185Y-87033361D01*
X115272989Y-86987606D01*
X115342147Y-86977662D01*
X115405703Y-87006687D01*
G37*
G04 #@! TD.AperFunction*
G04 #@! TA.AperFunction,NonConductor*
G36*
X126775701Y-79266460D02*
G01*
X126782180Y-79272492D01*
X127421921Y-79912233D01*
X127455406Y-79973556D01*
X127450422Y-80043248D01*
X127446623Y-80052317D01*
X127426095Y-80096340D01*
X127364938Y-80324585D01*
X127364936Y-80324595D01*
X127344341Y-80559998D01*
X127344341Y-80559999D01*
X127364936Y-80795402D01*
X127364938Y-80795412D01*
X127426094Y-81023654D01*
X127426096Y-81023658D01*
X127426097Y-81023662D01*
X127501021Y-81184336D01*
X127525965Y-81237829D01*
X127525967Y-81237833D01*
X127661501Y-81431394D01*
X127661506Y-81431401D01*
X127828597Y-81598492D01*
X127828603Y-81598497D01*
X128014158Y-81728424D01*
X128057783Y-81783001D01*
X128064977Y-81852499D01*
X128033454Y-81914854D01*
X128014159Y-81931574D01*
X127828594Y-82061508D01*
X127661505Y-82228597D01*
X127525965Y-82422169D01*
X127525964Y-82422171D01*
X127426098Y-82636335D01*
X127426094Y-82636344D01*
X127364938Y-82864586D01*
X127364936Y-82864596D01*
X127344341Y-83099999D01*
X127344341Y-83100000D01*
X127364936Y-83335403D01*
X127364938Y-83335413D01*
X127426094Y-83563655D01*
X127426096Y-83563659D01*
X127426097Y-83563663D01*
X127483943Y-83687713D01*
X127525965Y-83777830D01*
X127525967Y-83777834D01*
X127661501Y-83971395D01*
X127661506Y-83971402D01*
X127828597Y-84138493D01*
X127828603Y-84138498D01*
X128014158Y-84268425D01*
X128057783Y-84323002D01*
X128064977Y-84392500D01*
X128033454Y-84454855D01*
X128014158Y-84471575D01*
X127828597Y-84601505D01*
X127661505Y-84768597D01*
X127525965Y-84962169D01*
X127525964Y-84962171D01*
X127426098Y-85176335D01*
X127426094Y-85176344D01*
X127364938Y-85404586D01*
X127364936Y-85404596D01*
X127344341Y-85639999D01*
X127344341Y-85640000D01*
X127364936Y-85875403D01*
X127364938Y-85875413D01*
X127426094Y-86103655D01*
X127426096Y-86103659D01*
X127426097Y-86103663D01*
X127507910Y-86279110D01*
X127525965Y-86317830D01*
X127525967Y-86317834D01*
X127634281Y-86472521D01*
X127656524Y-86504288D01*
X127661501Y-86511395D01*
X127661506Y-86511402D01*
X127828597Y-86678493D01*
X127828603Y-86678498D01*
X128014158Y-86808425D01*
X128057783Y-86863002D01*
X128064977Y-86932500D01*
X128033454Y-86994855D01*
X128014158Y-87011575D01*
X127828597Y-87141505D01*
X127661505Y-87308597D01*
X127525965Y-87502169D01*
X127525964Y-87502171D01*
X127426098Y-87716335D01*
X127426094Y-87716344D01*
X127364938Y-87944586D01*
X127364936Y-87944596D01*
X127344341Y-88179999D01*
X127344341Y-88180002D01*
X127364480Y-88410194D01*
X127350713Y-88478694D01*
X127302098Y-88528877D01*
X127234069Y-88544810D01*
X127168226Y-88521435D01*
X127153271Y-88508682D01*
X126679341Y-88034752D01*
X126645856Y-87973429D01*
X126650840Y-87903737D01*
X126679341Y-87859389D01*
X126691135Y-87847596D01*
X126772869Y-87709391D01*
X126817665Y-87555202D01*
X126820500Y-87519179D01*
X126820499Y-87120818D01*
X126817665Y-87084794D01*
X126772869Y-86930605D01*
X126765449Y-86918059D01*
X126738873Y-86873121D01*
X126721689Y-86805397D01*
X126738873Y-86746877D01*
X126772867Y-86689396D01*
X126772869Y-86689393D01*
X126817665Y-86535204D01*
X126820500Y-86499181D01*
X126820499Y-86100820D01*
X126817665Y-86064796D01*
X126772869Y-85910607D01*
X126691135Y-85772402D01*
X126691133Y-85772400D01*
X126691130Y-85772396D01*
X126577603Y-85658869D01*
X126577595Y-85658863D01*
X126439393Y-85577131D01*
X126439388Y-85577129D01*
X126285208Y-85532335D01*
X126285202Y-85532334D01*
X126249181Y-85529500D01*
X125750830Y-85529500D01*
X125750808Y-85529501D01*
X125714797Y-85532334D01*
X125610711Y-85562574D01*
X125540841Y-85562374D01*
X125512996Y-85550229D01*
X125389394Y-85477131D01*
X125389388Y-85477129D01*
X125235208Y-85432335D01*
X125235202Y-85432334D01*
X125199181Y-85429500D01*
X124800830Y-85429500D01*
X124800808Y-85429501D01*
X124764794Y-85432335D01*
X124610611Y-85477129D01*
X124610608Y-85477130D01*
X124553121Y-85511128D01*
X124485397Y-85528310D01*
X124426881Y-85511128D01*
X124369393Y-85477130D01*
X124369390Y-85477129D01*
X124215210Y-85432335D01*
X124215204Y-85432334D01*
X124179183Y-85429500D01*
X123780832Y-85429500D01*
X123780810Y-85429501D01*
X123744799Y-85432334D01*
X123679093Y-85451424D01*
X123609224Y-85451224D01*
X123550554Y-85413281D01*
X123521711Y-85349642D01*
X123520499Y-85332347D01*
X123520499Y-85320829D01*
X123520498Y-85320804D01*
X123517665Y-85284797D01*
X123517665Y-85284794D01*
X123472869Y-85130605D01*
X123469554Y-85125000D01*
X123438873Y-85073121D01*
X123421689Y-85005397D01*
X123438873Y-84946877D01*
X123472867Y-84889396D01*
X123472869Y-84889393D01*
X123507963Y-84768599D01*
X123517664Y-84735208D01*
X123517665Y-84735202D01*
X123518320Y-84726879D01*
X123520500Y-84699181D01*
X123520499Y-84611301D01*
X123540183Y-84544265D01*
X123592986Y-84498509D01*
X123662145Y-84488565D01*
X123709596Y-84505765D01*
X123841294Y-84586998D01*
X123841297Y-84586999D01*
X123841303Y-84587003D01*
X124002292Y-84640349D01*
X124101655Y-84650500D01*
X124698344Y-84650499D01*
X124698352Y-84650498D01*
X124698355Y-84650498D01*
X124752760Y-84644940D01*
X124797708Y-84640349D01*
X124958697Y-84587003D01*
X125103044Y-84497968D01*
X125222968Y-84378044D01*
X125312003Y-84233697D01*
X125365349Y-84072708D01*
X125375500Y-83973345D01*
X125375499Y-83426656D01*
X125375403Y-83425719D01*
X125365349Y-83327292D01*
X125365348Y-83327289D01*
X125362924Y-83319975D01*
X125312003Y-83166303D01*
X125311999Y-83166297D01*
X125311998Y-83166294D01*
X125222970Y-83021959D01*
X125222967Y-83021955D01*
X125213693Y-83012681D01*
X125180208Y-82951358D01*
X125185192Y-82881666D01*
X125213693Y-82837319D01*
X125222968Y-82828044D01*
X125312003Y-82683697D01*
X125365349Y-82522708D01*
X125375500Y-82423345D01*
X125375499Y-81876656D01*
X125373031Y-81852499D01*
X125365349Y-81777292D01*
X125323949Y-81652356D01*
X125321548Y-81582532D01*
X125336659Y-81547391D01*
X125380456Y-81477690D01*
X125436313Y-81318059D01*
X125449375Y-81202129D01*
X125455249Y-81150002D01*
X125455249Y-81149997D01*
X125436314Y-80981943D01*
X125380454Y-80822305D01*
X125380452Y-80822302D01*
X125290481Y-80679115D01*
X125290476Y-80679109D01*
X125170890Y-80559523D01*
X125163832Y-80555088D01*
X125156024Y-80550182D01*
X125109734Y-80497848D01*
X125099086Y-80428795D01*
X125127461Y-80364946D01*
X125134304Y-80357520D01*
X125178731Y-80313094D01*
X125178735Y-80313092D01*
X125265860Y-80225967D01*
X125268632Y-80221818D01*
X125322239Y-80177011D01*
X125391563Y-80168298D01*
X125406332Y-80171627D01*
X125564791Y-80217664D01*
X125564794Y-80217664D01*
X125564796Y-80217665D01*
X125600819Y-80220500D01*
X125999180Y-80220499D01*
X126035204Y-80217665D01*
X126189393Y-80172869D01*
X126327598Y-80091135D01*
X126441135Y-79977598D01*
X126522869Y-79839393D01*
X126555851Y-79725865D01*
X126567664Y-79685208D01*
X126567665Y-79685202D01*
X126570500Y-79649181D01*
X126570499Y-79360171D01*
X126590183Y-79293134D01*
X126642987Y-79247379D01*
X126712146Y-79237435D01*
X126775701Y-79266460D01*
G37*
G04 #@! TD.AperFunction*
G04 #@! TA.AperFunction,NonConductor*
G36*
X119390624Y-87922992D02*
G01*
X119410204Y-87938937D01*
X119522396Y-88051129D01*
X119522400Y-88051132D01*
X119522402Y-88051134D01*
X119660607Y-88132868D01*
X119691104Y-88141728D01*
X119763567Y-88162781D01*
X119822453Y-88200387D01*
X119851659Y-88263860D01*
X119841913Y-88333046D01*
X119841014Y-88334737D01*
X119841051Y-88334755D01*
X119837996Y-88341305D01*
X119784651Y-88502290D01*
X119774500Y-88601647D01*
X119774500Y-88601655D01*
X119774500Y-88836228D01*
X119774501Y-88950500D01*
X119754817Y-89017539D01*
X119702013Y-89063294D01*
X119650501Y-89074500D01*
X119549500Y-89074500D01*
X119482461Y-89054815D01*
X119436706Y-89002011D01*
X119425500Y-88950500D01*
X119425499Y-88601662D01*
X119425498Y-88601644D01*
X119415349Y-88502292D01*
X119415348Y-88502289D01*
X119405073Y-88471281D01*
X119362003Y-88341303D01*
X119361999Y-88341297D01*
X119361998Y-88341294D01*
X119272970Y-88196959D01*
X119272969Y-88196958D01*
X119272968Y-88196956D01*
X119207494Y-88131482D01*
X119174010Y-88070158D01*
X119178995Y-88000467D01*
X119220866Y-87944533D01*
X119229205Y-87938807D01*
X119256552Y-87921624D01*
X119323789Y-87902624D01*
X119390624Y-87922992D01*
G37*
G04 #@! TD.AperFunction*
G04 #@! TA.AperFunction,NonConductor*
G36*
X111768834Y-89123576D02*
G01*
X111824767Y-89165448D01*
X111849184Y-89230912D01*
X111849500Y-89239758D01*
X111849500Y-89314546D01*
X111829815Y-89381585D01*
X111813181Y-89402227D01*
X111622920Y-89592487D01*
X111561597Y-89625972D01*
X111491905Y-89620988D01*
X111464116Y-89606381D01*
X111385843Y-89551574D01*
X111342218Y-89496997D01*
X111335024Y-89427499D01*
X111366547Y-89365144D01*
X111385843Y-89348424D01*
X111458273Y-89297708D01*
X111571401Y-89218495D01*
X111637819Y-89152077D01*
X111699142Y-89118592D01*
X111768834Y-89123576D01*
G37*
G04 #@! TD.AperFunction*
G04 #@! TA.AperFunction,NonConductor*
G36*
X123430701Y-88742515D02*
G01*
X123437180Y-88748547D01*
X123479109Y-88790476D01*
X123479115Y-88790481D01*
X123622302Y-88880452D01*
X123622305Y-88880454D01*
X123622309Y-88880455D01*
X123622310Y-88880456D01*
X123694913Y-88905860D01*
X123781943Y-88936314D01*
X123949997Y-88955249D01*
X123950000Y-88955249D01*
X123950003Y-88955249D01*
X124118056Y-88936314D01*
X124118059Y-88936313D01*
X124277690Y-88880456D01*
X124420890Y-88790477D01*
X124445707Y-88765659D01*
X124507029Y-88732174D01*
X124576721Y-88737158D01*
X124621070Y-88765659D01*
X124690524Y-88835113D01*
X124724009Y-88896436D01*
X124719025Y-88966128D01*
X124709576Y-88985914D01*
X124648254Y-89089605D01*
X124648254Y-89089606D01*
X124602402Y-89247426D01*
X124602401Y-89247432D01*
X124599500Y-89284298D01*
X124599500Y-89525500D01*
X124579815Y-89592539D01*
X124527011Y-89638294D01*
X124475500Y-89649500D01*
X123362944Y-89649500D01*
X123295905Y-89629815D01*
X123250150Y-89577011D01*
X123245902Y-89566453D01*
X123230456Y-89522310D01*
X123230455Y-89522307D01*
X123202935Y-89478511D01*
X123183934Y-89411275D01*
X123190220Y-89373540D01*
X123215349Y-89297708D01*
X123225500Y-89198345D01*
X123225499Y-88836226D01*
X123245183Y-88769189D01*
X123297987Y-88723434D01*
X123367146Y-88713490D01*
X123430701Y-88742515D01*
G37*
G04 #@! TD.AperFunction*
G04 #@! TA.AperFunction,NonConductor*
G36*
X127730703Y-89121045D02*
G01*
X127737181Y-89127077D01*
X127828597Y-89218493D01*
X127828603Y-89218498D01*
X127869917Y-89247426D01*
X127925871Y-89286606D01*
X128014157Y-89348424D01*
X128057782Y-89403001D01*
X128064976Y-89472499D01*
X128033453Y-89534854D01*
X128014158Y-89551574D01*
X127828594Y-89681507D01*
X127737181Y-89772921D01*
X127675858Y-89806406D01*
X127606166Y-89801422D01*
X127550233Y-89759550D01*
X127525816Y-89694086D01*
X127525500Y-89685240D01*
X127525500Y-89214758D01*
X127545185Y-89147719D01*
X127597989Y-89101964D01*
X127667147Y-89092020D01*
X127730703Y-89121045D01*
G37*
G04 #@! TD.AperFunction*
G04 #@! TA.AperFunction,NonConductor*
G36*
X126217539Y-90320185D02*
G01*
X126263294Y-90372989D01*
X126274500Y-90424500D01*
X126274500Y-90475500D01*
X126254815Y-90542539D01*
X126202011Y-90588294D01*
X126150500Y-90599500D01*
X125324499Y-90599500D01*
X125257460Y-90579815D01*
X125211705Y-90527011D01*
X125200499Y-90475500D01*
X125200499Y-90424500D01*
X125220184Y-90357461D01*
X125272988Y-90311706D01*
X125324499Y-90300500D01*
X126150500Y-90300500D01*
X126217539Y-90320185D01*
G37*
G04 #@! TD.AperFunction*
G04 #@! TA.AperFunction,NonConductor*
G36*
X122556721Y-90757158D02*
G01*
X122601069Y-90785659D01*
X122661016Y-90845606D01*
X122661045Y-90845637D01*
X122751263Y-90935855D01*
X122751267Y-90935858D01*
X122776020Y-90952398D01*
X122820825Y-91006011D01*
X122829532Y-91075336D01*
X122799377Y-91138363D01*
X122739934Y-91175082D01*
X122707129Y-91179500D01*
X122310829Y-91179500D01*
X122310804Y-91179501D01*
X122298957Y-91180434D01*
X122230580Y-91166068D01*
X122180825Y-91117015D01*
X122165488Y-91048849D01*
X122189439Y-90983213D01*
X122223258Y-90951822D01*
X122320890Y-90890477D01*
X122425710Y-90785656D01*
X122487029Y-90752174D01*
X122556721Y-90757158D01*
G37*
G04 #@! TD.AperFunction*
G04 #@! TA.AperFunction,NonConductor*
G36*
X127730703Y-91661044D02*
G01*
X127737181Y-91667076D01*
X127828598Y-91758493D01*
X128014160Y-91888425D01*
X128057784Y-91943002D01*
X128064977Y-92012501D01*
X128033455Y-92074855D01*
X128014160Y-92091575D01*
X127828594Y-92221509D01*
X127737181Y-92312923D01*
X127675858Y-92346408D01*
X127606166Y-92341424D01*
X127550233Y-92299552D01*
X127525816Y-92234088D01*
X127525500Y-92225242D01*
X127525500Y-91754757D01*
X127545185Y-91687718D01*
X127597989Y-91641963D01*
X127667147Y-91632019D01*
X127730703Y-91661044D01*
G37*
G04 #@! TD.AperFunction*
G04 #@! TA.AperFunction,NonConductor*
G36*
X122063122Y-92738873D02*
G01*
X122120602Y-92772867D01*
X122120604Y-92772868D01*
X122120606Y-92772869D01*
X122241954Y-92808123D01*
X122300839Y-92845730D01*
X122330046Y-92909202D01*
X122320300Y-92978389D01*
X122274696Y-93031323D01*
X122263654Y-93037685D01*
X122173211Y-93083768D01*
X122098388Y-93138131D01*
X122033072Y-93185586D01*
X122033070Y-93185588D01*
X122033069Y-93185588D01*
X121910588Y-93308069D01*
X121910581Y-93308078D01*
X121850317Y-93391023D01*
X121794987Y-93433689D01*
X121725374Y-93439667D01*
X121663579Y-93407061D01*
X121649683Y-93391023D01*
X121589418Y-93308078D01*
X121589414Y-93308072D01*
X121466928Y-93185586D01*
X121466927Y-93185585D01*
X121402936Y-93139092D01*
X121360271Y-93083761D01*
X121354293Y-93014148D01*
X121386900Y-92952353D01*
X121388142Y-92951094D01*
X121482418Y-92856818D01*
X121543741Y-92823333D01*
X121570099Y-92820499D01*
X121689169Y-92820499D01*
X121689181Y-92820499D01*
X121725205Y-92817665D01*
X121879394Y-92772869D01*
X121902786Y-92759034D01*
X121936878Y-92738873D01*
X122004602Y-92721689D01*
X122063122Y-92738873D01*
G37*
G04 #@! TD.AperFunction*
G04 #@! TA.AperFunction,NonConductor*
G36*
X113892539Y-86770184D02*
G01*
X113938294Y-86822988D01*
X113949500Y-86874499D01*
X113949500Y-88236609D01*
X113953263Y-88255526D01*
X113953263Y-88255528D01*
X113973535Y-88357444D01*
X113973539Y-88357458D01*
X113983892Y-88382452D01*
X114020685Y-88471281D01*
X114020688Y-88471286D01*
X114042895Y-88504520D01*
X114042896Y-88504523D01*
X114042897Y-88504523D01*
X114089141Y-88573732D01*
X114089144Y-88573736D01*
X114180586Y-88665178D01*
X114180608Y-88665198D01*
X116461016Y-90945606D01*
X116461045Y-90945637D01*
X116551263Y-91035855D01*
X116551267Y-91035858D01*
X116653707Y-91104307D01*
X116653713Y-91104310D01*
X116653714Y-91104311D01*
X116767548Y-91151463D01*
X116827971Y-91163481D01*
X116888393Y-91175500D01*
X120796405Y-91175500D01*
X120863444Y-91195185D01*
X120909199Y-91247989D01*
X120919143Y-91317147D01*
X120890118Y-91380703D01*
X120884086Y-91387181D01*
X120848870Y-91422396D01*
X120848864Y-91422404D01*
X120767132Y-91560606D01*
X120767130Y-91560611D01*
X120722336Y-91714791D01*
X120722335Y-91714797D01*
X120719501Y-91750811D01*
X120719501Y-91869902D01*
X120699816Y-91936941D01*
X120683182Y-91957583D01*
X120269481Y-92371283D01*
X120269479Y-92371285D01*
X120253635Y-92398729D01*
X120232966Y-92434530D01*
X120190423Y-92508216D01*
X120149499Y-92660944D01*
X120149499Y-92660946D01*
X120149499Y-92829047D01*
X120149500Y-92829060D01*
X120149500Y-93037814D01*
X120129815Y-93104853D01*
X120098387Y-93138131D01*
X120033072Y-93185585D01*
X119910588Y-93308069D01*
X119910581Y-93308078D01*
X119850317Y-93391023D01*
X119794987Y-93433689D01*
X119725374Y-93439667D01*
X119663579Y-93407061D01*
X119649683Y-93391023D01*
X119589418Y-93308078D01*
X119589414Y-93308072D01*
X119466928Y-93185586D01*
X119326788Y-93083768D01*
X119172445Y-93005127D01*
X119007701Y-92951598D01*
X119007699Y-92951597D01*
X119007698Y-92951597D01*
X118876271Y-92930781D01*
X118836611Y-92924500D01*
X118663389Y-92924500D01*
X118623728Y-92930781D01*
X118492302Y-92951597D01*
X118327552Y-93005128D01*
X118173211Y-93083768D01*
X118098388Y-93138131D01*
X118033072Y-93185586D01*
X118033070Y-93185588D01*
X118033069Y-93185588D01*
X117910588Y-93308069D01*
X117910581Y-93308078D01*
X117850317Y-93391023D01*
X117794987Y-93433689D01*
X117725374Y-93439667D01*
X117663579Y-93407061D01*
X117649683Y-93391023D01*
X117589418Y-93308078D01*
X117589414Y-93308072D01*
X117466928Y-93185586D01*
X117326788Y-93083768D01*
X117172445Y-93005127D01*
X117007701Y-92951598D01*
X117007699Y-92951597D01*
X117007698Y-92951597D01*
X116876271Y-92930781D01*
X116836611Y-92924500D01*
X116663389Y-92924500D01*
X116623728Y-92930781D01*
X116492302Y-92951597D01*
X116327552Y-93005128D01*
X116173211Y-93083768D01*
X116033073Y-93185585D01*
X115925530Y-93293128D01*
X115864207Y-93326612D01*
X115794515Y-93321628D01*
X115738582Y-93279756D01*
X115732310Y-93270543D01*
X115725807Y-93260000D01*
X115692712Y-93206344D01*
X115568656Y-93082288D01*
X115443559Y-93005128D01*
X115419336Y-92990187D01*
X115419331Y-92990185D01*
X115383733Y-92978389D01*
X115252797Y-92935001D01*
X115252795Y-92935000D01*
X115150010Y-92924500D01*
X114349998Y-92924500D01*
X114349980Y-92924501D01*
X114247203Y-92935000D01*
X114247200Y-92935001D01*
X114080668Y-92990185D01*
X114080663Y-92990187D01*
X113931342Y-93082289D01*
X113807289Y-93206342D01*
X113715187Y-93355663D01*
X113715186Y-93355666D01*
X113660001Y-93522203D01*
X113660001Y-93522204D01*
X113660000Y-93522204D01*
X113649500Y-93624983D01*
X113649500Y-94024597D01*
X113629815Y-94091636D01*
X113577011Y-94137391D01*
X113507853Y-94147335D01*
X113456611Y-94127701D01*
X113441844Y-94117834D01*
X113408701Y-94095689D01*
X113371286Y-94070688D01*
X113371287Y-94070688D01*
X113371285Y-94070687D01*
X113330789Y-94053914D01*
X113290292Y-94037140D01*
X113257452Y-94023537D01*
X113257444Y-94023535D01*
X113161763Y-94004502D01*
X113161754Y-94004502D01*
X113136607Y-93999500D01*
X113136606Y-93999500D01*
X112039919Y-93999500D01*
X111972880Y-93979815D01*
X111927125Y-93927011D01*
X111917181Y-93857853D01*
X111927537Y-93823095D01*
X111953554Y-93767302D01*
X111973903Y-93723664D01*
X112035063Y-93495409D01*
X112055659Y-93260001D01*
X112035063Y-93024593D01*
X112011057Y-92935001D01*
X112008143Y-92924126D01*
X112009806Y-92854277D01*
X112040235Y-92804354D01*
X113323729Y-91520861D01*
X113323733Y-91520859D01*
X113410858Y-91433734D01*
X113479311Y-91331287D01*
X113526463Y-91217453D01*
X113546229Y-91118081D01*
X113550500Y-91096608D01*
X113550500Y-90973394D01*
X113550500Y-86874499D01*
X113570185Y-86807460D01*
X113622989Y-86761705D01*
X113674500Y-86750499D01*
X113825500Y-86750499D01*
X113892539Y-86770184D01*
G37*
G04 #@! TD.AperFunction*
G04 #@! TA.AperFunction,NonConductor*
G36*
X127730703Y-94201046D02*
G01*
X127737181Y-94207078D01*
X127828597Y-94298494D01*
X127828603Y-94298499D01*
X127881350Y-94335433D01*
X128011977Y-94426899D01*
X128014157Y-94428425D01*
X128057782Y-94483002D01*
X128064976Y-94552500D01*
X128033453Y-94614855D01*
X128014158Y-94631575D01*
X127828594Y-94761508D01*
X127737181Y-94852922D01*
X127675858Y-94886407D01*
X127606166Y-94881423D01*
X127550233Y-94839551D01*
X127525816Y-94774087D01*
X127525500Y-94765241D01*
X127525500Y-94294759D01*
X127545185Y-94227720D01*
X127597989Y-94181965D01*
X127667147Y-94172021D01*
X127730703Y-94201046D01*
G37*
G04 #@! TD.AperFunction*
G04 #@! TA.AperFunction,NonConductor*
G36*
X126217539Y-92220185D02*
G01*
X126263294Y-92272989D01*
X126274500Y-92324500D01*
X126274500Y-95437847D01*
X126254815Y-95504886D01*
X126238181Y-95525528D01*
X125750529Y-96013181D01*
X125689206Y-96046666D01*
X125662848Y-96049500D01*
X123314498Y-96049500D01*
X123247459Y-96029815D01*
X123201704Y-95977011D01*
X123190498Y-95925500D01*
X123190497Y-95661661D01*
X123210181Y-95594622D01*
X123258200Y-95551178D01*
X123326788Y-95516232D01*
X123466928Y-95414414D01*
X123589414Y-95291928D01*
X123649682Y-95208975D01*
X123705012Y-95166311D01*
X123774626Y-95160332D01*
X123836421Y-95192938D01*
X123850315Y-95208973D01*
X123910586Y-95291928D01*
X124033072Y-95414414D01*
X124173212Y-95516232D01*
X124327555Y-95594873D01*
X124492299Y-95648402D01*
X124663389Y-95675500D01*
X124663390Y-95675500D01*
X124836610Y-95675500D01*
X124836611Y-95675500D01*
X125007701Y-95648402D01*
X125172445Y-95594873D01*
X125326788Y-95516232D01*
X125466928Y-95414414D01*
X125589414Y-95291928D01*
X125691232Y-95151788D01*
X125769873Y-94997445D01*
X125823402Y-94832701D01*
X125850500Y-94661611D01*
X125850500Y-93938389D01*
X125823402Y-93767299D01*
X125769873Y-93602555D01*
X125691232Y-93448212D01*
X125589414Y-93308072D01*
X125466928Y-93185586D01*
X125326788Y-93083768D01*
X125172445Y-93005127D01*
X125007701Y-92951598D01*
X125007699Y-92951597D01*
X125007698Y-92951597D01*
X124876271Y-92930781D01*
X124836611Y-92924500D01*
X124663389Y-92924500D01*
X124623728Y-92930781D01*
X124492302Y-92951597D01*
X124327552Y-93005128D01*
X124173211Y-93083768D01*
X124098388Y-93138131D01*
X124033072Y-93185586D01*
X124033070Y-93185588D01*
X124033069Y-93185588D01*
X123910588Y-93308069D01*
X123910581Y-93308078D01*
X123850317Y-93391023D01*
X123794987Y-93433689D01*
X123725374Y-93439667D01*
X123663579Y-93407061D01*
X123649683Y-93391023D01*
X123589418Y-93308078D01*
X123589414Y-93308072D01*
X123466928Y-93185586D01*
X123326788Y-93083768D01*
X123172445Y-93005127D01*
X123007701Y-92951598D01*
X123007699Y-92951597D01*
X123003933Y-92950374D01*
X122946258Y-92910936D01*
X122919060Y-92846577D01*
X122930975Y-92777731D01*
X122978219Y-92726255D01*
X122978948Y-92725819D01*
X123037597Y-92691135D01*
X123037602Y-92691130D01*
X123066914Y-92661819D01*
X123128237Y-92628334D01*
X123154595Y-92625500D01*
X125299108Y-92625500D01*
X125299108Y-92625499D01*
X125363478Y-92612696D01*
X125363479Y-92612696D01*
X125382650Y-92608882D01*
X125419952Y-92601463D01*
X125453292Y-92587652D01*
X125533786Y-92554312D01*
X125602770Y-92508217D01*
X125636233Y-92485858D01*
X125723358Y-92398733D01*
X125723360Y-92398729D01*
X125885272Y-92236817D01*
X125946595Y-92203334D01*
X125972952Y-92200500D01*
X126150500Y-92200500D01*
X126217539Y-92220185D01*
G37*
G04 #@! TD.AperFunction*
G04 #@! TA.AperFunction,NonConductor*
G36*
X119836421Y-95192938D02*
G01*
X119850318Y-95208976D01*
X119892117Y-95266507D01*
X119915597Y-95332314D01*
X119899772Y-95400368D01*
X119857772Y-95444386D01*
X119754112Y-95509521D01*
X119754109Y-95509523D01*
X119634523Y-95629109D01*
X119634518Y-95629115D01*
X119544547Y-95772302D01*
X119544545Y-95772305D01*
X119488687Y-95931940D01*
X119487849Y-95939381D01*
X119460783Y-96003795D01*
X119403189Y-96043352D01*
X119364628Y-96049500D01*
X117294500Y-96049500D01*
X117227461Y-96029815D01*
X117181706Y-95977011D01*
X117170500Y-95925500D01*
X117170499Y-95671852D01*
X117190183Y-95604813D01*
X117238205Y-95561367D01*
X117326786Y-95516233D01*
X117326785Y-95516233D01*
X117326788Y-95516232D01*
X117466928Y-95414414D01*
X117589414Y-95291928D01*
X117649682Y-95208975D01*
X117705012Y-95166311D01*
X117774626Y-95160332D01*
X117836421Y-95192938D01*
X117850315Y-95208973D01*
X117910586Y-95291928D01*
X118033072Y-95414414D01*
X118173212Y-95516232D01*
X118327555Y-95594873D01*
X118492299Y-95648402D01*
X118663389Y-95675500D01*
X118663390Y-95675500D01*
X118836610Y-95675500D01*
X118836611Y-95675500D01*
X119007701Y-95648402D01*
X119172445Y-95594873D01*
X119326788Y-95516232D01*
X119466928Y-95414414D01*
X119589414Y-95291928D01*
X119649682Y-95208975D01*
X119705012Y-95166311D01*
X119774626Y-95160332D01*
X119836421Y-95192938D01*
G37*
G04 #@! TD.AperFunction*
G04 #@! TA.AperFunction,NonConductor*
G36*
X112831587Y-95270185D02*
G01*
X112852229Y-95286819D01*
X113928229Y-96362819D01*
X113961714Y-96424142D01*
X113956730Y-96493834D01*
X113914858Y-96549767D01*
X113849394Y-96574184D01*
X113840548Y-96574500D01*
X112410452Y-96574500D01*
X112343413Y-96554815D01*
X112322771Y-96538181D01*
X112040237Y-96255647D01*
X112006752Y-96194324D01*
X112008143Y-96135872D01*
X112035063Y-96035408D01*
X112055659Y-95800000D01*
X112035063Y-95564592D01*
X111996198Y-95419544D01*
X111992728Y-95406593D01*
X111994391Y-95336743D01*
X112033554Y-95278881D01*
X112097782Y-95251377D01*
X112112503Y-95250500D01*
X112764548Y-95250500D01*
X112831587Y-95270185D01*
G37*
G04 #@! TD.AperFunction*
G04 #@! TA.AperFunction,NonConductor*
G36*
X130669334Y-96567769D02*
G01*
X130725267Y-96609641D01*
X130749684Y-96675105D01*
X130750000Y-96683951D01*
X130750000Y-97626000D01*
X130730315Y-97693039D01*
X130677511Y-97738794D01*
X130626000Y-97750000D01*
X129683951Y-97750000D01*
X129616912Y-97730315D01*
X129571157Y-97677511D01*
X129561213Y-97608353D01*
X129590238Y-97544797D01*
X129596270Y-97538319D01*
X130538319Y-96596270D01*
X130599642Y-96562785D01*
X130669334Y-96567769D01*
G37*
G04 #@! TD.AperFunction*
G04 #@! TA.AperFunction,NonConductor*
G36*
X108955203Y-94217763D02*
G01*
X108977099Y-94242581D01*
X108982900Y-94251262D01*
X108982901Y-94251267D01*
X108982903Y-94251267D01*
X109039141Y-94335433D01*
X109039144Y-94335437D01*
X109130586Y-94426879D01*
X109130608Y-94426899D01*
X109575907Y-94872198D01*
X109609392Y-94933521D01*
X109604408Y-95003213D01*
X109589802Y-95031001D01*
X109525964Y-95122172D01*
X109426097Y-95336335D01*
X109426094Y-95336344D01*
X109364938Y-95564586D01*
X109364936Y-95564596D01*
X109344341Y-95799999D01*
X109344341Y-95800000D01*
X109364936Y-96035403D01*
X109364938Y-96035413D01*
X109426094Y-96263655D01*
X109426096Y-96263659D01*
X109426097Y-96263663D01*
X109494736Y-96410860D01*
X109525965Y-96477830D01*
X109525967Y-96477834D01*
X109618260Y-96609641D01*
X109661505Y-96671401D01*
X109828599Y-96838495D01*
X109925384Y-96906265D01*
X110022165Y-96974032D01*
X110022167Y-96974033D01*
X110022170Y-96974035D01*
X110236337Y-97073903D01*
X110464592Y-97135063D01*
X110652918Y-97151539D01*
X110699999Y-97155659D01*
X110700000Y-97155659D01*
X110700001Y-97155659D01*
X110739234Y-97152226D01*
X110935408Y-97135063D01*
X111035873Y-97108143D01*
X111105722Y-97109806D01*
X111155647Y-97140237D01*
X111553729Y-97538319D01*
X111587214Y-97599642D01*
X111582230Y-97669334D01*
X111540358Y-97725267D01*
X111474894Y-97749684D01*
X111466048Y-97750000D01*
X108874000Y-97750000D01*
X108806961Y-97730315D01*
X108761206Y-97677511D01*
X108750000Y-97626000D01*
X108750000Y-94311476D01*
X108769685Y-94244437D01*
X108822489Y-94198682D01*
X108891647Y-94188738D01*
X108955203Y-94217763D01*
G37*
G04 #@! TD.AperFunction*
G04 #@! TA.AperFunction,Conductor*
G04 #@! TO.N,GND*
G36*
X113255703Y-36445273D02*
G01*
X113292205Y-36499980D01*
X113315186Y-36569332D01*
X113407288Y-36718654D01*
X113531344Y-36842710D01*
X113680666Y-36934812D01*
X113847203Y-36989997D01*
X113949991Y-37000498D01*
X114550008Y-37000497D01*
X114550016Y-37000496D01*
X114550019Y-37000496D01*
X114606302Y-36994746D01*
X114652797Y-36989997D01*
X114819334Y-36934812D01*
X114968656Y-36842710D01*
X115024549Y-36786817D01*
X115085872Y-36753332D01*
X115112230Y-36750498D01*
X115311747Y-36750498D01*
X115378786Y-36770183D01*
X115424541Y-36822987D01*
X115434485Y-36892145D01*
X115429453Y-36913498D01*
X115410001Y-36972203D01*
X115410001Y-36972204D01*
X115410000Y-36972204D01*
X115399500Y-37074983D01*
X115399500Y-38125001D01*
X115399501Y-38125019D01*
X115410000Y-38227796D01*
X115410001Y-38227799D01*
X115465185Y-38394331D01*
X115465189Y-38394340D01*
X115551889Y-38534904D01*
X115570329Y-38602296D01*
X115551889Y-38665096D01*
X115465189Y-38805659D01*
X115465185Y-38805668D01*
X115465115Y-38805880D01*
X115410001Y-38972203D01*
X115410001Y-38972204D01*
X115410000Y-38972204D01*
X115399500Y-39074983D01*
X115399500Y-40125001D01*
X115399501Y-40125019D01*
X115410000Y-40227796D01*
X115410001Y-40227799D01*
X115443138Y-40327797D01*
X115465186Y-40394334D01*
X115557288Y-40543656D01*
X115681344Y-40667712D01*
X115830666Y-40759814D01*
X115997203Y-40814999D01*
X116099991Y-40825500D01*
X116700008Y-40825499D01*
X116700016Y-40825498D01*
X116700019Y-40825498D01*
X116756302Y-40819748D01*
X116802797Y-40814999D01*
X116969334Y-40759814D01*
X117118656Y-40667712D01*
X117242712Y-40543656D01*
X117244752Y-40540347D01*
X117246745Y-40538555D01*
X117247193Y-40537989D01*
X117247289Y-40538065D01*
X117296694Y-40493623D01*
X117365656Y-40482395D01*
X117429740Y-40510234D01*
X117455829Y-40540339D01*
X117457681Y-40543341D01*
X117457683Y-40543344D01*
X117581654Y-40667315D01*
X117730875Y-40759356D01*
X117730880Y-40759358D01*
X117897302Y-40814505D01*
X117897309Y-40814506D01*
X118000019Y-40824999D01*
X118550000Y-40824999D01*
X118599972Y-40824999D01*
X118599986Y-40824998D01*
X118702697Y-40814505D01*
X118869119Y-40759358D01*
X118869124Y-40759356D01*
X119018345Y-40667315D01*
X119142315Y-40543345D01*
X119234356Y-40394124D01*
X119234358Y-40394119D01*
X119289505Y-40227697D01*
X119289506Y-40227690D01*
X119299999Y-40124986D01*
X119300000Y-40124973D01*
X119300000Y-39850000D01*
X118550000Y-39850000D01*
X118550000Y-40824999D01*
X118000019Y-40824999D01*
X118049999Y-40824998D01*
X118050000Y-40824998D01*
X118050000Y-39350000D01*
X118550000Y-39350000D01*
X119299999Y-39350000D01*
X119299999Y-39175013D01*
X120300000Y-39175013D01*
X120300000Y-39450000D01*
X121050000Y-39450000D01*
X121050000Y-37887500D01*
X120300001Y-37887500D01*
X120300001Y-38162486D01*
X120310494Y-38265197D01*
X120365641Y-38431619D01*
X120365643Y-38431624D01*
X120457684Y-38580845D01*
X120457908Y-38581069D01*
X120458012Y-38581261D01*
X120462161Y-38586507D01*
X120461264Y-38587215D01*
X120491393Y-38642392D01*
X120486409Y-38712084D01*
X120461658Y-38750595D01*
X120462161Y-38750993D01*
X120458112Y-38756113D01*
X120457908Y-38756431D01*
X120457684Y-38756654D01*
X120365643Y-38905875D01*
X120365641Y-38905880D01*
X120310494Y-39072302D01*
X120310493Y-39072309D01*
X120300000Y-39175013D01*
X119299999Y-39175013D01*
X119299999Y-39075028D01*
X119299998Y-39075013D01*
X119289505Y-38972302D01*
X119234358Y-38805880D01*
X119234353Y-38805869D01*
X119147523Y-38665097D01*
X119129082Y-38597705D01*
X119147523Y-38534903D01*
X119234353Y-38394130D01*
X119234358Y-38394119D01*
X119289505Y-38227697D01*
X119289506Y-38227690D01*
X119299999Y-38124986D01*
X119300000Y-38124973D01*
X119300000Y-37850000D01*
X118550000Y-37850000D01*
X118550000Y-39350000D01*
X118050000Y-39350000D01*
X118050000Y-37474000D01*
X118069685Y-37406961D01*
X118122489Y-37361206D01*
X118174000Y-37350000D01*
X119299999Y-37350000D01*
X119299999Y-37075028D01*
X119299998Y-37075013D01*
X119289505Y-36972302D01*
X119234358Y-36805880D01*
X119234356Y-36805875D01*
X119192203Y-36737535D01*
X119173763Y-36670143D01*
X119194685Y-36603479D01*
X119248327Y-36558709D01*
X119317658Y-36550048D01*
X119341075Y-36556256D01*
X119442517Y-36594091D01*
X119442516Y-36594091D01*
X119449444Y-36594835D01*
X119502127Y-36600500D01*
X120293278Y-36600499D01*
X120360315Y-36620183D01*
X120406070Y-36672987D01*
X120416014Y-36742146D01*
X120398815Y-36789595D01*
X120365645Y-36843371D01*
X120365641Y-36843380D01*
X120310494Y-37009802D01*
X120310493Y-37009809D01*
X120300000Y-37112513D01*
X120300000Y-37387500D01*
X121426000Y-37387500D01*
X121493039Y-37407185D01*
X121538794Y-37459989D01*
X121550000Y-37511500D01*
X121550000Y-39826000D01*
X121530315Y-39893039D01*
X121477511Y-39938794D01*
X121426000Y-39950000D01*
X120300001Y-39950000D01*
X120300001Y-40224986D01*
X120310494Y-40327697D01*
X120365641Y-40494119D01*
X120365643Y-40494124D01*
X120457684Y-40643345D01*
X120581654Y-40767315D01*
X120730874Y-40859355D01*
X120731247Y-40859529D01*
X120731459Y-40859716D01*
X120737025Y-40863149D01*
X120736438Y-40864099D01*
X120783690Y-40905697D01*
X120802848Y-40972889D01*
X120782638Y-41039772D01*
X120766533Y-41059597D01*
X120212951Y-41613181D01*
X120151628Y-41646666D01*
X120125270Y-41649500D01*
X115962230Y-41649500D01*
X115895191Y-41629815D01*
X115874549Y-41613181D01*
X113086819Y-38825451D01*
X113053334Y-38764128D01*
X113050500Y-38737770D01*
X113050500Y-36538986D01*
X113070185Y-36471947D01*
X113122989Y-36426192D01*
X113192147Y-36416248D01*
X113255703Y-36445273D01*
G37*
G04 #@! TD.AperFunction*
G04 #@! TD*
M02*
