G04 #@! TF.GenerationSoftware,KiCad,Pcbnew,8.0.5*
G04 #@! TF.CreationDate,2024-10-01T14:56:49-07:00*
G04 #@! TF.ProjectId,gr25_nodes,67723235-5f6e-46f6-9465-732e6b696361,rev?*
G04 #@! TF.SameCoordinates,Original*
G04 #@! TF.FileFunction,Paste,Bot*
G04 #@! TF.FilePolarity,Positive*
%FSLAX46Y46*%
G04 Gerber Fmt 4.6, Leading zero omitted, Abs format (unit mm)*
G04 Created by KiCad (PCBNEW 8.0.5) date 2024-10-01 14:56:49*
%MOMM*%
%LPD*%
G01*
G04 APERTURE LIST*
G04 Aperture macros list*
%AMRoundRect*
0 Rectangle with rounded corners*
0 $1 Rounding radius*
0 $2 $3 $4 $5 $6 $7 $8 $9 X,Y pos of 4 corners*
0 Add a 4 corners polygon primitive as box body*
4,1,4,$2,$3,$4,$5,$6,$7,$8,$9,$2,$3,0*
0 Add four circle primitives for the rounded corners*
1,1,$1+$1,$2,$3*
1,1,$1+$1,$4,$5*
1,1,$1+$1,$6,$7*
1,1,$1+$1,$8,$9*
0 Add four rect primitives between the rounded corners*
20,1,$1+$1,$2,$3,$4,$5,0*
20,1,$1+$1,$4,$5,$6,$7,0*
20,1,$1+$1,$6,$7,$8,$9,0*
20,1,$1+$1,$8,$9,$2,$3,0*%
G04 Aperture macros list end*
%ADD10RoundRect,0.135000X0.185000X-0.135000X0.185000X0.135000X-0.185000X0.135000X-0.185000X-0.135000X0*%
%ADD11RoundRect,0.250000X0.250000X0.475000X-0.250000X0.475000X-0.250000X-0.475000X0.250000X-0.475000X0*%
%ADD12RoundRect,0.225000X0.225000X0.250000X-0.225000X0.250000X-0.225000X-0.250000X0.225000X-0.250000X0*%
%ADD13RoundRect,0.225000X-0.250000X0.225000X-0.250000X-0.225000X0.250000X-0.225000X0.250000X0.225000X0*%
%ADD14RoundRect,0.250000X0.250000X-0.250000X0.250000X0.250000X-0.250000X0.250000X-0.250000X-0.250000X0*%
%ADD15RoundRect,0.135000X0.135000X0.185000X-0.135000X0.185000X-0.135000X-0.185000X0.135000X-0.185000X0*%
%ADD16RoundRect,0.218750X-0.218750X-0.256250X0.218750X-0.256250X0.218750X0.256250X-0.218750X0.256250X0*%
%ADD17RoundRect,0.135000X-0.185000X0.135000X-0.185000X-0.135000X0.185000X-0.135000X0.185000X0.135000X0*%
%ADD18RoundRect,0.225000X0.250000X-0.225000X0.250000X0.225000X-0.250000X0.225000X-0.250000X-0.225000X0*%
%ADD19RoundRect,0.150000X0.150000X-0.512500X0.150000X0.512500X-0.150000X0.512500X-0.150000X-0.512500X0*%
%ADD20RoundRect,0.135000X-0.135000X-0.185000X0.135000X-0.185000X0.135000X0.185000X-0.135000X0.185000X0*%
%ADD21RoundRect,0.150000X0.825000X0.150000X-0.825000X0.150000X-0.825000X-0.150000X0.825000X-0.150000X0*%
%ADD22RoundRect,0.225000X-0.225000X-0.250000X0.225000X-0.250000X0.225000X0.250000X-0.225000X0.250000X0*%
%ADD23RoundRect,0.250000X-0.250000X-0.475000X0.250000X-0.475000X0.250000X0.475000X-0.250000X0.475000X0*%
%ADD24RoundRect,0.250000X-0.650000X0.325000X-0.650000X-0.325000X0.650000X-0.325000X0.650000X0.325000X0*%
%ADD25RoundRect,0.150000X0.587500X0.150000X-0.587500X0.150000X-0.587500X-0.150000X0.587500X-0.150000X0*%
%ADD26R,2.400000X5.700000*%
%ADD27RoundRect,0.150000X-0.825000X-0.150000X0.825000X-0.150000X0.825000X0.150000X-0.825000X0.150000X0*%
%ADD28RoundRect,0.218750X0.218750X0.256250X-0.218750X0.256250X-0.218750X-0.256250X0.218750X-0.256250X0*%
G04 APERTURE END LIST*
D10*
G04 #@! TO.C,R8*
X120100000Y-87409999D03*
X120100000Y-86390001D03*
G04 #@! TD*
D11*
G04 #@! TO.C,C4*
X123200000Y-37637500D03*
X121300000Y-37637500D03*
G04 #@! TD*
D12*
G04 #@! TO.C,C11*
X118825000Y-82200000D03*
X117275000Y-82200000D03*
G04 #@! TD*
D13*
G04 #@! TO.C,C31*
X118300000Y-55625000D03*
X118300000Y-57175000D03*
G04 #@! TD*
D14*
G04 #@! TO.C,D6*
X114250000Y-35999998D03*
X114250000Y-33500000D03*
G04 #@! TD*
D15*
G04 #@! TO.C,R16*
X116400000Y-95900000D03*
X115380002Y-95900000D03*
G04 #@! TD*
G04 #@! TO.C,R7*
X125819998Y-78400000D03*
X124800000Y-78400000D03*
G04 #@! TD*
D13*
G04 #@! TO.C,C16*
X116200000Y-61125000D03*
X116200000Y-62675000D03*
G04 #@! TD*
D16*
G04 #@! TO.C,D2*
X117362499Y-86000000D03*
X118937501Y-86000000D03*
G04 #@! TD*
D11*
G04 #@! TO.C,C5*
X123200000Y-39700000D03*
X121300000Y-39700000D03*
G04 #@! TD*
D17*
G04 #@! TO.C,R13*
X126000000Y-86300000D03*
X126000000Y-87319998D03*
G04 #@! TD*
D18*
G04 #@! TO.C,C22*
X123400000Y-64300000D03*
X123400000Y-62750000D03*
G04 #@! TD*
D19*
G04 #@! TO.C,U2*
X118550000Y-35637500D03*
X117600000Y-35637500D03*
X116650000Y-35637500D03*
X116650000Y-33362500D03*
X117600000Y-33362500D03*
X118550000Y-33362500D03*
G04 #@! TD*
D20*
G04 #@! TO.C,R14*
X123980002Y-86250000D03*
X125000000Y-86250000D03*
G04 #@! TD*
D15*
G04 #@! TO.C,R6*
X125800000Y-79400000D03*
X124780002Y-79400000D03*
G04 #@! TD*
D20*
G04 #@! TO.C,R10*
X121490001Y-92000000D03*
X122509999Y-92000000D03*
G04 #@! TD*
G04 #@! TO.C,R15*
X123990001Y-87250000D03*
X125009999Y-87250000D03*
G04 #@! TD*
D21*
G04 #@! TO.C,U3*
X118875000Y-47920000D03*
X118875000Y-49190000D03*
X118875000Y-50460000D03*
X118875000Y-51730000D03*
X113925000Y-51730000D03*
X113925000Y-50460000D03*
X113925000Y-49190000D03*
X113925000Y-47920000D03*
G04 #@! TD*
D13*
G04 #@! TO.C,C25*
X121900000Y-66400000D03*
X121900000Y-67950000D03*
G04 #@! TD*
D17*
G04 #@! TO.C,R4*
X118700000Y-79700000D03*
X118700000Y-80719998D03*
G04 #@! TD*
D13*
G04 #@! TO.C,C13*
X124400000Y-82150000D03*
X124400000Y-83700000D03*
G04 #@! TD*
D22*
G04 #@! TO.C,C28*
X114000000Y-53400000D03*
X115550000Y-53400000D03*
G04 #@! TD*
D13*
G04 #@! TO.C,C24*
X123400000Y-66400000D03*
X123400000Y-67950000D03*
G04 #@! TD*
D23*
G04 #@! TO.C,C1*
X116400000Y-37600000D03*
X118300000Y-37600000D03*
G04 #@! TD*
D24*
G04 #@! TO.C,L2*
X119900000Y-62925000D03*
X119900000Y-65875000D03*
G04 #@! TD*
D10*
G04 #@! TO.C,R9*
X120200000Y-85300000D03*
X120200000Y-84280002D03*
G04 #@! TD*
D17*
G04 #@! TO.C,R5*
X117700000Y-79700000D03*
X117700000Y-80719998D03*
G04 #@! TD*
D15*
G04 #@! TO.C,R17*
X122419998Y-95900000D03*
X121400000Y-95900000D03*
G04 #@! TD*
D25*
G04 #@! TO.C,Q1*
X125837500Y-89500000D03*
X125837500Y-91400000D03*
X123962499Y-90450000D03*
G04 #@! TD*
D23*
G04 #@! TO.C,C2*
X116400000Y-39600000D03*
X118300000Y-39600000D03*
G04 #@! TD*
D18*
G04 #@! TO.C,C19*
X124900000Y-62475000D03*
X124900000Y-60925000D03*
G04 #@! TD*
D12*
G04 #@! TO.C,C8*
X122275000Y-88900000D03*
X120725000Y-88900000D03*
G04 #@! TD*
G04 #@! TO.C,C17*
X123300000Y-72800000D03*
X121750000Y-72800000D03*
G04 #@! TD*
D18*
G04 #@! TO.C,C23*
X121900000Y-64300000D03*
X121900000Y-62750000D03*
G04 #@! TD*
G04 #@! TO.C,C21*
X116300000Y-73050000D03*
X116300000Y-71500000D03*
G04 #@! TD*
G04 #@! TO.C,C18*
X113700000Y-70475000D03*
X113700000Y-68925000D03*
G04 #@! TD*
D17*
G04 #@! TO.C,R11*
X122700000Y-84500000D03*
X122700000Y-85519998D03*
G04 #@! TD*
D12*
G04 #@! TO.C,C30*
X125175000Y-52800000D03*
X123625000Y-52800000D03*
G04 #@! TD*
D26*
G04 #@! TO.C,L1*
X120750000Y-33250000D03*
X124950000Y-33250000D03*
G04 #@! TD*
D18*
G04 #@! TO.C,C29*
X120900000Y-50475000D03*
X120900000Y-48925000D03*
G04 #@! TD*
D10*
G04 #@! TO.C,R2*
X116000000Y-31907500D03*
X116000000Y-30887500D03*
G04 #@! TD*
D27*
G04 #@! TO.C,U6*
X120450000Y-58210000D03*
X120450000Y-56940000D03*
X120450000Y-55670000D03*
X120450000Y-54400000D03*
X125400000Y-54400000D03*
X125400000Y-55670000D03*
X125400000Y-56940000D03*
X125400000Y-58210000D03*
G04 #@! TD*
D17*
G04 #@! TO.C,R1*
X117000000Y-30867502D03*
X117000000Y-31887500D03*
G04 #@! TD*
D22*
G04 #@! TO.C,C12*
X116925000Y-88900000D03*
X118475000Y-88900000D03*
G04 #@! TD*
D13*
G04 #@! TO.C,C15*
X122300000Y-80700000D03*
X122300000Y-82250000D03*
G04 #@! TD*
G04 #@! TO.C,C3*
X118400000Y-30025000D03*
X118400000Y-31575000D03*
G04 #@! TD*
D28*
G04 #@! TO.C,D3*
X118937501Y-84250000D03*
X117362499Y-84250000D03*
G04 #@! TD*
M02*
