G04 #@! TF.GenerationSoftware,KiCad,Pcbnew,8.0.5*
G04 #@! TF.CreationDate,2024-10-01T14:56:49-07:00*
G04 #@! TF.ProjectId,gr25_nodes,67723235-5f6e-46f6-9465-732e6b696361,rev?*
G04 #@! TF.SameCoordinates,Original*
G04 #@! TF.FileFunction,Legend,Bot*
G04 #@! TF.FilePolarity,Positive*
%FSLAX46Y46*%
G04 Gerber Fmt 4.6, Leading zero omitted, Abs format (unit mm)*
G04 Created by KiCad (PCBNEW 8.0.5) date 2024-10-01 14:56:49*
%MOMM*%
%LPD*%
G01*
G04 APERTURE LIST*
G04 Aperture macros list*
%AMRoundRect*
0 Rectangle with rounded corners*
0 $1 Rounding radius*
0 $2 $3 $4 $5 $6 $7 $8 $9 X,Y pos of 4 corners*
0 Add a 4 corners polygon primitive as box body*
4,1,4,$2,$3,$4,$5,$6,$7,$8,$9,$2,$3,0*
0 Add four circle primitives for the rounded corners*
1,1,$1+$1,$2,$3*
1,1,$1+$1,$4,$5*
1,1,$1+$1,$6,$7*
1,1,$1+$1,$8,$9*
0 Add four rect primitives between the rounded corners*
20,1,$1+$1,$2,$3,$4,$5,0*
20,1,$1+$1,$4,$5,$6,$7,0*
20,1,$1+$1,$6,$7,$8,$9,0*
20,1,$1+$1,$8,$9,$2,$3,0*%
G04 Aperture macros list end*
%ADD10C,0.150000*%
%ADD11C,0.120000*%
%ADD12RoundRect,0.250000X-0.350000X-0.625000X0.350000X-0.625000X0.350000X0.625000X-0.350000X0.625000X0*%
%ADD13O,1.200000X1.750000*%
%ADD14RoundRect,0.135000X0.185000X-0.135000X0.185000X0.135000X-0.185000X0.135000X-0.185000X-0.135000X0*%
%ADD15RoundRect,0.250000X0.250000X0.475000X-0.250000X0.475000X-0.250000X-0.475000X0.250000X-0.475000X0*%
%ADD16RoundRect,0.225000X0.225000X0.250000X-0.225000X0.250000X-0.225000X-0.250000X0.225000X-0.250000X0*%
%ADD17RoundRect,0.225000X-0.250000X0.225000X-0.250000X-0.225000X0.250000X-0.225000X0.250000X0.225000X0*%
%ADD18RoundRect,0.250000X0.250000X-0.250000X0.250000X0.250000X-0.250000X0.250000X-0.250000X-0.250000X0*%
%ADD19RoundRect,0.135000X0.135000X0.185000X-0.135000X0.185000X-0.135000X-0.185000X0.135000X-0.185000X0*%
%ADD20R,1.700000X1.700000*%
%ADD21O,1.700000X1.700000*%
%ADD22RoundRect,0.218750X-0.218750X-0.256250X0.218750X-0.256250X0.218750X0.256250X-0.218750X0.256250X0*%
%ADD23R,1.000000X1.000000*%
%ADD24RoundRect,0.135000X-0.185000X0.135000X-0.185000X-0.135000X0.185000X-0.135000X0.185000X0.135000X0*%
%ADD25RoundRect,0.225000X0.250000X-0.225000X0.250000X0.225000X-0.250000X0.225000X-0.250000X-0.225000X0*%
%ADD26RoundRect,0.150000X0.150000X-0.512500X0.150000X0.512500X-0.150000X0.512500X-0.150000X-0.512500X0*%
%ADD27RoundRect,0.135000X-0.135000X-0.185000X0.135000X-0.185000X0.135000X0.185000X-0.135000X0.185000X0*%
%ADD28RoundRect,0.150000X0.825000X0.150000X-0.825000X0.150000X-0.825000X-0.150000X0.825000X-0.150000X0*%
%ADD29RoundRect,0.225000X-0.225000X-0.250000X0.225000X-0.250000X0.225000X0.250000X-0.225000X0.250000X0*%
%ADD30RoundRect,0.250000X-0.250000X-0.475000X0.250000X-0.475000X0.250000X0.475000X-0.250000X0.475000X0*%
%ADD31RoundRect,0.250000X-0.650000X0.325000X-0.650000X-0.325000X0.650000X-0.325000X0.650000X0.325000X0*%
%ADD32RoundRect,0.150000X0.587500X0.150000X-0.587500X0.150000X-0.587500X-0.150000X0.587500X-0.150000X0*%
%ADD33R,2.400000X5.700000*%
%ADD34RoundRect,0.150000X-0.825000X-0.150000X0.825000X-0.150000X0.825000X0.150000X-0.825000X0.150000X0*%
%ADD35RoundRect,0.218750X0.218750X0.256250X-0.218750X0.256250X-0.218750X-0.256250X0.218750X-0.256250X0*%
G04 APERTURE END LIST*
D10*
X121754819Y-86633333D02*
X121278628Y-86300000D01*
X121754819Y-86061905D02*
X120754819Y-86061905D01*
X120754819Y-86061905D02*
X120754819Y-86442857D01*
X120754819Y-86442857D02*
X120802438Y-86538095D01*
X120802438Y-86538095D02*
X120850057Y-86585714D01*
X120850057Y-86585714D02*
X120945295Y-86633333D01*
X120945295Y-86633333D02*
X121088152Y-86633333D01*
X121088152Y-86633333D02*
X121183390Y-86585714D01*
X121183390Y-86585714D02*
X121231009Y-86538095D01*
X121231009Y-86538095D02*
X121278628Y-86442857D01*
X121278628Y-86442857D02*
X121278628Y-86061905D01*
X121183390Y-87204762D02*
X121135771Y-87109524D01*
X121135771Y-87109524D02*
X121088152Y-87061905D01*
X121088152Y-87061905D02*
X120992914Y-87014286D01*
X120992914Y-87014286D02*
X120945295Y-87014286D01*
X120945295Y-87014286D02*
X120850057Y-87061905D01*
X120850057Y-87061905D02*
X120802438Y-87109524D01*
X120802438Y-87109524D02*
X120754819Y-87204762D01*
X120754819Y-87204762D02*
X120754819Y-87395238D01*
X120754819Y-87395238D02*
X120802438Y-87490476D01*
X120802438Y-87490476D02*
X120850057Y-87538095D01*
X120850057Y-87538095D02*
X120945295Y-87585714D01*
X120945295Y-87585714D02*
X120992914Y-87585714D01*
X120992914Y-87585714D02*
X121088152Y-87538095D01*
X121088152Y-87538095D02*
X121135771Y-87490476D01*
X121135771Y-87490476D02*
X121183390Y-87395238D01*
X121183390Y-87395238D02*
X121183390Y-87204762D01*
X121183390Y-87204762D02*
X121231009Y-87109524D01*
X121231009Y-87109524D02*
X121278628Y-87061905D01*
X121278628Y-87061905D02*
X121373866Y-87014286D01*
X121373866Y-87014286D02*
X121564342Y-87014286D01*
X121564342Y-87014286D02*
X121659580Y-87061905D01*
X121659580Y-87061905D02*
X121707200Y-87109524D01*
X121707200Y-87109524D02*
X121754819Y-87204762D01*
X121754819Y-87204762D02*
X121754819Y-87395238D01*
X121754819Y-87395238D02*
X121707200Y-87490476D01*
X121707200Y-87490476D02*
X121659580Y-87538095D01*
X121659580Y-87538095D02*
X121564342Y-87585714D01*
X121564342Y-87585714D02*
X121373866Y-87585714D01*
X121373866Y-87585714D02*
X121278628Y-87538095D01*
X121278628Y-87538095D02*
X121231009Y-87490476D01*
X121231009Y-87490476D02*
X121183390Y-87395238D01*
X125166666Y-38059580D02*
X125214285Y-38107200D01*
X125214285Y-38107200D02*
X125357142Y-38154819D01*
X125357142Y-38154819D02*
X125452380Y-38154819D01*
X125452380Y-38154819D02*
X125595237Y-38107200D01*
X125595237Y-38107200D02*
X125690475Y-38011961D01*
X125690475Y-38011961D02*
X125738094Y-37916723D01*
X125738094Y-37916723D02*
X125785713Y-37726247D01*
X125785713Y-37726247D02*
X125785713Y-37583390D01*
X125785713Y-37583390D02*
X125738094Y-37392914D01*
X125738094Y-37392914D02*
X125690475Y-37297676D01*
X125690475Y-37297676D02*
X125595237Y-37202438D01*
X125595237Y-37202438D02*
X125452380Y-37154819D01*
X125452380Y-37154819D02*
X125357142Y-37154819D01*
X125357142Y-37154819D02*
X125214285Y-37202438D01*
X125214285Y-37202438D02*
X125166666Y-37250057D01*
X124309523Y-37488152D02*
X124309523Y-38154819D01*
X124547618Y-37107200D02*
X124785713Y-37821485D01*
X124785713Y-37821485D02*
X124166666Y-37821485D01*
X120559580Y-81557142D02*
X120607200Y-81509523D01*
X120607200Y-81509523D02*
X120654819Y-81366666D01*
X120654819Y-81366666D02*
X120654819Y-81271428D01*
X120654819Y-81271428D02*
X120607200Y-81128571D01*
X120607200Y-81128571D02*
X120511961Y-81033333D01*
X120511961Y-81033333D02*
X120416723Y-80985714D01*
X120416723Y-80985714D02*
X120226247Y-80938095D01*
X120226247Y-80938095D02*
X120083390Y-80938095D01*
X120083390Y-80938095D02*
X119892914Y-80985714D01*
X119892914Y-80985714D02*
X119797676Y-81033333D01*
X119797676Y-81033333D02*
X119702438Y-81128571D01*
X119702438Y-81128571D02*
X119654819Y-81271428D01*
X119654819Y-81271428D02*
X119654819Y-81366666D01*
X119654819Y-81366666D02*
X119702438Y-81509523D01*
X119702438Y-81509523D02*
X119750057Y-81557142D01*
X120654819Y-82509523D02*
X120654819Y-81938095D01*
X120654819Y-82223809D02*
X119654819Y-82223809D01*
X119654819Y-82223809D02*
X119797676Y-82128571D01*
X119797676Y-82128571D02*
X119892914Y-82033333D01*
X119892914Y-82033333D02*
X119940533Y-81938095D01*
X120654819Y-83461904D02*
X120654819Y-82890476D01*
X120654819Y-83176190D02*
X119654819Y-83176190D01*
X119654819Y-83176190D02*
X119797676Y-83080952D01*
X119797676Y-83080952D02*
X119892914Y-82985714D01*
X119892914Y-82985714D02*
X119940533Y-82890476D01*
X117229580Y-55757142D02*
X117277200Y-55709523D01*
X117277200Y-55709523D02*
X117324819Y-55566666D01*
X117324819Y-55566666D02*
X117324819Y-55471428D01*
X117324819Y-55471428D02*
X117277200Y-55328571D01*
X117277200Y-55328571D02*
X117181961Y-55233333D01*
X117181961Y-55233333D02*
X117086723Y-55185714D01*
X117086723Y-55185714D02*
X116896247Y-55138095D01*
X116896247Y-55138095D02*
X116753390Y-55138095D01*
X116753390Y-55138095D02*
X116562914Y-55185714D01*
X116562914Y-55185714D02*
X116467676Y-55233333D01*
X116467676Y-55233333D02*
X116372438Y-55328571D01*
X116372438Y-55328571D02*
X116324819Y-55471428D01*
X116324819Y-55471428D02*
X116324819Y-55566666D01*
X116324819Y-55566666D02*
X116372438Y-55709523D01*
X116372438Y-55709523D02*
X116420057Y-55757142D01*
X116324819Y-56090476D02*
X116324819Y-56709523D01*
X116324819Y-56709523D02*
X116705771Y-56376190D01*
X116705771Y-56376190D02*
X116705771Y-56519047D01*
X116705771Y-56519047D02*
X116753390Y-56614285D01*
X116753390Y-56614285D02*
X116801009Y-56661904D01*
X116801009Y-56661904D02*
X116896247Y-56709523D01*
X116896247Y-56709523D02*
X117134342Y-56709523D01*
X117134342Y-56709523D02*
X117229580Y-56661904D01*
X117229580Y-56661904D02*
X117277200Y-56614285D01*
X117277200Y-56614285D02*
X117324819Y-56519047D01*
X117324819Y-56519047D02*
X117324819Y-56233333D01*
X117324819Y-56233333D02*
X117277200Y-56138095D01*
X117277200Y-56138095D02*
X117229580Y-56090476D01*
X117324819Y-57661904D02*
X117324819Y-57090476D01*
X117324819Y-57376190D02*
X116324819Y-57376190D01*
X116324819Y-57376190D02*
X116467676Y-57280952D01*
X116467676Y-57280952D02*
X116562914Y-57185714D01*
X116562914Y-57185714D02*
X116610533Y-57090476D01*
X114988094Y-32504819D02*
X114988094Y-31504819D01*
X114988094Y-31504819D02*
X114749999Y-31504819D01*
X114749999Y-31504819D02*
X114607142Y-31552438D01*
X114607142Y-31552438D02*
X114511904Y-31647676D01*
X114511904Y-31647676D02*
X114464285Y-31742914D01*
X114464285Y-31742914D02*
X114416666Y-31933390D01*
X114416666Y-31933390D02*
X114416666Y-32076247D01*
X114416666Y-32076247D02*
X114464285Y-32266723D01*
X114464285Y-32266723D02*
X114511904Y-32361961D01*
X114511904Y-32361961D02*
X114607142Y-32457200D01*
X114607142Y-32457200D02*
X114749999Y-32504819D01*
X114749999Y-32504819D02*
X114988094Y-32504819D01*
X113559523Y-31504819D02*
X113749999Y-31504819D01*
X113749999Y-31504819D02*
X113845237Y-31552438D01*
X113845237Y-31552438D02*
X113892856Y-31600057D01*
X113892856Y-31600057D02*
X113988094Y-31742914D01*
X113988094Y-31742914D02*
X114035713Y-31933390D01*
X114035713Y-31933390D02*
X114035713Y-32314342D01*
X114035713Y-32314342D02*
X113988094Y-32409580D01*
X113988094Y-32409580D02*
X113940475Y-32457200D01*
X113940475Y-32457200D02*
X113845237Y-32504819D01*
X113845237Y-32504819D02*
X113654761Y-32504819D01*
X113654761Y-32504819D02*
X113559523Y-32457200D01*
X113559523Y-32457200D02*
X113511904Y-32409580D01*
X113511904Y-32409580D02*
X113464285Y-32314342D01*
X113464285Y-32314342D02*
X113464285Y-32076247D01*
X113464285Y-32076247D02*
X113511904Y-31981009D01*
X113511904Y-31981009D02*
X113559523Y-31933390D01*
X113559523Y-31933390D02*
X113654761Y-31885771D01*
X113654761Y-31885771D02*
X113845237Y-31885771D01*
X113845237Y-31885771D02*
X113940475Y-31933390D01*
X113940475Y-31933390D02*
X113988094Y-31981009D01*
X113988094Y-31981009D02*
X114035713Y-32076247D01*
X116542857Y-97554819D02*
X116876190Y-97078628D01*
X117114285Y-97554819D02*
X117114285Y-96554819D01*
X117114285Y-96554819D02*
X116733333Y-96554819D01*
X116733333Y-96554819D02*
X116638095Y-96602438D01*
X116638095Y-96602438D02*
X116590476Y-96650057D01*
X116590476Y-96650057D02*
X116542857Y-96745295D01*
X116542857Y-96745295D02*
X116542857Y-96888152D01*
X116542857Y-96888152D02*
X116590476Y-96983390D01*
X116590476Y-96983390D02*
X116638095Y-97031009D01*
X116638095Y-97031009D02*
X116733333Y-97078628D01*
X116733333Y-97078628D02*
X117114285Y-97078628D01*
X115590476Y-97554819D02*
X116161904Y-97554819D01*
X115876190Y-97554819D02*
X115876190Y-96554819D01*
X115876190Y-96554819D02*
X115971428Y-96697676D01*
X115971428Y-96697676D02*
X116066666Y-96792914D01*
X116066666Y-96792914D02*
X116161904Y-96840533D01*
X114733333Y-96554819D02*
X114923809Y-96554819D01*
X114923809Y-96554819D02*
X115019047Y-96602438D01*
X115019047Y-96602438D02*
X115066666Y-96650057D01*
X115066666Y-96650057D02*
X115161904Y-96792914D01*
X115161904Y-96792914D02*
X115209523Y-96983390D01*
X115209523Y-96983390D02*
X115209523Y-97364342D01*
X115209523Y-97364342D02*
X115161904Y-97459580D01*
X115161904Y-97459580D02*
X115114285Y-97507200D01*
X115114285Y-97507200D02*
X115019047Y-97554819D01*
X115019047Y-97554819D02*
X114828571Y-97554819D01*
X114828571Y-97554819D02*
X114733333Y-97507200D01*
X114733333Y-97507200D02*
X114685714Y-97459580D01*
X114685714Y-97459580D02*
X114638095Y-97364342D01*
X114638095Y-97364342D02*
X114638095Y-97126247D01*
X114638095Y-97126247D02*
X114685714Y-97031009D01*
X114685714Y-97031009D02*
X114733333Y-96983390D01*
X114733333Y-96983390D02*
X114828571Y-96935771D01*
X114828571Y-96935771D02*
X115019047Y-96935771D01*
X115019047Y-96935771D02*
X115114285Y-96983390D01*
X115114285Y-96983390D02*
X115161904Y-97031009D01*
X115161904Y-97031009D02*
X115209523Y-97126247D01*
X123566666Y-78754819D02*
X123899999Y-78278628D01*
X124138094Y-78754819D02*
X124138094Y-77754819D01*
X124138094Y-77754819D02*
X123757142Y-77754819D01*
X123757142Y-77754819D02*
X123661904Y-77802438D01*
X123661904Y-77802438D02*
X123614285Y-77850057D01*
X123614285Y-77850057D02*
X123566666Y-77945295D01*
X123566666Y-77945295D02*
X123566666Y-78088152D01*
X123566666Y-78088152D02*
X123614285Y-78183390D01*
X123614285Y-78183390D02*
X123661904Y-78231009D01*
X123661904Y-78231009D02*
X123757142Y-78278628D01*
X123757142Y-78278628D02*
X124138094Y-78278628D01*
X123233332Y-77754819D02*
X122566666Y-77754819D01*
X122566666Y-77754819D02*
X122995237Y-78754819D01*
X126533333Y-28454819D02*
X126533333Y-29169104D01*
X126533333Y-29169104D02*
X126580952Y-29311961D01*
X126580952Y-29311961D02*
X126676190Y-29407200D01*
X126676190Y-29407200D02*
X126819047Y-29454819D01*
X126819047Y-29454819D02*
X126914285Y-29454819D01*
X125628571Y-28454819D02*
X125819047Y-28454819D01*
X125819047Y-28454819D02*
X125914285Y-28502438D01*
X125914285Y-28502438D02*
X125961904Y-28550057D01*
X125961904Y-28550057D02*
X126057142Y-28692914D01*
X126057142Y-28692914D02*
X126104761Y-28883390D01*
X126104761Y-28883390D02*
X126104761Y-29264342D01*
X126104761Y-29264342D02*
X126057142Y-29359580D01*
X126057142Y-29359580D02*
X126009523Y-29407200D01*
X126009523Y-29407200D02*
X125914285Y-29454819D01*
X125914285Y-29454819D02*
X125723809Y-29454819D01*
X125723809Y-29454819D02*
X125628571Y-29407200D01*
X125628571Y-29407200D02*
X125580952Y-29359580D01*
X125580952Y-29359580D02*
X125533333Y-29264342D01*
X125533333Y-29264342D02*
X125533333Y-29026247D01*
X125533333Y-29026247D02*
X125580952Y-28931009D01*
X125580952Y-28931009D02*
X125628571Y-28883390D01*
X125628571Y-28883390D02*
X125723809Y-28835771D01*
X125723809Y-28835771D02*
X125914285Y-28835771D01*
X125914285Y-28835771D02*
X126009523Y-28883390D01*
X126009523Y-28883390D02*
X126057142Y-28931009D01*
X126057142Y-28931009D02*
X126104761Y-29026247D01*
X118059580Y-61457142D02*
X118107200Y-61409523D01*
X118107200Y-61409523D02*
X118154819Y-61266666D01*
X118154819Y-61266666D02*
X118154819Y-61171428D01*
X118154819Y-61171428D02*
X118107200Y-61028571D01*
X118107200Y-61028571D02*
X118011961Y-60933333D01*
X118011961Y-60933333D02*
X117916723Y-60885714D01*
X117916723Y-60885714D02*
X117726247Y-60838095D01*
X117726247Y-60838095D02*
X117583390Y-60838095D01*
X117583390Y-60838095D02*
X117392914Y-60885714D01*
X117392914Y-60885714D02*
X117297676Y-60933333D01*
X117297676Y-60933333D02*
X117202438Y-61028571D01*
X117202438Y-61028571D02*
X117154819Y-61171428D01*
X117154819Y-61171428D02*
X117154819Y-61266666D01*
X117154819Y-61266666D02*
X117202438Y-61409523D01*
X117202438Y-61409523D02*
X117250057Y-61457142D01*
X118154819Y-62409523D02*
X118154819Y-61838095D01*
X118154819Y-62123809D02*
X117154819Y-62123809D01*
X117154819Y-62123809D02*
X117297676Y-62028571D01*
X117297676Y-62028571D02*
X117392914Y-61933333D01*
X117392914Y-61933333D02*
X117440533Y-61838095D01*
X117154819Y-63266666D02*
X117154819Y-63076190D01*
X117154819Y-63076190D02*
X117202438Y-62980952D01*
X117202438Y-62980952D02*
X117250057Y-62933333D01*
X117250057Y-62933333D02*
X117392914Y-62838095D01*
X117392914Y-62838095D02*
X117583390Y-62790476D01*
X117583390Y-62790476D02*
X117964342Y-62790476D01*
X117964342Y-62790476D02*
X118059580Y-62838095D01*
X118059580Y-62838095D02*
X118107200Y-62885714D01*
X118107200Y-62885714D02*
X118154819Y-62980952D01*
X118154819Y-62980952D02*
X118154819Y-63171428D01*
X118154819Y-63171428D02*
X118107200Y-63266666D01*
X118107200Y-63266666D02*
X118059580Y-63314285D01*
X118059580Y-63314285D02*
X117964342Y-63361904D01*
X117964342Y-63361904D02*
X117726247Y-63361904D01*
X117726247Y-63361904D02*
X117631009Y-63314285D01*
X117631009Y-63314285D02*
X117583390Y-63266666D01*
X117583390Y-63266666D02*
X117535771Y-63171428D01*
X117535771Y-63171428D02*
X117535771Y-62980952D01*
X117535771Y-62980952D02*
X117583390Y-62885714D01*
X117583390Y-62885714D02*
X117631009Y-62838095D01*
X117631009Y-62838095D02*
X117726247Y-62790476D01*
X119438094Y-87954819D02*
X119438094Y-86954819D01*
X119438094Y-86954819D02*
X119199999Y-86954819D01*
X119199999Y-86954819D02*
X119057142Y-87002438D01*
X119057142Y-87002438D02*
X118961904Y-87097676D01*
X118961904Y-87097676D02*
X118914285Y-87192914D01*
X118914285Y-87192914D02*
X118866666Y-87383390D01*
X118866666Y-87383390D02*
X118866666Y-87526247D01*
X118866666Y-87526247D02*
X118914285Y-87716723D01*
X118914285Y-87716723D02*
X118961904Y-87811961D01*
X118961904Y-87811961D02*
X119057142Y-87907200D01*
X119057142Y-87907200D02*
X119199999Y-87954819D01*
X119199999Y-87954819D02*
X119438094Y-87954819D01*
X118485713Y-87050057D02*
X118438094Y-87002438D01*
X118438094Y-87002438D02*
X118342856Y-86954819D01*
X118342856Y-86954819D02*
X118104761Y-86954819D01*
X118104761Y-86954819D02*
X118009523Y-87002438D01*
X118009523Y-87002438D02*
X117961904Y-87050057D01*
X117961904Y-87050057D02*
X117914285Y-87145295D01*
X117914285Y-87145295D02*
X117914285Y-87240533D01*
X117914285Y-87240533D02*
X117961904Y-87383390D01*
X117961904Y-87383390D02*
X118533332Y-87954819D01*
X118533332Y-87954819D02*
X117914285Y-87954819D01*
X125179166Y-40222080D02*
X125226785Y-40269700D01*
X125226785Y-40269700D02*
X125369642Y-40317319D01*
X125369642Y-40317319D02*
X125464880Y-40317319D01*
X125464880Y-40317319D02*
X125607737Y-40269700D01*
X125607737Y-40269700D02*
X125702975Y-40174461D01*
X125702975Y-40174461D02*
X125750594Y-40079223D01*
X125750594Y-40079223D02*
X125798213Y-39888747D01*
X125798213Y-39888747D02*
X125798213Y-39745890D01*
X125798213Y-39745890D02*
X125750594Y-39555414D01*
X125750594Y-39555414D02*
X125702975Y-39460176D01*
X125702975Y-39460176D02*
X125607737Y-39364938D01*
X125607737Y-39364938D02*
X125464880Y-39317319D01*
X125464880Y-39317319D02*
X125369642Y-39317319D01*
X125369642Y-39317319D02*
X125226785Y-39364938D01*
X125226785Y-39364938D02*
X125179166Y-39412557D01*
X124274404Y-39317319D02*
X124750594Y-39317319D01*
X124750594Y-39317319D02*
X124798213Y-39793509D01*
X124798213Y-39793509D02*
X124750594Y-39745890D01*
X124750594Y-39745890D02*
X124655356Y-39698271D01*
X124655356Y-39698271D02*
X124417261Y-39698271D01*
X124417261Y-39698271D02*
X124322023Y-39745890D01*
X124322023Y-39745890D02*
X124274404Y-39793509D01*
X124274404Y-39793509D02*
X124226785Y-39888747D01*
X124226785Y-39888747D02*
X124226785Y-40126842D01*
X124226785Y-40126842D02*
X124274404Y-40222080D01*
X124274404Y-40222080D02*
X124322023Y-40269700D01*
X124322023Y-40269700D02*
X124417261Y-40317319D01*
X124417261Y-40317319D02*
X124655356Y-40317319D01*
X124655356Y-40317319D02*
X124750594Y-40269700D01*
X124750594Y-40269700D02*
X124798213Y-40222080D01*
X115054819Y-79138095D02*
X115054819Y-79709523D01*
X116054819Y-79423809D02*
X115054819Y-79423809D01*
X116054819Y-80042857D02*
X115054819Y-80042857D01*
X115054819Y-80042857D02*
X115054819Y-80423809D01*
X115054819Y-80423809D02*
X115102438Y-80519047D01*
X115102438Y-80519047D02*
X115150057Y-80566666D01*
X115150057Y-80566666D02*
X115245295Y-80614285D01*
X115245295Y-80614285D02*
X115388152Y-80614285D01*
X115388152Y-80614285D02*
X115483390Y-80566666D01*
X115483390Y-80566666D02*
X115531009Y-80519047D01*
X115531009Y-80519047D02*
X115578628Y-80423809D01*
X115578628Y-80423809D02*
X115578628Y-80042857D01*
X115388152Y-81471428D02*
X116054819Y-81471428D01*
X115007200Y-81233333D02*
X115721485Y-80995238D01*
X115721485Y-80995238D02*
X115721485Y-81614285D01*
X127154819Y-83657142D02*
X126678628Y-83323809D01*
X127154819Y-83085714D02*
X126154819Y-83085714D01*
X126154819Y-83085714D02*
X126154819Y-83466666D01*
X126154819Y-83466666D02*
X126202438Y-83561904D01*
X126202438Y-83561904D02*
X126250057Y-83609523D01*
X126250057Y-83609523D02*
X126345295Y-83657142D01*
X126345295Y-83657142D02*
X126488152Y-83657142D01*
X126488152Y-83657142D02*
X126583390Y-83609523D01*
X126583390Y-83609523D02*
X126631009Y-83561904D01*
X126631009Y-83561904D02*
X126678628Y-83466666D01*
X126678628Y-83466666D02*
X126678628Y-83085714D01*
X127154819Y-84609523D02*
X127154819Y-84038095D01*
X127154819Y-84323809D02*
X126154819Y-84323809D01*
X126154819Y-84323809D02*
X126297676Y-84228571D01*
X126297676Y-84228571D02*
X126392914Y-84133333D01*
X126392914Y-84133333D02*
X126440533Y-84038095D01*
X126154819Y-84942857D02*
X126154819Y-85561904D01*
X126154819Y-85561904D02*
X126535771Y-85228571D01*
X126535771Y-85228571D02*
X126535771Y-85371428D01*
X126535771Y-85371428D02*
X126583390Y-85466666D01*
X126583390Y-85466666D02*
X126631009Y-85514285D01*
X126631009Y-85514285D02*
X126726247Y-85561904D01*
X126726247Y-85561904D02*
X126964342Y-85561904D01*
X126964342Y-85561904D02*
X127059580Y-85514285D01*
X127059580Y-85514285D02*
X127107200Y-85466666D01*
X127107200Y-85466666D02*
X127154819Y-85371428D01*
X127154819Y-85371428D02*
X127154819Y-85085714D01*
X127154819Y-85085714D02*
X127107200Y-84990476D01*
X127107200Y-84990476D02*
X127059580Y-84942857D01*
X126142857Y-64459580D02*
X126190476Y-64507200D01*
X126190476Y-64507200D02*
X126333333Y-64554819D01*
X126333333Y-64554819D02*
X126428571Y-64554819D01*
X126428571Y-64554819D02*
X126571428Y-64507200D01*
X126571428Y-64507200D02*
X126666666Y-64411961D01*
X126666666Y-64411961D02*
X126714285Y-64316723D01*
X126714285Y-64316723D02*
X126761904Y-64126247D01*
X126761904Y-64126247D02*
X126761904Y-63983390D01*
X126761904Y-63983390D02*
X126714285Y-63792914D01*
X126714285Y-63792914D02*
X126666666Y-63697676D01*
X126666666Y-63697676D02*
X126571428Y-63602438D01*
X126571428Y-63602438D02*
X126428571Y-63554819D01*
X126428571Y-63554819D02*
X126333333Y-63554819D01*
X126333333Y-63554819D02*
X126190476Y-63602438D01*
X126190476Y-63602438D02*
X126142857Y-63650057D01*
X125761904Y-63650057D02*
X125714285Y-63602438D01*
X125714285Y-63602438D02*
X125619047Y-63554819D01*
X125619047Y-63554819D02*
X125380952Y-63554819D01*
X125380952Y-63554819D02*
X125285714Y-63602438D01*
X125285714Y-63602438D02*
X125238095Y-63650057D01*
X125238095Y-63650057D02*
X125190476Y-63745295D01*
X125190476Y-63745295D02*
X125190476Y-63840533D01*
X125190476Y-63840533D02*
X125238095Y-63983390D01*
X125238095Y-63983390D02*
X125809523Y-64554819D01*
X125809523Y-64554819D02*
X125190476Y-64554819D01*
X124809523Y-63650057D02*
X124761904Y-63602438D01*
X124761904Y-63602438D02*
X124666666Y-63554819D01*
X124666666Y-63554819D02*
X124428571Y-63554819D01*
X124428571Y-63554819D02*
X124333333Y-63602438D01*
X124333333Y-63602438D02*
X124285714Y-63650057D01*
X124285714Y-63650057D02*
X124238095Y-63745295D01*
X124238095Y-63745295D02*
X124238095Y-63840533D01*
X124238095Y-63840533D02*
X124285714Y-63983390D01*
X124285714Y-63983390D02*
X124857142Y-64554819D01*
X124857142Y-64554819D02*
X124238095Y-64554819D01*
X115061904Y-30254819D02*
X115061904Y-31064342D01*
X115061904Y-31064342D02*
X115014285Y-31159580D01*
X115014285Y-31159580D02*
X114966666Y-31207200D01*
X114966666Y-31207200D02*
X114871428Y-31254819D01*
X114871428Y-31254819D02*
X114680952Y-31254819D01*
X114680952Y-31254819D02*
X114585714Y-31207200D01*
X114585714Y-31207200D02*
X114538095Y-31159580D01*
X114538095Y-31159580D02*
X114490476Y-31064342D01*
X114490476Y-31064342D02*
X114490476Y-30254819D01*
X114061904Y-30350057D02*
X114014285Y-30302438D01*
X114014285Y-30302438D02*
X113919047Y-30254819D01*
X113919047Y-30254819D02*
X113680952Y-30254819D01*
X113680952Y-30254819D02*
X113585714Y-30302438D01*
X113585714Y-30302438D02*
X113538095Y-30350057D01*
X113538095Y-30350057D02*
X113490476Y-30445295D01*
X113490476Y-30445295D02*
X113490476Y-30540533D01*
X113490476Y-30540533D02*
X113538095Y-30683390D01*
X113538095Y-30683390D02*
X114109523Y-31254819D01*
X114109523Y-31254819D02*
X113490476Y-31254819D01*
X125242857Y-85554819D02*
X125576190Y-85078628D01*
X125814285Y-85554819D02*
X125814285Y-84554819D01*
X125814285Y-84554819D02*
X125433333Y-84554819D01*
X125433333Y-84554819D02*
X125338095Y-84602438D01*
X125338095Y-84602438D02*
X125290476Y-84650057D01*
X125290476Y-84650057D02*
X125242857Y-84745295D01*
X125242857Y-84745295D02*
X125242857Y-84888152D01*
X125242857Y-84888152D02*
X125290476Y-84983390D01*
X125290476Y-84983390D02*
X125338095Y-85031009D01*
X125338095Y-85031009D02*
X125433333Y-85078628D01*
X125433333Y-85078628D02*
X125814285Y-85078628D01*
X124290476Y-85554819D02*
X124861904Y-85554819D01*
X124576190Y-85554819D02*
X124576190Y-84554819D01*
X124576190Y-84554819D02*
X124671428Y-84697676D01*
X124671428Y-84697676D02*
X124766666Y-84792914D01*
X124766666Y-84792914D02*
X124861904Y-84840533D01*
X123433333Y-84888152D02*
X123433333Y-85554819D01*
X123671428Y-84507200D02*
X123909523Y-85221485D01*
X123909523Y-85221485D02*
X123290476Y-85221485D01*
X123566666Y-79954819D02*
X123899999Y-79478628D01*
X124138094Y-79954819D02*
X124138094Y-78954819D01*
X124138094Y-78954819D02*
X123757142Y-78954819D01*
X123757142Y-78954819D02*
X123661904Y-79002438D01*
X123661904Y-79002438D02*
X123614285Y-79050057D01*
X123614285Y-79050057D02*
X123566666Y-79145295D01*
X123566666Y-79145295D02*
X123566666Y-79288152D01*
X123566666Y-79288152D02*
X123614285Y-79383390D01*
X123614285Y-79383390D02*
X123661904Y-79431009D01*
X123661904Y-79431009D02*
X123757142Y-79478628D01*
X123757142Y-79478628D02*
X124138094Y-79478628D01*
X122709523Y-78954819D02*
X122899999Y-78954819D01*
X122899999Y-78954819D02*
X122995237Y-79002438D01*
X122995237Y-79002438D02*
X123042856Y-79050057D01*
X123042856Y-79050057D02*
X123138094Y-79192914D01*
X123138094Y-79192914D02*
X123185713Y-79383390D01*
X123185713Y-79383390D02*
X123185713Y-79764342D01*
X123185713Y-79764342D02*
X123138094Y-79859580D01*
X123138094Y-79859580D02*
X123090475Y-79907200D01*
X123090475Y-79907200D02*
X122995237Y-79954819D01*
X122995237Y-79954819D02*
X122804761Y-79954819D01*
X122804761Y-79954819D02*
X122709523Y-79907200D01*
X122709523Y-79907200D02*
X122661904Y-79859580D01*
X122661904Y-79859580D02*
X122614285Y-79764342D01*
X122614285Y-79764342D02*
X122614285Y-79526247D01*
X122614285Y-79526247D02*
X122661904Y-79431009D01*
X122661904Y-79431009D02*
X122709523Y-79383390D01*
X122709523Y-79383390D02*
X122804761Y-79335771D01*
X122804761Y-79335771D02*
X122995237Y-79335771D01*
X122995237Y-79335771D02*
X123090475Y-79383390D01*
X123090475Y-79383390D02*
X123138094Y-79431009D01*
X123138094Y-79431009D02*
X123185713Y-79526247D01*
X113733333Y-28354819D02*
X113733333Y-29069104D01*
X113733333Y-29069104D02*
X113780952Y-29211961D01*
X113780952Y-29211961D02*
X113876190Y-29307200D01*
X113876190Y-29307200D02*
X114019047Y-29354819D01*
X114019047Y-29354819D02*
X114114285Y-29354819D01*
X113352380Y-28354819D02*
X112685714Y-28354819D01*
X112685714Y-28354819D02*
X113114285Y-29354819D01*
X120342857Y-92554819D02*
X120676190Y-92078628D01*
X120914285Y-92554819D02*
X120914285Y-91554819D01*
X120914285Y-91554819D02*
X120533333Y-91554819D01*
X120533333Y-91554819D02*
X120438095Y-91602438D01*
X120438095Y-91602438D02*
X120390476Y-91650057D01*
X120390476Y-91650057D02*
X120342857Y-91745295D01*
X120342857Y-91745295D02*
X120342857Y-91888152D01*
X120342857Y-91888152D02*
X120390476Y-91983390D01*
X120390476Y-91983390D02*
X120438095Y-92031009D01*
X120438095Y-92031009D02*
X120533333Y-92078628D01*
X120533333Y-92078628D02*
X120914285Y-92078628D01*
X119390476Y-92554819D02*
X119961904Y-92554819D01*
X119676190Y-92554819D02*
X119676190Y-91554819D01*
X119676190Y-91554819D02*
X119771428Y-91697676D01*
X119771428Y-91697676D02*
X119866666Y-91792914D01*
X119866666Y-91792914D02*
X119961904Y-91840533D01*
X118771428Y-91554819D02*
X118676190Y-91554819D01*
X118676190Y-91554819D02*
X118580952Y-91602438D01*
X118580952Y-91602438D02*
X118533333Y-91650057D01*
X118533333Y-91650057D02*
X118485714Y-91745295D01*
X118485714Y-91745295D02*
X118438095Y-91935771D01*
X118438095Y-91935771D02*
X118438095Y-92173866D01*
X118438095Y-92173866D02*
X118485714Y-92364342D01*
X118485714Y-92364342D02*
X118533333Y-92459580D01*
X118533333Y-92459580D02*
X118580952Y-92507200D01*
X118580952Y-92507200D02*
X118676190Y-92554819D01*
X118676190Y-92554819D02*
X118771428Y-92554819D01*
X118771428Y-92554819D02*
X118866666Y-92507200D01*
X118866666Y-92507200D02*
X118914285Y-92459580D01*
X118914285Y-92459580D02*
X118961904Y-92364342D01*
X118961904Y-92364342D02*
X119009523Y-92173866D01*
X119009523Y-92173866D02*
X119009523Y-91935771D01*
X119009523Y-91935771D02*
X118961904Y-91745295D01*
X118961904Y-91745295D02*
X118914285Y-91650057D01*
X118914285Y-91650057D02*
X118866666Y-91602438D01*
X118866666Y-91602438D02*
X118771428Y-91554819D01*
X127154819Y-80957142D02*
X126678628Y-80623809D01*
X127154819Y-80385714D02*
X126154819Y-80385714D01*
X126154819Y-80385714D02*
X126154819Y-80766666D01*
X126154819Y-80766666D02*
X126202438Y-80861904D01*
X126202438Y-80861904D02*
X126250057Y-80909523D01*
X126250057Y-80909523D02*
X126345295Y-80957142D01*
X126345295Y-80957142D02*
X126488152Y-80957142D01*
X126488152Y-80957142D02*
X126583390Y-80909523D01*
X126583390Y-80909523D02*
X126631009Y-80861904D01*
X126631009Y-80861904D02*
X126678628Y-80766666D01*
X126678628Y-80766666D02*
X126678628Y-80385714D01*
X127154819Y-81909523D02*
X127154819Y-81338095D01*
X127154819Y-81623809D02*
X126154819Y-81623809D01*
X126154819Y-81623809D02*
X126297676Y-81528571D01*
X126297676Y-81528571D02*
X126392914Y-81433333D01*
X126392914Y-81433333D02*
X126440533Y-81338095D01*
X126154819Y-82814285D02*
X126154819Y-82338095D01*
X126154819Y-82338095D02*
X126631009Y-82290476D01*
X126631009Y-82290476D02*
X126583390Y-82338095D01*
X126583390Y-82338095D02*
X126535771Y-82433333D01*
X126535771Y-82433333D02*
X126535771Y-82671428D01*
X126535771Y-82671428D02*
X126583390Y-82766666D01*
X126583390Y-82766666D02*
X126631009Y-82814285D01*
X126631009Y-82814285D02*
X126726247Y-82861904D01*
X126726247Y-82861904D02*
X126964342Y-82861904D01*
X126964342Y-82861904D02*
X127059580Y-82814285D01*
X127059580Y-82814285D02*
X127107200Y-82766666D01*
X127107200Y-82766666D02*
X127154819Y-82671428D01*
X127154819Y-82671428D02*
X127154819Y-82433333D01*
X127154819Y-82433333D02*
X127107200Y-82338095D01*
X127107200Y-82338095D02*
X127059580Y-82290476D01*
X117161904Y-49254819D02*
X117161904Y-50064342D01*
X117161904Y-50064342D02*
X117114285Y-50159580D01*
X117114285Y-50159580D02*
X117066666Y-50207200D01*
X117066666Y-50207200D02*
X116971428Y-50254819D01*
X116971428Y-50254819D02*
X116780952Y-50254819D01*
X116780952Y-50254819D02*
X116685714Y-50207200D01*
X116685714Y-50207200D02*
X116638095Y-50159580D01*
X116638095Y-50159580D02*
X116590476Y-50064342D01*
X116590476Y-50064342D02*
X116590476Y-49254819D01*
X116209523Y-49254819D02*
X115590476Y-49254819D01*
X115590476Y-49254819D02*
X115923809Y-49635771D01*
X115923809Y-49635771D02*
X115780952Y-49635771D01*
X115780952Y-49635771D02*
X115685714Y-49683390D01*
X115685714Y-49683390D02*
X115638095Y-49731009D01*
X115638095Y-49731009D02*
X115590476Y-49826247D01*
X115590476Y-49826247D02*
X115590476Y-50064342D01*
X115590476Y-50064342D02*
X115638095Y-50159580D01*
X115638095Y-50159580D02*
X115685714Y-50207200D01*
X115685714Y-50207200D02*
X115780952Y-50254819D01*
X115780952Y-50254819D02*
X116066666Y-50254819D01*
X116066666Y-50254819D02*
X116161904Y-50207200D01*
X116161904Y-50207200D02*
X116209523Y-50159580D01*
X120859580Y-67457142D02*
X120907200Y-67409523D01*
X120907200Y-67409523D02*
X120954819Y-67266666D01*
X120954819Y-67266666D02*
X120954819Y-67171428D01*
X120954819Y-67171428D02*
X120907200Y-67028571D01*
X120907200Y-67028571D02*
X120811961Y-66933333D01*
X120811961Y-66933333D02*
X120716723Y-66885714D01*
X120716723Y-66885714D02*
X120526247Y-66838095D01*
X120526247Y-66838095D02*
X120383390Y-66838095D01*
X120383390Y-66838095D02*
X120192914Y-66885714D01*
X120192914Y-66885714D02*
X120097676Y-66933333D01*
X120097676Y-66933333D02*
X120002438Y-67028571D01*
X120002438Y-67028571D02*
X119954819Y-67171428D01*
X119954819Y-67171428D02*
X119954819Y-67266666D01*
X119954819Y-67266666D02*
X120002438Y-67409523D01*
X120002438Y-67409523D02*
X120050057Y-67457142D01*
X120050057Y-67838095D02*
X120002438Y-67885714D01*
X120002438Y-67885714D02*
X119954819Y-67980952D01*
X119954819Y-67980952D02*
X119954819Y-68219047D01*
X119954819Y-68219047D02*
X120002438Y-68314285D01*
X120002438Y-68314285D02*
X120050057Y-68361904D01*
X120050057Y-68361904D02*
X120145295Y-68409523D01*
X120145295Y-68409523D02*
X120240533Y-68409523D01*
X120240533Y-68409523D02*
X120383390Y-68361904D01*
X120383390Y-68361904D02*
X120954819Y-67790476D01*
X120954819Y-67790476D02*
X120954819Y-68409523D01*
X119954819Y-69314285D02*
X119954819Y-68838095D01*
X119954819Y-68838095D02*
X120431009Y-68790476D01*
X120431009Y-68790476D02*
X120383390Y-68838095D01*
X120383390Y-68838095D02*
X120335771Y-68933333D01*
X120335771Y-68933333D02*
X120335771Y-69171428D01*
X120335771Y-69171428D02*
X120383390Y-69266666D01*
X120383390Y-69266666D02*
X120431009Y-69314285D01*
X120431009Y-69314285D02*
X120526247Y-69361904D01*
X120526247Y-69361904D02*
X120764342Y-69361904D01*
X120764342Y-69361904D02*
X120859580Y-69314285D01*
X120859580Y-69314285D02*
X120907200Y-69266666D01*
X120907200Y-69266666D02*
X120954819Y-69171428D01*
X120954819Y-69171428D02*
X120954819Y-68933333D01*
X120954819Y-68933333D02*
X120907200Y-68838095D01*
X120907200Y-68838095D02*
X120859580Y-68790476D01*
X119254819Y-78133333D02*
X118778628Y-77800000D01*
X119254819Y-77561905D02*
X118254819Y-77561905D01*
X118254819Y-77561905D02*
X118254819Y-77942857D01*
X118254819Y-77942857D02*
X118302438Y-78038095D01*
X118302438Y-78038095D02*
X118350057Y-78085714D01*
X118350057Y-78085714D02*
X118445295Y-78133333D01*
X118445295Y-78133333D02*
X118588152Y-78133333D01*
X118588152Y-78133333D02*
X118683390Y-78085714D01*
X118683390Y-78085714D02*
X118731009Y-78038095D01*
X118731009Y-78038095D02*
X118778628Y-77942857D01*
X118778628Y-77942857D02*
X118778628Y-77561905D01*
X118588152Y-78990476D02*
X119254819Y-78990476D01*
X118207200Y-78752381D02*
X118921485Y-78514286D01*
X118921485Y-78514286D02*
X118921485Y-79133333D01*
X125042857Y-81059580D02*
X125090476Y-81107200D01*
X125090476Y-81107200D02*
X125233333Y-81154819D01*
X125233333Y-81154819D02*
X125328571Y-81154819D01*
X125328571Y-81154819D02*
X125471428Y-81107200D01*
X125471428Y-81107200D02*
X125566666Y-81011961D01*
X125566666Y-81011961D02*
X125614285Y-80916723D01*
X125614285Y-80916723D02*
X125661904Y-80726247D01*
X125661904Y-80726247D02*
X125661904Y-80583390D01*
X125661904Y-80583390D02*
X125614285Y-80392914D01*
X125614285Y-80392914D02*
X125566666Y-80297676D01*
X125566666Y-80297676D02*
X125471428Y-80202438D01*
X125471428Y-80202438D02*
X125328571Y-80154819D01*
X125328571Y-80154819D02*
X125233333Y-80154819D01*
X125233333Y-80154819D02*
X125090476Y-80202438D01*
X125090476Y-80202438D02*
X125042857Y-80250057D01*
X124090476Y-81154819D02*
X124661904Y-81154819D01*
X124376190Y-81154819D02*
X124376190Y-80154819D01*
X124376190Y-80154819D02*
X124471428Y-80297676D01*
X124471428Y-80297676D02*
X124566666Y-80392914D01*
X124566666Y-80392914D02*
X124661904Y-80440533D01*
X123757142Y-80154819D02*
X123138095Y-80154819D01*
X123138095Y-80154819D02*
X123471428Y-80535771D01*
X123471428Y-80535771D02*
X123328571Y-80535771D01*
X123328571Y-80535771D02*
X123233333Y-80583390D01*
X123233333Y-80583390D02*
X123185714Y-80631009D01*
X123185714Y-80631009D02*
X123138095Y-80726247D01*
X123138095Y-80726247D02*
X123138095Y-80964342D01*
X123138095Y-80964342D02*
X123185714Y-81059580D01*
X123185714Y-81059580D02*
X123233333Y-81107200D01*
X123233333Y-81107200D02*
X123328571Y-81154819D01*
X123328571Y-81154819D02*
X123614285Y-81154819D01*
X123614285Y-81154819D02*
X123709523Y-81107200D01*
X123709523Y-81107200D02*
X123757142Y-81059580D01*
X115417857Y-55189580D02*
X115465476Y-55237200D01*
X115465476Y-55237200D02*
X115608333Y-55284819D01*
X115608333Y-55284819D02*
X115703571Y-55284819D01*
X115703571Y-55284819D02*
X115846428Y-55237200D01*
X115846428Y-55237200D02*
X115941666Y-55141961D01*
X115941666Y-55141961D02*
X115989285Y-55046723D01*
X115989285Y-55046723D02*
X116036904Y-54856247D01*
X116036904Y-54856247D02*
X116036904Y-54713390D01*
X116036904Y-54713390D02*
X115989285Y-54522914D01*
X115989285Y-54522914D02*
X115941666Y-54427676D01*
X115941666Y-54427676D02*
X115846428Y-54332438D01*
X115846428Y-54332438D02*
X115703571Y-54284819D01*
X115703571Y-54284819D02*
X115608333Y-54284819D01*
X115608333Y-54284819D02*
X115465476Y-54332438D01*
X115465476Y-54332438D02*
X115417857Y-54380057D01*
X115036904Y-54380057D02*
X114989285Y-54332438D01*
X114989285Y-54332438D02*
X114894047Y-54284819D01*
X114894047Y-54284819D02*
X114655952Y-54284819D01*
X114655952Y-54284819D02*
X114560714Y-54332438D01*
X114560714Y-54332438D02*
X114513095Y-54380057D01*
X114513095Y-54380057D02*
X114465476Y-54475295D01*
X114465476Y-54475295D02*
X114465476Y-54570533D01*
X114465476Y-54570533D02*
X114513095Y-54713390D01*
X114513095Y-54713390D02*
X115084523Y-55284819D01*
X115084523Y-55284819D02*
X114465476Y-55284819D01*
X113894047Y-54713390D02*
X113989285Y-54665771D01*
X113989285Y-54665771D02*
X114036904Y-54618152D01*
X114036904Y-54618152D02*
X114084523Y-54522914D01*
X114084523Y-54522914D02*
X114084523Y-54475295D01*
X114084523Y-54475295D02*
X114036904Y-54380057D01*
X114036904Y-54380057D02*
X113989285Y-54332438D01*
X113989285Y-54332438D02*
X113894047Y-54284819D01*
X113894047Y-54284819D02*
X113703571Y-54284819D01*
X113703571Y-54284819D02*
X113608333Y-54332438D01*
X113608333Y-54332438D02*
X113560714Y-54380057D01*
X113560714Y-54380057D02*
X113513095Y-54475295D01*
X113513095Y-54475295D02*
X113513095Y-54522914D01*
X113513095Y-54522914D02*
X113560714Y-54618152D01*
X113560714Y-54618152D02*
X113608333Y-54665771D01*
X113608333Y-54665771D02*
X113703571Y-54713390D01*
X113703571Y-54713390D02*
X113894047Y-54713390D01*
X113894047Y-54713390D02*
X113989285Y-54761009D01*
X113989285Y-54761009D02*
X114036904Y-54808628D01*
X114036904Y-54808628D02*
X114084523Y-54903866D01*
X114084523Y-54903866D02*
X114084523Y-55094342D01*
X114084523Y-55094342D02*
X114036904Y-55189580D01*
X114036904Y-55189580D02*
X113989285Y-55237200D01*
X113989285Y-55237200D02*
X113894047Y-55284819D01*
X113894047Y-55284819D02*
X113703571Y-55284819D01*
X113703571Y-55284819D02*
X113608333Y-55237200D01*
X113608333Y-55237200D02*
X113560714Y-55189580D01*
X113560714Y-55189580D02*
X113513095Y-55094342D01*
X113513095Y-55094342D02*
X113513095Y-54903866D01*
X113513095Y-54903866D02*
X113560714Y-54808628D01*
X113560714Y-54808628D02*
X113608333Y-54761009D01*
X113608333Y-54761009D02*
X113703571Y-54713390D01*
X125159580Y-66532142D02*
X125207200Y-66484523D01*
X125207200Y-66484523D02*
X125254819Y-66341666D01*
X125254819Y-66341666D02*
X125254819Y-66246428D01*
X125254819Y-66246428D02*
X125207200Y-66103571D01*
X125207200Y-66103571D02*
X125111961Y-66008333D01*
X125111961Y-66008333D02*
X125016723Y-65960714D01*
X125016723Y-65960714D02*
X124826247Y-65913095D01*
X124826247Y-65913095D02*
X124683390Y-65913095D01*
X124683390Y-65913095D02*
X124492914Y-65960714D01*
X124492914Y-65960714D02*
X124397676Y-66008333D01*
X124397676Y-66008333D02*
X124302438Y-66103571D01*
X124302438Y-66103571D02*
X124254819Y-66246428D01*
X124254819Y-66246428D02*
X124254819Y-66341666D01*
X124254819Y-66341666D02*
X124302438Y-66484523D01*
X124302438Y-66484523D02*
X124350057Y-66532142D01*
X124350057Y-66913095D02*
X124302438Y-66960714D01*
X124302438Y-66960714D02*
X124254819Y-67055952D01*
X124254819Y-67055952D02*
X124254819Y-67294047D01*
X124254819Y-67294047D02*
X124302438Y-67389285D01*
X124302438Y-67389285D02*
X124350057Y-67436904D01*
X124350057Y-67436904D02*
X124445295Y-67484523D01*
X124445295Y-67484523D02*
X124540533Y-67484523D01*
X124540533Y-67484523D02*
X124683390Y-67436904D01*
X124683390Y-67436904D02*
X125254819Y-66865476D01*
X125254819Y-66865476D02*
X125254819Y-67484523D01*
X124588152Y-68341666D02*
X125254819Y-68341666D01*
X124207200Y-68103571D02*
X124921485Y-67865476D01*
X124921485Y-67865476D02*
X124921485Y-68484523D01*
X114841666Y-38072080D02*
X114889285Y-38119700D01*
X114889285Y-38119700D02*
X115032142Y-38167319D01*
X115032142Y-38167319D02*
X115127380Y-38167319D01*
X115127380Y-38167319D02*
X115270237Y-38119700D01*
X115270237Y-38119700D02*
X115365475Y-38024461D01*
X115365475Y-38024461D02*
X115413094Y-37929223D01*
X115413094Y-37929223D02*
X115460713Y-37738747D01*
X115460713Y-37738747D02*
X115460713Y-37595890D01*
X115460713Y-37595890D02*
X115413094Y-37405414D01*
X115413094Y-37405414D02*
X115365475Y-37310176D01*
X115365475Y-37310176D02*
X115270237Y-37214938D01*
X115270237Y-37214938D02*
X115127380Y-37167319D01*
X115127380Y-37167319D02*
X115032142Y-37167319D01*
X115032142Y-37167319D02*
X114889285Y-37214938D01*
X114889285Y-37214938D02*
X114841666Y-37262557D01*
X113889285Y-38167319D02*
X114460713Y-38167319D01*
X114174999Y-38167319D02*
X114174999Y-37167319D01*
X114174999Y-37167319D02*
X114270237Y-37310176D01*
X114270237Y-37310176D02*
X114365475Y-37405414D01*
X114365475Y-37405414D02*
X114460713Y-37453033D01*
X118504819Y-64233333D02*
X118504819Y-63757143D01*
X118504819Y-63757143D02*
X117504819Y-63757143D01*
X117600057Y-64519048D02*
X117552438Y-64566667D01*
X117552438Y-64566667D02*
X117504819Y-64661905D01*
X117504819Y-64661905D02*
X117504819Y-64900000D01*
X117504819Y-64900000D02*
X117552438Y-64995238D01*
X117552438Y-64995238D02*
X117600057Y-65042857D01*
X117600057Y-65042857D02*
X117695295Y-65090476D01*
X117695295Y-65090476D02*
X117790533Y-65090476D01*
X117790533Y-65090476D02*
X117933390Y-65042857D01*
X117933390Y-65042857D02*
X118504819Y-64471429D01*
X118504819Y-64471429D02*
X118504819Y-65090476D01*
X114954819Y-81638095D02*
X114954819Y-82209523D01*
X115954819Y-81923809D02*
X114954819Y-81923809D01*
X115954819Y-82542857D02*
X114954819Y-82542857D01*
X114954819Y-82542857D02*
X114954819Y-82923809D01*
X114954819Y-82923809D02*
X115002438Y-83019047D01*
X115002438Y-83019047D02*
X115050057Y-83066666D01*
X115050057Y-83066666D02*
X115145295Y-83114285D01*
X115145295Y-83114285D02*
X115288152Y-83114285D01*
X115288152Y-83114285D02*
X115383390Y-83066666D01*
X115383390Y-83066666D02*
X115431009Y-83019047D01*
X115431009Y-83019047D02*
X115478628Y-82923809D01*
X115478628Y-82923809D02*
X115478628Y-82542857D01*
X114954819Y-83447619D02*
X114954819Y-84066666D01*
X114954819Y-84066666D02*
X115335771Y-83733333D01*
X115335771Y-83733333D02*
X115335771Y-83876190D01*
X115335771Y-83876190D02*
X115383390Y-83971428D01*
X115383390Y-83971428D02*
X115431009Y-84019047D01*
X115431009Y-84019047D02*
X115526247Y-84066666D01*
X115526247Y-84066666D02*
X115764342Y-84066666D01*
X115764342Y-84066666D02*
X115859580Y-84019047D01*
X115859580Y-84019047D02*
X115907200Y-83971428D01*
X115907200Y-83971428D02*
X115954819Y-83876190D01*
X115954819Y-83876190D02*
X115954819Y-83590476D01*
X115954819Y-83590476D02*
X115907200Y-83495238D01*
X115907200Y-83495238D02*
X115859580Y-83447619D01*
X121829819Y-84514508D02*
X121353628Y-84181175D01*
X121829819Y-83943080D02*
X120829819Y-83943080D01*
X120829819Y-83943080D02*
X120829819Y-84324032D01*
X120829819Y-84324032D02*
X120877438Y-84419270D01*
X120877438Y-84419270D02*
X120925057Y-84466889D01*
X120925057Y-84466889D02*
X121020295Y-84514508D01*
X121020295Y-84514508D02*
X121163152Y-84514508D01*
X121163152Y-84514508D02*
X121258390Y-84466889D01*
X121258390Y-84466889D02*
X121306009Y-84419270D01*
X121306009Y-84419270D02*
X121353628Y-84324032D01*
X121353628Y-84324032D02*
X121353628Y-83943080D01*
X121829819Y-84990699D02*
X121829819Y-85181175D01*
X121829819Y-85181175D02*
X121782200Y-85276413D01*
X121782200Y-85276413D02*
X121734580Y-85324032D01*
X121734580Y-85324032D02*
X121591723Y-85419270D01*
X121591723Y-85419270D02*
X121401247Y-85466889D01*
X121401247Y-85466889D02*
X121020295Y-85466889D01*
X121020295Y-85466889D02*
X120925057Y-85419270D01*
X120925057Y-85419270D02*
X120877438Y-85371651D01*
X120877438Y-85371651D02*
X120829819Y-85276413D01*
X120829819Y-85276413D02*
X120829819Y-85085937D01*
X120829819Y-85085937D02*
X120877438Y-84990699D01*
X120877438Y-84990699D02*
X120925057Y-84943080D01*
X120925057Y-84943080D02*
X121020295Y-84895461D01*
X121020295Y-84895461D02*
X121258390Y-84895461D01*
X121258390Y-84895461D02*
X121353628Y-84943080D01*
X121353628Y-84943080D02*
X121401247Y-84990699D01*
X121401247Y-84990699D02*
X121448866Y-85085937D01*
X121448866Y-85085937D02*
X121448866Y-85276413D01*
X121448866Y-85276413D02*
X121401247Y-85371651D01*
X121401247Y-85371651D02*
X121353628Y-85419270D01*
X121353628Y-85419270D02*
X121258390Y-85466889D01*
X118054819Y-78133333D02*
X117578628Y-77800000D01*
X118054819Y-77561905D02*
X117054819Y-77561905D01*
X117054819Y-77561905D02*
X117054819Y-77942857D01*
X117054819Y-77942857D02*
X117102438Y-78038095D01*
X117102438Y-78038095D02*
X117150057Y-78085714D01*
X117150057Y-78085714D02*
X117245295Y-78133333D01*
X117245295Y-78133333D02*
X117388152Y-78133333D01*
X117388152Y-78133333D02*
X117483390Y-78085714D01*
X117483390Y-78085714D02*
X117531009Y-78038095D01*
X117531009Y-78038095D02*
X117578628Y-77942857D01*
X117578628Y-77942857D02*
X117578628Y-77561905D01*
X117054819Y-79038095D02*
X117054819Y-78561905D01*
X117054819Y-78561905D02*
X117531009Y-78514286D01*
X117531009Y-78514286D02*
X117483390Y-78561905D01*
X117483390Y-78561905D02*
X117435771Y-78657143D01*
X117435771Y-78657143D02*
X117435771Y-78895238D01*
X117435771Y-78895238D02*
X117483390Y-78990476D01*
X117483390Y-78990476D02*
X117531009Y-79038095D01*
X117531009Y-79038095D02*
X117626247Y-79085714D01*
X117626247Y-79085714D02*
X117864342Y-79085714D01*
X117864342Y-79085714D02*
X117959580Y-79038095D01*
X117959580Y-79038095D02*
X118007200Y-78990476D01*
X118007200Y-78990476D02*
X118054819Y-78895238D01*
X118054819Y-78895238D02*
X118054819Y-78657143D01*
X118054819Y-78657143D02*
X118007200Y-78561905D01*
X118007200Y-78561905D02*
X117959580Y-78514286D01*
X122542857Y-97454819D02*
X122876190Y-96978628D01*
X123114285Y-97454819D02*
X123114285Y-96454819D01*
X123114285Y-96454819D02*
X122733333Y-96454819D01*
X122733333Y-96454819D02*
X122638095Y-96502438D01*
X122638095Y-96502438D02*
X122590476Y-96550057D01*
X122590476Y-96550057D02*
X122542857Y-96645295D01*
X122542857Y-96645295D02*
X122542857Y-96788152D01*
X122542857Y-96788152D02*
X122590476Y-96883390D01*
X122590476Y-96883390D02*
X122638095Y-96931009D01*
X122638095Y-96931009D02*
X122733333Y-96978628D01*
X122733333Y-96978628D02*
X123114285Y-96978628D01*
X121590476Y-97454819D02*
X122161904Y-97454819D01*
X121876190Y-97454819D02*
X121876190Y-96454819D01*
X121876190Y-96454819D02*
X121971428Y-96597676D01*
X121971428Y-96597676D02*
X122066666Y-96692914D01*
X122066666Y-96692914D02*
X122161904Y-96740533D01*
X121257142Y-96454819D02*
X120590476Y-96454819D01*
X120590476Y-96454819D02*
X121019047Y-97454819D01*
X126195238Y-93450057D02*
X126290476Y-93402438D01*
X126290476Y-93402438D02*
X126385714Y-93307200D01*
X126385714Y-93307200D02*
X126528571Y-93164342D01*
X126528571Y-93164342D02*
X126623809Y-93116723D01*
X126623809Y-93116723D02*
X126719047Y-93116723D01*
X126671428Y-93354819D02*
X126766666Y-93307200D01*
X126766666Y-93307200D02*
X126861904Y-93211961D01*
X126861904Y-93211961D02*
X126909523Y-93021485D01*
X126909523Y-93021485D02*
X126909523Y-92688152D01*
X126909523Y-92688152D02*
X126861904Y-92497676D01*
X126861904Y-92497676D02*
X126766666Y-92402438D01*
X126766666Y-92402438D02*
X126671428Y-92354819D01*
X126671428Y-92354819D02*
X126480952Y-92354819D01*
X126480952Y-92354819D02*
X126385714Y-92402438D01*
X126385714Y-92402438D02*
X126290476Y-92497676D01*
X126290476Y-92497676D02*
X126242857Y-92688152D01*
X126242857Y-92688152D02*
X126242857Y-93021485D01*
X126242857Y-93021485D02*
X126290476Y-93211961D01*
X126290476Y-93211961D02*
X126385714Y-93307200D01*
X126385714Y-93307200D02*
X126480952Y-93354819D01*
X126480952Y-93354819D02*
X126671428Y-93354819D01*
X125290476Y-93354819D02*
X125861904Y-93354819D01*
X125576190Y-93354819D02*
X125576190Y-92354819D01*
X125576190Y-92354819D02*
X125671428Y-92497676D01*
X125671428Y-92497676D02*
X125766666Y-92592914D01*
X125766666Y-92592914D02*
X125861904Y-92640533D01*
X114866666Y-39959580D02*
X114914285Y-40007200D01*
X114914285Y-40007200D02*
X115057142Y-40054819D01*
X115057142Y-40054819D02*
X115152380Y-40054819D01*
X115152380Y-40054819D02*
X115295237Y-40007200D01*
X115295237Y-40007200D02*
X115390475Y-39911961D01*
X115390475Y-39911961D02*
X115438094Y-39816723D01*
X115438094Y-39816723D02*
X115485713Y-39626247D01*
X115485713Y-39626247D02*
X115485713Y-39483390D01*
X115485713Y-39483390D02*
X115438094Y-39292914D01*
X115438094Y-39292914D02*
X115390475Y-39197676D01*
X115390475Y-39197676D02*
X115295237Y-39102438D01*
X115295237Y-39102438D02*
X115152380Y-39054819D01*
X115152380Y-39054819D02*
X115057142Y-39054819D01*
X115057142Y-39054819D02*
X114914285Y-39102438D01*
X114914285Y-39102438D02*
X114866666Y-39150057D01*
X114485713Y-39150057D02*
X114438094Y-39102438D01*
X114438094Y-39102438D02*
X114342856Y-39054819D01*
X114342856Y-39054819D02*
X114104761Y-39054819D01*
X114104761Y-39054819D02*
X114009523Y-39102438D01*
X114009523Y-39102438D02*
X113961904Y-39150057D01*
X113961904Y-39150057D02*
X113914285Y-39245295D01*
X113914285Y-39245295D02*
X113914285Y-39340533D01*
X113914285Y-39340533D02*
X113961904Y-39483390D01*
X113961904Y-39483390D02*
X114533332Y-40054819D01*
X114533332Y-40054819D02*
X113914285Y-40054819D01*
X126689580Y-61057142D02*
X126737200Y-61009523D01*
X126737200Y-61009523D02*
X126784819Y-60866666D01*
X126784819Y-60866666D02*
X126784819Y-60771428D01*
X126784819Y-60771428D02*
X126737200Y-60628571D01*
X126737200Y-60628571D02*
X126641961Y-60533333D01*
X126641961Y-60533333D02*
X126546723Y-60485714D01*
X126546723Y-60485714D02*
X126356247Y-60438095D01*
X126356247Y-60438095D02*
X126213390Y-60438095D01*
X126213390Y-60438095D02*
X126022914Y-60485714D01*
X126022914Y-60485714D02*
X125927676Y-60533333D01*
X125927676Y-60533333D02*
X125832438Y-60628571D01*
X125832438Y-60628571D02*
X125784819Y-60771428D01*
X125784819Y-60771428D02*
X125784819Y-60866666D01*
X125784819Y-60866666D02*
X125832438Y-61009523D01*
X125832438Y-61009523D02*
X125880057Y-61057142D01*
X126784819Y-62009523D02*
X126784819Y-61438095D01*
X126784819Y-61723809D02*
X125784819Y-61723809D01*
X125784819Y-61723809D02*
X125927676Y-61628571D01*
X125927676Y-61628571D02*
X126022914Y-61533333D01*
X126022914Y-61533333D02*
X126070533Y-61438095D01*
X126784819Y-62485714D02*
X126784819Y-62676190D01*
X126784819Y-62676190D02*
X126737200Y-62771428D01*
X126737200Y-62771428D02*
X126689580Y-62819047D01*
X126689580Y-62819047D02*
X126546723Y-62914285D01*
X126546723Y-62914285D02*
X126356247Y-62961904D01*
X126356247Y-62961904D02*
X125975295Y-62961904D01*
X125975295Y-62961904D02*
X125880057Y-62914285D01*
X125880057Y-62914285D02*
X125832438Y-62866666D01*
X125832438Y-62866666D02*
X125784819Y-62771428D01*
X125784819Y-62771428D02*
X125784819Y-62580952D01*
X125784819Y-62580952D02*
X125832438Y-62485714D01*
X125832438Y-62485714D02*
X125880057Y-62438095D01*
X125880057Y-62438095D02*
X125975295Y-62390476D01*
X125975295Y-62390476D02*
X126213390Y-62390476D01*
X126213390Y-62390476D02*
X126308628Y-62438095D01*
X126308628Y-62438095D02*
X126356247Y-62485714D01*
X126356247Y-62485714D02*
X126403866Y-62580952D01*
X126403866Y-62580952D02*
X126403866Y-62771428D01*
X126403866Y-62771428D02*
X126356247Y-62866666D01*
X126356247Y-62866666D02*
X126308628Y-62914285D01*
X126308628Y-62914285D02*
X126213390Y-62961904D01*
X121666666Y-90559580D02*
X121714285Y-90607200D01*
X121714285Y-90607200D02*
X121857142Y-90654819D01*
X121857142Y-90654819D02*
X121952380Y-90654819D01*
X121952380Y-90654819D02*
X122095237Y-90607200D01*
X122095237Y-90607200D02*
X122190475Y-90511961D01*
X122190475Y-90511961D02*
X122238094Y-90416723D01*
X122238094Y-90416723D02*
X122285713Y-90226247D01*
X122285713Y-90226247D02*
X122285713Y-90083390D01*
X122285713Y-90083390D02*
X122238094Y-89892914D01*
X122238094Y-89892914D02*
X122190475Y-89797676D01*
X122190475Y-89797676D02*
X122095237Y-89702438D01*
X122095237Y-89702438D02*
X121952380Y-89654819D01*
X121952380Y-89654819D02*
X121857142Y-89654819D01*
X121857142Y-89654819D02*
X121714285Y-89702438D01*
X121714285Y-89702438D02*
X121666666Y-89750057D01*
X121095237Y-90083390D02*
X121190475Y-90035771D01*
X121190475Y-90035771D02*
X121238094Y-89988152D01*
X121238094Y-89988152D02*
X121285713Y-89892914D01*
X121285713Y-89892914D02*
X121285713Y-89845295D01*
X121285713Y-89845295D02*
X121238094Y-89750057D01*
X121238094Y-89750057D02*
X121190475Y-89702438D01*
X121190475Y-89702438D02*
X121095237Y-89654819D01*
X121095237Y-89654819D02*
X120904761Y-89654819D01*
X120904761Y-89654819D02*
X120809523Y-89702438D01*
X120809523Y-89702438D02*
X120761904Y-89750057D01*
X120761904Y-89750057D02*
X120714285Y-89845295D01*
X120714285Y-89845295D02*
X120714285Y-89892914D01*
X120714285Y-89892914D02*
X120761904Y-89988152D01*
X120761904Y-89988152D02*
X120809523Y-90035771D01*
X120809523Y-90035771D02*
X120904761Y-90083390D01*
X120904761Y-90083390D02*
X121095237Y-90083390D01*
X121095237Y-90083390D02*
X121190475Y-90131009D01*
X121190475Y-90131009D02*
X121238094Y-90178628D01*
X121238094Y-90178628D02*
X121285713Y-90273866D01*
X121285713Y-90273866D02*
X121285713Y-90464342D01*
X121285713Y-90464342D02*
X121238094Y-90559580D01*
X121238094Y-90559580D02*
X121190475Y-90607200D01*
X121190475Y-90607200D02*
X121095237Y-90654819D01*
X121095237Y-90654819D02*
X120904761Y-90654819D01*
X120904761Y-90654819D02*
X120809523Y-90607200D01*
X120809523Y-90607200D02*
X120761904Y-90559580D01*
X120761904Y-90559580D02*
X120714285Y-90464342D01*
X120714285Y-90464342D02*
X120714285Y-90273866D01*
X120714285Y-90273866D02*
X120761904Y-90178628D01*
X120761904Y-90178628D02*
X120809523Y-90131009D01*
X120809523Y-90131009D02*
X120904761Y-90083390D01*
X123167857Y-71729580D02*
X123215476Y-71777200D01*
X123215476Y-71777200D02*
X123358333Y-71824819D01*
X123358333Y-71824819D02*
X123453571Y-71824819D01*
X123453571Y-71824819D02*
X123596428Y-71777200D01*
X123596428Y-71777200D02*
X123691666Y-71681961D01*
X123691666Y-71681961D02*
X123739285Y-71586723D01*
X123739285Y-71586723D02*
X123786904Y-71396247D01*
X123786904Y-71396247D02*
X123786904Y-71253390D01*
X123786904Y-71253390D02*
X123739285Y-71062914D01*
X123739285Y-71062914D02*
X123691666Y-70967676D01*
X123691666Y-70967676D02*
X123596428Y-70872438D01*
X123596428Y-70872438D02*
X123453571Y-70824819D01*
X123453571Y-70824819D02*
X123358333Y-70824819D01*
X123358333Y-70824819D02*
X123215476Y-70872438D01*
X123215476Y-70872438D02*
X123167857Y-70920057D01*
X122215476Y-71824819D02*
X122786904Y-71824819D01*
X122501190Y-71824819D02*
X122501190Y-70824819D01*
X122501190Y-70824819D02*
X122596428Y-70967676D01*
X122596428Y-70967676D02*
X122691666Y-71062914D01*
X122691666Y-71062914D02*
X122786904Y-71110533D01*
X121882142Y-70824819D02*
X121215476Y-70824819D01*
X121215476Y-70824819D02*
X121644047Y-71824819D01*
X114954819Y-84338095D02*
X114954819Y-84909523D01*
X115954819Y-84623809D02*
X114954819Y-84623809D01*
X115954819Y-85242857D02*
X114954819Y-85242857D01*
X114954819Y-85242857D02*
X114954819Y-85623809D01*
X114954819Y-85623809D02*
X115002438Y-85719047D01*
X115002438Y-85719047D02*
X115050057Y-85766666D01*
X115050057Y-85766666D02*
X115145295Y-85814285D01*
X115145295Y-85814285D02*
X115288152Y-85814285D01*
X115288152Y-85814285D02*
X115383390Y-85766666D01*
X115383390Y-85766666D02*
X115431009Y-85719047D01*
X115431009Y-85719047D02*
X115478628Y-85623809D01*
X115478628Y-85623809D02*
X115478628Y-85242857D01*
X115050057Y-86195238D02*
X115002438Y-86242857D01*
X115002438Y-86242857D02*
X114954819Y-86338095D01*
X114954819Y-86338095D02*
X114954819Y-86576190D01*
X114954819Y-86576190D02*
X115002438Y-86671428D01*
X115002438Y-86671428D02*
X115050057Y-86719047D01*
X115050057Y-86719047D02*
X115145295Y-86766666D01*
X115145295Y-86766666D02*
X115240533Y-86766666D01*
X115240533Y-86766666D02*
X115383390Y-86719047D01*
X115383390Y-86719047D02*
X115954819Y-86147619D01*
X115954819Y-86147619D02*
X115954819Y-86766666D01*
X123142857Y-61759580D02*
X123190476Y-61807200D01*
X123190476Y-61807200D02*
X123333333Y-61854819D01*
X123333333Y-61854819D02*
X123428571Y-61854819D01*
X123428571Y-61854819D02*
X123571428Y-61807200D01*
X123571428Y-61807200D02*
X123666666Y-61711961D01*
X123666666Y-61711961D02*
X123714285Y-61616723D01*
X123714285Y-61616723D02*
X123761904Y-61426247D01*
X123761904Y-61426247D02*
X123761904Y-61283390D01*
X123761904Y-61283390D02*
X123714285Y-61092914D01*
X123714285Y-61092914D02*
X123666666Y-60997676D01*
X123666666Y-60997676D02*
X123571428Y-60902438D01*
X123571428Y-60902438D02*
X123428571Y-60854819D01*
X123428571Y-60854819D02*
X123333333Y-60854819D01*
X123333333Y-60854819D02*
X123190476Y-60902438D01*
X123190476Y-60902438D02*
X123142857Y-60950057D01*
X122761904Y-60950057D02*
X122714285Y-60902438D01*
X122714285Y-60902438D02*
X122619047Y-60854819D01*
X122619047Y-60854819D02*
X122380952Y-60854819D01*
X122380952Y-60854819D02*
X122285714Y-60902438D01*
X122285714Y-60902438D02*
X122238095Y-60950057D01*
X122238095Y-60950057D02*
X122190476Y-61045295D01*
X122190476Y-61045295D02*
X122190476Y-61140533D01*
X122190476Y-61140533D02*
X122238095Y-61283390D01*
X122238095Y-61283390D02*
X122809523Y-61854819D01*
X122809523Y-61854819D02*
X122190476Y-61854819D01*
X121857142Y-60854819D02*
X121238095Y-60854819D01*
X121238095Y-60854819D02*
X121571428Y-61235771D01*
X121571428Y-61235771D02*
X121428571Y-61235771D01*
X121428571Y-61235771D02*
X121333333Y-61283390D01*
X121333333Y-61283390D02*
X121285714Y-61331009D01*
X121285714Y-61331009D02*
X121238095Y-61426247D01*
X121238095Y-61426247D02*
X121238095Y-61664342D01*
X121238095Y-61664342D02*
X121285714Y-61759580D01*
X121285714Y-61759580D02*
X121333333Y-61807200D01*
X121333333Y-61807200D02*
X121428571Y-61854819D01*
X121428571Y-61854819D02*
X121714285Y-61854819D01*
X121714285Y-61854819D02*
X121809523Y-61807200D01*
X121809523Y-61807200D02*
X121857142Y-61759580D01*
X118089580Y-71632142D02*
X118137200Y-71584523D01*
X118137200Y-71584523D02*
X118184819Y-71441666D01*
X118184819Y-71441666D02*
X118184819Y-71346428D01*
X118184819Y-71346428D02*
X118137200Y-71203571D01*
X118137200Y-71203571D02*
X118041961Y-71108333D01*
X118041961Y-71108333D02*
X117946723Y-71060714D01*
X117946723Y-71060714D02*
X117756247Y-71013095D01*
X117756247Y-71013095D02*
X117613390Y-71013095D01*
X117613390Y-71013095D02*
X117422914Y-71060714D01*
X117422914Y-71060714D02*
X117327676Y-71108333D01*
X117327676Y-71108333D02*
X117232438Y-71203571D01*
X117232438Y-71203571D02*
X117184819Y-71346428D01*
X117184819Y-71346428D02*
X117184819Y-71441666D01*
X117184819Y-71441666D02*
X117232438Y-71584523D01*
X117232438Y-71584523D02*
X117280057Y-71632142D01*
X117280057Y-72013095D02*
X117232438Y-72060714D01*
X117232438Y-72060714D02*
X117184819Y-72155952D01*
X117184819Y-72155952D02*
X117184819Y-72394047D01*
X117184819Y-72394047D02*
X117232438Y-72489285D01*
X117232438Y-72489285D02*
X117280057Y-72536904D01*
X117280057Y-72536904D02*
X117375295Y-72584523D01*
X117375295Y-72584523D02*
X117470533Y-72584523D01*
X117470533Y-72584523D02*
X117613390Y-72536904D01*
X117613390Y-72536904D02*
X118184819Y-71965476D01*
X118184819Y-71965476D02*
X118184819Y-72584523D01*
X118184819Y-73536904D02*
X118184819Y-72965476D01*
X118184819Y-73251190D02*
X117184819Y-73251190D01*
X117184819Y-73251190D02*
X117327676Y-73155952D01*
X117327676Y-73155952D02*
X117422914Y-73060714D01*
X117422914Y-73060714D02*
X117470533Y-72965476D01*
X115489580Y-69057142D02*
X115537200Y-69009523D01*
X115537200Y-69009523D02*
X115584819Y-68866666D01*
X115584819Y-68866666D02*
X115584819Y-68771428D01*
X115584819Y-68771428D02*
X115537200Y-68628571D01*
X115537200Y-68628571D02*
X115441961Y-68533333D01*
X115441961Y-68533333D02*
X115346723Y-68485714D01*
X115346723Y-68485714D02*
X115156247Y-68438095D01*
X115156247Y-68438095D02*
X115013390Y-68438095D01*
X115013390Y-68438095D02*
X114822914Y-68485714D01*
X114822914Y-68485714D02*
X114727676Y-68533333D01*
X114727676Y-68533333D02*
X114632438Y-68628571D01*
X114632438Y-68628571D02*
X114584819Y-68771428D01*
X114584819Y-68771428D02*
X114584819Y-68866666D01*
X114584819Y-68866666D02*
X114632438Y-69009523D01*
X114632438Y-69009523D02*
X114680057Y-69057142D01*
X115584819Y-70009523D02*
X115584819Y-69438095D01*
X115584819Y-69723809D02*
X114584819Y-69723809D01*
X114584819Y-69723809D02*
X114727676Y-69628571D01*
X114727676Y-69628571D02*
X114822914Y-69533333D01*
X114822914Y-69533333D02*
X114870533Y-69438095D01*
X115013390Y-70580952D02*
X114965771Y-70485714D01*
X114965771Y-70485714D02*
X114918152Y-70438095D01*
X114918152Y-70438095D02*
X114822914Y-70390476D01*
X114822914Y-70390476D02*
X114775295Y-70390476D01*
X114775295Y-70390476D02*
X114680057Y-70438095D01*
X114680057Y-70438095D02*
X114632438Y-70485714D01*
X114632438Y-70485714D02*
X114584819Y-70580952D01*
X114584819Y-70580952D02*
X114584819Y-70771428D01*
X114584819Y-70771428D02*
X114632438Y-70866666D01*
X114632438Y-70866666D02*
X114680057Y-70914285D01*
X114680057Y-70914285D02*
X114775295Y-70961904D01*
X114775295Y-70961904D02*
X114822914Y-70961904D01*
X114822914Y-70961904D02*
X114918152Y-70914285D01*
X114918152Y-70914285D02*
X114965771Y-70866666D01*
X114965771Y-70866666D02*
X115013390Y-70771428D01*
X115013390Y-70771428D02*
X115013390Y-70580952D01*
X115013390Y-70580952D02*
X115061009Y-70485714D01*
X115061009Y-70485714D02*
X115108628Y-70438095D01*
X115108628Y-70438095D02*
X115203866Y-70390476D01*
X115203866Y-70390476D02*
X115394342Y-70390476D01*
X115394342Y-70390476D02*
X115489580Y-70438095D01*
X115489580Y-70438095D02*
X115537200Y-70485714D01*
X115537200Y-70485714D02*
X115584819Y-70580952D01*
X115584819Y-70580952D02*
X115584819Y-70771428D01*
X115584819Y-70771428D02*
X115537200Y-70866666D01*
X115537200Y-70866666D02*
X115489580Y-70914285D01*
X115489580Y-70914285D02*
X115394342Y-70961904D01*
X115394342Y-70961904D02*
X115203866Y-70961904D01*
X115203866Y-70961904D02*
X115108628Y-70914285D01*
X115108628Y-70914285D02*
X115061009Y-70866666D01*
X115061009Y-70866666D02*
X115013390Y-70771428D01*
X123154819Y-86557142D02*
X122678628Y-86223809D01*
X123154819Y-85985714D02*
X122154819Y-85985714D01*
X122154819Y-85985714D02*
X122154819Y-86366666D01*
X122154819Y-86366666D02*
X122202438Y-86461904D01*
X122202438Y-86461904D02*
X122250057Y-86509523D01*
X122250057Y-86509523D02*
X122345295Y-86557142D01*
X122345295Y-86557142D02*
X122488152Y-86557142D01*
X122488152Y-86557142D02*
X122583390Y-86509523D01*
X122583390Y-86509523D02*
X122631009Y-86461904D01*
X122631009Y-86461904D02*
X122678628Y-86366666D01*
X122678628Y-86366666D02*
X122678628Y-85985714D01*
X123154819Y-87509523D02*
X123154819Y-86938095D01*
X123154819Y-87223809D02*
X122154819Y-87223809D01*
X122154819Y-87223809D02*
X122297676Y-87128571D01*
X122297676Y-87128571D02*
X122392914Y-87033333D01*
X122392914Y-87033333D02*
X122440533Y-86938095D01*
X123154819Y-88461904D02*
X123154819Y-87890476D01*
X123154819Y-88176190D02*
X122154819Y-88176190D01*
X122154819Y-88176190D02*
X122297676Y-88080952D01*
X122297676Y-88080952D02*
X122392914Y-87985714D01*
X122392914Y-87985714D02*
X122440533Y-87890476D01*
X125042857Y-51729580D02*
X125090476Y-51777200D01*
X125090476Y-51777200D02*
X125233333Y-51824819D01*
X125233333Y-51824819D02*
X125328571Y-51824819D01*
X125328571Y-51824819D02*
X125471428Y-51777200D01*
X125471428Y-51777200D02*
X125566666Y-51681961D01*
X125566666Y-51681961D02*
X125614285Y-51586723D01*
X125614285Y-51586723D02*
X125661904Y-51396247D01*
X125661904Y-51396247D02*
X125661904Y-51253390D01*
X125661904Y-51253390D02*
X125614285Y-51062914D01*
X125614285Y-51062914D02*
X125566666Y-50967676D01*
X125566666Y-50967676D02*
X125471428Y-50872438D01*
X125471428Y-50872438D02*
X125328571Y-50824819D01*
X125328571Y-50824819D02*
X125233333Y-50824819D01*
X125233333Y-50824819D02*
X125090476Y-50872438D01*
X125090476Y-50872438D02*
X125042857Y-50920057D01*
X124709523Y-50824819D02*
X124090476Y-50824819D01*
X124090476Y-50824819D02*
X124423809Y-51205771D01*
X124423809Y-51205771D02*
X124280952Y-51205771D01*
X124280952Y-51205771D02*
X124185714Y-51253390D01*
X124185714Y-51253390D02*
X124138095Y-51301009D01*
X124138095Y-51301009D02*
X124090476Y-51396247D01*
X124090476Y-51396247D02*
X124090476Y-51634342D01*
X124090476Y-51634342D02*
X124138095Y-51729580D01*
X124138095Y-51729580D02*
X124185714Y-51777200D01*
X124185714Y-51777200D02*
X124280952Y-51824819D01*
X124280952Y-51824819D02*
X124566666Y-51824819D01*
X124566666Y-51824819D02*
X124661904Y-51777200D01*
X124661904Y-51777200D02*
X124709523Y-51729580D01*
X123471428Y-50824819D02*
X123376190Y-50824819D01*
X123376190Y-50824819D02*
X123280952Y-50872438D01*
X123280952Y-50872438D02*
X123233333Y-50920057D01*
X123233333Y-50920057D02*
X123185714Y-51015295D01*
X123185714Y-51015295D02*
X123138095Y-51205771D01*
X123138095Y-51205771D02*
X123138095Y-51443866D01*
X123138095Y-51443866D02*
X123185714Y-51634342D01*
X123185714Y-51634342D02*
X123233333Y-51729580D01*
X123233333Y-51729580D02*
X123280952Y-51777200D01*
X123280952Y-51777200D02*
X123376190Y-51824819D01*
X123376190Y-51824819D02*
X123471428Y-51824819D01*
X123471428Y-51824819D02*
X123566666Y-51777200D01*
X123566666Y-51777200D02*
X123614285Y-51729580D01*
X123614285Y-51729580D02*
X123661904Y-51634342D01*
X123661904Y-51634342D02*
X123709523Y-51443866D01*
X123709523Y-51443866D02*
X123709523Y-51205771D01*
X123709523Y-51205771D02*
X123661904Y-51015295D01*
X123661904Y-51015295D02*
X123614285Y-50920057D01*
X123614285Y-50920057D02*
X123566666Y-50872438D01*
X123566666Y-50872438D02*
X123471428Y-50824819D01*
X123016666Y-33704819D02*
X123492856Y-33704819D01*
X123492856Y-33704819D02*
X123492856Y-32704819D01*
X122159523Y-33704819D02*
X122730951Y-33704819D01*
X122445237Y-33704819D02*
X122445237Y-32704819D01*
X122445237Y-32704819D02*
X122540475Y-32847676D01*
X122540475Y-32847676D02*
X122635713Y-32942914D01*
X122635713Y-32942914D02*
X122730951Y-32990533D01*
X113254819Y-86938095D02*
X113254819Y-87509523D01*
X114254819Y-87223809D02*
X113254819Y-87223809D01*
X114254819Y-87842857D02*
X113254819Y-87842857D01*
X113254819Y-87842857D02*
X113254819Y-88223809D01*
X113254819Y-88223809D02*
X113302438Y-88319047D01*
X113302438Y-88319047D02*
X113350057Y-88366666D01*
X113350057Y-88366666D02*
X113445295Y-88414285D01*
X113445295Y-88414285D02*
X113588152Y-88414285D01*
X113588152Y-88414285D02*
X113683390Y-88366666D01*
X113683390Y-88366666D02*
X113731009Y-88319047D01*
X113731009Y-88319047D02*
X113778628Y-88223809D01*
X113778628Y-88223809D02*
X113778628Y-87842857D01*
X114254819Y-89366666D02*
X114254819Y-88795238D01*
X114254819Y-89080952D02*
X113254819Y-89080952D01*
X113254819Y-89080952D02*
X113397676Y-88985714D01*
X113397676Y-88985714D02*
X113492914Y-88890476D01*
X113492914Y-88890476D02*
X113540533Y-88795238D01*
X122689580Y-49057142D02*
X122737200Y-49009523D01*
X122737200Y-49009523D02*
X122784819Y-48866666D01*
X122784819Y-48866666D02*
X122784819Y-48771428D01*
X122784819Y-48771428D02*
X122737200Y-48628571D01*
X122737200Y-48628571D02*
X122641961Y-48533333D01*
X122641961Y-48533333D02*
X122546723Y-48485714D01*
X122546723Y-48485714D02*
X122356247Y-48438095D01*
X122356247Y-48438095D02*
X122213390Y-48438095D01*
X122213390Y-48438095D02*
X122022914Y-48485714D01*
X122022914Y-48485714D02*
X121927676Y-48533333D01*
X121927676Y-48533333D02*
X121832438Y-48628571D01*
X121832438Y-48628571D02*
X121784819Y-48771428D01*
X121784819Y-48771428D02*
X121784819Y-48866666D01*
X121784819Y-48866666D02*
X121832438Y-49009523D01*
X121832438Y-49009523D02*
X121880057Y-49057142D01*
X121880057Y-49438095D02*
X121832438Y-49485714D01*
X121832438Y-49485714D02*
X121784819Y-49580952D01*
X121784819Y-49580952D02*
X121784819Y-49819047D01*
X121784819Y-49819047D02*
X121832438Y-49914285D01*
X121832438Y-49914285D02*
X121880057Y-49961904D01*
X121880057Y-49961904D02*
X121975295Y-50009523D01*
X121975295Y-50009523D02*
X122070533Y-50009523D01*
X122070533Y-50009523D02*
X122213390Y-49961904D01*
X122213390Y-49961904D02*
X122784819Y-49390476D01*
X122784819Y-49390476D02*
X122784819Y-50009523D01*
X122784819Y-50485714D02*
X122784819Y-50676190D01*
X122784819Y-50676190D02*
X122737200Y-50771428D01*
X122737200Y-50771428D02*
X122689580Y-50819047D01*
X122689580Y-50819047D02*
X122546723Y-50914285D01*
X122546723Y-50914285D02*
X122356247Y-50961904D01*
X122356247Y-50961904D02*
X121975295Y-50961904D01*
X121975295Y-50961904D02*
X121880057Y-50914285D01*
X121880057Y-50914285D02*
X121832438Y-50866666D01*
X121832438Y-50866666D02*
X121784819Y-50771428D01*
X121784819Y-50771428D02*
X121784819Y-50580952D01*
X121784819Y-50580952D02*
X121832438Y-50485714D01*
X121832438Y-50485714D02*
X121880057Y-50438095D01*
X121880057Y-50438095D02*
X121975295Y-50390476D01*
X121975295Y-50390476D02*
X122213390Y-50390476D01*
X122213390Y-50390476D02*
X122308628Y-50438095D01*
X122308628Y-50438095D02*
X122356247Y-50485714D01*
X122356247Y-50485714D02*
X122403866Y-50580952D01*
X122403866Y-50580952D02*
X122403866Y-50771428D01*
X122403866Y-50771428D02*
X122356247Y-50866666D01*
X122356247Y-50866666D02*
X122308628Y-50914285D01*
X122308628Y-50914285D02*
X122213390Y-50961904D01*
X116254819Y-29333333D02*
X115778628Y-29000000D01*
X116254819Y-28761905D02*
X115254819Y-28761905D01*
X115254819Y-28761905D02*
X115254819Y-29142857D01*
X115254819Y-29142857D02*
X115302438Y-29238095D01*
X115302438Y-29238095D02*
X115350057Y-29285714D01*
X115350057Y-29285714D02*
X115445295Y-29333333D01*
X115445295Y-29333333D02*
X115588152Y-29333333D01*
X115588152Y-29333333D02*
X115683390Y-29285714D01*
X115683390Y-29285714D02*
X115731009Y-29238095D01*
X115731009Y-29238095D02*
X115778628Y-29142857D01*
X115778628Y-29142857D02*
X115778628Y-28761905D01*
X115350057Y-29714286D02*
X115302438Y-29761905D01*
X115302438Y-29761905D02*
X115254819Y-29857143D01*
X115254819Y-29857143D02*
X115254819Y-30095238D01*
X115254819Y-30095238D02*
X115302438Y-30190476D01*
X115302438Y-30190476D02*
X115350057Y-30238095D01*
X115350057Y-30238095D02*
X115445295Y-30285714D01*
X115445295Y-30285714D02*
X115540533Y-30285714D01*
X115540533Y-30285714D02*
X115683390Y-30238095D01*
X115683390Y-30238095D02*
X116254819Y-29666667D01*
X116254819Y-29666667D02*
X116254819Y-30285714D01*
X123686904Y-59159819D02*
X123686904Y-59969342D01*
X123686904Y-59969342D02*
X123639285Y-60064580D01*
X123639285Y-60064580D02*
X123591666Y-60112200D01*
X123591666Y-60112200D02*
X123496428Y-60159819D01*
X123496428Y-60159819D02*
X123305952Y-60159819D01*
X123305952Y-60159819D02*
X123210714Y-60112200D01*
X123210714Y-60112200D02*
X123163095Y-60064580D01*
X123163095Y-60064580D02*
X123115476Y-59969342D01*
X123115476Y-59969342D02*
X123115476Y-59159819D01*
X122210714Y-59159819D02*
X122401190Y-59159819D01*
X122401190Y-59159819D02*
X122496428Y-59207438D01*
X122496428Y-59207438D02*
X122544047Y-59255057D01*
X122544047Y-59255057D02*
X122639285Y-59397914D01*
X122639285Y-59397914D02*
X122686904Y-59588390D01*
X122686904Y-59588390D02*
X122686904Y-59969342D01*
X122686904Y-59969342D02*
X122639285Y-60064580D01*
X122639285Y-60064580D02*
X122591666Y-60112200D01*
X122591666Y-60112200D02*
X122496428Y-60159819D01*
X122496428Y-60159819D02*
X122305952Y-60159819D01*
X122305952Y-60159819D02*
X122210714Y-60112200D01*
X122210714Y-60112200D02*
X122163095Y-60064580D01*
X122163095Y-60064580D02*
X122115476Y-59969342D01*
X122115476Y-59969342D02*
X122115476Y-59731247D01*
X122115476Y-59731247D02*
X122163095Y-59636009D01*
X122163095Y-59636009D02*
X122210714Y-59588390D01*
X122210714Y-59588390D02*
X122305952Y-59540771D01*
X122305952Y-59540771D02*
X122496428Y-59540771D01*
X122496428Y-59540771D02*
X122591666Y-59588390D01*
X122591666Y-59588390D02*
X122639285Y-59636009D01*
X122639285Y-59636009D02*
X122686904Y-59731247D01*
X120266666Y-29754819D02*
X120599999Y-29278628D01*
X120838094Y-29754819D02*
X120838094Y-28754819D01*
X120838094Y-28754819D02*
X120457142Y-28754819D01*
X120457142Y-28754819D02*
X120361904Y-28802438D01*
X120361904Y-28802438D02*
X120314285Y-28850057D01*
X120314285Y-28850057D02*
X120266666Y-28945295D01*
X120266666Y-28945295D02*
X120266666Y-29088152D01*
X120266666Y-29088152D02*
X120314285Y-29183390D01*
X120314285Y-29183390D02*
X120361904Y-29231009D01*
X120361904Y-29231009D02*
X120457142Y-29278628D01*
X120457142Y-29278628D02*
X120838094Y-29278628D01*
X119314285Y-29754819D02*
X119885713Y-29754819D01*
X119599999Y-29754819D02*
X119599999Y-28754819D01*
X119599999Y-28754819D02*
X119695237Y-28897676D01*
X119695237Y-28897676D02*
X119790475Y-28992914D01*
X119790475Y-28992914D02*
X119885713Y-29040533D01*
X118342857Y-90689580D02*
X118390476Y-90737200D01*
X118390476Y-90737200D02*
X118533333Y-90784819D01*
X118533333Y-90784819D02*
X118628571Y-90784819D01*
X118628571Y-90784819D02*
X118771428Y-90737200D01*
X118771428Y-90737200D02*
X118866666Y-90641961D01*
X118866666Y-90641961D02*
X118914285Y-90546723D01*
X118914285Y-90546723D02*
X118961904Y-90356247D01*
X118961904Y-90356247D02*
X118961904Y-90213390D01*
X118961904Y-90213390D02*
X118914285Y-90022914D01*
X118914285Y-90022914D02*
X118866666Y-89927676D01*
X118866666Y-89927676D02*
X118771428Y-89832438D01*
X118771428Y-89832438D02*
X118628571Y-89784819D01*
X118628571Y-89784819D02*
X118533333Y-89784819D01*
X118533333Y-89784819D02*
X118390476Y-89832438D01*
X118390476Y-89832438D02*
X118342857Y-89880057D01*
X117390476Y-90784819D02*
X117961904Y-90784819D01*
X117676190Y-90784819D02*
X117676190Y-89784819D01*
X117676190Y-89784819D02*
X117771428Y-89927676D01*
X117771428Y-89927676D02*
X117866666Y-90022914D01*
X117866666Y-90022914D02*
X117961904Y-90070533D01*
X117009523Y-89880057D02*
X116961904Y-89832438D01*
X116961904Y-89832438D02*
X116866666Y-89784819D01*
X116866666Y-89784819D02*
X116628571Y-89784819D01*
X116628571Y-89784819D02*
X116533333Y-89832438D01*
X116533333Y-89832438D02*
X116485714Y-89880057D01*
X116485714Y-89880057D02*
X116438095Y-89975295D01*
X116438095Y-89975295D02*
X116438095Y-90070533D01*
X116438095Y-90070533D02*
X116485714Y-90213390D01*
X116485714Y-90213390D02*
X117057142Y-90784819D01*
X117057142Y-90784819D02*
X116438095Y-90784819D01*
X122159580Y-77857142D02*
X122207200Y-77809523D01*
X122207200Y-77809523D02*
X122254819Y-77666666D01*
X122254819Y-77666666D02*
X122254819Y-77571428D01*
X122254819Y-77571428D02*
X122207200Y-77428571D01*
X122207200Y-77428571D02*
X122111961Y-77333333D01*
X122111961Y-77333333D02*
X122016723Y-77285714D01*
X122016723Y-77285714D02*
X121826247Y-77238095D01*
X121826247Y-77238095D02*
X121683390Y-77238095D01*
X121683390Y-77238095D02*
X121492914Y-77285714D01*
X121492914Y-77285714D02*
X121397676Y-77333333D01*
X121397676Y-77333333D02*
X121302438Y-77428571D01*
X121302438Y-77428571D02*
X121254819Y-77571428D01*
X121254819Y-77571428D02*
X121254819Y-77666666D01*
X121254819Y-77666666D02*
X121302438Y-77809523D01*
X121302438Y-77809523D02*
X121350057Y-77857142D01*
X122254819Y-78809523D02*
X122254819Y-78238095D01*
X122254819Y-78523809D02*
X121254819Y-78523809D01*
X121254819Y-78523809D02*
X121397676Y-78428571D01*
X121397676Y-78428571D02*
X121492914Y-78333333D01*
X121492914Y-78333333D02*
X121540533Y-78238095D01*
X121254819Y-79714285D02*
X121254819Y-79238095D01*
X121254819Y-79238095D02*
X121731009Y-79190476D01*
X121731009Y-79190476D02*
X121683390Y-79238095D01*
X121683390Y-79238095D02*
X121635771Y-79333333D01*
X121635771Y-79333333D02*
X121635771Y-79571428D01*
X121635771Y-79571428D02*
X121683390Y-79666666D01*
X121683390Y-79666666D02*
X121731009Y-79714285D01*
X121731009Y-79714285D02*
X121826247Y-79761904D01*
X121826247Y-79761904D02*
X122064342Y-79761904D01*
X122064342Y-79761904D02*
X122159580Y-79714285D01*
X122159580Y-79714285D02*
X122207200Y-79666666D01*
X122207200Y-79666666D02*
X122254819Y-79571428D01*
X122254819Y-79571428D02*
X122254819Y-79333333D01*
X122254819Y-79333333D02*
X122207200Y-79238095D01*
X122207200Y-79238095D02*
X122159580Y-79190476D01*
X117359580Y-29333333D02*
X117407200Y-29285714D01*
X117407200Y-29285714D02*
X117454819Y-29142857D01*
X117454819Y-29142857D02*
X117454819Y-29047619D01*
X117454819Y-29047619D02*
X117407200Y-28904762D01*
X117407200Y-28904762D02*
X117311961Y-28809524D01*
X117311961Y-28809524D02*
X117216723Y-28761905D01*
X117216723Y-28761905D02*
X117026247Y-28714286D01*
X117026247Y-28714286D02*
X116883390Y-28714286D01*
X116883390Y-28714286D02*
X116692914Y-28761905D01*
X116692914Y-28761905D02*
X116597676Y-28809524D01*
X116597676Y-28809524D02*
X116502438Y-28904762D01*
X116502438Y-28904762D02*
X116454819Y-29047619D01*
X116454819Y-29047619D02*
X116454819Y-29142857D01*
X116454819Y-29142857D02*
X116502438Y-29285714D01*
X116502438Y-29285714D02*
X116550057Y-29333333D01*
X116454819Y-29666667D02*
X116454819Y-30285714D01*
X116454819Y-30285714D02*
X116835771Y-29952381D01*
X116835771Y-29952381D02*
X116835771Y-30095238D01*
X116835771Y-30095238D02*
X116883390Y-30190476D01*
X116883390Y-30190476D02*
X116931009Y-30238095D01*
X116931009Y-30238095D02*
X117026247Y-30285714D01*
X117026247Y-30285714D02*
X117264342Y-30285714D01*
X117264342Y-30285714D02*
X117359580Y-30238095D01*
X117359580Y-30238095D02*
X117407200Y-30190476D01*
X117407200Y-30190476D02*
X117454819Y-30095238D01*
X117454819Y-30095238D02*
X117454819Y-29809524D01*
X117454819Y-29809524D02*
X117407200Y-29714286D01*
X117407200Y-29714286D02*
X117359580Y-29666667D01*
X115054819Y-76538095D02*
X115054819Y-77109523D01*
X116054819Y-76823809D02*
X115054819Y-76823809D01*
X116054819Y-77442857D02*
X115054819Y-77442857D01*
X115054819Y-77442857D02*
X115054819Y-77823809D01*
X115054819Y-77823809D02*
X115102438Y-77919047D01*
X115102438Y-77919047D02*
X115150057Y-77966666D01*
X115150057Y-77966666D02*
X115245295Y-78014285D01*
X115245295Y-78014285D02*
X115388152Y-78014285D01*
X115388152Y-78014285D02*
X115483390Y-77966666D01*
X115483390Y-77966666D02*
X115531009Y-77919047D01*
X115531009Y-77919047D02*
X115578628Y-77823809D01*
X115578628Y-77823809D02*
X115578628Y-77442857D01*
X115054819Y-78919047D02*
X115054819Y-78442857D01*
X115054819Y-78442857D02*
X115531009Y-78395238D01*
X115531009Y-78395238D02*
X115483390Y-78442857D01*
X115483390Y-78442857D02*
X115435771Y-78538095D01*
X115435771Y-78538095D02*
X115435771Y-78776190D01*
X115435771Y-78776190D02*
X115483390Y-78871428D01*
X115483390Y-78871428D02*
X115531009Y-78919047D01*
X115531009Y-78919047D02*
X115626247Y-78966666D01*
X115626247Y-78966666D02*
X115864342Y-78966666D01*
X115864342Y-78966666D02*
X115959580Y-78919047D01*
X115959580Y-78919047D02*
X116007200Y-78871428D01*
X116007200Y-78871428D02*
X116054819Y-78776190D01*
X116054819Y-78776190D02*
X116054819Y-78538095D01*
X116054819Y-78538095D02*
X116007200Y-78442857D01*
X116007200Y-78442857D02*
X115959580Y-78395238D01*
X117638094Y-88054819D02*
X117638094Y-87054819D01*
X117638094Y-87054819D02*
X117399999Y-87054819D01*
X117399999Y-87054819D02*
X117257142Y-87102438D01*
X117257142Y-87102438D02*
X117161904Y-87197676D01*
X117161904Y-87197676D02*
X117114285Y-87292914D01*
X117114285Y-87292914D02*
X117066666Y-87483390D01*
X117066666Y-87483390D02*
X117066666Y-87626247D01*
X117066666Y-87626247D02*
X117114285Y-87816723D01*
X117114285Y-87816723D02*
X117161904Y-87911961D01*
X117161904Y-87911961D02*
X117257142Y-88007200D01*
X117257142Y-88007200D02*
X117399999Y-88054819D01*
X117399999Y-88054819D02*
X117638094Y-88054819D01*
X116733332Y-87054819D02*
X116114285Y-87054819D01*
X116114285Y-87054819D02*
X116447618Y-87435771D01*
X116447618Y-87435771D02*
X116304761Y-87435771D01*
X116304761Y-87435771D02*
X116209523Y-87483390D01*
X116209523Y-87483390D02*
X116161904Y-87531009D01*
X116161904Y-87531009D02*
X116114285Y-87626247D01*
X116114285Y-87626247D02*
X116114285Y-87864342D01*
X116114285Y-87864342D02*
X116161904Y-87959580D01*
X116161904Y-87959580D02*
X116209523Y-88007200D01*
X116209523Y-88007200D02*
X116304761Y-88054819D01*
X116304761Y-88054819D02*
X116590475Y-88054819D01*
X116590475Y-88054819D02*
X116685713Y-88007200D01*
X116685713Y-88007200D02*
X116733332Y-87959580D01*
D11*
G04 #@! TO.C,R8*
X119720000Y-86746359D02*
X119720000Y-87053641D01*
X120480000Y-86746359D02*
X120480000Y-87053641D01*
G04 #@! TO.C,C4*
X121988748Y-36902500D02*
X122511252Y-36902500D01*
X121988748Y-38372500D02*
X122511252Y-38372500D01*
G04 #@! TO.C,C11*
X117909419Y-81690000D02*
X118190581Y-81690000D01*
X117909419Y-82710000D02*
X118190581Y-82710000D01*
G04 #@! TO.C,C31*
X117790000Y-56540581D02*
X117790000Y-56259419D01*
X118810000Y-56540581D02*
X118810000Y-56259419D01*
G04 #@! TO.C,D6*
X113400000Y-33499999D02*
X113400000Y-36759999D01*
X113400000Y-36759999D02*
X115100000Y-36759999D01*
X115100000Y-33499999D02*
X115100000Y-36759999D01*
G04 #@! TO.C,R16*
X115736360Y-95520000D02*
X116043642Y-95520000D01*
X115736360Y-96280000D02*
X116043642Y-96280000D01*
G04 #@! TO.C,R7*
X125156358Y-78020000D02*
X125463640Y-78020000D01*
X125156358Y-78780000D02*
X125463640Y-78780000D01*
G04 #@! TO.C,J6*
X127370000Y-31030001D02*
X130030000Y-31030001D01*
X127370000Y-97130000D02*
X127370000Y-31030001D01*
X127370000Y-97130000D02*
X130030000Y-97130000D01*
X128700000Y-28430000D02*
X130030000Y-28430000D01*
X130030000Y-28430000D02*
X130030000Y-29760000D01*
X130030000Y-97130000D02*
X130030000Y-31030001D01*
G04 #@! TO.C,C16*
X115690000Y-62040581D02*
X115690000Y-61759419D01*
X116710000Y-62040581D02*
X116710000Y-61759419D01*
G04 #@! TO.C,D2*
X116665000Y-85265000D02*
X116665000Y-86735000D01*
X116665000Y-86735000D02*
X118950000Y-86735000D01*
X118950000Y-85265000D02*
X116665000Y-85265000D01*
G04 #@! TO.C,C5*
X121988748Y-38965000D02*
X122511252Y-38965000D01*
X121988748Y-40435000D02*
X122511252Y-40435000D01*
G04 #@! TO.C,TP4*
X113050000Y-79050000D02*
X114450000Y-79050000D01*
X113050000Y-80450000D02*
X113050000Y-79050000D01*
X114450000Y-79050000D02*
X114450000Y-80450000D01*
X114450000Y-80450000D02*
X113050000Y-80450000D01*
G04 #@! TO.C,R13*
X125620000Y-86963640D02*
X125620000Y-86656358D01*
X126380000Y-86963640D02*
X126380000Y-86656358D01*
G04 #@! TO.C,C22*
X122890000Y-63384419D02*
X122890000Y-63665581D01*
X123910000Y-63384419D02*
X123910000Y-63665581D01*
G04 #@! TO.C,U2*
X116040000Y-33700000D02*
X116040000Y-34500000D01*
X116040000Y-35300000D02*
X116040000Y-34500000D01*
X119160000Y-33700000D02*
X119160000Y-34500000D01*
X119160000Y-35300000D02*
X119160000Y-34500000D01*
X119440000Y-36040000D02*
X119110000Y-35800000D01*
X119440000Y-35560000D01*
X119440000Y-36040000D01*
G36*
X119440000Y-36040000D02*
G01*
X119110000Y-35800000D01*
X119440000Y-35560000D01*
X119440000Y-36040000D01*
G37*
G04 #@! TO.C,R14*
X124643642Y-85870000D02*
X124336360Y-85870000D01*
X124643642Y-86630000D02*
X124336360Y-86630000D01*
G04 #@! TO.C,R6*
X125136360Y-79020000D02*
X125443642Y-79020000D01*
X125136360Y-79780000D02*
X125443642Y-79780000D01*
G04 #@! TO.C,J7*
X109370000Y-31030001D02*
X112030000Y-31030001D01*
X109370000Y-97130000D02*
X109370000Y-31030001D01*
X109370000Y-97130000D02*
X112030000Y-97130000D01*
X110700000Y-28430000D02*
X112030000Y-28430000D01*
X112030000Y-28430000D02*
X112030000Y-29760000D01*
X112030000Y-97130000D02*
X112030000Y-31030001D01*
G04 #@! TO.C,R10*
X122153641Y-91620000D02*
X121846359Y-91620000D01*
X122153641Y-92380000D02*
X121846359Y-92380000D01*
G04 #@! TO.C,R15*
X124653641Y-86870000D02*
X124346359Y-86870000D01*
X124653641Y-87630000D02*
X124346359Y-87630000D01*
G04 #@! TO.C,U3*
X114450000Y-47265000D02*
X116400000Y-47265000D01*
X114450000Y-52385000D02*
X116400000Y-52385000D01*
X118350000Y-47265000D02*
X116400000Y-47265000D01*
X118350000Y-52385000D02*
X116400000Y-52385000D01*
X119100000Y-47360000D02*
X118860000Y-47030000D01*
X119340000Y-47030000D01*
X119100000Y-47360000D01*
G36*
X119100000Y-47360000D02*
G01*
X118860000Y-47030000D01*
X119340000Y-47030000D01*
X119100000Y-47360000D01*
G37*
G04 #@! TO.C,C25*
X121390000Y-67315580D02*
X121390000Y-67034420D01*
X122410000Y-67315580D02*
X122410000Y-67034420D01*
G04 #@! TO.C,R4*
X118320000Y-80363640D02*
X118320000Y-80056358D01*
X119080000Y-80363640D02*
X119080000Y-80056358D01*
G04 #@! TO.C,C13*
X123890000Y-83065581D02*
X123890000Y-82784419D01*
X124910000Y-83065581D02*
X124910000Y-82784419D01*
G04 #@! TO.C,C28*
X114915581Y-52890000D02*
X114634419Y-52890000D01*
X114915581Y-53910000D02*
X114634419Y-53910000D01*
G04 #@! TO.C,C24*
X122890000Y-67315580D02*
X122890000Y-67034420D01*
X123910000Y-67315580D02*
X123910000Y-67034420D01*
G04 #@! TO.C,C1*
X117611252Y-36865000D02*
X117088748Y-36865000D01*
X117611252Y-38335000D02*
X117088748Y-38335000D01*
G04 #@! TO.C,L2*
X118990000Y-65111252D02*
X118990000Y-63688748D01*
X120810000Y-65111252D02*
X120810000Y-63688748D01*
G04 #@! TO.C,TP3*
X113050000Y-81050000D02*
X114450000Y-81050000D01*
X113050000Y-82450000D02*
X113050000Y-81050000D01*
X114450000Y-81050000D02*
X114450000Y-82450000D01*
X114450000Y-82450000D02*
X113050000Y-82450000D01*
G04 #@! TO.C,R9*
X119820000Y-84636360D02*
X119820000Y-84943642D01*
X120580000Y-84636360D02*
X120580000Y-84943642D01*
G04 #@! TO.C,R5*
X117320000Y-80363640D02*
X117320000Y-80056358D01*
X118080000Y-80363640D02*
X118080000Y-80056358D01*
G04 #@! TO.C,R17*
X121756358Y-95520000D02*
X122063640Y-95520000D01*
X121756358Y-96280000D02*
X122063640Y-96280000D01*
G04 #@! TO.C,Q1*
X124250000Y-88890000D02*
X124900000Y-88889999D01*
X124250000Y-92010000D02*
X124900000Y-92010001D01*
X125550000Y-88890000D02*
X124900000Y-88889999D01*
X125550000Y-92010000D02*
X124900000Y-92010001D01*
X126062500Y-88940000D02*
X125822500Y-88610001D01*
X126302500Y-88610000D01*
X126062500Y-88940000D01*
G36*
X126062500Y-88940000D02*
G01*
X125822500Y-88610001D01*
X126302500Y-88610000D01*
X126062500Y-88940000D01*
G37*
G04 #@! TO.C,C2*
X117611252Y-38865000D02*
X117088748Y-38865000D01*
X117611252Y-40335000D02*
X117088748Y-40335000D01*
G04 #@! TO.C,C19*
X124390000Y-61559419D02*
X124390000Y-61840581D01*
X125410000Y-61559419D02*
X125410000Y-61840581D01*
G04 #@! TO.C,C8*
X121359420Y-88390000D02*
X121640580Y-88390000D01*
X121359420Y-89410000D02*
X121640580Y-89410000D01*
G04 #@! TO.C,C17*
X122384420Y-72290000D02*
X122665580Y-72290000D01*
X122384420Y-73310000D02*
X122665580Y-73310000D01*
G04 #@! TO.C,TP2*
X113050000Y-83050000D02*
X114450000Y-83050000D01*
X113050000Y-84450000D02*
X113050000Y-83050000D01*
X114450000Y-83050000D02*
X114450000Y-84450000D01*
X114450000Y-84450000D02*
X113050000Y-84450000D01*
G04 #@! TO.C,C23*
X121390000Y-63384420D02*
X121390000Y-63665580D01*
X122410000Y-63384420D02*
X122410000Y-63665580D01*
G04 #@! TO.C,C21*
X115790000Y-72134419D02*
X115790000Y-72415581D01*
X116810000Y-72134419D02*
X116810000Y-72415581D01*
G04 #@! TO.C,C18*
X113190000Y-69559419D02*
X113190000Y-69840581D01*
X114210000Y-69559419D02*
X114210000Y-69840581D01*
G04 #@! TO.C,R11*
X122320000Y-85163640D02*
X122320000Y-84856358D01*
X123080000Y-85163640D02*
X123080000Y-84856358D01*
G04 #@! TO.C,C30*
X124259419Y-52290000D02*
X124540581Y-52290000D01*
X124259419Y-53310000D02*
X124540581Y-53310000D01*
G04 #@! TO.C,L1*
X119590000Y-30140000D02*
X119590000Y-29990000D01*
X119590000Y-36360000D02*
X119590000Y-36510000D01*
X126110000Y-29990000D02*
X119590000Y-29990000D01*
X126110000Y-30140000D02*
X126110000Y-29990000D01*
X126110000Y-36360000D02*
X126110000Y-36510000D01*
X126110000Y-36510000D02*
X119590000Y-36510000D01*
G04 #@! TO.C,TP1*
X113050000Y-85050000D02*
X114450000Y-85050000D01*
X113050000Y-86450000D02*
X113050000Y-85050000D01*
X114450000Y-85050000D02*
X114450000Y-86450000D01*
X114450000Y-86450000D02*
X113050000Y-86450000D01*
G04 #@! TO.C,C29*
X120390000Y-49559419D02*
X120390000Y-49840581D01*
X121410000Y-49559419D02*
X121410000Y-49840581D01*
G04 #@! TO.C,R2*
X115620000Y-31243859D02*
X115620000Y-31551141D01*
X116380000Y-31243859D02*
X116380000Y-31551141D01*
G04 #@! TO.C,U6*
X120975000Y-53745000D02*
X122925000Y-53745000D01*
X120975000Y-58865000D02*
X122925000Y-58865000D01*
X124875000Y-53745000D02*
X122925000Y-53745000D01*
X124875000Y-58865000D02*
X122925000Y-58865000D01*
X120465000Y-59100000D02*
X119985000Y-59100000D01*
X120225000Y-58770000D01*
X120465000Y-59100000D01*
G36*
X120465000Y-59100000D02*
G01*
X119985000Y-59100000D01*
X120225000Y-58770000D01*
X120465000Y-59100000D01*
G37*
G04 #@! TO.C,R1*
X116620000Y-31531142D02*
X116620000Y-31223860D01*
X117380000Y-31531142D02*
X117380000Y-31223860D01*
G04 #@! TO.C,C12*
X117840580Y-88390000D02*
X117559420Y-88390000D01*
X117840580Y-89410000D02*
X117559420Y-89410000D01*
G04 #@! TO.C,C15*
X121790000Y-81615581D02*
X121790000Y-81334419D01*
X122810000Y-81615581D02*
X122810000Y-81334419D01*
G04 #@! TO.C,C3*
X117890000Y-30940580D02*
X117890000Y-30659420D01*
X118910000Y-30940580D02*
X118910000Y-30659420D01*
G04 #@! TO.C,TP5*
X113050000Y-77050000D02*
X114450000Y-77050000D01*
X113050000Y-78450000D02*
X113050000Y-77050000D01*
X114450000Y-77050000D02*
X114450000Y-78450000D01*
X114450000Y-78450000D02*
X113050000Y-78450000D01*
G04 #@! TO.C,D3*
X117350000Y-84985000D02*
X119635000Y-84985000D01*
X119635000Y-83515000D02*
X117350000Y-83515000D01*
X119635000Y-84985000D02*
X119635000Y-83515000D01*
G04 #@! TD*
%LPC*%
D12*
G04 #@! TO.C,J1*
X114750000Y-94300000D03*
D13*
X116750000Y-94300000D03*
X118750000Y-94300000D03*
X120750000Y-94300000D03*
X122750000Y-94300000D03*
X124750000Y-94300000D03*
G04 #@! TD*
D14*
G04 #@! TO.C,R8*
X120100000Y-87409999D03*
X120100000Y-86390001D03*
G04 #@! TD*
D15*
G04 #@! TO.C,C4*
X123200000Y-37637500D03*
X121300000Y-37637500D03*
G04 #@! TD*
D16*
G04 #@! TO.C,C11*
X118825000Y-82200000D03*
X117275000Y-82200000D03*
G04 #@! TD*
D17*
G04 #@! TO.C,C31*
X118300000Y-55625000D03*
X118300000Y-57175000D03*
G04 #@! TD*
D18*
G04 #@! TO.C,D6*
X114250000Y-35999998D03*
X114250000Y-33500000D03*
G04 #@! TD*
D19*
G04 #@! TO.C,R16*
X116400000Y-95900000D03*
X115380002Y-95900000D03*
G04 #@! TD*
G04 #@! TO.C,R7*
X125819998Y-78400000D03*
X124800000Y-78400000D03*
G04 #@! TD*
D20*
G04 #@! TO.C,J6*
X128700000Y-29760000D03*
D21*
X128700000Y-32300000D03*
X128700000Y-34839999D03*
X128700000Y-37380000D03*
X128700000Y-39920000D03*
X128700000Y-42460000D03*
X128700000Y-45000000D03*
X128700000Y-47540001D03*
X128700000Y-50080000D03*
X128700000Y-52620000D03*
X128700000Y-55160000D03*
X128700000Y-57699999D03*
X128700000Y-60240000D03*
X128700000Y-62780000D03*
X128700000Y-65320000D03*
X128700000Y-67859999D03*
X128700000Y-70400001D03*
X128700000Y-72940000D03*
X128700000Y-75480000D03*
X128700000Y-78020000D03*
X128700000Y-80559999D03*
X128700000Y-83100000D03*
X128700000Y-85640000D03*
X128700000Y-88180000D03*
X128700000Y-90719999D03*
X128700000Y-93260001D03*
X128700000Y-95800000D03*
G04 #@! TD*
D17*
G04 #@! TO.C,C16*
X116200000Y-61125000D03*
X116200000Y-62675000D03*
G04 #@! TD*
D22*
G04 #@! TO.C,D2*
X117362499Y-86000000D03*
X118937501Y-86000000D03*
G04 #@! TD*
D15*
G04 #@! TO.C,C5*
X123200000Y-39700000D03*
X121300000Y-39700000D03*
G04 #@! TD*
D23*
G04 #@! TO.C,TP4*
X113750000Y-79750000D03*
G04 #@! TD*
D24*
G04 #@! TO.C,R13*
X126000000Y-86300000D03*
X126000000Y-87319998D03*
G04 #@! TD*
D25*
G04 #@! TO.C,C22*
X123400000Y-64300000D03*
X123400000Y-62750000D03*
G04 #@! TD*
D26*
G04 #@! TO.C,U2*
X118550000Y-35637500D03*
X117600000Y-35637500D03*
X116650000Y-35637500D03*
X116650000Y-33362500D03*
X117600000Y-33362500D03*
X118550000Y-33362500D03*
G04 #@! TD*
D27*
G04 #@! TO.C,R14*
X123980002Y-86250000D03*
X125000000Y-86250000D03*
G04 #@! TD*
D19*
G04 #@! TO.C,R6*
X125800000Y-79400000D03*
X124780002Y-79400000D03*
G04 #@! TD*
D20*
G04 #@! TO.C,J7*
X110700000Y-29760000D03*
D21*
X110700000Y-32300000D03*
X110700000Y-34839999D03*
X110700000Y-37380000D03*
X110700000Y-39920000D03*
X110700000Y-42460000D03*
X110700000Y-45000000D03*
X110700000Y-47540001D03*
X110700000Y-50080000D03*
X110700000Y-52620000D03*
X110700000Y-55160000D03*
X110700000Y-57699999D03*
X110700000Y-60240000D03*
X110700000Y-62780000D03*
X110700000Y-65320000D03*
X110700000Y-67859999D03*
X110700000Y-70400001D03*
X110700000Y-72940000D03*
X110700000Y-75480000D03*
X110700000Y-78020000D03*
X110700000Y-80559999D03*
X110700000Y-83100000D03*
X110700000Y-85640000D03*
X110700000Y-88180000D03*
X110700000Y-90719999D03*
X110700000Y-93260001D03*
X110700000Y-95800000D03*
G04 #@! TD*
D27*
G04 #@! TO.C,R10*
X121490001Y-92000000D03*
X122509999Y-92000000D03*
G04 #@! TD*
G04 #@! TO.C,R15*
X123990001Y-87250000D03*
X125009999Y-87250000D03*
G04 #@! TD*
D28*
G04 #@! TO.C,U3*
X118875000Y-47920000D03*
X118875000Y-49190000D03*
X118875000Y-50460000D03*
X118875000Y-51730000D03*
X113925000Y-51730000D03*
X113925000Y-50460000D03*
X113925000Y-49190000D03*
X113925000Y-47920000D03*
G04 #@! TD*
D17*
G04 #@! TO.C,C25*
X121900000Y-66400000D03*
X121900000Y-67950000D03*
G04 #@! TD*
D24*
G04 #@! TO.C,R4*
X118700000Y-79700000D03*
X118700000Y-80719998D03*
G04 #@! TD*
D17*
G04 #@! TO.C,C13*
X124400000Y-82150000D03*
X124400000Y-83700000D03*
G04 #@! TD*
D29*
G04 #@! TO.C,C28*
X114000000Y-53400000D03*
X115550000Y-53400000D03*
G04 #@! TD*
D17*
G04 #@! TO.C,C24*
X123400000Y-66400000D03*
X123400000Y-67950000D03*
G04 #@! TD*
D30*
G04 #@! TO.C,C1*
X116400000Y-37600000D03*
X118300000Y-37600000D03*
G04 #@! TD*
D31*
G04 #@! TO.C,L2*
X119900000Y-62925000D03*
X119900000Y-65875000D03*
G04 #@! TD*
D23*
G04 #@! TO.C,TP3*
X113750000Y-81750000D03*
G04 #@! TD*
D14*
G04 #@! TO.C,R9*
X120200000Y-85300000D03*
X120200000Y-84280002D03*
G04 #@! TD*
D24*
G04 #@! TO.C,R5*
X117700000Y-79700000D03*
X117700000Y-80719998D03*
G04 #@! TD*
D19*
G04 #@! TO.C,R17*
X122419998Y-95900000D03*
X121400000Y-95900000D03*
G04 #@! TD*
D32*
G04 #@! TO.C,Q1*
X125837500Y-89500000D03*
X125837500Y-91400000D03*
X123962499Y-90450000D03*
G04 #@! TD*
D30*
G04 #@! TO.C,C2*
X116400000Y-39600000D03*
X118300000Y-39600000D03*
G04 #@! TD*
D25*
G04 #@! TO.C,C19*
X124900000Y-62475000D03*
X124900000Y-60925000D03*
G04 #@! TD*
D16*
G04 #@! TO.C,C8*
X122275000Y-88900000D03*
X120725000Y-88900000D03*
G04 #@! TD*
G04 #@! TO.C,C17*
X123300000Y-72800000D03*
X121750000Y-72800000D03*
G04 #@! TD*
D23*
G04 #@! TO.C,TP2*
X113750000Y-83750000D03*
G04 #@! TD*
D25*
G04 #@! TO.C,C23*
X121900000Y-64300000D03*
X121900000Y-62750000D03*
G04 #@! TD*
G04 #@! TO.C,C21*
X116300000Y-73050000D03*
X116300000Y-71500000D03*
G04 #@! TD*
G04 #@! TO.C,C18*
X113700000Y-70475000D03*
X113700000Y-68925000D03*
G04 #@! TD*
D24*
G04 #@! TO.C,R11*
X122700000Y-84500000D03*
X122700000Y-85519998D03*
G04 #@! TD*
D16*
G04 #@! TO.C,C30*
X125175000Y-52800000D03*
X123625000Y-52800000D03*
G04 #@! TD*
D33*
G04 #@! TO.C,L1*
X120750000Y-33250000D03*
X124950000Y-33250000D03*
G04 #@! TD*
D23*
G04 #@! TO.C,TP1*
X113750000Y-85750000D03*
G04 #@! TD*
D25*
G04 #@! TO.C,C29*
X120900000Y-50475000D03*
X120900000Y-48925000D03*
G04 #@! TD*
D14*
G04 #@! TO.C,R2*
X116000000Y-31907500D03*
X116000000Y-30887500D03*
G04 #@! TD*
D34*
G04 #@! TO.C,U6*
X120450000Y-58210000D03*
X120450000Y-56940000D03*
X120450000Y-55670000D03*
X120450000Y-54400000D03*
X125400000Y-54400000D03*
X125400000Y-55670000D03*
X125400000Y-56940000D03*
X125400000Y-58210000D03*
G04 #@! TD*
D24*
G04 #@! TO.C,R1*
X117000000Y-30867502D03*
X117000000Y-31887500D03*
G04 #@! TD*
D29*
G04 #@! TO.C,C12*
X116925000Y-88900000D03*
X118475000Y-88900000D03*
G04 #@! TD*
D17*
G04 #@! TO.C,C15*
X122300000Y-80700000D03*
X122300000Y-82250000D03*
G04 #@! TD*
G04 #@! TO.C,C3*
X118400000Y-30025000D03*
X118400000Y-31575000D03*
G04 #@! TD*
D23*
G04 #@! TO.C,TP5*
X113750000Y-77750000D03*
G04 #@! TD*
D35*
G04 #@! TO.C,D3*
X118937501Y-84250000D03*
X117362499Y-84250000D03*
G04 #@! TD*
%LPD*%
M02*
