%TF.GenerationSoftware,KiCad,Pcbnew,8.0.5*%
%TF.CreationDate,2024-10-01T14:56:49-07:00*%
%TF.ProjectId,gr25_nodes,67723235-5f6e-46f6-9465-732e6b696361,rev?*%
%TF.SameCoordinates,Original*%
%TF.FileFunction,Drillmap*%
%TF.FilePolarity,Positive*%
%FSLAX45Y45*%
G04 Gerber Fmt 4.5, Leading zero omitted, Abs format (unit mm)*
G04 Created by KiCad (PCBNEW 8.0.5) date 2024-10-01 14:56:49*
%MOMM*%
%LPD*%
G01*
G04 APERTURE LIST*
%ADD10C,0.100000*%
%ADD11C,0.200000*%
G04 APERTURE END LIST*
D10*
X13075000Y-9775000D02*
X13077500Y-2777500D01*
X10875000Y-2775000D02*
X10872500Y-9775000D01*
X13077500Y-2777500D02*
X10875000Y-2775000D01*
X10872500Y-9775000D02*
X13075000Y-9775000D01*
D11*
D10*
X10965000Y-8935000D02*
X10995000Y-8965000D01*
X10995000Y-8935000D02*
X10965000Y-8965000D01*
X11265000Y-3315000D02*
X11295000Y-3345000D01*
X11295000Y-3315000D02*
X11265000Y-3345000D01*
X11265000Y-3375000D02*
X11295000Y-3405000D01*
X11295000Y-3375000D02*
X11265000Y-3405000D01*
X11265000Y-3435000D02*
X11295000Y-3465000D01*
X11295000Y-3435000D02*
X11265000Y-3465000D01*
X11265000Y-3495000D02*
X11295000Y-3525000D01*
X11295000Y-3495000D02*
X11265000Y-3525000D01*
X11330000Y-7090000D02*
X11360000Y-7120000D01*
X11360000Y-7090000D02*
X11330000Y-7120000D01*
X11345000Y-3865000D02*
X11375000Y-3895000D01*
X11375000Y-3865000D02*
X11345000Y-3895000D01*
X11360000Y-7760000D02*
X11390000Y-7790000D01*
X11390000Y-7760000D02*
X11360000Y-7790000D01*
X11360000Y-8560000D02*
X11390000Y-8590000D01*
X11390000Y-8560000D02*
X11360000Y-8590000D01*
X11365000Y-7585000D02*
X11395000Y-7615000D01*
X11395000Y-7585000D02*
X11365000Y-7615000D01*
X11385000Y-3905000D02*
X11415000Y-3935000D01*
X11415000Y-3905000D02*
X11385000Y-3935000D01*
X11395000Y-5425000D02*
X11425000Y-5455000D01*
X11425000Y-5425000D02*
X11395000Y-5455000D01*
X11425000Y-3945000D02*
X11455000Y-3975000D01*
X11455000Y-3945000D02*
X11425000Y-3975000D01*
X11435000Y-5935000D02*
X11465000Y-5965000D01*
X11465000Y-5935000D02*
X11435000Y-5965000D01*
X11465000Y-3995000D02*
X11495000Y-4025000D01*
X11495000Y-3995000D02*
X11465000Y-4025000D01*
X11480000Y-2969497D02*
X11510000Y-2999497D01*
X11510000Y-2969497D02*
X11480000Y-2999497D01*
X11499401Y-7572905D02*
X11529401Y-7602905D01*
X11529401Y-7572905D02*
X11499401Y-7602905D01*
X11500000Y-7255000D02*
X11530000Y-7285000D01*
X11530000Y-7255000D02*
X11500000Y-7285000D01*
X11505000Y-4045000D02*
X11535000Y-4075000D01*
X11535000Y-4045000D02*
X11505000Y-4075000D01*
X11520000Y-6865000D02*
X11550000Y-6895000D01*
X11550000Y-6865000D02*
X11520000Y-6895000D01*
X11521317Y-6420000D02*
X11551317Y-6450000D01*
X11551317Y-6420000D02*
X11521317Y-6450000D01*
X11522663Y-6573124D02*
X11552663Y-6603124D01*
X11552663Y-6573124D02*
X11522663Y-6603124D01*
X11528456Y-6497138D02*
X11558456Y-6527138D01*
X11558456Y-6497138D02*
X11528456Y-6527138D01*
X11528492Y-6700952D02*
X11558492Y-6730952D01*
X11558492Y-6700952D02*
X11528492Y-6730952D01*
X11530000Y-8000000D02*
X11560000Y-8030000D01*
X11560000Y-8000000D02*
X11530000Y-8030000D01*
X11540000Y-6770000D02*
X11570000Y-6800000D01*
X11570000Y-6770000D02*
X11540000Y-6800000D01*
X11545000Y-5435000D02*
X11575000Y-5465000D01*
X11575000Y-5435000D02*
X11545000Y-5465000D01*
X11568765Y-8826235D02*
X11598765Y-8856235D01*
X11598765Y-8826235D02*
X11568765Y-8856235D01*
X11577693Y-6375000D02*
X11607693Y-6405000D01*
X11607693Y-6375000D02*
X11577693Y-6405000D01*
X11585000Y-4115000D02*
X11615000Y-4145000D01*
X11615000Y-4115000D02*
X11585000Y-4145000D01*
X11605000Y-5965000D02*
X11635000Y-5995000D01*
X11635000Y-5965000D02*
X11605000Y-5995000D01*
X11605000Y-6252500D02*
X11635000Y-6282500D01*
X11635000Y-6252500D02*
X11605000Y-6282500D01*
X11615000Y-7135000D02*
X11645000Y-7165000D01*
X11645000Y-7135000D02*
X11615000Y-7165000D01*
X11645000Y-4115000D02*
X11675000Y-4145000D01*
X11675000Y-4115000D02*
X11645000Y-4145000D01*
X11655000Y-7925000D02*
X11685000Y-7955000D01*
X11685000Y-7925000D02*
X11655000Y-7955000D01*
X11665000Y-6920126D02*
X11695000Y-6950126D01*
X11695000Y-6920126D02*
X11665000Y-6950126D01*
X11670000Y-7730000D02*
X11700000Y-7760000D01*
X11700000Y-7730000D02*
X11670000Y-7760000D01*
X11695000Y-8305000D02*
X11725000Y-8335000D01*
X11725000Y-8305000D02*
X11695000Y-8335000D01*
X11705000Y-4115000D02*
X11735000Y-4145000D01*
X11735000Y-4115000D02*
X11705000Y-4145000D01*
X11705000Y-6465000D02*
X11735000Y-6495000D01*
X11735000Y-6465000D02*
X11705000Y-6495000D01*
X11712500Y-8205000D02*
X11742500Y-8235000D01*
X11742500Y-8205000D02*
X11712500Y-8235000D01*
X11725000Y-4835000D02*
X11755000Y-4865000D01*
X11755000Y-4835000D02*
X11725000Y-4865000D01*
X11735000Y-7125000D02*
X11765000Y-7155000D01*
X11765000Y-7125000D02*
X11735000Y-7155000D01*
X11747500Y-5295000D02*
X11777500Y-5325000D01*
X11777500Y-5295000D02*
X11747500Y-5325000D01*
X11747863Y-8682137D02*
X11777863Y-8712137D01*
X11777863Y-8682137D02*
X11747863Y-8712137D01*
X11760000Y-7790000D02*
X11790000Y-7820000D01*
X11790000Y-7790000D02*
X11760000Y-7820000D01*
X11765000Y-4115000D02*
X11795000Y-4145000D01*
X11795000Y-4115000D02*
X11765000Y-4145000D01*
X11825000Y-4115000D02*
X11855000Y-4145000D01*
X11855000Y-4115000D02*
X11825000Y-4145000D01*
X11825000Y-6275000D02*
X11855000Y-6305000D01*
X11855000Y-6275000D02*
X11825000Y-6305000D01*
X11855000Y-6810000D02*
X11885000Y-6840000D01*
X11885000Y-6810000D02*
X11855000Y-6840000D01*
X11864544Y-8717500D02*
X11894544Y-8747500D01*
X11894544Y-8717500D02*
X11864544Y-8747500D01*
X11867500Y-8205000D02*
X11897500Y-8235000D01*
X11897500Y-8205000D02*
X11867500Y-8235000D01*
X11885000Y-4115000D02*
X11915000Y-4145000D01*
X11915000Y-4115000D02*
X11885000Y-4145000D01*
X11945000Y-4115000D02*
X11975000Y-4145000D01*
X11975000Y-4115000D02*
X11945000Y-4145000D01*
X11995265Y-8623735D02*
X12025265Y-8653735D01*
X12025265Y-8623735D02*
X11995265Y-8653735D01*
X12005000Y-8515000D02*
X12035000Y-8545000D01*
X12035000Y-8515000D02*
X12005000Y-8545000D01*
X12007500Y-9595000D02*
X12037500Y-9625000D01*
X12037500Y-9595000D02*
X12007500Y-9625000D01*
X12055000Y-4755000D02*
X12085000Y-4785000D01*
X12085000Y-4755000D02*
X12055000Y-4785000D01*
X12060000Y-6915000D02*
X12090000Y-6945000D01*
X12090000Y-6915000D02*
X12060000Y-6945000D01*
X12095888Y-8163388D02*
X12125888Y-8193388D01*
X12125888Y-8163388D02*
X12095888Y-8193388D01*
X12120000Y-8715000D02*
X12150000Y-8745000D01*
X12150000Y-8715000D02*
X12120000Y-8745000D01*
X12134000Y-9185000D02*
X12164000Y-9215000D01*
X12164000Y-9185000D02*
X12134000Y-9215000D01*
X12170000Y-9015000D02*
X12200000Y-9045000D01*
X12200000Y-9015000D02*
X12170000Y-9045000D01*
X12171265Y-8398735D02*
X12201265Y-8428735D01*
X12201265Y-8398735D02*
X12171265Y-8428735D01*
X12175000Y-6260000D02*
X12205000Y-6290000D01*
X12205000Y-6260000D02*
X12175000Y-6290000D01*
X12175000Y-6780000D02*
X12205000Y-6810000D01*
X12205000Y-6780000D02*
X12175000Y-6810000D01*
X12177420Y-6972500D02*
X12207420Y-7002500D01*
X12207420Y-6972500D02*
X12177420Y-7002500D01*
X12215000Y-8210000D02*
X12245000Y-8240000D01*
X12245000Y-8210000D02*
X12215000Y-8240000D01*
X12240000Y-8970000D02*
X12270000Y-9000000D01*
X12270000Y-8970000D02*
X12240000Y-9000000D01*
X12242500Y-5705000D02*
X12272500Y-5735000D01*
X12272500Y-5705000D02*
X12242500Y-5735000D01*
X12242500Y-5905000D02*
X12272500Y-5935000D01*
X12272500Y-5905000D02*
X12242500Y-5935000D01*
X12245000Y-5475000D02*
X12275000Y-5505000D01*
X12275000Y-5475000D02*
X12245000Y-5505000D01*
X12255000Y-8537000D02*
X12285000Y-8567000D01*
X12285000Y-8537000D02*
X12255000Y-8567000D01*
X12270000Y-8660000D02*
X12300000Y-8690000D01*
X12300000Y-8660000D02*
X12270000Y-8690000D01*
X12282500Y-8300000D02*
X12312500Y-8330000D01*
X12312500Y-8300000D02*
X12282500Y-8330000D01*
X12295000Y-5135000D02*
X12325000Y-5165000D01*
X12325000Y-5135000D02*
X12295000Y-5165000D01*
X12295000Y-6515000D02*
X12325000Y-6545000D01*
X12325000Y-6515000D02*
X12295000Y-6545000D01*
X12301250Y-7835000D02*
X12331250Y-7865000D01*
X12331250Y-7835000D02*
X12301250Y-7865000D01*
X12310000Y-6900000D02*
X12340000Y-6930000D01*
X12340000Y-6900000D02*
X12310000Y-6930000D01*
X12310000Y-7130000D02*
X12340000Y-7160000D01*
X12340000Y-7130000D02*
X12310000Y-7160000D01*
X12325000Y-6260000D02*
X12355000Y-6290000D01*
X12355000Y-6260000D02*
X12325000Y-6290000D01*
X12325000Y-6780000D02*
X12355000Y-6810000D01*
X12355000Y-6780000D02*
X12325000Y-6810000D01*
X12327500Y-7990000D02*
X12357500Y-8020000D01*
X12357500Y-7990000D02*
X12327500Y-8020000D01*
X12365000Y-6515000D02*
X12395000Y-6545000D01*
X12395000Y-6515000D02*
X12365000Y-6545000D01*
X12380000Y-8805000D02*
X12410000Y-8835000D01*
X12410000Y-8805000D02*
X12380000Y-8835000D01*
X12385000Y-6970000D02*
X12415000Y-7000000D01*
X12415000Y-6970000D02*
X12385000Y-7000000D01*
X12386338Y-8044386D02*
X12416338Y-8074386D01*
X12416338Y-8044386D02*
X12386338Y-8074386D01*
X12400000Y-7355000D02*
X12430000Y-7385000D01*
X12430000Y-7355000D02*
X12400000Y-7385000D01*
X12405000Y-7690000D02*
X12435000Y-7720000D01*
X12435000Y-7690000D02*
X12405000Y-7720000D01*
X12455000Y-8100000D02*
X12485000Y-8130000D01*
X12485000Y-8100000D02*
X12455000Y-8130000D01*
X12465000Y-3865000D02*
X12495000Y-3895000D01*
X12495000Y-3865000D02*
X12465000Y-3895000D01*
X12470000Y-7505000D02*
X12500000Y-7535000D01*
X12500000Y-7505000D02*
X12470000Y-7535000D01*
X12475000Y-6077500D02*
X12505000Y-6107500D01*
X12505000Y-6077500D02*
X12475000Y-6107500D01*
X12475000Y-6232500D02*
X12505000Y-6262500D01*
X12505000Y-6232500D02*
X12475000Y-6262500D01*
X12537500Y-7725000D02*
X12567500Y-7755000D01*
X12567500Y-7725000D02*
X12537500Y-7755000D01*
X12565000Y-3765000D02*
X12595000Y-3795000D01*
X12595000Y-3765000D02*
X12565000Y-3795000D01*
X12625000Y-3685000D02*
X12655000Y-3715000D01*
X12655000Y-3685000D02*
X12625000Y-3715000D01*
X12625000Y-5265000D02*
X12655000Y-5295000D01*
X12655000Y-5265000D02*
X12625000Y-5295000D01*
X12660000Y-6920000D02*
X12690000Y-6950000D01*
X12690000Y-6920000D02*
X12660000Y-6950000D01*
X12675000Y-6540000D02*
X12705000Y-6570000D01*
X12705000Y-6540000D02*
X12675000Y-6570000D01*
X12680000Y-6330000D02*
X12710000Y-6360000D01*
X12710000Y-6330000D02*
X12680000Y-6360000D01*
X11512500Y-9430000D02*
G75*
G02*
X11437500Y-9430000I-37500J0D01*
G01*
X11437500Y-9430000D02*
G75*
G02*
X11512500Y-9430000I37500J0D01*
G01*
X11712500Y-9430000D02*
G75*
G02*
X11637500Y-9430000I-37500J0D01*
G01*
X11637500Y-9430000D02*
G75*
G02*
X11712500Y-9430000I37500J0D01*
G01*
X11912500Y-9430000D02*
G75*
G02*
X11837500Y-9430000I-37500J0D01*
G01*
X11837500Y-9430000D02*
G75*
G02*
X11912500Y-9430000I37500J0D01*
G01*
X12112500Y-9430000D02*
G75*
G02*
X12037500Y-9430000I-37500J0D01*
G01*
X12037500Y-9430000D02*
G75*
G02*
X12112500Y-9430000I37500J0D01*
G01*
X12312500Y-9430000D02*
G75*
G02*
X12237500Y-9430000I-37500J0D01*
G01*
X12237500Y-9430000D02*
G75*
G02*
X12312500Y-9430000I37500J0D01*
G01*
X12512500Y-9430000D02*
G75*
G02*
X12437500Y-9430000I-37500J0D01*
G01*
X12437500Y-9430000D02*
G75*
G02*
X12512500Y-9430000I37500J0D01*
G01*
X11070000Y-2926000D02*
X11070000Y-3026000D01*
X11020000Y-2976000D02*
X11120000Y-2976000D01*
X11070000Y-3180000D02*
X11070000Y-3280000D01*
X11020000Y-3230000D02*
X11120000Y-3230000D01*
X11070000Y-3434000D02*
X11070000Y-3534000D01*
X11020000Y-3484000D02*
X11120000Y-3484000D01*
X11070000Y-3688000D02*
X11070000Y-3788000D01*
X11020000Y-3738000D02*
X11120000Y-3738000D01*
X11070000Y-3942000D02*
X11070000Y-4042000D01*
X11020000Y-3992000D02*
X11120000Y-3992000D01*
X11070000Y-4196000D02*
X11070000Y-4296000D01*
X11020000Y-4246000D02*
X11120000Y-4246000D01*
X11070000Y-4450000D02*
X11070000Y-4550000D01*
X11020000Y-4500000D02*
X11120000Y-4500000D01*
X11070000Y-4704000D02*
X11070000Y-4804000D01*
X11020000Y-4754000D02*
X11120000Y-4754000D01*
X11070000Y-4958000D02*
X11070000Y-5058000D01*
X11020000Y-5008000D02*
X11120000Y-5008000D01*
X11070000Y-5212000D02*
X11070000Y-5312000D01*
X11020000Y-5262000D02*
X11120000Y-5262000D01*
X11070000Y-5466000D02*
X11070000Y-5566000D01*
X11020000Y-5516000D02*
X11120000Y-5516000D01*
X11070000Y-5720000D02*
X11070000Y-5820000D01*
X11020000Y-5770000D02*
X11120000Y-5770000D01*
X11070000Y-5974000D02*
X11070000Y-6074000D01*
X11020000Y-6024000D02*
X11120000Y-6024000D01*
X11070000Y-6228000D02*
X11070000Y-6328000D01*
X11020000Y-6278000D02*
X11120000Y-6278000D01*
X11070000Y-6482000D02*
X11070000Y-6582000D01*
X11020000Y-6532000D02*
X11120000Y-6532000D01*
X11070000Y-6736000D02*
X11070000Y-6836000D01*
X11020000Y-6786000D02*
X11120000Y-6786000D01*
X11070000Y-6990000D02*
X11070000Y-7090000D01*
X11020000Y-7040000D02*
X11120000Y-7040000D01*
X11070000Y-7244000D02*
X11070000Y-7344000D01*
X11020000Y-7294000D02*
X11120000Y-7294000D01*
X11070000Y-7498000D02*
X11070000Y-7598000D01*
X11020000Y-7548000D02*
X11120000Y-7548000D01*
X11070000Y-7752000D02*
X11070000Y-7852000D01*
X11020000Y-7802000D02*
X11120000Y-7802000D01*
X11070000Y-8006000D02*
X11070000Y-8106000D01*
X11020000Y-8056000D02*
X11120000Y-8056000D01*
X11070000Y-8260000D02*
X11070000Y-8360000D01*
X11020000Y-8310000D02*
X11120000Y-8310000D01*
X11070000Y-8514000D02*
X11070000Y-8614000D01*
X11020000Y-8564000D02*
X11120000Y-8564000D01*
X11070000Y-8768000D02*
X11070000Y-8868000D01*
X11020000Y-8818000D02*
X11120000Y-8818000D01*
X11070000Y-9022000D02*
X11070000Y-9122000D01*
X11020000Y-9072000D02*
X11120000Y-9072000D01*
X11070000Y-9276000D02*
X11070000Y-9376000D01*
X11020000Y-9326000D02*
X11120000Y-9326000D01*
X11070000Y-9530000D02*
X11070000Y-9630000D01*
X11020000Y-9580000D02*
X11120000Y-9580000D01*
X12870000Y-2926000D02*
X12870000Y-3026000D01*
X12820000Y-2976000D02*
X12920000Y-2976000D01*
X12870000Y-3180000D02*
X12870000Y-3280000D01*
X12820000Y-3230000D02*
X12920000Y-3230000D01*
X12870000Y-3434000D02*
X12870000Y-3534000D01*
X12820000Y-3484000D02*
X12920000Y-3484000D01*
X12870000Y-3688000D02*
X12870000Y-3788000D01*
X12820000Y-3738000D02*
X12920000Y-3738000D01*
X12870000Y-3942000D02*
X12870000Y-4042000D01*
X12820000Y-3992000D02*
X12920000Y-3992000D01*
X12870000Y-4196000D02*
X12870000Y-4296000D01*
X12820000Y-4246000D02*
X12920000Y-4246000D01*
X12870000Y-4450000D02*
X12870000Y-4550000D01*
X12820000Y-4500000D02*
X12920000Y-4500000D01*
X12870000Y-4704000D02*
X12870000Y-4804000D01*
X12820000Y-4754000D02*
X12920000Y-4754000D01*
X12870000Y-4958000D02*
X12870000Y-5058000D01*
X12820000Y-5008000D02*
X12920000Y-5008000D01*
X12870000Y-5212000D02*
X12870000Y-5312000D01*
X12820000Y-5262000D02*
X12920000Y-5262000D01*
X12870000Y-5466000D02*
X12870000Y-5566000D01*
X12820000Y-5516000D02*
X12920000Y-5516000D01*
X12870000Y-5720000D02*
X12870000Y-5820000D01*
X12820000Y-5770000D02*
X12920000Y-5770000D01*
X12870000Y-5974000D02*
X12870000Y-6074000D01*
X12820000Y-6024000D02*
X12920000Y-6024000D01*
X12870000Y-6228000D02*
X12870000Y-6328000D01*
X12820000Y-6278000D02*
X12920000Y-6278000D01*
X12870000Y-6482000D02*
X12870000Y-6582000D01*
X12820000Y-6532000D02*
X12920000Y-6532000D01*
X12870000Y-6736000D02*
X12870000Y-6836000D01*
X12820000Y-6786000D02*
X12920000Y-6786000D01*
X12870000Y-6990000D02*
X12870000Y-7090000D01*
X12820000Y-7040000D02*
X12920000Y-7040000D01*
X12870000Y-7244000D02*
X12870000Y-7344000D01*
X12820000Y-7294000D02*
X12920000Y-7294000D01*
X12870000Y-7498000D02*
X12870000Y-7598000D01*
X12820000Y-7548000D02*
X12920000Y-7548000D01*
X12870000Y-7752000D02*
X12870000Y-7852000D01*
X12820000Y-7802000D02*
X12920000Y-7802000D01*
X12870000Y-8006000D02*
X12870000Y-8106000D01*
X12820000Y-8056000D02*
X12920000Y-8056000D01*
X12870000Y-8260000D02*
X12870000Y-8360000D01*
X12820000Y-8310000D02*
X12920000Y-8310000D01*
X12870000Y-8514000D02*
X12870000Y-8614000D01*
X12820000Y-8564000D02*
X12920000Y-8564000D01*
X12870000Y-8768000D02*
X12870000Y-8868000D01*
X12820000Y-8818000D02*
X12920000Y-8818000D01*
X12870000Y-9022000D02*
X12870000Y-9122000D01*
X12820000Y-9072000D02*
X12920000Y-9072000D01*
X12870000Y-9276000D02*
X12870000Y-9376000D01*
X12820000Y-9326000D02*
X12920000Y-9326000D01*
X12870000Y-9530000D02*
X12870000Y-9630000D01*
X12820000Y-9580000D02*
X12920000Y-9580000D01*
D11*
X11128277Y-10091484D02*
X11128277Y-9891484D01*
X11128277Y-9891484D02*
X11175896Y-9891484D01*
X11175896Y-9891484D02*
X11204467Y-9901008D01*
X11204467Y-9901008D02*
X11223515Y-9920055D01*
X11223515Y-9920055D02*
X11233039Y-9939103D01*
X11233039Y-9939103D02*
X11242562Y-9977198D01*
X11242562Y-9977198D02*
X11242562Y-10005770D01*
X11242562Y-10005770D02*
X11233039Y-10043865D01*
X11233039Y-10043865D02*
X11223515Y-10062912D01*
X11223515Y-10062912D02*
X11204467Y-10081960D01*
X11204467Y-10081960D02*
X11175896Y-10091484D01*
X11175896Y-10091484D02*
X11128277Y-10091484D01*
X11328277Y-10091484D02*
X11328277Y-9958150D01*
X11328277Y-9996246D02*
X11337801Y-9977198D01*
X11337801Y-9977198D02*
X11347324Y-9967674D01*
X11347324Y-9967674D02*
X11366372Y-9958150D01*
X11366372Y-9958150D02*
X11385420Y-9958150D01*
X11452086Y-10091484D02*
X11452086Y-9958150D01*
X11452086Y-9891484D02*
X11442562Y-9901008D01*
X11442562Y-9901008D02*
X11452086Y-9910531D01*
X11452086Y-9910531D02*
X11461610Y-9901008D01*
X11461610Y-9901008D02*
X11452086Y-9891484D01*
X11452086Y-9891484D02*
X11452086Y-9910531D01*
X11575896Y-10091484D02*
X11556848Y-10081960D01*
X11556848Y-10081960D02*
X11547324Y-10062912D01*
X11547324Y-10062912D02*
X11547324Y-9891484D01*
X11680658Y-10091484D02*
X11661610Y-10081960D01*
X11661610Y-10081960D02*
X11652086Y-10062912D01*
X11652086Y-10062912D02*
X11652086Y-9891484D01*
X11909229Y-10091484D02*
X11909229Y-9891484D01*
X11909229Y-9891484D02*
X11975896Y-10034341D01*
X11975896Y-10034341D02*
X12042562Y-9891484D01*
X12042562Y-9891484D02*
X12042562Y-10091484D01*
X12223515Y-10091484D02*
X12223515Y-9986722D01*
X12223515Y-9986722D02*
X12213991Y-9967674D01*
X12213991Y-9967674D02*
X12194943Y-9958150D01*
X12194943Y-9958150D02*
X12156848Y-9958150D01*
X12156848Y-9958150D02*
X12137801Y-9967674D01*
X12223515Y-10081960D02*
X12204467Y-10091484D01*
X12204467Y-10091484D02*
X12156848Y-10091484D01*
X12156848Y-10091484D02*
X12137801Y-10081960D01*
X12137801Y-10081960D02*
X12128277Y-10062912D01*
X12128277Y-10062912D02*
X12128277Y-10043865D01*
X12128277Y-10043865D02*
X12137801Y-10024817D01*
X12137801Y-10024817D02*
X12156848Y-10015293D01*
X12156848Y-10015293D02*
X12204467Y-10015293D01*
X12204467Y-10015293D02*
X12223515Y-10005770D01*
X12318753Y-9958150D02*
X12318753Y-10158150D01*
X12318753Y-9967674D02*
X12337801Y-9958150D01*
X12337801Y-9958150D02*
X12375896Y-9958150D01*
X12375896Y-9958150D02*
X12394943Y-9967674D01*
X12394943Y-9967674D02*
X12404467Y-9977198D01*
X12404467Y-9977198D02*
X12413991Y-9996246D01*
X12413991Y-9996246D02*
X12413991Y-10053389D01*
X12413991Y-10053389D02*
X12404467Y-10072436D01*
X12404467Y-10072436D02*
X12394943Y-10081960D01*
X12394943Y-10081960D02*
X12375896Y-10091484D01*
X12375896Y-10091484D02*
X12337801Y-10091484D01*
X12337801Y-10091484D02*
X12318753Y-10081960D01*
X12499705Y-10072436D02*
X12509229Y-10081960D01*
X12509229Y-10081960D02*
X12499705Y-10091484D01*
X12499705Y-10091484D02*
X12490182Y-10081960D01*
X12490182Y-10081960D02*
X12499705Y-10072436D01*
X12499705Y-10072436D02*
X12499705Y-10091484D01*
X12499705Y-9967674D02*
X12509229Y-9977198D01*
X12509229Y-9977198D02*
X12499705Y-9986722D01*
X12499705Y-9986722D02*
X12490182Y-9977198D01*
X12490182Y-9977198D02*
X12499705Y-9967674D01*
X12499705Y-9967674D02*
X12499705Y-9986722D01*
D10*
X10837500Y-10405000D02*
X10867500Y-10435000D01*
X10867500Y-10405000D02*
X10837500Y-10435000D01*
D11*
X11166372Y-10311484D02*
X11185420Y-10311484D01*
X11185420Y-10311484D02*
X11204467Y-10321008D01*
X11204467Y-10321008D02*
X11213991Y-10330531D01*
X11213991Y-10330531D02*
X11223515Y-10349579D01*
X11223515Y-10349579D02*
X11233039Y-10387674D01*
X11233039Y-10387674D02*
X11233039Y-10435293D01*
X11233039Y-10435293D02*
X11223515Y-10473389D01*
X11223515Y-10473389D02*
X11213991Y-10492436D01*
X11213991Y-10492436D02*
X11204467Y-10501960D01*
X11204467Y-10501960D02*
X11185420Y-10511484D01*
X11185420Y-10511484D02*
X11166372Y-10511484D01*
X11166372Y-10511484D02*
X11147324Y-10501960D01*
X11147324Y-10501960D02*
X11137801Y-10492436D01*
X11137801Y-10492436D02*
X11128277Y-10473389D01*
X11128277Y-10473389D02*
X11118753Y-10435293D01*
X11118753Y-10435293D02*
X11118753Y-10387674D01*
X11118753Y-10387674D02*
X11128277Y-10349579D01*
X11128277Y-10349579D02*
X11137801Y-10330531D01*
X11137801Y-10330531D02*
X11147324Y-10321008D01*
X11147324Y-10321008D02*
X11166372Y-10311484D01*
X11318753Y-10492436D02*
X11328277Y-10501960D01*
X11328277Y-10501960D02*
X11318753Y-10511484D01*
X11318753Y-10511484D02*
X11309229Y-10501960D01*
X11309229Y-10501960D02*
X11318753Y-10492436D01*
X11318753Y-10492436D02*
X11318753Y-10511484D01*
X11394943Y-10311484D02*
X11518753Y-10311484D01*
X11518753Y-10311484D02*
X11452086Y-10387674D01*
X11452086Y-10387674D02*
X11480658Y-10387674D01*
X11480658Y-10387674D02*
X11499705Y-10397198D01*
X11499705Y-10397198D02*
X11509229Y-10406722D01*
X11509229Y-10406722D02*
X11518753Y-10425770D01*
X11518753Y-10425770D02*
X11518753Y-10473389D01*
X11518753Y-10473389D02*
X11509229Y-10492436D01*
X11509229Y-10492436D02*
X11499705Y-10501960D01*
X11499705Y-10501960D02*
X11480658Y-10511484D01*
X11480658Y-10511484D02*
X11423515Y-10511484D01*
X11423515Y-10511484D02*
X11404467Y-10501960D01*
X11404467Y-10501960D02*
X11394943Y-10492436D01*
X11642562Y-10311484D02*
X11661610Y-10311484D01*
X11661610Y-10311484D02*
X11680658Y-10321008D01*
X11680658Y-10321008D02*
X11690182Y-10330531D01*
X11690182Y-10330531D02*
X11699705Y-10349579D01*
X11699705Y-10349579D02*
X11709229Y-10387674D01*
X11709229Y-10387674D02*
X11709229Y-10435293D01*
X11709229Y-10435293D02*
X11699705Y-10473389D01*
X11699705Y-10473389D02*
X11690182Y-10492436D01*
X11690182Y-10492436D02*
X11680658Y-10501960D01*
X11680658Y-10501960D02*
X11661610Y-10511484D01*
X11661610Y-10511484D02*
X11642562Y-10511484D01*
X11642562Y-10511484D02*
X11623515Y-10501960D01*
X11623515Y-10501960D02*
X11613991Y-10492436D01*
X11613991Y-10492436D02*
X11604467Y-10473389D01*
X11604467Y-10473389D02*
X11594943Y-10435293D01*
X11594943Y-10435293D02*
X11594943Y-10387674D01*
X11594943Y-10387674D02*
X11604467Y-10349579D01*
X11604467Y-10349579D02*
X11613991Y-10330531D01*
X11613991Y-10330531D02*
X11623515Y-10321008D01*
X11623515Y-10321008D02*
X11642562Y-10311484D01*
X11833039Y-10311484D02*
X11852086Y-10311484D01*
X11852086Y-10311484D02*
X11871134Y-10321008D01*
X11871134Y-10321008D02*
X11880658Y-10330531D01*
X11880658Y-10330531D02*
X11890182Y-10349579D01*
X11890182Y-10349579D02*
X11899705Y-10387674D01*
X11899705Y-10387674D02*
X11899705Y-10435293D01*
X11899705Y-10435293D02*
X11890182Y-10473389D01*
X11890182Y-10473389D02*
X11880658Y-10492436D01*
X11880658Y-10492436D02*
X11871134Y-10501960D01*
X11871134Y-10501960D02*
X11852086Y-10511484D01*
X11852086Y-10511484D02*
X11833039Y-10511484D01*
X11833039Y-10511484D02*
X11813991Y-10501960D01*
X11813991Y-10501960D02*
X11804467Y-10492436D01*
X11804467Y-10492436D02*
X11794943Y-10473389D01*
X11794943Y-10473389D02*
X11785420Y-10435293D01*
X11785420Y-10435293D02*
X11785420Y-10387674D01*
X11785420Y-10387674D02*
X11794943Y-10349579D01*
X11794943Y-10349579D02*
X11804467Y-10330531D01*
X11804467Y-10330531D02*
X11813991Y-10321008D01*
X11813991Y-10321008D02*
X11833039Y-10311484D01*
X11985420Y-10511484D02*
X11985420Y-10378150D01*
X11985420Y-10397198D02*
X11994943Y-10387674D01*
X11994943Y-10387674D02*
X12013991Y-10378150D01*
X12013991Y-10378150D02*
X12042563Y-10378150D01*
X12042563Y-10378150D02*
X12061610Y-10387674D01*
X12061610Y-10387674D02*
X12071134Y-10406722D01*
X12071134Y-10406722D02*
X12071134Y-10511484D01*
X12071134Y-10406722D02*
X12080658Y-10387674D01*
X12080658Y-10387674D02*
X12099705Y-10378150D01*
X12099705Y-10378150D02*
X12128277Y-10378150D01*
X12128277Y-10378150D02*
X12147324Y-10387674D01*
X12147324Y-10387674D02*
X12156848Y-10406722D01*
X12156848Y-10406722D02*
X12156848Y-10511484D01*
X12252086Y-10511484D02*
X12252086Y-10378150D01*
X12252086Y-10397198D02*
X12261610Y-10387674D01*
X12261610Y-10387674D02*
X12280658Y-10378150D01*
X12280658Y-10378150D02*
X12309229Y-10378150D01*
X12309229Y-10378150D02*
X12328277Y-10387674D01*
X12328277Y-10387674D02*
X12337801Y-10406722D01*
X12337801Y-10406722D02*
X12337801Y-10511484D01*
X12337801Y-10406722D02*
X12347324Y-10387674D01*
X12347324Y-10387674D02*
X12366372Y-10378150D01*
X12366372Y-10378150D02*
X12394943Y-10378150D01*
X12394943Y-10378150D02*
X12413991Y-10387674D01*
X12413991Y-10387674D02*
X12423515Y-10406722D01*
X12423515Y-10406722D02*
X12423515Y-10511484D01*
X12813991Y-10301960D02*
X12642563Y-10559103D01*
X13071134Y-10311484D02*
X13090182Y-10311484D01*
X13090182Y-10311484D02*
X13109229Y-10321008D01*
X13109229Y-10321008D02*
X13118753Y-10330531D01*
X13118753Y-10330531D02*
X13128277Y-10349579D01*
X13128277Y-10349579D02*
X13137801Y-10387674D01*
X13137801Y-10387674D02*
X13137801Y-10435293D01*
X13137801Y-10435293D02*
X13128277Y-10473389D01*
X13128277Y-10473389D02*
X13118753Y-10492436D01*
X13118753Y-10492436D02*
X13109229Y-10501960D01*
X13109229Y-10501960D02*
X13090182Y-10511484D01*
X13090182Y-10511484D02*
X13071134Y-10511484D01*
X13071134Y-10511484D02*
X13052086Y-10501960D01*
X13052086Y-10501960D02*
X13042563Y-10492436D01*
X13042563Y-10492436D02*
X13033039Y-10473389D01*
X13033039Y-10473389D02*
X13023515Y-10435293D01*
X13023515Y-10435293D02*
X13023515Y-10387674D01*
X13023515Y-10387674D02*
X13033039Y-10349579D01*
X13033039Y-10349579D02*
X13042563Y-10330531D01*
X13042563Y-10330531D02*
X13052086Y-10321008D01*
X13052086Y-10321008D02*
X13071134Y-10311484D01*
X13223515Y-10492436D02*
X13233039Y-10501960D01*
X13233039Y-10501960D02*
X13223515Y-10511484D01*
X13223515Y-10511484D02*
X13213991Y-10501960D01*
X13213991Y-10501960D02*
X13223515Y-10492436D01*
X13223515Y-10492436D02*
X13223515Y-10511484D01*
X13356848Y-10311484D02*
X13375896Y-10311484D01*
X13375896Y-10311484D02*
X13394944Y-10321008D01*
X13394944Y-10321008D02*
X13404467Y-10330531D01*
X13404467Y-10330531D02*
X13413991Y-10349579D01*
X13413991Y-10349579D02*
X13423515Y-10387674D01*
X13423515Y-10387674D02*
X13423515Y-10435293D01*
X13423515Y-10435293D02*
X13413991Y-10473389D01*
X13413991Y-10473389D02*
X13404467Y-10492436D01*
X13404467Y-10492436D02*
X13394944Y-10501960D01*
X13394944Y-10501960D02*
X13375896Y-10511484D01*
X13375896Y-10511484D02*
X13356848Y-10511484D01*
X13356848Y-10511484D02*
X13337801Y-10501960D01*
X13337801Y-10501960D02*
X13328277Y-10492436D01*
X13328277Y-10492436D02*
X13318753Y-10473389D01*
X13318753Y-10473389D02*
X13309229Y-10435293D01*
X13309229Y-10435293D02*
X13309229Y-10387674D01*
X13309229Y-10387674D02*
X13318753Y-10349579D01*
X13318753Y-10349579D02*
X13328277Y-10330531D01*
X13328277Y-10330531D02*
X13337801Y-10321008D01*
X13337801Y-10321008D02*
X13356848Y-10311484D01*
X13613991Y-10511484D02*
X13499706Y-10511484D01*
X13556848Y-10511484D02*
X13556848Y-10311484D01*
X13556848Y-10311484D02*
X13537801Y-10340055D01*
X13537801Y-10340055D02*
X13518753Y-10359103D01*
X13518753Y-10359103D02*
X13499706Y-10368627D01*
X13804467Y-10511484D02*
X13690182Y-10511484D01*
X13747325Y-10511484D02*
X13747325Y-10311484D01*
X13747325Y-10311484D02*
X13728277Y-10340055D01*
X13728277Y-10340055D02*
X13709229Y-10359103D01*
X13709229Y-10359103D02*
X13690182Y-10368627D01*
X13918753Y-10397198D02*
X13899706Y-10387674D01*
X13899706Y-10387674D02*
X13890182Y-10378150D01*
X13890182Y-10378150D02*
X13880658Y-10359103D01*
X13880658Y-10359103D02*
X13880658Y-10349579D01*
X13880658Y-10349579D02*
X13890182Y-10330531D01*
X13890182Y-10330531D02*
X13899706Y-10321008D01*
X13899706Y-10321008D02*
X13918753Y-10311484D01*
X13918753Y-10311484D02*
X13956848Y-10311484D01*
X13956848Y-10311484D02*
X13975896Y-10321008D01*
X13975896Y-10321008D02*
X13985420Y-10330531D01*
X13985420Y-10330531D02*
X13994944Y-10349579D01*
X13994944Y-10349579D02*
X13994944Y-10359103D01*
X13994944Y-10359103D02*
X13985420Y-10378150D01*
X13985420Y-10378150D02*
X13975896Y-10387674D01*
X13975896Y-10387674D02*
X13956848Y-10397198D01*
X13956848Y-10397198D02*
X13918753Y-10397198D01*
X13918753Y-10397198D02*
X13899706Y-10406722D01*
X13899706Y-10406722D02*
X13890182Y-10416246D01*
X13890182Y-10416246D02*
X13880658Y-10435293D01*
X13880658Y-10435293D02*
X13880658Y-10473389D01*
X13880658Y-10473389D02*
X13890182Y-10492436D01*
X13890182Y-10492436D02*
X13899706Y-10501960D01*
X13899706Y-10501960D02*
X13918753Y-10511484D01*
X13918753Y-10511484D02*
X13956848Y-10511484D01*
X13956848Y-10511484D02*
X13975896Y-10501960D01*
X13975896Y-10501960D02*
X13985420Y-10492436D01*
X13985420Y-10492436D02*
X13994944Y-10473389D01*
X13994944Y-10473389D02*
X13994944Y-10435293D01*
X13994944Y-10435293D02*
X13985420Y-10416246D01*
X13985420Y-10416246D02*
X13975896Y-10406722D01*
X13975896Y-10406722D02*
X13956848Y-10397198D01*
X14071134Y-10311484D02*
X14071134Y-10349579D01*
X14147325Y-10311484D02*
X14147325Y-10349579D01*
X14442563Y-10587674D02*
X14433039Y-10578150D01*
X14433039Y-10578150D02*
X14413991Y-10549579D01*
X14413991Y-10549579D02*
X14404468Y-10530531D01*
X14404468Y-10530531D02*
X14394944Y-10501960D01*
X14394944Y-10501960D02*
X14385420Y-10454341D01*
X14385420Y-10454341D02*
X14385420Y-10416246D01*
X14385420Y-10416246D02*
X14394944Y-10368627D01*
X14394944Y-10368627D02*
X14404468Y-10340055D01*
X14404468Y-10340055D02*
X14413991Y-10321008D01*
X14413991Y-10321008D02*
X14433039Y-10292436D01*
X14433039Y-10292436D02*
X14442563Y-10282912D01*
X14623515Y-10511484D02*
X14509229Y-10511484D01*
X14566372Y-10511484D02*
X14566372Y-10311484D01*
X14566372Y-10311484D02*
X14547325Y-10340055D01*
X14547325Y-10340055D02*
X14528277Y-10359103D01*
X14528277Y-10359103D02*
X14509229Y-10368627D01*
X14747325Y-10311484D02*
X14766372Y-10311484D01*
X14766372Y-10311484D02*
X14785420Y-10321008D01*
X14785420Y-10321008D02*
X14794944Y-10330531D01*
X14794944Y-10330531D02*
X14804468Y-10349579D01*
X14804468Y-10349579D02*
X14813991Y-10387674D01*
X14813991Y-10387674D02*
X14813991Y-10435293D01*
X14813991Y-10435293D02*
X14804468Y-10473389D01*
X14804468Y-10473389D02*
X14794944Y-10492436D01*
X14794944Y-10492436D02*
X14785420Y-10501960D01*
X14785420Y-10501960D02*
X14766372Y-10511484D01*
X14766372Y-10511484D02*
X14747325Y-10511484D01*
X14747325Y-10511484D02*
X14728277Y-10501960D01*
X14728277Y-10501960D02*
X14718753Y-10492436D01*
X14718753Y-10492436D02*
X14709229Y-10473389D01*
X14709229Y-10473389D02*
X14699706Y-10435293D01*
X14699706Y-10435293D02*
X14699706Y-10387674D01*
X14699706Y-10387674D02*
X14709229Y-10349579D01*
X14709229Y-10349579D02*
X14718753Y-10330531D01*
X14718753Y-10330531D02*
X14728277Y-10321008D01*
X14728277Y-10321008D02*
X14747325Y-10311484D01*
X15004468Y-10511484D02*
X14890182Y-10511484D01*
X14947325Y-10511484D02*
X14947325Y-10311484D01*
X14947325Y-10311484D02*
X14928277Y-10340055D01*
X14928277Y-10340055D02*
X14909229Y-10359103D01*
X14909229Y-10359103D02*
X14890182Y-10368627D01*
X15242563Y-10511484D02*
X15242563Y-10311484D01*
X15328277Y-10511484D02*
X15328277Y-10406722D01*
X15328277Y-10406722D02*
X15318753Y-10387674D01*
X15318753Y-10387674D02*
X15299706Y-10378150D01*
X15299706Y-10378150D02*
X15271134Y-10378150D01*
X15271134Y-10378150D02*
X15252087Y-10387674D01*
X15252087Y-10387674D02*
X15242563Y-10397198D01*
X15452087Y-10511484D02*
X15433039Y-10501960D01*
X15433039Y-10501960D02*
X15423515Y-10492436D01*
X15423515Y-10492436D02*
X15413991Y-10473389D01*
X15413991Y-10473389D02*
X15413991Y-10416246D01*
X15413991Y-10416246D02*
X15423515Y-10397198D01*
X15423515Y-10397198D02*
X15433039Y-10387674D01*
X15433039Y-10387674D02*
X15452087Y-10378150D01*
X15452087Y-10378150D02*
X15480658Y-10378150D01*
X15480658Y-10378150D02*
X15499706Y-10387674D01*
X15499706Y-10387674D02*
X15509230Y-10397198D01*
X15509230Y-10397198D02*
X15518753Y-10416246D01*
X15518753Y-10416246D02*
X15518753Y-10473389D01*
X15518753Y-10473389D02*
X15509230Y-10492436D01*
X15509230Y-10492436D02*
X15499706Y-10501960D01*
X15499706Y-10501960D02*
X15480658Y-10511484D01*
X15480658Y-10511484D02*
X15452087Y-10511484D01*
X15633039Y-10511484D02*
X15613991Y-10501960D01*
X15613991Y-10501960D02*
X15604468Y-10482912D01*
X15604468Y-10482912D02*
X15604468Y-10311484D01*
X15785420Y-10501960D02*
X15766372Y-10511484D01*
X15766372Y-10511484D02*
X15728277Y-10511484D01*
X15728277Y-10511484D02*
X15709230Y-10501960D01*
X15709230Y-10501960D02*
X15699706Y-10482912D01*
X15699706Y-10482912D02*
X15699706Y-10406722D01*
X15699706Y-10406722D02*
X15709230Y-10387674D01*
X15709230Y-10387674D02*
X15728277Y-10378150D01*
X15728277Y-10378150D02*
X15766372Y-10378150D01*
X15766372Y-10378150D02*
X15785420Y-10387674D01*
X15785420Y-10387674D02*
X15794944Y-10406722D01*
X15794944Y-10406722D02*
X15794944Y-10425770D01*
X15794944Y-10425770D02*
X15699706Y-10444817D01*
X15871134Y-10501960D02*
X15890182Y-10511484D01*
X15890182Y-10511484D02*
X15928277Y-10511484D01*
X15928277Y-10511484D02*
X15947325Y-10501960D01*
X15947325Y-10501960D02*
X15956849Y-10482912D01*
X15956849Y-10482912D02*
X15956849Y-10473389D01*
X15956849Y-10473389D02*
X15947325Y-10454341D01*
X15947325Y-10454341D02*
X15928277Y-10444817D01*
X15928277Y-10444817D02*
X15899706Y-10444817D01*
X15899706Y-10444817D02*
X15880658Y-10435293D01*
X15880658Y-10435293D02*
X15871134Y-10416246D01*
X15871134Y-10416246D02*
X15871134Y-10406722D01*
X15871134Y-10406722D02*
X15880658Y-10387674D01*
X15880658Y-10387674D02*
X15899706Y-10378150D01*
X15899706Y-10378150D02*
X15928277Y-10378150D01*
X15928277Y-10378150D02*
X15947325Y-10387674D01*
X16023515Y-10587674D02*
X16033039Y-10578150D01*
X16033039Y-10578150D02*
X16052087Y-10549579D01*
X16052087Y-10549579D02*
X16061611Y-10530531D01*
X16061611Y-10530531D02*
X16071134Y-10501960D01*
X16071134Y-10501960D02*
X16080658Y-10454341D01*
X16080658Y-10454341D02*
X16080658Y-10416246D01*
X16080658Y-10416246D02*
X16071134Y-10368627D01*
X16071134Y-10368627D02*
X16061611Y-10340055D01*
X16061611Y-10340055D02*
X16052087Y-10321008D01*
X16052087Y-10321008D02*
X16033039Y-10292436D01*
X16033039Y-10292436D02*
X16023515Y-10282912D01*
D10*
X10867500Y-10684000D02*
G75*
G02*
X10792500Y-10684000I-37500J0D01*
G01*
X10792500Y-10684000D02*
G75*
G02*
X10867500Y-10684000I37500J0D01*
G01*
D11*
X11166372Y-10575484D02*
X11185420Y-10575484D01*
X11185420Y-10575484D02*
X11204467Y-10585008D01*
X11204467Y-10585008D02*
X11213991Y-10594531D01*
X11213991Y-10594531D02*
X11223515Y-10613579D01*
X11223515Y-10613579D02*
X11233039Y-10651674D01*
X11233039Y-10651674D02*
X11233039Y-10699293D01*
X11233039Y-10699293D02*
X11223515Y-10737389D01*
X11223515Y-10737389D02*
X11213991Y-10756436D01*
X11213991Y-10756436D02*
X11204467Y-10765960D01*
X11204467Y-10765960D02*
X11185420Y-10775484D01*
X11185420Y-10775484D02*
X11166372Y-10775484D01*
X11166372Y-10775484D02*
X11147324Y-10765960D01*
X11147324Y-10765960D02*
X11137801Y-10756436D01*
X11137801Y-10756436D02*
X11128277Y-10737389D01*
X11128277Y-10737389D02*
X11118753Y-10699293D01*
X11118753Y-10699293D02*
X11118753Y-10651674D01*
X11118753Y-10651674D02*
X11128277Y-10613579D01*
X11128277Y-10613579D02*
X11137801Y-10594531D01*
X11137801Y-10594531D02*
X11147324Y-10585008D01*
X11147324Y-10585008D02*
X11166372Y-10575484D01*
X11318753Y-10756436D02*
X11328277Y-10765960D01*
X11328277Y-10765960D02*
X11318753Y-10775484D01*
X11318753Y-10775484D02*
X11309229Y-10765960D01*
X11309229Y-10765960D02*
X11318753Y-10756436D01*
X11318753Y-10756436D02*
X11318753Y-10775484D01*
X11394943Y-10575484D02*
X11528277Y-10575484D01*
X11528277Y-10575484D02*
X11442562Y-10775484D01*
X11699705Y-10575484D02*
X11604467Y-10575484D01*
X11604467Y-10575484D02*
X11594943Y-10670722D01*
X11594943Y-10670722D02*
X11604467Y-10661198D01*
X11604467Y-10661198D02*
X11623515Y-10651674D01*
X11623515Y-10651674D02*
X11671134Y-10651674D01*
X11671134Y-10651674D02*
X11690182Y-10661198D01*
X11690182Y-10661198D02*
X11699705Y-10670722D01*
X11699705Y-10670722D02*
X11709229Y-10689770D01*
X11709229Y-10689770D02*
X11709229Y-10737389D01*
X11709229Y-10737389D02*
X11699705Y-10756436D01*
X11699705Y-10756436D02*
X11690182Y-10765960D01*
X11690182Y-10765960D02*
X11671134Y-10775484D01*
X11671134Y-10775484D02*
X11623515Y-10775484D01*
X11623515Y-10775484D02*
X11604467Y-10765960D01*
X11604467Y-10765960D02*
X11594943Y-10756436D01*
X11833039Y-10575484D02*
X11852086Y-10575484D01*
X11852086Y-10575484D02*
X11871134Y-10585008D01*
X11871134Y-10585008D02*
X11880658Y-10594531D01*
X11880658Y-10594531D02*
X11890182Y-10613579D01*
X11890182Y-10613579D02*
X11899705Y-10651674D01*
X11899705Y-10651674D02*
X11899705Y-10699293D01*
X11899705Y-10699293D02*
X11890182Y-10737389D01*
X11890182Y-10737389D02*
X11880658Y-10756436D01*
X11880658Y-10756436D02*
X11871134Y-10765960D01*
X11871134Y-10765960D02*
X11852086Y-10775484D01*
X11852086Y-10775484D02*
X11833039Y-10775484D01*
X11833039Y-10775484D02*
X11813991Y-10765960D01*
X11813991Y-10765960D02*
X11804467Y-10756436D01*
X11804467Y-10756436D02*
X11794943Y-10737389D01*
X11794943Y-10737389D02*
X11785420Y-10699293D01*
X11785420Y-10699293D02*
X11785420Y-10651674D01*
X11785420Y-10651674D02*
X11794943Y-10613579D01*
X11794943Y-10613579D02*
X11804467Y-10594531D01*
X11804467Y-10594531D02*
X11813991Y-10585008D01*
X11813991Y-10585008D02*
X11833039Y-10575484D01*
X11985420Y-10775484D02*
X11985420Y-10642150D01*
X11985420Y-10661198D02*
X11994943Y-10651674D01*
X11994943Y-10651674D02*
X12013991Y-10642150D01*
X12013991Y-10642150D02*
X12042563Y-10642150D01*
X12042563Y-10642150D02*
X12061610Y-10651674D01*
X12061610Y-10651674D02*
X12071134Y-10670722D01*
X12071134Y-10670722D02*
X12071134Y-10775484D01*
X12071134Y-10670722D02*
X12080658Y-10651674D01*
X12080658Y-10651674D02*
X12099705Y-10642150D01*
X12099705Y-10642150D02*
X12128277Y-10642150D01*
X12128277Y-10642150D02*
X12147324Y-10651674D01*
X12147324Y-10651674D02*
X12156848Y-10670722D01*
X12156848Y-10670722D02*
X12156848Y-10775484D01*
X12252086Y-10775484D02*
X12252086Y-10642150D01*
X12252086Y-10661198D02*
X12261610Y-10651674D01*
X12261610Y-10651674D02*
X12280658Y-10642150D01*
X12280658Y-10642150D02*
X12309229Y-10642150D01*
X12309229Y-10642150D02*
X12328277Y-10651674D01*
X12328277Y-10651674D02*
X12337801Y-10670722D01*
X12337801Y-10670722D02*
X12337801Y-10775484D01*
X12337801Y-10670722D02*
X12347324Y-10651674D01*
X12347324Y-10651674D02*
X12366372Y-10642150D01*
X12366372Y-10642150D02*
X12394943Y-10642150D01*
X12394943Y-10642150D02*
X12413991Y-10651674D01*
X12413991Y-10651674D02*
X12423515Y-10670722D01*
X12423515Y-10670722D02*
X12423515Y-10775484D01*
X12813991Y-10565960D02*
X12642563Y-10823103D01*
X13071134Y-10575484D02*
X13090182Y-10575484D01*
X13090182Y-10575484D02*
X13109229Y-10585008D01*
X13109229Y-10585008D02*
X13118753Y-10594531D01*
X13118753Y-10594531D02*
X13128277Y-10613579D01*
X13128277Y-10613579D02*
X13137801Y-10651674D01*
X13137801Y-10651674D02*
X13137801Y-10699293D01*
X13137801Y-10699293D02*
X13128277Y-10737389D01*
X13128277Y-10737389D02*
X13118753Y-10756436D01*
X13118753Y-10756436D02*
X13109229Y-10765960D01*
X13109229Y-10765960D02*
X13090182Y-10775484D01*
X13090182Y-10775484D02*
X13071134Y-10775484D01*
X13071134Y-10775484D02*
X13052086Y-10765960D01*
X13052086Y-10765960D02*
X13042563Y-10756436D01*
X13042563Y-10756436D02*
X13033039Y-10737389D01*
X13033039Y-10737389D02*
X13023515Y-10699293D01*
X13023515Y-10699293D02*
X13023515Y-10651674D01*
X13023515Y-10651674D02*
X13033039Y-10613579D01*
X13033039Y-10613579D02*
X13042563Y-10594531D01*
X13042563Y-10594531D02*
X13052086Y-10585008D01*
X13052086Y-10585008D02*
X13071134Y-10575484D01*
X13223515Y-10756436D02*
X13233039Y-10765960D01*
X13233039Y-10765960D02*
X13223515Y-10775484D01*
X13223515Y-10775484D02*
X13213991Y-10765960D01*
X13213991Y-10765960D02*
X13223515Y-10756436D01*
X13223515Y-10756436D02*
X13223515Y-10775484D01*
X13356848Y-10575484D02*
X13375896Y-10575484D01*
X13375896Y-10575484D02*
X13394944Y-10585008D01*
X13394944Y-10585008D02*
X13404467Y-10594531D01*
X13404467Y-10594531D02*
X13413991Y-10613579D01*
X13413991Y-10613579D02*
X13423515Y-10651674D01*
X13423515Y-10651674D02*
X13423515Y-10699293D01*
X13423515Y-10699293D02*
X13413991Y-10737389D01*
X13413991Y-10737389D02*
X13404467Y-10756436D01*
X13404467Y-10756436D02*
X13394944Y-10765960D01*
X13394944Y-10765960D02*
X13375896Y-10775484D01*
X13375896Y-10775484D02*
X13356848Y-10775484D01*
X13356848Y-10775484D02*
X13337801Y-10765960D01*
X13337801Y-10765960D02*
X13328277Y-10756436D01*
X13328277Y-10756436D02*
X13318753Y-10737389D01*
X13318753Y-10737389D02*
X13309229Y-10699293D01*
X13309229Y-10699293D02*
X13309229Y-10651674D01*
X13309229Y-10651674D02*
X13318753Y-10613579D01*
X13318753Y-10613579D02*
X13328277Y-10594531D01*
X13328277Y-10594531D02*
X13337801Y-10585008D01*
X13337801Y-10585008D02*
X13356848Y-10575484D01*
X13499706Y-10594531D02*
X13509229Y-10585008D01*
X13509229Y-10585008D02*
X13528277Y-10575484D01*
X13528277Y-10575484D02*
X13575896Y-10575484D01*
X13575896Y-10575484D02*
X13594944Y-10585008D01*
X13594944Y-10585008D02*
X13604467Y-10594531D01*
X13604467Y-10594531D02*
X13613991Y-10613579D01*
X13613991Y-10613579D02*
X13613991Y-10632627D01*
X13613991Y-10632627D02*
X13604467Y-10661198D01*
X13604467Y-10661198D02*
X13490182Y-10775484D01*
X13490182Y-10775484D02*
X13613991Y-10775484D01*
X13709229Y-10775484D02*
X13747325Y-10775484D01*
X13747325Y-10775484D02*
X13766372Y-10765960D01*
X13766372Y-10765960D02*
X13775896Y-10756436D01*
X13775896Y-10756436D02*
X13794944Y-10727865D01*
X13794944Y-10727865D02*
X13804467Y-10689770D01*
X13804467Y-10689770D02*
X13804467Y-10613579D01*
X13804467Y-10613579D02*
X13794944Y-10594531D01*
X13794944Y-10594531D02*
X13785420Y-10585008D01*
X13785420Y-10585008D02*
X13766372Y-10575484D01*
X13766372Y-10575484D02*
X13728277Y-10575484D01*
X13728277Y-10575484D02*
X13709229Y-10585008D01*
X13709229Y-10585008D02*
X13699706Y-10594531D01*
X13699706Y-10594531D02*
X13690182Y-10613579D01*
X13690182Y-10613579D02*
X13690182Y-10661198D01*
X13690182Y-10661198D02*
X13699706Y-10680246D01*
X13699706Y-10680246D02*
X13709229Y-10689770D01*
X13709229Y-10689770D02*
X13728277Y-10699293D01*
X13728277Y-10699293D02*
X13766372Y-10699293D01*
X13766372Y-10699293D02*
X13785420Y-10689770D01*
X13785420Y-10689770D02*
X13794944Y-10680246D01*
X13794944Y-10680246D02*
X13804467Y-10661198D01*
X13985420Y-10575484D02*
X13890182Y-10575484D01*
X13890182Y-10575484D02*
X13880658Y-10670722D01*
X13880658Y-10670722D02*
X13890182Y-10661198D01*
X13890182Y-10661198D02*
X13909229Y-10651674D01*
X13909229Y-10651674D02*
X13956848Y-10651674D01*
X13956848Y-10651674D02*
X13975896Y-10661198D01*
X13975896Y-10661198D02*
X13985420Y-10670722D01*
X13985420Y-10670722D02*
X13994944Y-10689770D01*
X13994944Y-10689770D02*
X13994944Y-10737389D01*
X13994944Y-10737389D02*
X13985420Y-10756436D01*
X13985420Y-10756436D02*
X13975896Y-10765960D01*
X13975896Y-10765960D02*
X13956848Y-10775484D01*
X13956848Y-10775484D02*
X13909229Y-10775484D01*
X13909229Y-10775484D02*
X13890182Y-10765960D01*
X13890182Y-10765960D02*
X13880658Y-10756436D01*
X14071134Y-10575484D02*
X14071134Y-10613579D01*
X14147325Y-10575484D02*
X14147325Y-10613579D01*
X14442563Y-10851674D02*
X14433039Y-10842150D01*
X14433039Y-10842150D02*
X14413991Y-10813579D01*
X14413991Y-10813579D02*
X14404468Y-10794531D01*
X14404468Y-10794531D02*
X14394944Y-10765960D01*
X14394944Y-10765960D02*
X14385420Y-10718341D01*
X14385420Y-10718341D02*
X14385420Y-10680246D01*
X14385420Y-10680246D02*
X14394944Y-10632627D01*
X14394944Y-10632627D02*
X14404468Y-10604055D01*
X14404468Y-10604055D02*
X14413991Y-10585008D01*
X14413991Y-10585008D02*
X14433039Y-10556436D01*
X14433039Y-10556436D02*
X14442563Y-10546912D01*
X14604468Y-10575484D02*
X14566372Y-10575484D01*
X14566372Y-10575484D02*
X14547325Y-10585008D01*
X14547325Y-10585008D02*
X14537801Y-10594531D01*
X14537801Y-10594531D02*
X14518753Y-10623103D01*
X14518753Y-10623103D02*
X14509229Y-10661198D01*
X14509229Y-10661198D02*
X14509229Y-10737389D01*
X14509229Y-10737389D02*
X14518753Y-10756436D01*
X14518753Y-10756436D02*
X14528277Y-10765960D01*
X14528277Y-10765960D02*
X14547325Y-10775484D01*
X14547325Y-10775484D02*
X14585420Y-10775484D01*
X14585420Y-10775484D02*
X14604468Y-10765960D01*
X14604468Y-10765960D02*
X14613991Y-10756436D01*
X14613991Y-10756436D02*
X14623515Y-10737389D01*
X14623515Y-10737389D02*
X14623515Y-10689770D01*
X14623515Y-10689770D02*
X14613991Y-10670722D01*
X14613991Y-10670722D02*
X14604468Y-10661198D01*
X14604468Y-10661198D02*
X14585420Y-10651674D01*
X14585420Y-10651674D02*
X14547325Y-10651674D01*
X14547325Y-10651674D02*
X14528277Y-10661198D01*
X14528277Y-10661198D02*
X14518753Y-10670722D01*
X14518753Y-10670722D02*
X14509229Y-10689770D01*
X14861610Y-10775484D02*
X14861610Y-10575484D01*
X14947325Y-10775484D02*
X14947325Y-10670722D01*
X14947325Y-10670722D02*
X14937801Y-10651674D01*
X14937801Y-10651674D02*
X14918753Y-10642150D01*
X14918753Y-10642150D02*
X14890182Y-10642150D01*
X14890182Y-10642150D02*
X14871134Y-10651674D01*
X14871134Y-10651674D02*
X14861610Y-10661198D01*
X15071134Y-10775484D02*
X15052087Y-10765960D01*
X15052087Y-10765960D02*
X15042563Y-10756436D01*
X15042563Y-10756436D02*
X15033039Y-10737389D01*
X15033039Y-10737389D02*
X15033039Y-10680246D01*
X15033039Y-10680246D02*
X15042563Y-10661198D01*
X15042563Y-10661198D02*
X15052087Y-10651674D01*
X15052087Y-10651674D02*
X15071134Y-10642150D01*
X15071134Y-10642150D02*
X15099706Y-10642150D01*
X15099706Y-10642150D02*
X15118753Y-10651674D01*
X15118753Y-10651674D02*
X15128277Y-10661198D01*
X15128277Y-10661198D02*
X15137801Y-10680246D01*
X15137801Y-10680246D02*
X15137801Y-10737389D01*
X15137801Y-10737389D02*
X15128277Y-10756436D01*
X15128277Y-10756436D02*
X15118753Y-10765960D01*
X15118753Y-10765960D02*
X15099706Y-10775484D01*
X15099706Y-10775484D02*
X15071134Y-10775484D01*
X15252087Y-10775484D02*
X15233039Y-10765960D01*
X15233039Y-10765960D02*
X15223515Y-10746912D01*
X15223515Y-10746912D02*
X15223515Y-10575484D01*
X15404468Y-10765960D02*
X15385420Y-10775484D01*
X15385420Y-10775484D02*
X15347325Y-10775484D01*
X15347325Y-10775484D02*
X15328277Y-10765960D01*
X15328277Y-10765960D02*
X15318753Y-10746912D01*
X15318753Y-10746912D02*
X15318753Y-10670722D01*
X15318753Y-10670722D02*
X15328277Y-10651674D01*
X15328277Y-10651674D02*
X15347325Y-10642150D01*
X15347325Y-10642150D02*
X15385420Y-10642150D01*
X15385420Y-10642150D02*
X15404468Y-10651674D01*
X15404468Y-10651674D02*
X15413991Y-10670722D01*
X15413991Y-10670722D02*
X15413991Y-10689770D01*
X15413991Y-10689770D02*
X15318753Y-10708817D01*
X15490182Y-10765960D02*
X15509230Y-10775484D01*
X15509230Y-10775484D02*
X15547325Y-10775484D01*
X15547325Y-10775484D02*
X15566372Y-10765960D01*
X15566372Y-10765960D02*
X15575896Y-10746912D01*
X15575896Y-10746912D02*
X15575896Y-10737389D01*
X15575896Y-10737389D02*
X15566372Y-10718341D01*
X15566372Y-10718341D02*
X15547325Y-10708817D01*
X15547325Y-10708817D02*
X15518753Y-10708817D01*
X15518753Y-10708817D02*
X15499706Y-10699293D01*
X15499706Y-10699293D02*
X15490182Y-10680246D01*
X15490182Y-10680246D02*
X15490182Y-10670722D01*
X15490182Y-10670722D02*
X15499706Y-10651674D01*
X15499706Y-10651674D02*
X15518753Y-10642150D01*
X15518753Y-10642150D02*
X15547325Y-10642150D01*
X15547325Y-10642150D02*
X15566372Y-10651674D01*
X15642563Y-10851674D02*
X15652087Y-10842150D01*
X15652087Y-10842150D02*
X15671134Y-10813579D01*
X15671134Y-10813579D02*
X15680658Y-10794531D01*
X15680658Y-10794531D02*
X15690182Y-10765960D01*
X15690182Y-10765960D02*
X15699706Y-10718341D01*
X15699706Y-10718341D02*
X15699706Y-10680246D01*
X15699706Y-10680246D02*
X15690182Y-10632627D01*
X15690182Y-10632627D02*
X15680658Y-10604055D01*
X15680658Y-10604055D02*
X15671134Y-10585008D01*
X15671134Y-10585008D02*
X15652087Y-10556436D01*
X15652087Y-10556436D02*
X15642563Y-10546912D01*
D10*
X10817500Y-10898000D02*
X10817500Y-10998000D01*
X10767500Y-10948000D02*
X10867500Y-10948000D01*
D11*
X11233039Y-11039484D02*
X11118753Y-11039484D01*
X11175896Y-11039484D02*
X11175896Y-10839484D01*
X11175896Y-10839484D02*
X11156848Y-10868055D01*
X11156848Y-10868055D02*
X11137801Y-10887103D01*
X11137801Y-10887103D02*
X11118753Y-10896627D01*
X11318753Y-11020436D02*
X11328277Y-11029960D01*
X11328277Y-11029960D02*
X11318753Y-11039484D01*
X11318753Y-11039484D02*
X11309229Y-11029960D01*
X11309229Y-11029960D02*
X11318753Y-11020436D01*
X11318753Y-11020436D02*
X11318753Y-11039484D01*
X11452086Y-10839484D02*
X11471134Y-10839484D01*
X11471134Y-10839484D02*
X11490182Y-10849008D01*
X11490182Y-10849008D02*
X11499705Y-10858531D01*
X11499705Y-10858531D02*
X11509229Y-10877579D01*
X11509229Y-10877579D02*
X11518753Y-10915674D01*
X11518753Y-10915674D02*
X11518753Y-10963293D01*
X11518753Y-10963293D02*
X11509229Y-11001389D01*
X11509229Y-11001389D02*
X11499705Y-11020436D01*
X11499705Y-11020436D02*
X11490182Y-11029960D01*
X11490182Y-11029960D02*
X11471134Y-11039484D01*
X11471134Y-11039484D02*
X11452086Y-11039484D01*
X11452086Y-11039484D02*
X11433039Y-11029960D01*
X11433039Y-11029960D02*
X11423515Y-11020436D01*
X11423515Y-11020436D02*
X11413991Y-11001389D01*
X11413991Y-11001389D02*
X11404467Y-10963293D01*
X11404467Y-10963293D02*
X11404467Y-10915674D01*
X11404467Y-10915674D02*
X11413991Y-10877579D01*
X11413991Y-10877579D02*
X11423515Y-10858531D01*
X11423515Y-10858531D02*
X11433039Y-10849008D01*
X11433039Y-10849008D02*
X11452086Y-10839484D01*
X11642562Y-10839484D02*
X11661610Y-10839484D01*
X11661610Y-10839484D02*
X11680658Y-10849008D01*
X11680658Y-10849008D02*
X11690182Y-10858531D01*
X11690182Y-10858531D02*
X11699705Y-10877579D01*
X11699705Y-10877579D02*
X11709229Y-10915674D01*
X11709229Y-10915674D02*
X11709229Y-10963293D01*
X11709229Y-10963293D02*
X11699705Y-11001389D01*
X11699705Y-11001389D02*
X11690182Y-11020436D01*
X11690182Y-11020436D02*
X11680658Y-11029960D01*
X11680658Y-11029960D02*
X11661610Y-11039484D01*
X11661610Y-11039484D02*
X11642562Y-11039484D01*
X11642562Y-11039484D02*
X11623515Y-11029960D01*
X11623515Y-11029960D02*
X11613991Y-11020436D01*
X11613991Y-11020436D02*
X11604467Y-11001389D01*
X11604467Y-11001389D02*
X11594943Y-10963293D01*
X11594943Y-10963293D02*
X11594943Y-10915674D01*
X11594943Y-10915674D02*
X11604467Y-10877579D01*
X11604467Y-10877579D02*
X11613991Y-10858531D01*
X11613991Y-10858531D02*
X11623515Y-10849008D01*
X11623515Y-10849008D02*
X11642562Y-10839484D01*
X11833039Y-10839484D02*
X11852086Y-10839484D01*
X11852086Y-10839484D02*
X11871134Y-10849008D01*
X11871134Y-10849008D02*
X11880658Y-10858531D01*
X11880658Y-10858531D02*
X11890182Y-10877579D01*
X11890182Y-10877579D02*
X11899705Y-10915674D01*
X11899705Y-10915674D02*
X11899705Y-10963293D01*
X11899705Y-10963293D02*
X11890182Y-11001389D01*
X11890182Y-11001389D02*
X11880658Y-11020436D01*
X11880658Y-11020436D02*
X11871134Y-11029960D01*
X11871134Y-11029960D02*
X11852086Y-11039484D01*
X11852086Y-11039484D02*
X11833039Y-11039484D01*
X11833039Y-11039484D02*
X11813991Y-11029960D01*
X11813991Y-11029960D02*
X11804467Y-11020436D01*
X11804467Y-11020436D02*
X11794943Y-11001389D01*
X11794943Y-11001389D02*
X11785420Y-10963293D01*
X11785420Y-10963293D02*
X11785420Y-10915674D01*
X11785420Y-10915674D02*
X11794943Y-10877579D01*
X11794943Y-10877579D02*
X11804467Y-10858531D01*
X11804467Y-10858531D02*
X11813991Y-10849008D01*
X11813991Y-10849008D02*
X11833039Y-10839484D01*
X11985420Y-11039484D02*
X11985420Y-10906150D01*
X11985420Y-10925198D02*
X11994943Y-10915674D01*
X11994943Y-10915674D02*
X12013991Y-10906150D01*
X12013991Y-10906150D02*
X12042563Y-10906150D01*
X12042563Y-10906150D02*
X12061610Y-10915674D01*
X12061610Y-10915674D02*
X12071134Y-10934722D01*
X12071134Y-10934722D02*
X12071134Y-11039484D01*
X12071134Y-10934722D02*
X12080658Y-10915674D01*
X12080658Y-10915674D02*
X12099705Y-10906150D01*
X12099705Y-10906150D02*
X12128277Y-10906150D01*
X12128277Y-10906150D02*
X12147324Y-10915674D01*
X12147324Y-10915674D02*
X12156848Y-10934722D01*
X12156848Y-10934722D02*
X12156848Y-11039484D01*
X12252086Y-11039484D02*
X12252086Y-10906150D01*
X12252086Y-10925198D02*
X12261610Y-10915674D01*
X12261610Y-10915674D02*
X12280658Y-10906150D01*
X12280658Y-10906150D02*
X12309229Y-10906150D01*
X12309229Y-10906150D02*
X12328277Y-10915674D01*
X12328277Y-10915674D02*
X12337801Y-10934722D01*
X12337801Y-10934722D02*
X12337801Y-11039484D01*
X12337801Y-10934722D02*
X12347324Y-10915674D01*
X12347324Y-10915674D02*
X12366372Y-10906150D01*
X12366372Y-10906150D02*
X12394943Y-10906150D01*
X12394943Y-10906150D02*
X12413991Y-10915674D01*
X12413991Y-10915674D02*
X12423515Y-10934722D01*
X12423515Y-10934722D02*
X12423515Y-11039484D01*
X12813991Y-10829960D02*
X12642563Y-11087103D01*
X13071134Y-10839484D02*
X13090182Y-10839484D01*
X13090182Y-10839484D02*
X13109229Y-10849008D01*
X13109229Y-10849008D02*
X13118753Y-10858531D01*
X13118753Y-10858531D02*
X13128277Y-10877579D01*
X13128277Y-10877579D02*
X13137801Y-10915674D01*
X13137801Y-10915674D02*
X13137801Y-10963293D01*
X13137801Y-10963293D02*
X13128277Y-11001389D01*
X13128277Y-11001389D02*
X13118753Y-11020436D01*
X13118753Y-11020436D02*
X13109229Y-11029960D01*
X13109229Y-11029960D02*
X13090182Y-11039484D01*
X13090182Y-11039484D02*
X13071134Y-11039484D01*
X13071134Y-11039484D02*
X13052086Y-11029960D01*
X13052086Y-11029960D02*
X13042563Y-11020436D01*
X13042563Y-11020436D02*
X13033039Y-11001389D01*
X13033039Y-11001389D02*
X13023515Y-10963293D01*
X13023515Y-10963293D02*
X13023515Y-10915674D01*
X13023515Y-10915674D02*
X13033039Y-10877579D01*
X13033039Y-10877579D02*
X13042563Y-10858531D01*
X13042563Y-10858531D02*
X13052086Y-10849008D01*
X13052086Y-10849008D02*
X13071134Y-10839484D01*
X13223515Y-11020436D02*
X13233039Y-11029960D01*
X13233039Y-11029960D02*
X13223515Y-11039484D01*
X13223515Y-11039484D02*
X13213991Y-11029960D01*
X13213991Y-11029960D02*
X13223515Y-11020436D01*
X13223515Y-11020436D02*
X13223515Y-11039484D01*
X13356848Y-10839484D02*
X13375896Y-10839484D01*
X13375896Y-10839484D02*
X13394944Y-10849008D01*
X13394944Y-10849008D02*
X13404467Y-10858531D01*
X13404467Y-10858531D02*
X13413991Y-10877579D01*
X13413991Y-10877579D02*
X13423515Y-10915674D01*
X13423515Y-10915674D02*
X13423515Y-10963293D01*
X13423515Y-10963293D02*
X13413991Y-11001389D01*
X13413991Y-11001389D02*
X13404467Y-11020436D01*
X13404467Y-11020436D02*
X13394944Y-11029960D01*
X13394944Y-11029960D02*
X13375896Y-11039484D01*
X13375896Y-11039484D02*
X13356848Y-11039484D01*
X13356848Y-11039484D02*
X13337801Y-11029960D01*
X13337801Y-11029960D02*
X13328277Y-11020436D01*
X13328277Y-11020436D02*
X13318753Y-11001389D01*
X13318753Y-11001389D02*
X13309229Y-10963293D01*
X13309229Y-10963293D02*
X13309229Y-10915674D01*
X13309229Y-10915674D02*
X13318753Y-10877579D01*
X13318753Y-10877579D02*
X13328277Y-10858531D01*
X13328277Y-10858531D02*
X13337801Y-10849008D01*
X13337801Y-10849008D02*
X13356848Y-10839484D01*
X13490182Y-10839484D02*
X13613991Y-10839484D01*
X13613991Y-10839484D02*
X13547325Y-10915674D01*
X13547325Y-10915674D02*
X13575896Y-10915674D01*
X13575896Y-10915674D02*
X13594944Y-10925198D01*
X13594944Y-10925198D02*
X13604467Y-10934722D01*
X13604467Y-10934722D02*
X13613991Y-10953770D01*
X13613991Y-10953770D02*
X13613991Y-11001389D01*
X13613991Y-11001389D02*
X13604467Y-11020436D01*
X13604467Y-11020436D02*
X13594944Y-11029960D01*
X13594944Y-11029960D02*
X13575896Y-11039484D01*
X13575896Y-11039484D02*
X13518753Y-11039484D01*
X13518753Y-11039484D02*
X13499706Y-11029960D01*
X13499706Y-11029960D02*
X13490182Y-11020436D01*
X13709229Y-11039484D02*
X13747325Y-11039484D01*
X13747325Y-11039484D02*
X13766372Y-11029960D01*
X13766372Y-11029960D02*
X13775896Y-11020436D01*
X13775896Y-11020436D02*
X13794944Y-10991865D01*
X13794944Y-10991865D02*
X13804467Y-10953770D01*
X13804467Y-10953770D02*
X13804467Y-10877579D01*
X13804467Y-10877579D02*
X13794944Y-10858531D01*
X13794944Y-10858531D02*
X13785420Y-10849008D01*
X13785420Y-10849008D02*
X13766372Y-10839484D01*
X13766372Y-10839484D02*
X13728277Y-10839484D01*
X13728277Y-10839484D02*
X13709229Y-10849008D01*
X13709229Y-10849008D02*
X13699706Y-10858531D01*
X13699706Y-10858531D02*
X13690182Y-10877579D01*
X13690182Y-10877579D02*
X13690182Y-10925198D01*
X13690182Y-10925198D02*
X13699706Y-10944246D01*
X13699706Y-10944246D02*
X13709229Y-10953770D01*
X13709229Y-10953770D02*
X13728277Y-10963293D01*
X13728277Y-10963293D02*
X13766372Y-10963293D01*
X13766372Y-10963293D02*
X13785420Y-10953770D01*
X13785420Y-10953770D02*
X13794944Y-10944246D01*
X13794944Y-10944246D02*
X13804467Y-10925198D01*
X13975896Y-10906150D02*
X13975896Y-11039484D01*
X13928277Y-10829960D02*
X13880658Y-10972817D01*
X13880658Y-10972817D02*
X14004467Y-10972817D01*
X14071134Y-10839484D02*
X14071134Y-10877579D01*
X14147325Y-10839484D02*
X14147325Y-10877579D01*
X14442563Y-11115674D02*
X14433039Y-11106150D01*
X14433039Y-11106150D02*
X14413991Y-11077579D01*
X14413991Y-11077579D02*
X14404468Y-11058531D01*
X14404468Y-11058531D02*
X14394944Y-11029960D01*
X14394944Y-11029960D02*
X14385420Y-10982341D01*
X14385420Y-10982341D02*
X14385420Y-10944246D01*
X14385420Y-10944246D02*
X14394944Y-10896627D01*
X14394944Y-10896627D02*
X14404468Y-10868055D01*
X14404468Y-10868055D02*
X14413991Y-10849008D01*
X14413991Y-10849008D02*
X14433039Y-10820436D01*
X14433039Y-10820436D02*
X14442563Y-10810912D01*
X14613991Y-10839484D02*
X14518753Y-10839484D01*
X14518753Y-10839484D02*
X14509229Y-10934722D01*
X14509229Y-10934722D02*
X14518753Y-10925198D01*
X14518753Y-10925198D02*
X14537801Y-10915674D01*
X14537801Y-10915674D02*
X14585420Y-10915674D01*
X14585420Y-10915674D02*
X14604468Y-10925198D01*
X14604468Y-10925198D02*
X14613991Y-10934722D01*
X14613991Y-10934722D02*
X14623515Y-10953770D01*
X14623515Y-10953770D02*
X14623515Y-11001389D01*
X14623515Y-11001389D02*
X14613991Y-11020436D01*
X14613991Y-11020436D02*
X14604468Y-11029960D01*
X14604468Y-11029960D02*
X14585420Y-11039484D01*
X14585420Y-11039484D02*
X14537801Y-11039484D01*
X14537801Y-11039484D02*
X14518753Y-11029960D01*
X14518753Y-11029960D02*
X14509229Y-11020436D01*
X14794944Y-10906150D02*
X14794944Y-11039484D01*
X14747325Y-10829960D02*
X14699706Y-10972817D01*
X14699706Y-10972817D02*
X14823515Y-10972817D01*
X15052087Y-11039484D02*
X15052087Y-10839484D01*
X15137801Y-11039484D02*
X15137801Y-10934722D01*
X15137801Y-10934722D02*
X15128277Y-10915674D01*
X15128277Y-10915674D02*
X15109230Y-10906150D01*
X15109230Y-10906150D02*
X15080658Y-10906150D01*
X15080658Y-10906150D02*
X15061610Y-10915674D01*
X15061610Y-10915674D02*
X15052087Y-10925198D01*
X15261610Y-11039484D02*
X15242563Y-11029960D01*
X15242563Y-11029960D02*
X15233039Y-11020436D01*
X15233039Y-11020436D02*
X15223515Y-11001389D01*
X15223515Y-11001389D02*
X15223515Y-10944246D01*
X15223515Y-10944246D02*
X15233039Y-10925198D01*
X15233039Y-10925198D02*
X15242563Y-10915674D01*
X15242563Y-10915674D02*
X15261610Y-10906150D01*
X15261610Y-10906150D02*
X15290182Y-10906150D01*
X15290182Y-10906150D02*
X15309230Y-10915674D01*
X15309230Y-10915674D02*
X15318753Y-10925198D01*
X15318753Y-10925198D02*
X15328277Y-10944246D01*
X15328277Y-10944246D02*
X15328277Y-11001389D01*
X15328277Y-11001389D02*
X15318753Y-11020436D01*
X15318753Y-11020436D02*
X15309230Y-11029960D01*
X15309230Y-11029960D02*
X15290182Y-11039484D01*
X15290182Y-11039484D02*
X15261610Y-11039484D01*
X15442563Y-11039484D02*
X15423515Y-11029960D01*
X15423515Y-11029960D02*
X15413991Y-11010912D01*
X15413991Y-11010912D02*
X15413991Y-10839484D01*
X15594944Y-11029960D02*
X15575896Y-11039484D01*
X15575896Y-11039484D02*
X15537801Y-11039484D01*
X15537801Y-11039484D02*
X15518753Y-11029960D01*
X15518753Y-11029960D02*
X15509230Y-11010912D01*
X15509230Y-11010912D02*
X15509230Y-10934722D01*
X15509230Y-10934722D02*
X15518753Y-10915674D01*
X15518753Y-10915674D02*
X15537801Y-10906150D01*
X15537801Y-10906150D02*
X15575896Y-10906150D01*
X15575896Y-10906150D02*
X15594944Y-10915674D01*
X15594944Y-10915674D02*
X15604468Y-10934722D01*
X15604468Y-10934722D02*
X15604468Y-10953770D01*
X15604468Y-10953770D02*
X15509230Y-10972817D01*
X15680658Y-11029960D02*
X15699706Y-11039484D01*
X15699706Y-11039484D02*
X15737801Y-11039484D01*
X15737801Y-11039484D02*
X15756849Y-11029960D01*
X15756849Y-11029960D02*
X15766372Y-11010912D01*
X15766372Y-11010912D02*
X15766372Y-11001389D01*
X15766372Y-11001389D02*
X15756849Y-10982341D01*
X15756849Y-10982341D02*
X15737801Y-10972817D01*
X15737801Y-10972817D02*
X15709230Y-10972817D01*
X15709230Y-10972817D02*
X15690182Y-10963293D01*
X15690182Y-10963293D02*
X15680658Y-10944246D01*
X15680658Y-10944246D02*
X15680658Y-10934722D01*
X15680658Y-10934722D02*
X15690182Y-10915674D01*
X15690182Y-10915674D02*
X15709230Y-10906150D01*
X15709230Y-10906150D02*
X15737801Y-10906150D01*
X15737801Y-10906150D02*
X15756849Y-10915674D01*
X15833039Y-11115674D02*
X15842563Y-11106150D01*
X15842563Y-11106150D02*
X15861611Y-11077579D01*
X15861611Y-11077579D02*
X15871134Y-11058531D01*
X15871134Y-11058531D02*
X15880658Y-11029960D01*
X15880658Y-11029960D02*
X15890182Y-10982341D01*
X15890182Y-10982341D02*
X15890182Y-10944246D01*
X15890182Y-10944246D02*
X15880658Y-10896627D01*
X15880658Y-10896627D02*
X15871134Y-10868055D01*
X15871134Y-10868055D02*
X15861611Y-10849008D01*
X15861611Y-10849008D02*
X15842563Y-10820436D01*
X15842563Y-10820436D02*
X15833039Y-10810912D01*
M02*
