G04 #@! TF.GenerationSoftware,KiCad,Pcbnew,8.0.5*
G04 #@! TF.CreationDate,2024-10-01T14:56:49-07:00*
G04 #@! TF.ProjectId,gr25_nodes,67723235-5f6e-46f6-9465-732e6b696361,rev?*
G04 #@! TF.SameCoordinates,Original*
G04 #@! TF.FileFunction,Paste,Top*
G04 #@! TF.FilePolarity,Positive*
%FSLAX46Y46*%
G04 Gerber Fmt 4.6, Leading zero omitted, Abs format (unit mm)*
G04 Created by KiCad (PCBNEW 8.0.5) date 2024-10-01 14:56:49*
%MOMM*%
%LPD*%
G01*
G04 APERTURE LIST*
G04 Aperture macros list*
%AMRoundRect*
0 Rectangle with rounded corners*
0 $1 Rounding radius*
0 $2 $3 $4 $5 $6 $7 $8 $9 X,Y pos of 4 corners*
0 Add a 4 corners polygon primitive as box body*
4,1,4,$2,$3,$4,$5,$6,$7,$8,$9,$2,$3,0*
0 Add four circle primitives for the rounded corners*
1,1,$1+$1,$2,$3*
1,1,$1+$1,$4,$5*
1,1,$1+$1,$6,$7*
1,1,$1+$1,$8,$9*
0 Add four rect primitives between the rounded corners*
20,1,$1+$1,$2,$3,$4,$5,0*
20,1,$1+$1,$4,$5,$6,$7,0*
20,1,$1+$1,$6,$7,$8,$9,0*
20,1,$1+$1,$8,$9,$2,$3,0*%
G04 Aperture macros list end*
%ADD10RoundRect,0.218750X0.256250X-0.218750X0.256250X0.218750X-0.256250X0.218750X-0.256250X-0.218750X0*%
%ADD11RoundRect,0.250000X-0.475000X0.250000X-0.475000X-0.250000X0.475000X-0.250000X0.475000X0.250000X0*%
%ADD12RoundRect,0.375000X0.375000X-0.625000X0.375000X0.625000X-0.375000X0.625000X-0.375000X-0.625000X0*%
%ADD13RoundRect,0.500000X1.400000X-0.500000X1.400000X0.500000X-1.400000X0.500000X-1.400000X-0.500000X0*%
%ADD14RoundRect,0.135000X-0.185000X0.135000X-0.185000X-0.135000X0.185000X-0.135000X0.185000X0.135000X0*%
%ADD15R,2.000000X2.400000*%
%ADD16RoundRect,0.250000X-0.250000X-0.475000X0.250000X-0.475000X0.250000X0.475000X-0.250000X0.475000X0*%
%ADD17RoundRect,0.225000X-0.225000X-0.250000X0.225000X-0.250000X0.225000X0.250000X-0.225000X0.250000X0*%
%ADD18RoundRect,0.225000X0.225000X0.250000X-0.225000X0.250000X-0.225000X-0.250000X0.225000X-0.250000X0*%
%ADD19RoundRect,0.225000X-0.375000X0.225000X-0.375000X-0.225000X0.375000X-0.225000X0.375000X0.225000X0*%
%ADD20RoundRect,0.075000X-0.075000X0.662500X-0.075000X-0.662500X0.075000X-0.662500X0.075000X0.662500X0*%
%ADD21RoundRect,0.075000X-0.662500X0.075000X-0.662500X-0.075000X0.662500X-0.075000X0.662500X0.075000X0*%
%ADD22RoundRect,0.075000X0.075000X-0.700000X0.075000X0.700000X-0.075000X0.700000X-0.075000X-0.700000X0*%
%ADD23RoundRect,0.075000X0.700000X-0.075000X0.700000X0.075000X-0.700000X0.075000X-0.700000X-0.075000X0*%
%ADD24RoundRect,0.218750X-0.256250X0.218750X-0.256250X-0.218750X0.256250X-0.218750X0.256250X0.218750X0*%
%ADD25RoundRect,0.135000X-0.135000X-0.185000X0.135000X-0.185000X0.135000X0.185000X-0.135000X0.185000X0*%
G04 APERTURE END LIST*
D10*
G04 #@! TO.C,D1*
X123500000Y-31287501D03*
X123500000Y-29712499D03*
G04 #@! TD*
D11*
G04 #@! TO.C,C7*
X114400000Y-35250000D03*
X114400000Y-37150000D03*
G04 #@! TD*
D12*
G04 #@! TO.C,U4*
X116700000Y-36650000D03*
X119000000Y-36649999D03*
D13*
X119000000Y-30350001D03*
D12*
X121300000Y-36650000D03*
G04 #@! TD*
D14*
G04 #@! TO.C,R3*
X123500000Y-33240000D03*
X123500000Y-34260000D03*
G04 #@! TD*
D15*
G04 #@! TO.C,Y1*
X122512501Y-75750000D03*
X118812499Y-75750000D03*
G04 #@! TD*
D16*
G04 #@! TO.C,C6*
X123550000Y-36750000D03*
X125450000Y-36750000D03*
G04 #@! TD*
D17*
G04 #@! TO.C,C9*
X121612500Y-78500000D03*
X123162500Y-78500000D03*
G04 #@! TD*
D18*
G04 #@! TO.C,C10*
X119712500Y-78500000D03*
X118162500Y-78500000D03*
G04 #@! TD*
D19*
G04 #@! TO.C,D4*
X113400000Y-88050000D03*
X113400000Y-91350000D03*
G04 #@! TD*
D20*
G04 #@! TO.C,U5*
X122750000Y-80337500D03*
X122250000Y-80337500D03*
X121750000Y-80337500D03*
X121249999Y-80337500D03*
X120750000Y-80337500D03*
X120250000Y-80337500D03*
X119750000Y-80337500D03*
X119250000Y-80337500D03*
X118750001Y-80337500D03*
X118250000Y-80337500D03*
X117750000Y-80337500D03*
X117250000Y-80337500D03*
D21*
X115837500Y-81750000D03*
X115837500Y-82250000D03*
X115837500Y-82750000D03*
X115837500Y-83250001D03*
X115837500Y-83750000D03*
X115837500Y-84250000D03*
X115837500Y-84750000D03*
X115837500Y-85250000D03*
X115837500Y-85749999D03*
X115837500Y-86250000D03*
X115837500Y-86750000D03*
X115837500Y-87250000D03*
D20*
X117250000Y-88662500D03*
X117750000Y-88662500D03*
X118250000Y-88662500D03*
X118750001Y-88662500D03*
X119250000Y-88662500D03*
X119750000Y-88662500D03*
X120250000Y-88662500D03*
X120750000Y-88662500D03*
X121249999Y-88662500D03*
X121750000Y-88662500D03*
X122250000Y-88662500D03*
X122750000Y-88662500D03*
D21*
X124162500Y-87250000D03*
X124162500Y-86750000D03*
X124162500Y-86250000D03*
X124162500Y-85749999D03*
X124162500Y-85250000D03*
X124162500Y-84750000D03*
X124162500Y-84250000D03*
X124162500Y-83750000D03*
X124162500Y-83250001D03*
X124162500Y-82750000D03*
X124162500Y-82250000D03*
X124162500Y-81750000D03*
G04 #@! TD*
D14*
G04 #@! TO.C,R18*
X115000000Y-60190000D03*
X115000000Y-61210000D03*
G04 #@! TD*
D22*
G04 #@! TO.C,U1*
X116000001Y-72750000D03*
X116500000Y-72750000D03*
X117000000Y-72750000D03*
X117500000Y-72750000D03*
X118000000Y-72750000D03*
X118500001Y-72750000D03*
X119000000Y-72750000D03*
X119500000Y-72750000D03*
X120000000Y-72750000D03*
X120500000Y-72750000D03*
X120999999Y-72750000D03*
X121500000Y-72750000D03*
X122000000Y-72750000D03*
X122500000Y-72750000D03*
X123000000Y-72750000D03*
X123499999Y-72750000D03*
D23*
X125425000Y-70824999D03*
X125425000Y-70325000D03*
X125425000Y-69825000D03*
X125425000Y-69325000D03*
X125425000Y-68825000D03*
X125425000Y-68324999D03*
X125425000Y-67825000D03*
X125425000Y-67325000D03*
X125425000Y-66825000D03*
X125425000Y-66325000D03*
X125425000Y-65825001D03*
X125425000Y-65325000D03*
X125425000Y-64825000D03*
X125425000Y-64325000D03*
X125425000Y-63825000D03*
X125425000Y-63325001D03*
D22*
X123499999Y-61400000D03*
X123000000Y-61400000D03*
X122500000Y-61400000D03*
X122000000Y-61400000D03*
X121500000Y-61400000D03*
X120999999Y-61400000D03*
X120500000Y-61400000D03*
X120000000Y-61400000D03*
X119500000Y-61400000D03*
X119000000Y-61400000D03*
X118500001Y-61400000D03*
X118000000Y-61400000D03*
X117500000Y-61400000D03*
X117000000Y-61400000D03*
X116500000Y-61400000D03*
X116000001Y-61400000D03*
D23*
X114075000Y-63325001D03*
X114075000Y-63825000D03*
X114075000Y-64325000D03*
X114075000Y-64825000D03*
X114075000Y-65325000D03*
X114075000Y-65825001D03*
X114075000Y-66325000D03*
X114075000Y-66825000D03*
X114075000Y-67325000D03*
X114075000Y-67825000D03*
X114075000Y-68324999D03*
X114075000Y-68825000D03*
X114075000Y-69325000D03*
X114075000Y-69825000D03*
X114075000Y-70325000D03*
X114075000Y-70824999D03*
G04 #@! TD*
D24*
G04 #@! TO.C,D5*
X113600000Y-60512500D03*
X113600000Y-62087500D03*
G04 #@! TD*
D25*
G04 #@! TO.C,R12*
X117200000Y-90300000D03*
X118219998Y-90300000D03*
G04 #@! TD*
M02*
